%FSLAX46Y46*%
G04 Gerber Fmt 4.6, Leading zero omitted, Abs format (unit mm)*
G04 Created by KiCad (PCBNEW (2014-08-29 BZR 5106)-product) date Mon 17 Nov 2014 11:38:24 AM PST*
%MOMM*%
G01*
G04 APERTURE LIST*
%ADD10C,0.100000*%
%ADD11R,2.032000X2.032000*%
%ADD12O,2.032000X2.032000*%
%ADD13R,2.032000X1.727200*%
%ADD14O,2.032000X1.727200*%
%ADD15C,1.524000*%
%ADD16C,3.900000*%
%ADD17R,1.727200X2.032000*%
%ADD18O,1.727200X2.032000*%
%ADD19C,0.889000*%
%ADD20C,0.635000*%
%ADD21C,0.558800*%
%ADD22C,0.203200*%
%ADD23C,0.304800*%
%ADD24C,0.254000*%
%ADD25C,0.381000*%
G04 APERTURE END LIST*
D10*
D11*
X111125000Y-106045000D03*
D12*
X108585000Y-106045000D03*
D11*
X111125000Y-103568500D03*
D12*
X108585000Y-103568500D03*
D13*
X134620000Y-114300000D03*
D14*
X134620000Y-116840000D03*
X134620000Y-119380000D03*
X134620000Y-121920000D03*
D15*
X109220000Y-125095000D03*
X111760000Y-125095000D03*
X114300000Y-125095000D03*
X116840000Y-125095000D03*
X119380000Y-125095000D03*
X121920000Y-125095000D03*
X124460000Y-125095000D03*
X127000000Y-125095000D03*
X129540000Y-125095000D03*
X132080000Y-125095000D03*
D11*
X137160000Y-111760000D03*
D12*
X134620000Y-111760000D03*
D16*
X137160000Y-124460000D03*
X104140000Y-124460000D03*
X137160000Y-104140000D03*
X104140000Y-104140000D03*
D17*
X108585000Y-108839000D03*
D18*
X106045000Y-108839000D03*
X103505000Y-108839000D03*
D19*
X138430000Y-118745000D03*
X137160000Y-118745000D03*
X138430000Y-117475000D03*
X137160000Y-117475000D03*
X138430000Y-116205000D03*
X137160000Y-116205000D03*
X138430000Y-114935000D03*
X137160000Y-114935000D03*
X138430000Y-113665000D03*
X137160000Y-113665000D03*
D20*
X124587000Y-118364000D03*
X125222000Y-120650000D03*
X130683000Y-121666000D03*
X132548302Y-112434698D03*
X115064589Y-122986800D03*
X119662854Y-109254615D03*
X124206000Y-110744000D03*
X130175000Y-107569000D03*
X131318000Y-107569000D03*
X128378059Y-116840000D03*
X122301000Y-114300000D03*
X120650000Y-112649000D03*
X120650000Y-114300000D03*
X121158000Y-115570000D03*
X119380000Y-113792000D03*
X125349000Y-116840000D03*
X134366000Y-106045000D03*
X134239000Y-125349000D03*
X138303000Y-121793000D03*
X112839500Y-107696000D03*
X133350000Y-103936798D03*
X134366000Y-106997500D03*
X130806638Y-102293037D03*
X120904000Y-120650000D03*
X122936000Y-120650000D03*
X137795000Y-108712000D03*
X136906000Y-107950000D03*
X131783698Y-110405302D03*
X128143000Y-105537000D03*
X134620000Y-102997000D03*
X133794500Y-109093000D03*
X127154290Y-112471190D03*
X128587500Y-114173000D03*
X127508000Y-103124000D03*
X126365000Y-105791000D03*
X132651500Y-118808500D03*
X131127500Y-117665500D03*
X102489000Y-106807000D03*
X122428000Y-104648000D03*
D21*
X118682602Y-105537000D03*
X119380000Y-104648000D03*
D20*
X113982500Y-105791000D03*
X114858800Y-105765600D03*
X126428500Y-107950000D03*
X124142500Y-106426000D03*
X126492000Y-109435900D03*
X118881838Y-107052117D03*
X126674880Y-114630200D03*
X115138200Y-109118893D03*
X115189000Y-107706632D03*
X113822480Y-102834440D03*
X133477000Y-107823000D03*
X114173000Y-108712000D03*
X130592194Y-112866787D03*
X122383581Y-109918500D03*
X127635000Y-121793000D03*
X131191000Y-110998000D03*
X129603500Y-111887000D03*
X115570000Y-116522500D03*
X117549104Y-116065310D03*
X116332000Y-122047000D03*
X112649000Y-110871000D03*
X113665000Y-118364000D03*
X112522000Y-117475000D03*
X114808000Y-117475000D03*
D21*
X118872000Y-117348000D03*
X114808000Y-112141000D03*
X115443000Y-112928390D03*
X116594962Y-110672301D03*
X116662941Y-112922188D03*
D20*
X115697000Y-118364000D03*
X117221000Y-117729000D03*
X118618000Y-119126000D03*
X114300000Y-122047000D03*
X112141000Y-122047000D03*
X112141000Y-120015000D03*
X114427000Y-120142000D03*
X116332000Y-120142000D03*
X118618000Y-121158000D03*
X112141000Y-115570000D03*
X114300000Y-115633500D03*
X116078000Y-115189000D03*
X118427396Y-111378950D03*
X111252000Y-111633000D03*
X113351954Y-113660546D03*
X110236000Y-113157000D03*
X107823000Y-111252000D03*
X123703759Y-116001820D03*
X120660087Y-107967581D03*
X124320320Y-115316000D03*
X120970954Y-108832983D03*
X112909108Y-106860694D03*
X122682000Y-106680000D03*
D21*
X122553982Y-109119510D03*
X123571000Y-108458000D03*
D20*
X130746500Y-116903500D03*
X121397312Y-118370525D03*
X115570000Y-123698000D03*
D21*
X117101271Y-115301458D03*
D20*
X118110000Y-123647200D03*
D21*
X116806861Y-114598618D03*
D20*
X124460000Y-122047000D03*
D21*
X121412000Y-122047000D03*
X124463267Y-113582160D03*
D20*
X126974621Y-115500140D03*
D21*
X124121474Y-112415332D03*
D20*
X129540000Y-116586000D03*
X132080000Y-120586500D03*
X123190030Y-118336043D03*
X129565379Y-109738960D03*
X130810000Y-109728000D03*
X110744000Y-109728000D03*
X120967500Y-119126000D03*
X130111500Y-119684820D03*
X132368182Y-114947690D03*
X128841500Y-111442500D03*
X116078000Y-114173000D03*
X125476000Y-106489500D03*
D22*
X125036012Y-118364000D02*
X124587000Y-118364000D01*
X130429000Y-118364000D02*
X125036012Y-118364000D01*
X131127500Y-117665500D02*
X130429000Y-118364000D01*
X125671012Y-120650000D02*
X125222000Y-120650000D01*
X129667000Y-120650000D02*
X125671012Y-120650000D01*
X122936000Y-120650000D02*
X125222000Y-120650000D01*
X130683000Y-121666000D02*
X129667000Y-120650000D01*
X133350000Y-109986512D02*
X133350000Y-111075214D01*
X132548302Y-111876912D02*
X132548302Y-112434698D01*
X133350000Y-111075214D02*
X132548302Y-111876912D01*
X133794500Y-109093000D02*
X133794500Y-109542012D01*
X133794500Y-109542012D02*
X133350000Y-109986512D01*
X109220000Y-125095000D02*
X111328200Y-122986800D01*
X111328200Y-122986800D02*
X115064589Y-122986800D01*
X120650000Y-112649000D02*
X120650000Y-110241761D01*
X120650000Y-110241761D02*
X119980353Y-109572114D01*
X119980353Y-109572114D02*
X119662854Y-109254615D01*
X130175000Y-107569000D02*
X131318000Y-107569000D01*
X125349000Y-116840000D02*
X128378059Y-116840000D01*
X122301000Y-114300000D02*
X120650000Y-112649000D01*
X119380000Y-113792000D02*
X121158000Y-115570000D01*
X108585000Y-104608160D02*
X108585000Y-103505000D01*
X108585000Y-106045000D02*
X108585000Y-104608160D01*
D23*
X106934000Y-105981500D02*
X106997500Y-106045000D01*
X106934000Y-104394000D02*
X106934000Y-105981500D01*
X106870500Y-104330500D02*
X106934000Y-104394000D01*
X106870500Y-102679500D02*
X106870500Y-104330500D01*
X106997500Y-106045000D02*
X108585000Y-106045000D01*
D22*
X107315000Y-102235000D02*
X106870500Y-102679500D01*
X108585000Y-102235000D02*
X107315000Y-102235000D01*
X108585000Y-103568500D02*
X108585000Y-102235000D01*
D24*
X134239000Y-125349000D02*
X134239000Y-124587000D01*
X134239000Y-124587000D02*
X132969000Y-123317000D01*
X133807190Y-120573810D02*
X137083810Y-120573810D01*
X132969000Y-121412000D02*
X133807190Y-120573810D01*
X137083810Y-120573810D02*
X138303000Y-121793000D01*
D22*
X131318000Y-107569000D02*
X131889500Y-106997500D01*
X131889500Y-106997500D02*
X133916988Y-106997500D01*
X133916988Y-106997500D02*
X134366000Y-106997500D01*
X120904000Y-120650000D02*
X122936000Y-120650000D01*
X137668000Y-108712000D02*
X136906000Y-107950000D01*
X137795000Y-108712000D02*
X137668000Y-108712000D01*
X126504702Y-105270298D02*
X126365000Y-105410000D01*
X128016000Y-105270298D02*
X126504702Y-105270298D01*
X130806638Y-102479660D02*
X130806638Y-102293037D01*
X128016000Y-105270298D02*
X130806638Y-102479660D01*
X132450399Y-103936798D02*
X130806638Y-102293037D01*
X133350000Y-103936798D02*
X132450399Y-103936798D01*
X134620000Y-105791000D02*
X134366000Y-106045000D01*
X134620000Y-102997000D02*
X134620000Y-105791000D01*
X126365000Y-105859012D02*
X126365000Y-105410000D01*
X125774705Y-107111801D02*
X126365000Y-106521506D01*
X126365000Y-106521506D02*
X126365000Y-105859012D01*
X126365000Y-107569000D02*
X126428500Y-107632500D01*
X126365000Y-105410000D02*
X126365000Y-107569000D01*
X128270001Y-113855501D02*
X128587500Y-114173000D01*
X124206000Y-110744000D02*
X125158500Y-110744000D01*
X125158500Y-110744000D02*
X128270001Y-113855501D01*
X134620000Y-121920000D02*
X134467600Y-121920000D01*
X134467600Y-121920000D02*
X134442315Y-121894715D01*
D24*
X132969000Y-121894715D02*
X132969000Y-121412000D01*
D22*
X134442315Y-121894715D02*
X132969000Y-121894715D01*
D24*
X132969000Y-123317000D02*
X132969000Y-121894715D01*
D22*
X132270500Y-118808500D02*
X131127500Y-117665500D01*
X132651500Y-118808500D02*
X132270500Y-118808500D01*
X119126000Y-104394000D02*
X119380000Y-104648000D01*
X125050807Y-107111801D02*
X125774705Y-107111801D01*
X122904505Y-104965499D02*
X125050807Y-107111801D01*
X122428000Y-104648000D02*
X122745499Y-104965499D01*
X122745499Y-104965499D02*
X122904505Y-104965499D01*
X115526297Y-104410611D02*
X115526297Y-104394000D01*
X115628988Y-104513302D02*
X115526297Y-104410611D01*
X116078000Y-104513302D02*
X115628988Y-104513302D01*
X115526297Y-104394000D02*
X119126000Y-104394000D01*
X115316000Y-104394000D02*
X115526297Y-104394000D01*
X115628988Y-104513302D02*
X115260198Y-104513302D01*
X114299999Y-105473501D02*
X113982500Y-105791000D01*
X115260198Y-104513302D02*
X114663572Y-105109928D01*
X114663572Y-105109928D02*
X114299999Y-105473501D01*
X114663572Y-105109928D02*
X114858800Y-105305156D01*
X114858800Y-105305156D02*
X114858800Y-105316588D01*
X114858800Y-105316588D02*
X114858800Y-105765600D01*
D25*
X129921000Y-107315000D02*
X130175000Y-107569000D01*
X128397000Y-107315000D02*
X129921000Y-107315000D01*
D22*
X125984000Y-107950000D02*
X125412500Y-107378500D01*
X126428500Y-107950000D02*
X125984000Y-107950000D01*
D24*
X122428000Y-104711500D02*
X124142500Y-106426000D01*
X122428000Y-104648000D02*
X122428000Y-104711500D01*
D22*
X139065000Y-112623602D02*
X139115801Y-112572801D01*
X139065000Y-113198552D02*
X139065000Y-112623602D01*
X139174221Y-113307773D02*
X139065000Y-113198552D01*
X139065000Y-114468552D02*
X139065000Y-114131448D01*
X139174221Y-114577773D02*
X139065000Y-114468552D01*
X139174221Y-115292227D02*
X139174221Y-114577773D01*
X139065000Y-115401448D02*
X139174221Y-115292227D01*
X139174221Y-114022227D02*
X139174221Y-113307773D01*
X139065000Y-115570000D02*
X139065000Y-115401448D01*
X139065000Y-114131448D02*
X139174221Y-114022227D01*
X138430000Y-116205000D02*
X139065000Y-115570000D01*
X139065000Y-119786398D02*
X139115801Y-119837199D01*
X139174221Y-119102227D02*
X139065000Y-119211448D01*
X139174221Y-118387773D02*
X139174221Y-119102227D01*
X139065000Y-118278552D02*
X139174221Y-118387773D01*
X139065000Y-118110000D02*
X139065000Y-118278552D01*
X139065000Y-119211448D02*
X139065000Y-119786398D01*
X138430000Y-117475000D02*
X139065000Y-118110000D01*
X119662854Y-109254615D02*
X115273922Y-109254615D01*
X112888232Y-107706632D02*
X114739988Y-107706632D01*
X112877600Y-107696000D02*
X112888232Y-107706632D01*
X115273922Y-109254615D02*
X115138200Y-109118893D01*
X114739988Y-107706632D02*
X115189000Y-107706632D01*
X113504981Y-102516941D02*
X113822480Y-102834440D01*
X108585000Y-102235000D02*
X113223040Y-102235000D01*
X113223040Y-102235000D02*
X113504981Y-102516941D01*
D25*
X132588000Y-108712000D02*
X133477000Y-107823000D01*
X132588000Y-108712000D02*
X132588000Y-110870981D01*
X130909693Y-112549288D02*
X130592194Y-112866787D01*
X132588000Y-110870981D02*
X130909693Y-112549288D01*
D22*
X121969183Y-109504102D02*
X121969183Y-108067337D01*
X122383581Y-109918500D02*
X121969183Y-109504102D01*
D25*
X127000000Y-121793000D02*
X127127000Y-121793000D01*
X118884701Y-123939299D02*
X124853701Y-123939299D01*
X117805200Y-124409200D02*
X118414800Y-124409200D01*
X116344701Y-123939299D02*
X117335299Y-123939299D01*
X115874799Y-124409201D02*
X116344701Y-123939299D01*
X127127000Y-121793000D02*
X127635000Y-121793000D01*
X124853701Y-123939299D02*
X127000000Y-121793000D01*
X117335299Y-123939299D02*
X117805200Y-124409200D01*
X115265201Y-124409201D02*
X115874799Y-124409201D01*
X114795299Y-123939299D02*
X115265201Y-124409201D01*
X112915701Y-123939299D02*
X114795299Y-123939299D01*
X118414800Y-124409200D02*
X118884701Y-123939299D01*
X111760000Y-125095000D02*
X112915701Y-123939299D01*
X125595379Y-108704379D02*
X132580379Y-108704379D01*
X122295578Y-107740942D02*
X124631942Y-107740942D01*
X121969183Y-108067337D02*
X122295578Y-107740942D01*
X132580379Y-108704379D02*
X132588000Y-108712000D01*
X124631942Y-107740942D02*
X125595379Y-108704379D01*
D22*
X137575647Y-119430801D02*
X137744199Y-119430801D01*
X137517227Y-119489221D02*
X137575647Y-119430801D01*
X136802773Y-119489221D02*
X137517227Y-119489221D01*
X136415779Y-119016779D02*
X136415779Y-119102227D01*
X136415779Y-119102227D02*
X136802773Y-119489221D01*
X136347220Y-118948220D02*
X136415779Y-119016779D01*
X135869028Y-113120786D02*
X136347220Y-113598978D01*
X138049001Y-119125999D02*
X138430000Y-118745000D01*
X136347220Y-113598978D02*
X136347220Y-118948220D01*
X130964286Y-113120786D02*
X135869028Y-113120786D01*
X130710287Y-112866787D02*
X130964286Y-113120786D01*
X137744199Y-119430801D02*
X138049001Y-119125999D01*
X130592194Y-112866787D02*
X130710287Y-112866787D01*
D25*
X114173000Y-108712000D02*
X114472247Y-108412753D01*
X114472247Y-108412753D02*
X119023856Y-108412753D01*
X119023856Y-108412753D02*
X120180229Y-107256380D01*
X121158226Y-107256380D02*
X121969183Y-108067337D01*
X120180229Y-107256380D02*
X121158226Y-107256380D01*
D22*
X129920999Y-111569501D02*
X129603500Y-111887000D01*
X130492500Y-110998000D02*
X129920999Y-111569501D01*
X131191000Y-110998000D02*
X130492500Y-110998000D01*
X113919000Y-110871000D02*
X113919000Y-111252000D01*
X113919000Y-111252000D02*
X114808000Y-112141000D01*
X112649000Y-110871000D02*
X113919000Y-110871000D01*
X112522000Y-117475000D02*
X112776000Y-117475000D01*
X112776000Y-117475000D02*
X113665000Y-118364000D01*
X117709592Y-116058592D02*
X117314461Y-116058592D01*
X117314461Y-116058592D02*
X116533053Y-116840000D01*
X115443000Y-112928390D02*
X115443000Y-112776000D01*
X115443000Y-112776000D02*
X114808000Y-112141000D01*
X116637551Y-112903000D02*
X116656739Y-112922188D01*
X116594962Y-110672301D02*
X116594962Y-112854209D01*
X116594962Y-112854209D02*
X116662941Y-112922188D01*
X116656739Y-112922188D02*
X116662941Y-112922188D01*
X115697000Y-118364000D02*
X114808000Y-117475000D01*
X116332000Y-117729000D02*
X115697000Y-118364000D01*
X117221000Y-117729000D02*
X116332000Y-117729000D01*
X117221000Y-117729000D02*
X118618000Y-119126000D01*
X114300000Y-122047000D02*
X112141000Y-122047000D01*
X112717012Y-120142000D02*
X114427000Y-120142000D01*
X112590012Y-120015000D02*
X112717012Y-120142000D01*
X112141000Y-120015000D02*
X112590012Y-120015000D01*
X116014499Y-118681499D02*
X115697000Y-118364000D01*
X116649499Y-119316499D02*
X116014499Y-118681499D01*
X116649499Y-119824501D02*
X116649499Y-119316499D01*
X116332000Y-120142000D02*
X116649499Y-119824501D01*
X116332000Y-122047000D02*
X117729000Y-122047000D01*
X117729000Y-122047000D02*
X118300501Y-121475499D01*
X118300501Y-121475499D02*
X118618000Y-121158000D01*
X114503211Y-113207789D02*
X112141000Y-115570000D01*
X115163601Y-113207789D02*
X114503211Y-113207789D01*
X115443000Y-112928390D02*
X115163601Y-113207789D01*
X115633500Y-115633500D02*
X116078000Y-115189000D01*
X114300000Y-115633500D02*
X115633500Y-115633500D01*
X111252000Y-111633000D02*
X113279546Y-113660546D01*
X113279546Y-113660546D02*
X113351954Y-113660546D01*
X110236000Y-113157000D02*
X108331000Y-111252000D01*
X108331000Y-111252000D02*
X108272012Y-111252000D01*
X108272012Y-111252000D02*
X107823000Y-111252000D01*
X120660087Y-107967581D02*
X120342588Y-108285080D01*
X120342588Y-109158812D02*
X121157979Y-109974203D01*
X120342588Y-108285080D02*
X120342588Y-109158812D01*
X121157979Y-109974203D02*
X121157980Y-112271230D01*
X121157980Y-112271230D02*
X123698000Y-114811250D01*
X123698000Y-114811250D02*
X123698000Y-115996061D01*
X123698000Y-115996061D02*
X123703759Y-116001820D01*
X121564389Y-112102889D02*
X124320320Y-114858820D01*
X121288453Y-109150482D02*
X121288453Y-109453964D01*
X121288453Y-109453964D02*
X121564389Y-109729900D01*
X120970954Y-108832983D02*
X121288453Y-109150482D01*
X121564389Y-109729900D02*
X121564389Y-112102889D01*
X124320320Y-114866988D02*
X124320320Y-115316000D01*
X124320320Y-114858820D02*
X124320320Y-114866988D01*
D25*
X113358120Y-106860694D02*
X112909108Y-106860694D01*
X114943792Y-106860694D02*
X113358120Y-106860694D01*
X115535966Y-106268520D02*
X114943792Y-106860694D01*
X122270520Y-106268520D02*
X115535966Y-106268520D01*
X122682000Y-106680000D02*
X122270520Y-106268520D01*
D22*
X126029496Y-110492550D02*
X124656456Y-109119510D01*
X132422494Y-116840000D02*
X126075045Y-110492551D01*
X122949113Y-109119510D02*
X122553982Y-109119510D01*
X126075045Y-110492551D02*
X126029496Y-110492550D01*
X134620000Y-116840000D02*
X132422494Y-116840000D01*
X124656456Y-109119510D02*
X122949113Y-109119510D01*
X123966131Y-108458000D02*
X123571000Y-108458000D01*
X131727244Y-115570000D02*
X126248465Y-110091221D01*
X126248465Y-110091221D02*
X126195733Y-110091221D01*
X135940810Y-118211590D02*
X135940810Y-116356029D01*
X134772400Y-119380000D02*
X135940810Y-118211590D01*
X135154781Y-115570000D02*
X131727244Y-115570000D01*
X134620000Y-119380000D02*
X134772400Y-119380000D01*
X135940810Y-116356029D02*
X135154781Y-115570000D01*
X126195733Y-110091221D02*
X124562512Y-108458000D01*
X124562512Y-108458000D02*
X123966131Y-108458000D01*
X129936258Y-117713742D02*
X122054095Y-117713742D01*
X121714811Y-118053026D02*
X121397312Y-118370525D01*
X130746500Y-116903500D02*
X129936258Y-117713742D01*
X122054095Y-117713742D02*
X121714811Y-118053026D01*
X118095458Y-115301458D02*
X117101271Y-115301458D01*
X119507000Y-116713000D02*
X118095458Y-115301458D01*
X119507000Y-121285000D02*
X119507000Y-116713000D01*
X117411500Y-123380500D02*
X119507000Y-121285000D01*
X115887500Y-123380500D02*
X117411500Y-123380500D01*
X115570000Y-123698000D02*
X115887500Y-123380500D01*
X118110000Y-123647200D02*
X118111546Y-123647200D01*
X118111546Y-123647200D02*
X118632245Y-123126501D01*
X118632245Y-123126501D02*
X118681499Y-123126501D01*
X118745000Y-123190000D02*
X118681499Y-123126501D01*
X119913409Y-116490909D02*
X119913409Y-121894591D01*
X118021118Y-114598618D02*
X119913409Y-116490909D01*
X119913409Y-121894591D02*
X118681499Y-123126501D01*
X116806861Y-114598618D02*
X118021118Y-114598618D01*
X121412000Y-122047000D02*
X124460000Y-122047000D01*
X126381247Y-115500140D02*
X126525609Y-115500140D01*
X124463267Y-113582160D02*
X126381247Y-115500140D01*
X126525609Y-115500140D02*
X126974621Y-115500140D01*
X124516605Y-112415332D02*
X124121474Y-112415332D01*
X125369332Y-112415332D02*
X124516605Y-112415332D01*
X129540000Y-116586000D02*
X125369332Y-112415332D01*
X132080000Y-120586500D02*
X130556000Y-119062500D01*
X130556000Y-119062500D02*
X123888500Y-119062500D01*
X123888500Y-119062500D02*
X123190030Y-118364030D01*
X123190030Y-118364030D02*
X123190030Y-118336043D01*
X129667000Y-109728000D02*
X130810000Y-109728000D01*
X129565379Y-109738960D02*
X130799040Y-109738960D01*
X130799040Y-109738960D02*
X130810000Y-109728000D01*
X111061499Y-110045499D02*
X110744000Y-109728000D01*
X118618000Y-113411000D02*
X119634000Y-112395000D01*
X118046499Y-110045499D02*
X111061499Y-110045499D01*
X120967500Y-119126000D02*
X120772202Y-118930702D01*
X120772202Y-116073202D02*
X118618000Y-113919000D01*
X119634000Y-111633000D02*
X118046499Y-110045499D01*
X120772202Y-118930702D02*
X120772202Y-116073202D01*
X118618000Y-113919000D02*
X118618000Y-113411000D01*
X119634000Y-112395000D02*
X119634000Y-111633000D01*
X116078000Y-114173000D02*
X116395499Y-113855501D01*
X116395499Y-113855501D02*
X117919501Y-113855501D01*
X120319819Y-116255819D02*
X120319819Y-119367319D01*
X117919501Y-113855501D02*
X120319819Y-116255819D01*
X120319819Y-119367319D02*
X120713500Y-119761000D01*
X120713500Y-119761000D02*
X130035320Y-119761000D01*
X130035320Y-119761000D02*
X130111500Y-119684820D01*
X131919170Y-114947690D02*
X132368182Y-114947690D01*
X128841500Y-112109506D02*
X131679684Y-114947690D01*
X128841500Y-111442500D02*
X128841500Y-112109506D01*
X131679684Y-114947690D02*
X131919170Y-114947690D01*
D25*
X112522000Y-103568500D02*
X112547401Y-103593901D01*
X111125000Y-103568500D02*
X112522000Y-103568500D01*
X112547401Y-103593901D02*
X122580401Y-103593901D01*
X122580401Y-103593901D02*
X125158501Y-106172001D01*
X125158501Y-106172001D02*
X125476000Y-106489500D01*
D22*
G36*
X119227600Y-112226664D02*
X118330632Y-113123632D01*
X118242535Y-113255477D01*
X118211600Y-113411000D01*
X118211600Y-113546716D01*
X118196866Y-113561449D01*
X118075024Y-113480036D01*
X117919501Y-113449101D01*
X116395499Y-113449101D01*
X116239976Y-113480036D01*
X116134148Y-113550748D01*
X115954760Y-113550592D01*
X115725956Y-113645132D01*
X115550747Y-113820035D01*
X115455808Y-114048674D01*
X115455592Y-114296240D01*
X115550132Y-114525044D01*
X115725035Y-114700253D01*
X115953674Y-114795192D01*
X116201240Y-114795408D01*
X116248072Y-114776057D01*
X116311312Y-114929108D01*
X116475506Y-115093590D01*
X116543329Y-115121752D01*
X116517173Y-115184744D01*
X116516970Y-115417153D01*
X116605722Y-115631948D01*
X116769916Y-115796430D01*
X116984557Y-115885556D01*
X117216966Y-115885759D01*
X117431761Y-115797007D01*
X117521066Y-115707858D01*
X117927122Y-115707858D01*
X119100600Y-116881336D01*
X119100600Y-121039716D01*
X117813916Y-122326400D01*
X116332000Y-122326400D01*
X111861600Y-122326400D01*
X111861600Y-122174000D01*
X111861600Y-121920000D01*
X111861600Y-115790611D01*
X110054662Y-113338338D01*
X107615168Y-111540816D01*
X104709190Y-110662264D01*
X104709190Y-109182125D01*
X104635300Y-108991400D01*
X103657400Y-108991400D01*
X103657400Y-110111379D01*
X103844753Y-110162304D01*
X104221628Y-109977753D01*
X104544539Y-109628430D01*
X104709190Y-109182125D01*
X104709190Y-110662264D01*
X103352600Y-110252133D01*
X103352600Y-110111379D01*
X103352600Y-108991400D01*
X102374700Y-108991400D01*
X102300810Y-109182125D01*
X102465461Y-109628430D01*
X102788372Y-109977753D01*
X103165247Y-110162304D01*
X103352600Y-110111379D01*
X103352600Y-110252133D01*
X102209600Y-109906575D01*
X102209600Y-107543600D01*
X103108263Y-107543600D01*
X102788372Y-107700247D01*
X102465461Y-108049570D01*
X102300810Y-108495875D01*
X102374700Y-108686600D01*
X103352600Y-108686600D01*
X103352600Y-108666600D01*
X103657400Y-108666600D01*
X103657400Y-108686600D01*
X104635300Y-108686600D01*
X104709190Y-108495875D01*
X104544539Y-108049570D01*
X104221628Y-107700247D01*
X103901736Y-107543600D01*
X105787217Y-107543600D01*
X105597873Y-107581263D01*
X105218816Y-107834540D01*
X104965539Y-108213597D01*
X104876600Y-108660724D01*
X104876600Y-109017276D01*
X104965539Y-109464403D01*
X105218816Y-109843460D01*
X105597873Y-110096737D01*
X106045000Y-110185676D01*
X106492127Y-110096737D01*
X106871184Y-109843460D01*
X107124461Y-109464403D01*
X107213400Y-109017276D01*
X107213400Y-108660724D01*
X107124461Y-108213597D01*
X106871184Y-107834540D01*
X106492127Y-107581263D01*
X106302782Y-107543600D01*
X107599450Y-107543600D01*
X107548745Y-107564603D01*
X107463003Y-107650344D01*
X107416600Y-107762371D01*
X107416600Y-107883628D01*
X107416600Y-109915628D01*
X107463003Y-110027655D01*
X107548744Y-110113397D01*
X107660771Y-110159800D01*
X107782028Y-110159800D01*
X109509228Y-110159800D01*
X109621255Y-110113397D01*
X109706997Y-110027656D01*
X109753400Y-109915629D01*
X109753400Y-109794372D01*
X109753400Y-107762372D01*
X109706997Y-107650345D01*
X109621256Y-107564603D01*
X109570550Y-107543600D01*
X112166400Y-107543600D01*
X112166400Y-108373084D01*
X112217200Y-108423884D01*
X112217200Y-108508800D01*
X112302116Y-108508800D01*
X112352916Y-108559600D01*
X113562465Y-108559600D01*
X113550808Y-108587674D01*
X113550592Y-108835240D01*
X113645132Y-109064044D01*
X113820035Y-109239253D01*
X114048674Y-109334192D01*
X114296240Y-109334408D01*
X114452400Y-109269883D01*
X114452400Y-109516084D01*
X114575415Y-109639099D01*
X111366378Y-109639099D01*
X111366408Y-109604760D01*
X111271868Y-109375956D01*
X111096965Y-109200747D01*
X110868326Y-109105808D01*
X110620760Y-109105592D01*
X110391956Y-109200132D01*
X110216747Y-109375035D01*
X110121808Y-109603674D01*
X110121592Y-109851240D01*
X110216132Y-110080044D01*
X110391035Y-110255253D01*
X110619674Y-110350192D01*
X110800295Y-110350349D01*
X110905976Y-110420964D01*
X111061499Y-110451899D01*
X117878162Y-110451899D01*
X119227600Y-111801336D01*
X119227600Y-112226664D01*
X119227600Y-112226664D01*
G37*
X119227600Y-112226664D02*
X118330632Y-113123632D01*
X118242535Y-113255477D01*
X118211600Y-113411000D01*
X118211600Y-113546716D01*
X118196866Y-113561449D01*
X118075024Y-113480036D01*
X117919501Y-113449101D01*
X116395499Y-113449101D01*
X116239976Y-113480036D01*
X116134148Y-113550748D01*
X115954760Y-113550592D01*
X115725956Y-113645132D01*
X115550747Y-113820035D01*
X115455808Y-114048674D01*
X115455592Y-114296240D01*
X115550132Y-114525044D01*
X115725035Y-114700253D01*
X115953674Y-114795192D01*
X116201240Y-114795408D01*
X116248072Y-114776057D01*
X116311312Y-114929108D01*
X116475506Y-115093590D01*
X116543329Y-115121752D01*
X116517173Y-115184744D01*
X116516970Y-115417153D01*
X116605722Y-115631948D01*
X116769916Y-115796430D01*
X116984557Y-115885556D01*
X117216966Y-115885759D01*
X117431761Y-115797007D01*
X117521066Y-115707858D01*
X117927122Y-115707858D01*
X119100600Y-116881336D01*
X119100600Y-121039716D01*
X117813916Y-122326400D01*
X116332000Y-122326400D01*
X111861600Y-122326400D01*
X111861600Y-122174000D01*
X111861600Y-121920000D01*
X111861600Y-115790611D01*
X110054662Y-113338338D01*
X107615168Y-111540816D01*
X104709190Y-110662264D01*
X104709190Y-109182125D01*
X104635300Y-108991400D01*
X103657400Y-108991400D01*
X103657400Y-110111379D01*
X103844753Y-110162304D01*
X104221628Y-109977753D01*
X104544539Y-109628430D01*
X104709190Y-109182125D01*
X104709190Y-110662264D01*
X103352600Y-110252133D01*
X103352600Y-110111379D01*
X103352600Y-108991400D01*
X102374700Y-108991400D01*
X102300810Y-109182125D01*
X102465461Y-109628430D01*
X102788372Y-109977753D01*
X103165247Y-110162304D01*
X103352600Y-110111379D01*
X103352600Y-110252133D01*
X102209600Y-109906575D01*
X102209600Y-107543600D01*
X103108263Y-107543600D01*
X102788372Y-107700247D01*
X102465461Y-108049570D01*
X102300810Y-108495875D01*
X102374700Y-108686600D01*
X103352600Y-108686600D01*
X103352600Y-108666600D01*
X103657400Y-108666600D01*
X103657400Y-108686600D01*
X104635300Y-108686600D01*
X104709190Y-108495875D01*
X104544539Y-108049570D01*
X104221628Y-107700247D01*
X103901736Y-107543600D01*
X105787217Y-107543600D01*
X105597873Y-107581263D01*
X105218816Y-107834540D01*
X104965539Y-108213597D01*
X104876600Y-108660724D01*
X104876600Y-109017276D01*
X104965539Y-109464403D01*
X105218816Y-109843460D01*
X105597873Y-110096737D01*
X106045000Y-110185676D01*
X106492127Y-110096737D01*
X106871184Y-109843460D01*
X107124461Y-109464403D01*
X107213400Y-109017276D01*
X107213400Y-108660724D01*
X107124461Y-108213597D01*
X106871184Y-107834540D01*
X106492127Y-107581263D01*
X106302782Y-107543600D01*
X107599450Y-107543600D01*
X107548745Y-107564603D01*
X107463003Y-107650344D01*
X107416600Y-107762371D01*
X107416600Y-107883628D01*
X107416600Y-109915628D01*
X107463003Y-110027655D01*
X107548744Y-110113397D01*
X107660771Y-110159800D01*
X107782028Y-110159800D01*
X109509228Y-110159800D01*
X109621255Y-110113397D01*
X109706997Y-110027656D01*
X109753400Y-109915629D01*
X109753400Y-109794372D01*
X109753400Y-107762372D01*
X109706997Y-107650345D01*
X109621256Y-107564603D01*
X109570550Y-107543600D01*
X112166400Y-107543600D01*
X112166400Y-108373084D01*
X112217200Y-108423884D01*
X112217200Y-108508800D01*
X112302116Y-108508800D01*
X112352916Y-108559600D01*
X113562465Y-108559600D01*
X113550808Y-108587674D01*
X113550592Y-108835240D01*
X113645132Y-109064044D01*
X113820035Y-109239253D01*
X114048674Y-109334192D01*
X114296240Y-109334408D01*
X114452400Y-109269883D01*
X114452400Y-109516084D01*
X114575415Y-109639099D01*
X111366378Y-109639099D01*
X111366408Y-109604760D01*
X111271868Y-109375956D01*
X111096965Y-109200747D01*
X110868326Y-109105808D01*
X110620760Y-109105592D01*
X110391956Y-109200132D01*
X110216747Y-109375035D01*
X110121808Y-109603674D01*
X110121592Y-109851240D01*
X110216132Y-110080044D01*
X110391035Y-110255253D01*
X110619674Y-110350192D01*
X110800295Y-110350349D01*
X110905976Y-110420964D01*
X111061499Y-110451899D01*
X117878162Y-110451899D01*
X119227600Y-111801336D01*
X119227600Y-112226664D01*
G36*
X108757400Y-106197400D02*
X108737400Y-106197400D01*
X108737400Y-106217400D01*
X108432600Y-106217400D01*
X108432600Y-106197400D01*
X108432600Y-105892600D01*
X108432600Y-104842720D01*
X108432600Y-104770780D01*
X108432600Y-103720900D01*
X107311386Y-103720900D01*
X107262516Y-103932261D01*
X107392634Y-104246427D01*
X107742829Y-104651122D01*
X108053214Y-104806750D01*
X107742829Y-104962378D01*
X107392634Y-105367073D01*
X107262516Y-105681239D01*
X107311386Y-105892600D01*
X108432600Y-105892600D01*
X108432600Y-106197400D01*
X107311386Y-106197400D01*
X107262516Y-106408761D01*
X107392634Y-106722927D01*
X107707158Y-107086400D01*
X102209600Y-107086400D01*
X102209600Y-105372592D01*
X102227359Y-105415573D01*
X102861091Y-106050412D01*
X103689525Y-106394408D01*
X104586540Y-106395190D01*
X105415573Y-106052641D01*
X106050412Y-105418909D01*
X106394408Y-104590475D01*
X106395190Y-103693460D01*
X106052641Y-102864427D01*
X105418909Y-102229588D01*
X105370772Y-102209600D01*
X108432598Y-102209600D01*
X108432598Y-102294279D01*
X108221237Y-102246003D01*
X107742829Y-102485878D01*
X107392634Y-102890573D01*
X107262516Y-103204739D01*
X107311386Y-103416100D01*
X108432600Y-103416100D01*
X108432600Y-103396100D01*
X108737400Y-103396100D01*
X108737400Y-103416100D01*
X108757400Y-103416100D01*
X108757400Y-103720900D01*
X108737400Y-103720900D01*
X108737400Y-104770780D01*
X108737400Y-104842720D01*
X108737400Y-105892600D01*
X108757400Y-105892600D01*
X108757400Y-106197400D01*
X108757400Y-106197400D01*
G37*
X108757400Y-106197400D02*
X108737400Y-106197400D01*
X108737400Y-106217400D01*
X108432600Y-106217400D01*
X108432600Y-106197400D01*
X108432600Y-105892600D01*
X108432600Y-104842720D01*
X108432600Y-104770780D01*
X108432600Y-103720900D01*
X107311386Y-103720900D01*
X107262516Y-103932261D01*
X107392634Y-104246427D01*
X107742829Y-104651122D01*
X108053214Y-104806750D01*
X107742829Y-104962378D01*
X107392634Y-105367073D01*
X107262516Y-105681239D01*
X107311386Y-105892600D01*
X108432600Y-105892600D01*
X108432600Y-106197400D01*
X107311386Y-106197400D01*
X107262516Y-106408761D01*
X107392634Y-106722927D01*
X107707158Y-107086400D01*
X102209600Y-107086400D01*
X102209600Y-105372592D01*
X102227359Y-105415573D01*
X102861091Y-106050412D01*
X103689525Y-106394408D01*
X104586540Y-106395190D01*
X105415573Y-106052641D01*
X106050412Y-105418909D01*
X106394408Y-104590475D01*
X106395190Y-103693460D01*
X106052641Y-102864427D01*
X105418909Y-102229588D01*
X105370772Y-102209600D01*
X108432598Y-102209600D01*
X108432598Y-102294279D01*
X108221237Y-102246003D01*
X107742829Y-102485878D01*
X107392634Y-102890573D01*
X107262516Y-103204739D01*
X107311386Y-103416100D01*
X108432600Y-103416100D01*
X108432600Y-103396100D01*
X108737400Y-103396100D01*
X108737400Y-103416100D01*
X108757400Y-103416100D01*
X108757400Y-103720900D01*
X108737400Y-103720900D01*
X108737400Y-104770780D01*
X108737400Y-104842720D01*
X108737400Y-105892600D01*
X108757400Y-105892600D01*
X108757400Y-106197400D01*
G36*
X120166453Y-106763820D02*
X119990685Y-106798782D01*
X119829999Y-106906150D01*
X118818695Y-107917453D01*
X114472247Y-107917453D01*
X114282703Y-107955155D01*
X114122017Y-108062523D01*
X114094908Y-108089631D01*
X114049760Y-108089592D01*
X114018762Y-108102400D01*
X112623600Y-108102400D01*
X112623600Y-107415957D01*
X112784782Y-107482886D01*
X113032348Y-107483102D01*
X113261152Y-107388562D01*
X113293776Y-107355994D01*
X113358120Y-107355994D01*
X114943792Y-107355994D01*
X115133335Y-107318292D01*
X115133336Y-107318292D01*
X115294022Y-107210924D01*
X115741126Y-106763820D01*
X120166453Y-106763820D01*
X120166453Y-106763820D01*
G37*
X120166453Y-106763820D02*
X119990685Y-106798782D01*
X119829999Y-106906150D01*
X118818695Y-107917453D01*
X114472247Y-107917453D01*
X114282703Y-107955155D01*
X114122017Y-108062523D01*
X114094908Y-108089631D01*
X114049760Y-108089592D01*
X114018762Y-108102400D01*
X112623600Y-108102400D01*
X112623600Y-107415957D01*
X112784782Y-107482886D01*
X113032348Y-107483102D01*
X113261152Y-107388562D01*
X113293776Y-107355994D01*
X113358120Y-107355994D01*
X114943792Y-107355994D01*
X115133335Y-107318292D01*
X115133336Y-107318292D01*
X115294022Y-107210924D01*
X115741126Y-106763820D01*
X120166453Y-106763820D01*
G36*
X132092700Y-110665821D02*
X131813346Y-110945174D01*
X131813408Y-110874760D01*
X131718868Y-110645956D01*
X131543965Y-110470747D01*
X131315326Y-110375808D01*
X131067760Y-110375592D01*
X130838956Y-110470132D01*
X130717275Y-110591600D01*
X130492500Y-110591600D01*
X130336977Y-110622535D01*
X130205131Y-110710632D01*
X129651022Y-111264740D01*
X129480260Y-111264592D01*
X129446998Y-111278335D01*
X129369368Y-111090456D01*
X129194465Y-110915247D01*
X128965826Y-110820308D01*
X128718260Y-110820092D01*
X128489456Y-110914632D01*
X128314247Y-111089535D01*
X128219308Y-111318174D01*
X128219160Y-111487180D01*
X126535833Y-109803853D01*
X126403988Y-109715756D01*
X126392773Y-109713525D01*
X125878927Y-109199679D01*
X129240956Y-109199679D01*
X129213335Y-109211092D01*
X129038126Y-109385995D01*
X128943187Y-109614634D01*
X128942971Y-109862200D01*
X129037511Y-110091004D01*
X129212414Y-110266213D01*
X129441053Y-110361152D01*
X129688619Y-110361368D01*
X129917423Y-110266828D01*
X130039103Y-110145360D01*
X130347333Y-110145360D01*
X130457035Y-110255253D01*
X130685674Y-110350192D01*
X130933240Y-110350408D01*
X131162044Y-110255868D01*
X131337253Y-110080965D01*
X131432192Y-109852326D01*
X131432408Y-109604760D01*
X131337868Y-109375956D01*
X131162965Y-109200747D01*
X131160392Y-109199679D01*
X132092700Y-109199679D01*
X132092700Y-110665821D01*
X132092700Y-110665821D01*
G37*
X132092700Y-110665821D02*
X131813346Y-110945174D01*
X131813408Y-110874760D01*
X131718868Y-110645956D01*
X131543965Y-110470747D01*
X131315326Y-110375808D01*
X131067760Y-110375592D01*
X130838956Y-110470132D01*
X130717275Y-110591600D01*
X130492500Y-110591600D01*
X130336977Y-110622535D01*
X130205131Y-110710632D01*
X129651022Y-111264740D01*
X129480260Y-111264592D01*
X129446998Y-111278335D01*
X129369368Y-111090456D01*
X129194465Y-110915247D01*
X128965826Y-110820308D01*
X128718260Y-110820092D01*
X128489456Y-110914632D01*
X128314247Y-111089535D01*
X128219308Y-111318174D01*
X128219160Y-111487180D01*
X126535833Y-109803853D01*
X126403988Y-109715756D01*
X126392773Y-109713525D01*
X125878927Y-109199679D01*
X129240956Y-109199679D01*
X129213335Y-109211092D01*
X129038126Y-109385995D01*
X128943187Y-109614634D01*
X128942971Y-109862200D01*
X129037511Y-110091004D01*
X129212414Y-110266213D01*
X129441053Y-110361152D01*
X129688619Y-110361368D01*
X129917423Y-110266828D01*
X130039103Y-110145360D01*
X130347333Y-110145360D01*
X130457035Y-110255253D01*
X130685674Y-110350192D01*
X130933240Y-110350408D01*
X131162044Y-110255868D01*
X131337253Y-110080965D01*
X131432192Y-109852326D01*
X131432408Y-109604760D01*
X131337868Y-109375956D01*
X131162965Y-109200747D01*
X131160392Y-109199679D01*
X132092700Y-109199679D01*
X132092700Y-110665821D01*
G36*
X139090400Y-113301140D02*
X139065596Y-113241110D01*
X138854999Y-113030144D01*
X138579699Y-112915830D01*
X138503006Y-112915763D01*
X138531600Y-112846733D01*
X138531600Y-112705267D01*
X138531600Y-112001300D01*
X138531600Y-111518700D01*
X138531600Y-110814733D01*
X138531600Y-110673267D01*
X138477463Y-110542569D01*
X138377431Y-110442537D01*
X138246733Y-110388400D01*
X137401300Y-110388400D01*
X137312400Y-110477300D01*
X137312400Y-111607600D01*
X138442700Y-111607600D01*
X138531600Y-111518700D01*
X138531600Y-112001300D01*
X138442700Y-111912400D01*
X137312400Y-111912400D01*
X137312400Y-111932400D01*
X137007600Y-111932400D01*
X137007600Y-111912400D01*
X136987600Y-111912400D01*
X136987600Y-111607600D01*
X137007600Y-111607600D01*
X137007600Y-110477300D01*
X136918700Y-110388400D01*
X136073267Y-110388400D01*
X135942569Y-110442537D01*
X135842537Y-110542569D01*
X135788400Y-110673267D01*
X135788400Y-110814733D01*
X135788400Y-111138211D01*
X135579823Y-110826053D01*
X135151324Y-110539740D01*
X134645876Y-110439200D01*
X134594124Y-110439200D01*
X134088676Y-110539740D01*
X133660177Y-110826053D01*
X133373864Y-111254552D01*
X133273324Y-111760000D01*
X133373864Y-112265448D01*
X133660177Y-112693947D01*
X133690766Y-112714386D01*
X131445054Y-112714386D01*
X132938230Y-111221211D01*
X133045598Y-111060524D01*
X133083300Y-110870981D01*
X133083300Y-108917160D01*
X133555091Y-108445368D01*
X133600240Y-108445408D01*
X133829044Y-108350868D01*
X134004253Y-108175965D01*
X134099192Y-107947326D01*
X134099408Y-107699760D01*
X134004868Y-107470956D01*
X133829965Y-107295747D01*
X133601326Y-107200808D01*
X133353760Y-107200592D01*
X133124956Y-107295132D01*
X132949747Y-107470035D01*
X132854808Y-107698674D01*
X132854767Y-107744772D01*
X132390461Y-108209079D01*
X125800539Y-108209079D01*
X124982172Y-107390712D01*
X124821486Y-107283344D01*
X124631942Y-107245642D01*
X122942624Y-107245642D01*
X123034044Y-107207868D01*
X123209253Y-107032965D01*
X123304192Y-106804326D01*
X123304408Y-106556760D01*
X123209868Y-106327956D01*
X123034965Y-106152747D01*
X122806326Y-106057808D01*
X122760227Y-106057767D01*
X122620750Y-105918290D01*
X122460064Y-105810922D01*
X122270520Y-105773220D01*
X115535966Y-105773220D01*
X115346423Y-105810922D01*
X115185736Y-105918290D01*
X114738632Y-106365394D01*
X113358120Y-106365394D01*
X113293970Y-106365394D01*
X113262073Y-106333441D01*
X113033434Y-106238502D01*
X112785868Y-106238286D01*
X112557064Y-106332826D01*
X112445800Y-106443895D01*
X112445800Y-104968372D01*
X112399397Y-104856345D01*
X112349802Y-104806749D01*
X112399397Y-104757156D01*
X112445800Y-104645129D01*
X112445800Y-104523872D01*
X112445800Y-104068991D01*
X112547401Y-104089201D01*
X122375241Y-104089201D01*
X124808271Y-106522231D01*
X124853631Y-106567591D01*
X124853592Y-106612740D01*
X124948132Y-106841544D01*
X125123035Y-107016753D01*
X125351674Y-107111692D01*
X125599240Y-107111908D01*
X125828044Y-107017368D01*
X126003253Y-106842465D01*
X126098192Y-106613826D01*
X126098408Y-106366260D01*
X126003868Y-106137456D01*
X125828965Y-105962247D01*
X125600326Y-105867308D01*
X125554227Y-105867267D01*
X125508731Y-105821771D01*
X122930631Y-103243671D01*
X122769945Y-103136303D01*
X122580401Y-103098601D01*
X112649701Y-103098601D01*
X112522000Y-103073200D01*
X112445800Y-103073200D01*
X112445800Y-102491872D01*
X112399397Y-102379845D01*
X112313656Y-102294103D01*
X112201629Y-102247700D01*
X112080372Y-102247700D01*
X110048372Y-102247700D01*
X109936345Y-102294103D01*
X109850603Y-102379844D01*
X109804200Y-102491871D01*
X109804200Y-102613128D01*
X109804200Y-102955362D01*
X109777366Y-102890573D01*
X109427171Y-102485878D01*
X108948763Y-102246003D01*
X108737402Y-102294279D01*
X108737402Y-102209600D01*
X135927407Y-102209600D01*
X135884427Y-102227359D01*
X135249588Y-102861091D01*
X134905592Y-103689525D01*
X134904810Y-104586540D01*
X135247359Y-105415573D01*
X135881091Y-106050412D01*
X136709525Y-106394408D01*
X137606540Y-106395190D01*
X138435573Y-106052641D01*
X139070412Y-105418909D01*
X139090400Y-105370772D01*
X139090400Y-113301140D01*
X139090400Y-113301140D01*
G37*
X139090400Y-113301140D02*
X139065596Y-113241110D01*
X138854999Y-113030144D01*
X138579699Y-112915830D01*
X138503006Y-112915763D01*
X138531600Y-112846733D01*
X138531600Y-112705267D01*
X138531600Y-112001300D01*
X138531600Y-111518700D01*
X138531600Y-110814733D01*
X138531600Y-110673267D01*
X138477463Y-110542569D01*
X138377431Y-110442537D01*
X138246733Y-110388400D01*
X137401300Y-110388400D01*
X137312400Y-110477300D01*
X137312400Y-111607600D01*
X138442700Y-111607600D01*
X138531600Y-111518700D01*
X138531600Y-112001300D01*
X138442700Y-111912400D01*
X137312400Y-111912400D01*
X137312400Y-111932400D01*
X137007600Y-111932400D01*
X137007600Y-111912400D01*
X136987600Y-111912400D01*
X136987600Y-111607600D01*
X137007600Y-111607600D01*
X137007600Y-110477300D01*
X136918700Y-110388400D01*
X136073267Y-110388400D01*
X135942569Y-110442537D01*
X135842537Y-110542569D01*
X135788400Y-110673267D01*
X135788400Y-110814733D01*
X135788400Y-111138211D01*
X135579823Y-110826053D01*
X135151324Y-110539740D01*
X134645876Y-110439200D01*
X134594124Y-110439200D01*
X134088676Y-110539740D01*
X133660177Y-110826053D01*
X133373864Y-111254552D01*
X133273324Y-111760000D01*
X133373864Y-112265448D01*
X133660177Y-112693947D01*
X133690766Y-112714386D01*
X131445054Y-112714386D01*
X132938230Y-111221211D01*
X133045598Y-111060524D01*
X133083300Y-110870981D01*
X133083300Y-108917160D01*
X133555091Y-108445368D01*
X133600240Y-108445408D01*
X133829044Y-108350868D01*
X134004253Y-108175965D01*
X134099192Y-107947326D01*
X134099408Y-107699760D01*
X134004868Y-107470956D01*
X133829965Y-107295747D01*
X133601326Y-107200808D01*
X133353760Y-107200592D01*
X133124956Y-107295132D01*
X132949747Y-107470035D01*
X132854808Y-107698674D01*
X132854767Y-107744772D01*
X132390461Y-108209079D01*
X125800539Y-108209079D01*
X124982172Y-107390712D01*
X124821486Y-107283344D01*
X124631942Y-107245642D01*
X122942624Y-107245642D01*
X123034044Y-107207868D01*
X123209253Y-107032965D01*
X123304192Y-106804326D01*
X123304408Y-106556760D01*
X123209868Y-106327956D01*
X123034965Y-106152747D01*
X122806326Y-106057808D01*
X122760227Y-106057767D01*
X122620750Y-105918290D01*
X122460064Y-105810922D01*
X122270520Y-105773220D01*
X115535966Y-105773220D01*
X115346423Y-105810922D01*
X115185736Y-105918290D01*
X114738632Y-106365394D01*
X113358120Y-106365394D01*
X113293970Y-106365394D01*
X113262073Y-106333441D01*
X113033434Y-106238502D01*
X112785868Y-106238286D01*
X112557064Y-106332826D01*
X112445800Y-106443895D01*
X112445800Y-104968372D01*
X112399397Y-104856345D01*
X112349802Y-104806749D01*
X112399397Y-104757156D01*
X112445800Y-104645129D01*
X112445800Y-104523872D01*
X112445800Y-104068991D01*
X112547401Y-104089201D01*
X122375241Y-104089201D01*
X124808271Y-106522231D01*
X124853631Y-106567591D01*
X124853592Y-106612740D01*
X124948132Y-106841544D01*
X125123035Y-107016753D01*
X125351674Y-107111692D01*
X125599240Y-107111908D01*
X125828044Y-107017368D01*
X126003253Y-106842465D01*
X126098192Y-106613826D01*
X126098408Y-106366260D01*
X126003868Y-106137456D01*
X125828965Y-105962247D01*
X125600326Y-105867308D01*
X125554227Y-105867267D01*
X125508731Y-105821771D01*
X122930631Y-103243671D01*
X122769945Y-103136303D01*
X122580401Y-103098601D01*
X112649701Y-103098601D01*
X112522000Y-103073200D01*
X112445800Y-103073200D01*
X112445800Y-102491872D01*
X112399397Y-102379845D01*
X112313656Y-102294103D01*
X112201629Y-102247700D01*
X112080372Y-102247700D01*
X110048372Y-102247700D01*
X109936345Y-102294103D01*
X109850603Y-102379844D01*
X109804200Y-102491871D01*
X109804200Y-102613128D01*
X109804200Y-102955362D01*
X109777366Y-102890573D01*
X109427171Y-102485878D01*
X108948763Y-102246003D01*
X108737402Y-102294279D01*
X108737402Y-102209600D01*
X135927407Y-102209600D01*
X135884427Y-102227359D01*
X135249588Y-102861091D01*
X134905592Y-103689525D01*
X134904810Y-104586540D01*
X135247359Y-105415573D01*
X135881091Y-106050412D01*
X136709525Y-106394408D01*
X137606540Y-106395190D01*
X138435573Y-106052641D01*
X139070412Y-105418909D01*
X139090400Y-105370772D01*
X139090400Y-113301140D01*
G36*
X139090400Y-114571140D02*
X139065596Y-114511110D01*
X138854999Y-114300144D01*
X138854535Y-114299951D01*
X139064856Y-114089999D01*
X139090400Y-114028481D01*
X139090400Y-114571140D01*
X139090400Y-114571140D01*
G37*
X139090400Y-114571140D02*
X139065596Y-114511110D01*
X138854999Y-114300144D01*
X138854535Y-114299951D01*
X139064856Y-114089999D01*
X139090400Y-114028481D01*
X139090400Y-114571140D01*
G36*
X139090400Y-118381140D02*
X139065596Y-118321110D01*
X138854999Y-118110144D01*
X138820865Y-118095970D01*
X138824791Y-118085317D01*
X138430000Y-117690526D01*
X138035209Y-118085317D01*
X138039066Y-118095786D01*
X138006110Y-118109404D01*
X137795144Y-118320001D01*
X137794951Y-118320464D01*
X137584999Y-118110144D01*
X137584535Y-118109951D01*
X137794856Y-117899999D01*
X137809029Y-117865865D01*
X137819683Y-117869791D01*
X138214474Y-117475000D01*
X137819683Y-117080209D01*
X137809213Y-117084066D01*
X137795596Y-117051110D01*
X137584999Y-116840144D01*
X137584535Y-116839951D01*
X137794856Y-116629999D01*
X137809029Y-116595865D01*
X137819683Y-116599791D01*
X138214474Y-116205000D01*
X137819683Y-115810209D01*
X137809213Y-115814066D01*
X137795596Y-115781110D01*
X137584999Y-115570144D01*
X137584535Y-115569951D01*
X137794856Y-115359999D01*
X137795048Y-115359535D01*
X138005001Y-115569856D01*
X138039134Y-115584029D01*
X138035209Y-115594683D01*
X138430000Y-115989474D01*
X138824791Y-115594683D01*
X138820933Y-115584213D01*
X138853890Y-115570596D01*
X139064856Y-115359999D01*
X139090400Y-115298481D01*
X139090400Y-115828664D01*
X139040317Y-115810209D01*
X138645526Y-116205000D01*
X139040317Y-116599791D01*
X139090400Y-116581335D01*
X139090400Y-117098664D01*
X139040317Y-117080209D01*
X138824791Y-117295735D01*
X138824791Y-116864683D01*
X138815695Y-116840000D01*
X138824791Y-116815317D01*
X138795985Y-116786511D01*
X138777765Y-116737065D01*
X138736185Y-116726711D01*
X138430000Y-116420526D01*
X138135542Y-116714983D01*
X138082235Y-116737065D01*
X138064014Y-116786511D01*
X138035209Y-116815317D01*
X138044304Y-116840000D01*
X138035209Y-116864683D01*
X138064014Y-116893488D01*
X138082235Y-116942935D01*
X138123814Y-116953288D01*
X138430000Y-117259474D01*
X138724457Y-116965016D01*
X138777765Y-116942935D01*
X138795985Y-116893488D01*
X138824791Y-116864683D01*
X138824791Y-117295735D01*
X138645526Y-117475000D01*
X139040317Y-117869791D01*
X139090400Y-117851335D01*
X139090400Y-118381140D01*
X139090400Y-118381140D01*
G37*
X139090400Y-118381140D02*
X139065596Y-118321110D01*
X138854999Y-118110144D01*
X138820865Y-118095970D01*
X138824791Y-118085317D01*
X138430000Y-117690526D01*
X138035209Y-118085317D01*
X138039066Y-118095786D01*
X138006110Y-118109404D01*
X137795144Y-118320001D01*
X137794951Y-118320464D01*
X137584999Y-118110144D01*
X137584535Y-118109951D01*
X137794856Y-117899999D01*
X137809029Y-117865865D01*
X137819683Y-117869791D01*
X138214474Y-117475000D01*
X137819683Y-117080209D01*
X137809213Y-117084066D01*
X137795596Y-117051110D01*
X137584999Y-116840144D01*
X137584535Y-116839951D01*
X137794856Y-116629999D01*
X137809029Y-116595865D01*
X137819683Y-116599791D01*
X138214474Y-116205000D01*
X137819683Y-115810209D01*
X137809213Y-115814066D01*
X137795596Y-115781110D01*
X137584999Y-115570144D01*
X137584535Y-115569951D01*
X137794856Y-115359999D01*
X137795048Y-115359535D01*
X138005001Y-115569856D01*
X138039134Y-115584029D01*
X138035209Y-115594683D01*
X138430000Y-115989474D01*
X138824791Y-115594683D01*
X138820933Y-115584213D01*
X138853890Y-115570596D01*
X139064856Y-115359999D01*
X139090400Y-115298481D01*
X139090400Y-115828664D01*
X139040317Y-115810209D01*
X138645526Y-116205000D01*
X139040317Y-116599791D01*
X139090400Y-116581335D01*
X139090400Y-117098664D01*
X139040317Y-117080209D01*
X138824791Y-117295735D01*
X138824791Y-116864683D01*
X138815695Y-116840000D01*
X138824791Y-116815317D01*
X138795985Y-116786511D01*
X138777765Y-116737065D01*
X138736185Y-116726711D01*
X138430000Y-116420526D01*
X138135542Y-116714983D01*
X138082235Y-116737065D01*
X138064014Y-116786511D01*
X138035209Y-116815317D01*
X138044304Y-116840000D01*
X138035209Y-116864683D01*
X138064014Y-116893488D01*
X138082235Y-116942935D01*
X138123814Y-116953288D01*
X138430000Y-117259474D01*
X138724457Y-116965016D01*
X138777765Y-116942935D01*
X138795985Y-116893488D01*
X138824791Y-116864683D01*
X138824791Y-117295735D01*
X138645526Y-117475000D01*
X139040317Y-117869791D01*
X139090400Y-117851335D01*
X139090400Y-118381140D01*
G36*
X139090400Y-123227407D02*
X139072641Y-123184427D01*
X138438909Y-122549588D01*
X137610475Y-122205592D01*
X136713460Y-122204810D01*
X135943304Y-122523031D01*
X135943304Y-122259753D01*
X135943304Y-121580247D01*
X135758753Y-121203372D01*
X135409430Y-120880461D01*
X134963125Y-120715810D01*
X134772400Y-120789700D01*
X134772400Y-121767600D01*
X135892379Y-121767600D01*
X135943304Y-121580247D01*
X135943304Y-122259753D01*
X135892379Y-122072400D01*
X134772400Y-122072400D01*
X134772400Y-123050300D01*
X134963125Y-123124190D01*
X135409430Y-122959539D01*
X135758753Y-122636628D01*
X135943304Y-122259753D01*
X135943304Y-122523031D01*
X135884427Y-122547359D01*
X135249588Y-123181091D01*
X134905592Y-124009525D01*
X134904810Y-124906540D01*
X135247359Y-125735573D01*
X135881091Y-126370412D01*
X135929227Y-126390400D01*
X134467600Y-126390400D01*
X134467600Y-123050300D01*
X134467600Y-122072400D01*
X134467600Y-121767600D01*
X134467600Y-120789700D01*
X134276875Y-120715810D01*
X133830570Y-120880461D01*
X133481247Y-121203372D01*
X133296696Y-121580247D01*
X133347621Y-121767600D01*
X134467600Y-121767600D01*
X134467600Y-122072400D01*
X133347621Y-122072400D01*
X133296696Y-122259753D01*
X133481247Y-122636628D01*
X133830570Y-122959539D01*
X134276875Y-123124190D01*
X134467600Y-123050300D01*
X134467600Y-126390400D01*
X133146985Y-126390400D01*
X133146985Y-124883731D01*
X132984916Y-124491496D01*
X132685083Y-124191138D01*
X132293131Y-124028385D01*
X131868731Y-124028015D01*
X131476496Y-124190084D01*
X131176138Y-124489917D01*
X131013385Y-124881869D01*
X131013015Y-125306269D01*
X131175084Y-125698504D01*
X131474917Y-125998862D01*
X131866869Y-126161615D01*
X132291269Y-126161985D01*
X132683504Y-125999916D01*
X132983862Y-125700083D01*
X133146615Y-125308131D01*
X133146985Y-124883731D01*
X133146985Y-126390400D01*
X130606985Y-126390400D01*
X130606985Y-124883731D01*
X130444916Y-124491496D01*
X130145083Y-124191138D01*
X129753131Y-124028385D01*
X129328731Y-124028015D01*
X128936496Y-124190084D01*
X128636138Y-124489917D01*
X128473385Y-124881869D01*
X128473015Y-125306269D01*
X128635084Y-125698504D01*
X128934917Y-125998862D01*
X129326869Y-126161615D01*
X129751269Y-126161985D01*
X130143504Y-125999916D01*
X130443862Y-125700083D01*
X130606615Y-125308131D01*
X130606985Y-124883731D01*
X130606985Y-126390400D01*
X128066985Y-126390400D01*
X128066985Y-124883731D01*
X127904916Y-124491496D01*
X127605083Y-124191138D01*
X127213131Y-124028385D01*
X126788731Y-124028015D01*
X126396496Y-124190084D01*
X126096138Y-124489917D01*
X125933385Y-124881869D01*
X125933015Y-125306269D01*
X126095084Y-125698504D01*
X126394917Y-125998862D01*
X126786869Y-126161615D01*
X127211269Y-126161985D01*
X127603504Y-125999916D01*
X127903862Y-125700083D01*
X128066615Y-125308131D01*
X128066985Y-124883731D01*
X128066985Y-126390400D01*
X110353633Y-126390400D01*
X110353633Y-125210430D01*
X110311513Y-124767821D01*
X110223167Y-124554534D01*
X110062789Y-124467738D01*
X109435526Y-125095000D01*
X110062789Y-125722262D01*
X110223167Y-125635466D01*
X110353633Y-125210430D01*
X110353633Y-126390400D01*
X109847262Y-126390400D01*
X108432600Y-126390400D01*
X108432600Y-125916275D01*
X108523427Y-126007102D01*
X108592738Y-125937790D01*
X108679534Y-126098167D01*
X109104570Y-126228633D01*
X109547179Y-126186513D01*
X109760466Y-126098167D01*
X109847262Y-125937789D01*
X109220000Y-125310526D01*
X109205857Y-125324668D01*
X109042936Y-125161747D01*
X111421084Y-122783600D01*
X117433663Y-122783600D01*
X117243163Y-122974100D01*
X115887500Y-122974100D01*
X115731977Y-123005035D01*
X115626148Y-123075748D01*
X115626147Y-123075748D01*
X115446760Y-123075592D01*
X115217956Y-123170132D01*
X115042747Y-123345035D01*
X114985747Y-123482305D01*
X114984843Y-123481701D01*
X114795299Y-123443999D01*
X112915701Y-123443999D01*
X112726157Y-123481701D01*
X112565471Y-123589069D01*
X112081257Y-124073282D01*
X111973131Y-124028385D01*
X111548731Y-124028015D01*
X111156496Y-124190084D01*
X110856138Y-124489917D01*
X110693385Y-124881869D01*
X110693015Y-125306269D01*
X110855084Y-125698504D01*
X111154917Y-125998862D01*
X111546869Y-126161615D01*
X111971269Y-126161985D01*
X112363504Y-125999916D01*
X112663862Y-125700083D01*
X112826615Y-125308131D01*
X112826985Y-124883731D01*
X112781590Y-124773869D01*
X113120860Y-124434599D01*
X113451552Y-124434599D01*
X113396138Y-124489917D01*
X113233385Y-124881869D01*
X113233015Y-125306269D01*
X113395084Y-125698504D01*
X113694917Y-125998862D01*
X114086869Y-126161615D01*
X114511269Y-126161985D01*
X114903504Y-125999916D01*
X115203862Y-125700083D01*
X115366615Y-125308131D01*
X115366966Y-124904501D01*
X115773365Y-124904501D01*
X115773015Y-125306269D01*
X115935084Y-125698504D01*
X116234917Y-125998862D01*
X116626869Y-126161615D01*
X117051269Y-126161985D01*
X117443504Y-125999916D01*
X117743862Y-125700083D01*
X117906615Y-125308131D01*
X117906966Y-124904500D01*
X118313365Y-124904500D01*
X118313015Y-125306269D01*
X118475084Y-125698504D01*
X118774917Y-125998862D01*
X119166869Y-126161615D01*
X119591269Y-126161985D01*
X119983504Y-125999916D01*
X120283862Y-125700083D01*
X120446615Y-125308131D01*
X120446985Y-124883731D01*
X120284916Y-124491496D01*
X120228118Y-124434599D01*
X121071552Y-124434599D01*
X121016138Y-124489917D01*
X120853385Y-124881869D01*
X120853015Y-125306269D01*
X121015084Y-125698504D01*
X121314917Y-125998862D01*
X121706869Y-126161615D01*
X122131269Y-126161985D01*
X122523504Y-125999916D01*
X122823862Y-125700083D01*
X122986615Y-125308131D01*
X122986985Y-124883731D01*
X122824916Y-124491496D01*
X122768118Y-124434599D01*
X123611552Y-124434599D01*
X123556138Y-124489917D01*
X123393385Y-124881869D01*
X123393015Y-125306269D01*
X123555084Y-125698504D01*
X123854917Y-125998862D01*
X124246869Y-126161615D01*
X124671269Y-126161985D01*
X125063504Y-125999916D01*
X125363862Y-125700083D01*
X125526615Y-125308131D01*
X125526985Y-124883731D01*
X125364916Y-124491496D01*
X125179558Y-124305814D01*
X125203931Y-124289529D01*
X127205160Y-122288300D01*
X127250137Y-122288300D01*
X127282035Y-122320253D01*
X127510674Y-122415192D01*
X127758240Y-122415408D01*
X127987044Y-122320868D01*
X128162253Y-122145965D01*
X128257192Y-121917326D01*
X128257408Y-121669760D01*
X128162868Y-121440956D01*
X127987965Y-121265747D01*
X127759326Y-121170808D01*
X127511760Y-121170592D01*
X127282956Y-121265132D01*
X127250331Y-121297700D01*
X127127000Y-121297700D01*
X127000000Y-121297700D01*
X126810456Y-121335402D01*
X126649770Y-121442770D01*
X125082408Y-123010132D01*
X125082408Y-121923760D01*
X124987868Y-121694956D01*
X124812965Y-121519747D01*
X124584326Y-121424808D01*
X124336760Y-121424592D01*
X124107956Y-121519132D01*
X123986275Y-121640600D01*
X121831771Y-121640600D01*
X121743355Y-121552028D01*
X121528714Y-121462902D01*
X121296305Y-121462699D01*
X121081510Y-121551451D01*
X120917028Y-121715645D01*
X120827902Y-121930286D01*
X120827699Y-122162695D01*
X120916451Y-122377490D01*
X121080645Y-122541972D01*
X121295286Y-122631098D01*
X121527695Y-122631301D01*
X121742490Y-122542549D01*
X121831795Y-122453400D01*
X123986393Y-122453400D01*
X124107035Y-122574253D01*
X124335674Y-122669192D01*
X124583240Y-122669408D01*
X124812044Y-122574868D01*
X124987253Y-122399965D01*
X125082192Y-122171326D01*
X125082408Y-121923760D01*
X125082408Y-123010132D01*
X124648541Y-123443999D01*
X119054666Y-123443999D01*
X119120468Y-123345517D01*
X119141136Y-123241599D01*
X120200777Y-122181959D01*
X120288874Y-122050114D01*
X120288874Y-122050113D01*
X120319809Y-121894591D01*
X120319809Y-120488875D01*
X120497600Y-120311084D01*
X120497600Y-120096121D01*
X120557977Y-120136465D01*
X120557978Y-120136465D01*
X120713500Y-120167400D01*
X129713940Y-120167400D01*
X129758535Y-120212073D01*
X129987174Y-120307012D01*
X130234740Y-120307228D01*
X130463544Y-120212688D01*
X130638753Y-120037785D01*
X130731995Y-119813231D01*
X131457740Y-120538977D01*
X131457592Y-120709740D01*
X131552132Y-120938544D01*
X131727035Y-121113753D01*
X131955674Y-121208692D01*
X132203240Y-121208908D01*
X132432044Y-121114368D01*
X132607253Y-120939465D01*
X132702192Y-120710826D01*
X132702408Y-120463260D01*
X132607868Y-120234456D01*
X132432965Y-120059247D01*
X132204326Y-119964308D01*
X132032394Y-119964157D01*
X130843368Y-118775132D01*
X130711523Y-118687035D01*
X130556000Y-118656100D01*
X124056836Y-118656100D01*
X123812264Y-118411528D01*
X123812438Y-118212803D01*
X123774151Y-118120142D01*
X129936258Y-118120142D01*
X130091780Y-118089207D01*
X130091781Y-118089207D01*
X130223626Y-118001110D01*
X130698976Y-117525759D01*
X130869740Y-117525908D01*
X131098544Y-117431368D01*
X131273753Y-117256465D01*
X131368692Y-117027826D01*
X131368908Y-116780260D01*
X131274368Y-116551456D01*
X131099465Y-116376247D01*
X130870826Y-116281308D01*
X130623260Y-116281092D01*
X130394456Y-116375632D01*
X130219247Y-116550535D01*
X130162211Y-116687891D01*
X130162408Y-116462760D01*
X130067868Y-116233956D01*
X129892965Y-116058747D01*
X129664326Y-115963808D01*
X129492393Y-115963657D01*
X125656700Y-112127964D01*
X125524855Y-112039867D01*
X125369332Y-112008932D01*
X124541245Y-112008932D01*
X124452829Y-111920360D01*
X124238188Y-111831234D01*
X124005779Y-111831031D01*
X123790984Y-111919783D01*
X123626502Y-112083977D01*
X123537376Y-112298618D01*
X123537173Y-112531027D01*
X123625925Y-112745822D01*
X123790119Y-112910304D01*
X124004760Y-112999430D01*
X124237169Y-112999633D01*
X124451964Y-112910881D01*
X124541269Y-112821732D01*
X125200995Y-112821732D01*
X128917740Y-116538476D01*
X128917592Y-116709240D01*
X129012132Y-116938044D01*
X129187035Y-117113253D01*
X129415674Y-117208192D01*
X129663240Y-117208408D01*
X129892044Y-117113868D01*
X130067253Y-116938965D01*
X130124288Y-116801608D01*
X130124157Y-116951106D01*
X129767922Y-117307342D01*
X127597029Y-117307342D01*
X127597029Y-115376900D01*
X127502489Y-115148096D01*
X127327586Y-114972887D01*
X127098947Y-114877948D01*
X126851381Y-114877732D01*
X126622577Y-114972272D01*
X126525261Y-115069418D01*
X125047458Y-113591615D01*
X125047568Y-113466465D01*
X124958816Y-113251670D01*
X124794622Y-113087188D01*
X124579981Y-112998062D01*
X124347572Y-112997859D01*
X124132777Y-113086611D01*
X123968295Y-113250805D01*
X123879169Y-113465446D01*
X123878966Y-113697855D01*
X123967718Y-113912650D01*
X124131912Y-114077132D01*
X124346553Y-114166258D01*
X124472739Y-114166368D01*
X126093879Y-115787508D01*
X126225724Y-115875605D01*
X126381247Y-115906540D01*
X126501014Y-115906540D01*
X126621656Y-116027393D01*
X126850295Y-116122332D01*
X127097861Y-116122548D01*
X127326665Y-116028008D01*
X127501874Y-115853105D01*
X127596813Y-115624466D01*
X127597029Y-115376900D01*
X127597029Y-117307342D01*
X122054095Y-117307342D01*
X121898572Y-117338277D01*
X121766727Y-117426374D01*
X121444835Y-117748265D01*
X121274072Y-117748117D01*
X121178602Y-117787564D01*
X121178602Y-116073202D01*
X121147667Y-115917680D01*
X121147667Y-115917679D01*
X121059570Y-115785834D01*
X119024400Y-113750664D01*
X119024400Y-113579336D01*
X119921368Y-112682368D01*
X120009465Y-112550523D01*
X120009465Y-112550522D01*
X120040400Y-112395000D01*
X120040400Y-111633000D01*
X120009465Y-111477477D01*
X119921368Y-111345632D01*
X119921368Y-111345631D01*
X118333867Y-109758131D01*
X118202022Y-109670034D01*
X118046499Y-109639099D01*
X117783782Y-109639099D01*
X117771084Y-109626400D01*
X117348000Y-109626400D01*
X116586000Y-109626400D01*
X115358084Y-109626400D01*
X114909600Y-109177916D01*
X114909600Y-108908053D01*
X119023856Y-108908053D01*
X119213399Y-108870351D01*
X119213400Y-108870351D01*
X119374086Y-108762983D01*
X119957094Y-108179974D01*
X119936188Y-108285080D01*
X119936188Y-109158812D01*
X119967123Y-109314335D01*
X120055220Y-109446180D01*
X120751579Y-110142539D01*
X120751580Y-112271230D01*
X120782515Y-112426753D01*
X120870612Y-112558598D01*
X123291600Y-114979586D01*
X123291600Y-115533962D01*
X123176506Y-115648855D01*
X123081567Y-115877494D01*
X123081351Y-116125060D01*
X123175891Y-116353864D01*
X123350794Y-116529073D01*
X123579433Y-116624012D01*
X123826999Y-116624228D01*
X124055803Y-116529688D01*
X124231012Y-116354785D01*
X124325951Y-116126146D01*
X124326114Y-115938305D01*
X124443560Y-115938408D01*
X124672364Y-115843868D01*
X124847573Y-115668965D01*
X124942512Y-115440326D01*
X124942728Y-115192760D01*
X124848188Y-114963956D01*
X124722610Y-114838158D01*
X124695785Y-114703298D01*
X124695785Y-114703297D01*
X124607688Y-114571452D01*
X121970789Y-111934553D01*
X121970789Y-110385821D01*
X122030616Y-110445753D01*
X122259255Y-110540692D01*
X122506821Y-110540908D01*
X122735625Y-110446368D01*
X122910834Y-110271465D01*
X123005773Y-110042826D01*
X123005989Y-109795260D01*
X122917789Y-109581800D01*
X122973777Y-109525910D01*
X124488120Y-109525910D01*
X125742122Y-110779912D01*
X125742128Y-110779918D01*
X125794571Y-110814960D01*
X125873965Y-110868012D01*
X125873971Y-110868013D01*
X125873974Y-110868015D01*
X125876219Y-110868461D01*
X132135125Y-117127368D01*
X132135126Y-117127368D01*
X132266971Y-117215465D01*
X132422494Y-117246400D01*
X133354161Y-117246400D01*
X133362263Y-117287127D01*
X133615540Y-117666184D01*
X133994597Y-117919461D01*
X134441724Y-118008400D01*
X134798276Y-118008400D01*
X135245403Y-117919461D01*
X135534410Y-117726353D01*
X135534410Y-118043254D01*
X135264418Y-118313245D01*
X135245403Y-118300539D01*
X134798276Y-118211600D01*
X134441724Y-118211600D01*
X133994597Y-118300539D01*
X133615540Y-118553816D01*
X133362263Y-118932873D01*
X133273324Y-119380000D01*
X133362263Y-119827127D01*
X133615540Y-120206184D01*
X133994597Y-120459461D01*
X134441724Y-120548400D01*
X134798276Y-120548400D01*
X135245403Y-120459461D01*
X135624460Y-120206184D01*
X135877737Y-119827127D01*
X135966676Y-119380000D01*
X135877737Y-118932873D01*
X135844302Y-118882833D01*
X135940820Y-118786316D01*
X135940820Y-118948220D01*
X135971755Y-119103743D01*
X136025755Y-119184559D01*
X136025755Y-119184560D01*
X136040314Y-119257750D01*
X136128411Y-119389595D01*
X136515405Y-119776589D01*
X136647250Y-119864686D01*
X136802773Y-119895621D01*
X137517227Y-119895621D01*
X137672749Y-119864686D01*
X137672750Y-119864686D01*
X137713883Y-119837201D01*
X137744199Y-119837201D01*
X137899721Y-119806266D01*
X137899722Y-119806266D01*
X138031567Y-119718169D01*
X138262823Y-119486912D01*
X138280301Y-119494170D01*
X138578391Y-119494430D01*
X138853890Y-119380596D01*
X139064856Y-119169999D01*
X139090400Y-119108481D01*
X139090400Y-123227407D01*
X139090400Y-123227407D01*
G37*
X139090400Y-123227407D02*
X139072641Y-123184427D01*
X138438909Y-122549588D01*
X137610475Y-122205592D01*
X136713460Y-122204810D01*
X135943304Y-122523031D01*
X135943304Y-122259753D01*
X135943304Y-121580247D01*
X135758753Y-121203372D01*
X135409430Y-120880461D01*
X134963125Y-120715810D01*
X134772400Y-120789700D01*
X134772400Y-121767600D01*
X135892379Y-121767600D01*
X135943304Y-121580247D01*
X135943304Y-122259753D01*
X135892379Y-122072400D01*
X134772400Y-122072400D01*
X134772400Y-123050300D01*
X134963125Y-123124190D01*
X135409430Y-122959539D01*
X135758753Y-122636628D01*
X135943304Y-122259753D01*
X135943304Y-122523031D01*
X135884427Y-122547359D01*
X135249588Y-123181091D01*
X134905592Y-124009525D01*
X134904810Y-124906540D01*
X135247359Y-125735573D01*
X135881091Y-126370412D01*
X135929227Y-126390400D01*
X134467600Y-126390400D01*
X134467600Y-123050300D01*
X134467600Y-122072400D01*
X134467600Y-121767600D01*
X134467600Y-120789700D01*
X134276875Y-120715810D01*
X133830570Y-120880461D01*
X133481247Y-121203372D01*
X133296696Y-121580247D01*
X133347621Y-121767600D01*
X134467600Y-121767600D01*
X134467600Y-122072400D01*
X133347621Y-122072400D01*
X133296696Y-122259753D01*
X133481247Y-122636628D01*
X133830570Y-122959539D01*
X134276875Y-123124190D01*
X134467600Y-123050300D01*
X134467600Y-126390400D01*
X133146985Y-126390400D01*
X133146985Y-124883731D01*
X132984916Y-124491496D01*
X132685083Y-124191138D01*
X132293131Y-124028385D01*
X131868731Y-124028015D01*
X131476496Y-124190084D01*
X131176138Y-124489917D01*
X131013385Y-124881869D01*
X131013015Y-125306269D01*
X131175084Y-125698504D01*
X131474917Y-125998862D01*
X131866869Y-126161615D01*
X132291269Y-126161985D01*
X132683504Y-125999916D01*
X132983862Y-125700083D01*
X133146615Y-125308131D01*
X133146985Y-124883731D01*
X133146985Y-126390400D01*
X130606985Y-126390400D01*
X130606985Y-124883731D01*
X130444916Y-124491496D01*
X130145083Y-124191138D01*
X129753131Y-124028385D01*
X129328731Y-124028015D01*
X128936496Y-124190084D01*
X128636138Y-124489917D01*
X128473385Y-124881869D01*
X128473015Y-125306269D01*
X128635084Y-125698504D01*
X128934917Y-125998862D01*
X129326869Y-126161615D01*
X129751269Y-126161985D01*
X130143504Y-125999916D01*
X130443862Y-125700083D01*
X130606615Y-125308131D01*
X130606985Y-124883731D01*
X130606985Y-126390400D01*
X128066985Y-126390400D01*
X128066985Y-124883731D01*
X127904916Y-124491496D01*
X127605083Y-124191138D01*
X127213131Y-124028385D01*
X126788731Y-124028015D01*
X126396496Y-124190084D01*
X126096138Y-124489917D01*
X125933385Y-124881869D01*
X125933015Y-125306269D01*
X126095084Y-125698504D01*
X126394917Y-125998862D01*
X126786869Y-126161615D01*
X127211269Y-126161985D01*
X127603504Y-125999916D01*
X127903862Y-125700083D01*
X128066615Y-125308131D01*
X128066985Y-124883731D01*
X128066985Y-126390400D01*
X110353633Y-126390400D01*
X110353633Y-125210430D01*
X110311513Y-124767821D01*
X110223167Y-124554534D01*
X110062789Y-124467738D01*
X109435526Y-125095000D01*
X110062789Y-125722262D01*
X110223167Y-125635466D01*
X110353633Y-125210430D01*
X110353633Y-126390400D01*
X109847262Y-126390400D01*
X108432600Y-126390400D01*
X108432600Y-125916275D01*
X108523427Y-126007102D01*
X108592738Y-125937790D01*
X108679534Y-126098167D01*
X109104570Y-126228633D01*
X109547179Y-126186513D01*
X109760466Y-126098167D01*
X109847262Y-125937789D01*
X109220000Y-125310526D01*
X109205857Y-125324668D01*
X109042936Y-125161747D01*
X111421084Y-122783600D01*
X117433663Y-122783600D01*
X117243163Y-122974100D01*
X115887500Y-122974100D01*
X115731977Y-123005035D01*
X115626148Y-123075748D01*
X115626147Y-123075748D01*
X115446760Y-123075592D01*
X115217956Y-123170132D01*
X115042747Y-123345035D01*
X114985747Y-123482305D01*
X114984843Y-123481701D01*
X114795299Y-123443999D01*
X112915701Y-123443999D01*
X112726157Y-123481701D01*
X112565471Y-123589069D01*
X112081257Y-124073282D01*
X111973131Y-124028385D01*
X111548731Y-124028015D01*
X111156496Y-124190084D01*
X110856138Y-124489917D01*
X110693385Y-124881869D01*
X110693015Y-125306269D01*
X110855084Y-125698504D01*
X111154917Y-125998862D01*
X111546869Y-126161615D01*
X111971269Y-126161985D01*
X112363504Y-125999916D01*
X112663862Y-125700083D01*
X112826615Y-125308131D01*
X112826985Y-124883731D01*
X112781590Y-124773869D01*
X113120860Y-124434599D01*
X113451552Y-124434599D01*
X113396138Y-124489917D01*
X113233385Y-124881869D01*
X113233015Y-125306269D01*
X113395084Y-125698504D01*
X113694917Y-125998862D01*
X114086869Y-126161615D01*
X114511269Y-126161985D01*
X114903504Y-125999916D01*
X115203862Y-125700083D01*
X115366615Y-125308131D01*
X115366966Y-124904501D01*
X115773365Y-124904501D01*
X115773015Y-125306269D01*
X115935084Y-125698504D01*
X116234917Y-125998862D01*
X116626869Y-126161615D01*
X117051269Y-126161985D01*
X117443504Y-125999916D01*
X117743862Y-125700083D01*
X117906615Y-125308131D01*
X117906966Y-124904500D01*
X118313365Y-124904500D01*
X118313015Y-125306269D01*
X118475084Y-125698504D01*
X118774917Y-125998862D01*
X119166869Y-126161615D01*
X119591269Y-126161985D01*
X119983504Y-125999916D01*
X120283862Y-125700083D01*
X120446615Y-125308131D01*
X120446985Y-124883731D01*
X120284916Y-124491496D01*
X120228118Y-124434599D01*
X121071552Y-124434599D01*
X121016138Y-124489917D01*
X120853385Y-124881869D01*
X120853015Y-125306269D01*
X121015084Y-125698504D01*
X121314917Y-125998862D01*
X121706869Y-126161615D01*
X122131269Y-126161985D01*
X122523504Y-125999916D01*
X122823862Y-125700083D01*
X122986615Y-125308131D01*
X122986985Y-124883731D01*
X122824916Y-124491496D01*
X122768118Y-124434599D01*
X123611552Y-124434599D01*
X123556138Y-124489917D01*
X123393385Y-124881869D01*
X123393015Y-125306269D01*
X123555084Y-125698504D01*
X123854917Y-125998862D01*
X124246869Y-126161615D01*
X124671269Y-126161985D01*
X125063504Y-125999916D01*
X125363862Y-125700083D01*
X125526615Y-125308131D01*
X125526985Y-124883731D01*
X125364916Y-124491496D01*
X125179558Y-124305814D01*
X125203931Y-124289529D01*
X127205160Y-122288300D01*
X127250137Y-122288300D01*
X127282035Y-122320253D01*
X127510674Y-122415192D01*
X127758240Y-122415408D01*
X127987044Y-122320868D01*
X128162253Y-122145965D01*
X128257192Y-121917326D01*
X128257408Y-121669760D01*
X128162868Y-121440956D01*
X127987965Y-121265747D01*
X127759326Y-121170808D01*
X127511760Y-121170592D01*
X127282956Y-121265132D01*
X127250331Y-121297700D01*
X127127000Y-121297700D01*
X127000000Y-121297700D01*
X126810456Y-121335402D01*
X126649770Y-121442770D01*
X125082408Y-123010132D01*
X125082408Y-121923760D01*
X124987868Y-121694956D01*
X124812965Y-121519747D01*
X124584326Y-121424808D01*
X124336760Y-121424592D01*
X124107956Y-121519132D01*
X123986275Y-121640600D01*
X121831771Y-121640600D01*
X121743355Y-121552028D01*
X121528714Y-121462902D01*
X121296305Y-121462699D01*
X121081510Y-121551451D01*
X120917028Y-121715645D01*
X120827902Y-121930286D01*
X120827699Y-122162695D01*
X120916451Y-122377490D01*
X121080645Y-122541972D01*
X121295286Y-122631098D01*
X121527695Y-122631301D01*
X121742490Y-122542549D01*
X121831795Y-122453400D01*
X123986393Y-122453400D01*
X124107035Y-122574253D01*
X124335674Y-122669192D01*
X124583240Y-122669408D01*
X124812044Y-122574868D01*
X124987253Y-122399965D01*
X125082192Y-122171326D01*
X125082408Y-121923760D01*
X125082408Y-123010132D01*
X124648541Y-123443999D01*
X119054666Y-123443999D01*
X119120468Y-123345517D01*
X119141136Y-123241599D01*
X120200777Y-122181959D01*
X120288874Y-122050114D01*
X120288874Y-122050113D01*
X120319809Y-121894591D01*
X120319809Y-120488875D01*
X120497600Y-120311084D01*
X120497600Y-120096121D01*
X120557977Y-120136465D01*
X120557978Y-120136465D01*
X120713500Y-120167400D01*
X129713940Y-120167400D01*
X129758535Y-120212073D01*
X129987174Y-120307012D01*
X130234740Y-120307228D01*
X130463544Y-120212688D01*
X130638753Y-120037785D01*
X130731995Y-119813231D01*
X131457740Y-120538977D01*
X131457592Y-120709740D01*
X131552132Y-120938544D01*
X131727035Y-121113753D01*
X131955674Y-121208692D01*
X132203240Y-121208908D01*
X132432044Y-121114368D01*
X132607253Y-120939465D01*
X132702192Y-120710826D01*
X132702408Y-120463260D01*
X132607868Y-120234456D01*
X132432965Y-120059247D01*
X132204326Y-119964308D01*
X132032394Y-119964157D01*
X130843368Y-118775132D01*
X130711523Y-118687035D01*
X130556000Y-118656100D01*
X124056836Y-118656100D01*
X123812264Y-118411528D01*
X123812438Y-118212803D01*
X123774151Y-118120142D01*
X129936258Y-118120142D01*
X130091780Y-118089207D01*
X130091781Y-118089207D01*
X130223626Y-118001110D01*
X130698976Y-117525759D01*
X130869740Y-117525908D01*
X131098544Y-117431368D01*
X131273753Y-117256465D01*
X131368692Y-117027826D01*
X131368908Y-116780260D01*
X131274368Y-116551456D01*
X131099465Y-116376247D01*
X130870826Y-116281308D01*
X130623260Y-116281092D01*
X130394456Y-116375632D01*
X130219247Y-116550535D01*
X130162211Y-116687891D01*
X130162408Y-116462760D01*
X130067868Y-116233956D01*
X129892965Y-116058747D01*
X129664326Y-115963808D01*
X129492393Y-115963657D01*
X125656700Y-112127964D01*
X125524855Y-112039867D01*
X125369332Y-112008932D01*
X124541245Y-112008932D01*
X124452829Y-111920360D01*
X124238188Y-111831234D01*
X124005779Y-111831031D01*
X123790984Y-111919783D01*
X123626502Y-112083977D01*
X123537376Y-112298618D01*
X123537173Y-112531027D01*
X123625925Y-112745822D01*
X123790119Y-112910304D01*
X124004760Y-112999430D01*
X124237169Y-112999633D01*
X124451964Y-112910881D01*
X124541269Y-112821732D01*
X125200995Y-112821732D01*
X128917740Y-116538476D01*
X128917592Y-116709240D01*
X129012132Y-116938044D01*
X129187035Y-117113253D01*
X129415674Y-117208192D01*
X129663240Y-117208408D01*
X129892044Y-117113868D01*
X130067253Y-116938965D01*
X130124288Y-116801608D01*
X130124157Y-116951106D01*
X129767922Y-117307342D01*
X127597029Y-117307342D01*
X127597029Y-115376900D01*
X127502489Y-115148096D01*
X127327586Y-114972887D01*
X127098947Y-114877948D01*
X126851381Y-114877732D01*
X126622577Y-114972272D01*
X126525261Y-115069418D01*
X125047458Y-113591615D01*
X125047568Y-113466465D01*
X124958816Y-113251670D01*
X124794622Y-113087188D01*
X124579981Y-112998062D01*
X124347572Y-112997859D01*
X124132777Y-113086611D01*
X123968295Y-113250805D01*
X123879169Y-113465446D01*
X123878966Y-113697855D01*
X123967718Y-113912650D01*
X124131912Y-114077132D01*
X124346553Y-114166258D01*
X124472739Y-114166368D01*
X126093879Y-115787508D01*
X126225724Y-115875605D01*
X126381247Y-115906540D01*
X126501014Y-115906540D01*
X126621656Y-116027393D01*
X126850295Y-116122332D01*
X127097861Y-116122548D01*
X127326665Y-116028008D01*
X127501874Y-115853105D01*
X127596813Y-115624466D01*
X127597029Y-115376900D01*
X127597029Y-117307342D01*
X122054095Y-117307342D01*
X121898572Y-117338277D01*
X121766727Y-117426374D01*
X121444835Y-117748265D01*
X121274072Y-117748117D01*
X121178602Y-117787564D01*
X121178602Y-116073202D01*
X121147667Y-115917680D01*
X121147667Y-115917679D01*
X121059570Y-115785834D01*
X119024400Y-113750664D01*
X119024400Y-113579336D01*
X119921368Y-112682368D01*
X120009465Y-112550523D01*
X120009465Y-112550522D01*
X120040400Y-112395000D01*
X120040400Y-111633000D01*
X120009465Y-111477477D01*
X119921368Y-111345632D01*
X119921368Y-111345631D01*
X118333867Y-109758131D01*
X118202022Y-109670034D01*
X118046499Y-109639099D01*
X117783782Y-109639099D01*
X117771084Y-109626400D01*
X117348000Y-109626400D01*
X116586000Y-109626400D01*
X115358084Y-109626400D01*
X114909600Y-109177916D01*
X114909600Y-108908053D01*
X119023856Y-108908053D01*
X119213399Y-108870351D01*
X119213400Y-108870351D01*
X119374086Y-108762983D01*
X119957094Y-108179974D01*
X119936188Y-108285080D01*
X119936188Y-109158812D01*
X119967123Y-109314335D01*
X120055220Y-109446180D01*
X120751579Y-110142539D01*
X120751580Y-112271230D01*
X120782515Y-112426753D01*
X120870612Y-112558598D01*
X123291600Y-114979586D01*
X123291600Y-115533962D01*
X123176506Y-115648855D01*
X123081567Y-115877494D01*
X123081351Y-116125060D01*
X123175891Y-116353864D01*
X123350794Y-116529073D01*
X123579433Y-116624012D01*
X123826999Y-116624228D01*
X124055803Y-116529688D01*
X124231012Y-116354785D01*
X124325951Y-116126146D01*
X124326114Y-115938305D01*
X124443560Y-115938408D01*
X124672364Y-115843868D01*
X124847573Y-115668965D01*
X124942512Y-115440326D01*
X124942728Y-115192760D01*
X124848188Y-114963956D01*
X124722610Y-114838158D01*
X124695785Y-114703298D01*
X124695785Y-114703297D01*
X124607688Y-114571452D01*
X121970789Y-111934553D01*
X121970789Y-110385821D01*
X122030616Y-110445753D01*
X122259255Y-110540692D01*
X122506821Y-110540908D01*
X122735625Y-110446368D01*
X122910834Y-110271465D01*
X123005773Y-110042826D01*
X123005989Y-109795260D01*
X122917789Y-109581800D01*
X122973777Y-109525910D01*
X124488120Y-109525910D01*
X125742122Y-110779912D01*
X125742128Y-110779918D01*
X125794571Y-110814960D01*
X125873965Y-110868012D01*
X125873971Y-110868013D01*
X125873974Y-110868015D01*
X125876219Y-110868461D01*
X132135125Y-117127368D01*
X132135126Y-117127368D01*
X132266971Y-117215465D01*
X132422494Y-117246400D01*
X133354161Y-117246400D01*
X133362263Y-117287127D01*
X133615540Y-117666184D01*
X133994597Y-117919461D01*
X134441724Y-118008400D01*
X134798276Y-118008400D01*
X135245403Y-117919461D01*
X135534410Y-117726353D01*
X135534410Y-118043254D01*
X135264418Y-118313245D01*
X135245403Y-118300539D01*
X134798276Y-118211600D01*
X134441724Y-118211600D01*
X133994597Y-118300539D01*
X133615540Y-118553816D01*
X133362263Y-118932873D01*
X133273324Y-119380000D01*
X133362263Y-119827127D01*
X133615540Y-120206184D01*
X133994597Y-120459461D01*
X134441724Y-120548400D01*
X134798276Y-120548400D01*
X135245403Y-120459461D01*
X135624460Y-120206184D01*
X135877737Y-119827127D01*
X135966676Y-119380000D01*
X135877737Y-118932873D01*
X135844302Y-118882833D01*
X135940820Y-118786316D01*
X135940820Y-118948220D01*
X135971755Y-119103743D01*
X136025755Y-119184559D01*
X136025755Y-119184560D01*
X136040314Y-119257750D01*
X136128411Y-119389595D01*
X136515405Y-119776589D01*
X136647250Y-119864686D01*
X136802773Y-119895621D01*
X137517227Y-119895621D01*
X137672749Y-119864686D01*
X137672750Y-119864686D01*
X137713883Y-119837201D01*
X137744199Y-119837201D01*
X137899721Y-119806266D01*
X137899722Y-119806266D01*
X138031567Y-119718169D01*
X138262823Y-119486912D01*
X138280301Y-119494170D01*
X138578391Y-119494430D01*
X138853890Y-119380596D01*
X139064856Y-119169999D01*
X139090400Y-119108481D01*
X139090400Y-123227407D01*
M02*
