%FSLAX45Y45*%
G04 Gerber Fmt 4.5, Leading zero omitted, Abs format (unit mm)*
G04 Created by KiCad (PCBNEW (2014-08-29 BZR 5106)-product) date Mon 17 Nov 2014 11:38:20 AM PST*
%MOMM*%
G01*
G04 APERTURE LIST*
%ADD10C,0.127000*%
%ADD11C,0.100000*%
%ADD12C,0.200000*%
%ADD13C,0.300000*%
G04 APERTURE END LIST*
D10*
D11*
X10414000Y-10160000D02*
X13716000Y-10160000D01*
X10160000Y-10414000D02*
X10160000Y-12446000D01*
X13970000Y-12446000D02*
X13970000Y-10414000D01*
X10414000Y-12700000D02*
X13716000Y-12700000D01*
X10414000Y-10160000D02*
G75*
G03X10160000Y-10414000I0J-254000D01*
G74*
G01*
X13970000Y-10414000D02*
G75*
G03X13716000Y-10160000I-254000J0D01*
G74*
G01*
X13716000Y-12700000D02*
G75*
G03X13970000Y-12446000I0J254000D01*
G74*
G01*
X10160000Y-12446000D02*
G75*
G03X10414000Y-12700000I254000J0D01*
G74*
G01*
D12*
X10229850Y-10661650D02*
X10267950Y-10699750D01*
X10267950Y-10661650D02*
X10229850Y-10699750D01*
X10763250Y-11106150D02*
X10801350Y-11144250D01*
X10801350Y-11106150D02*
X10763250Y-11144250D01*
X11004550Y-11296650D02*
X11042650Y-11334750D01*
X11042650Y-11296650D02*
X11004550Y-11334750D01*
X11055350Y-10953750D02*
X11093450Y-10991850D01*
X11093450Y-10953750D02*
X11055350Y-10991850D01*
X11106150Y-11144250D02*
X11144250Y-11182350D01*
X11144250Y-11144250D02*
X11106150Y-11182350D01*
X11195050Y-11537950D02*
X11233150Y-11576050D01*
X11233150Y-11537950D02*
X11195050Y-11576050D01*
X11195050Y-11982450D02*
X11233150Y-12020550D01*
X11233150Y-11982450D02*
X11195050Y-12020550D01*
X11195050Y-12185650D02*
X11233150Y-12223750D01*
X11233150Y-12185650D02*
X11195050Y-12223750D01*
X11233150Y-11728450D02*
X11271250Y-11766550D01*
X11271250Y-11728450D02*
X11233150Y-11766550D01*
X11245850Y-11068050D02*
X11283950Y-11106150D01*
X11283950Y-11068050D02*
X11245850Y-11106150D01*
X11264900Y-10750550D02*
X11303000Y-10788650D01*
X11303000Y-10750550D02*
X11264900Y-10788650D01*
X11271861Y-10667019D02*
X11309961Y-10705119D01*
X11309961Y-10667019D02*
X11271861Y-10705119D01*
X11316145Y-11347005D02*
X11354245Y-11385105D01*
X11354245Y-11347005D02*
X11316145Y-11385105D01*
X11347450Y-11817350D02*
X11385550Y-11855450D01*
X11385550Y-11817350D02*
X11347450Y-11855450D01*
X11363198Y-10264394D02*
X11401298Y-10302494D01*
X11401298Y-10264394D02*
X11363198Y-10302494D01*
X11379200Y-10560050D02*
X11417300Y-10598150D01*
X11417300Y-10560050D02*
X11379200Y-10598150D01*
X11398250Y-10852150D02*
X11436350Y-10890250D01*
X11436350Y-10852150D02*
X11398250Y-10890250D01*
X11410950Y-11544300D02*
X11449050Y-11582400D01*
X11449050Y-11544300D02*
X11410950Y-11582400D01*
X11410950Y-12185650D02*
X11449050Y-12223750D01*
X11449050Y-12185650D02*
X11410950Y-12223750D01*
X11423650Y-11995150D02*
X11461750Y-12033250D01*
X11461750Y-11995150D02*
X11423650Y-12033250D01*
X11461750Y-11195050D02*
X11499850Y-11233150D01*
X11499850Y-11195050D02*
X11461750Y-11233150D01*
X11461750Y-11728450D02*
X11499850Y-11766550D01*
X11499850Y-11728450D02*
X11461750Y-11766550D01*
X11466830Y-10557510D02*
X11504930Y-10595610D01*
X11504930Y-10557510D02*
X11466830Y-10595610D01*
X11487409Y-12279630D02*
X11525509Y-12317730D01*
X11525509Y-12279630D02*
X11487409Y-12317730D01*
X11494770Y-10892839D02*
X11532870Y-10930939D01*
X11532870Y-10892839D02*
X11494770Y-10930939D01*
X11499850Y-10751613D02*
X11537950Y-10789713D01*
X11537950Y-10751613D02*
X11499850Y-10789713D01*
X11525250Y-11273789D02*
X11563350Y-11311889D01*
X11563350Y-11273789D02*
X11525250Y-11311889D01*
X11537950Y-11633200D02*
X11576050Y-11671300D01*
X11576050Y-11633200D02*
X11537950Y-11671300D01*
X11537950Y-12350750D02*
X11576050Y-12388850D01*
X11576050Y-12350750D02*
X11537950Y-12388850D01*
X11550650Y-11817350D02*
X11588750Y-11855450D01*
X11588750Y-11817350D02*
X11550650Y-11855450D01*
X11588750Y-11398250D02*
X11626850Y-11436350D01*
X11626850Y-11398250D02*
X11588750Y-11436350D01*
X11588750Y-11499850D02*
X11626850Y-11537950D01*
X11626850Y-11499850D02*
X11588750Y-11537950D01*
X11614150Y-11995150D02*
X11652250Y-12033250D01*
X11652250Y-11995150D02*
X11614150Y-12033250D01*
X11614150Y-12185650D02*
X11652250Y-12223750D01*
X11652250Y-12185650D02*
X11614150Y-12223750D01*
X11640446Y-11048180D02*
X11678546Y-11086280D01*
X11678546Y-11048180D02*
X11640446Y-11086280D01*
X11647244Y-11273169D02*
X11685344Y-11311269D01*
X11685344Y-11273169D02*
X11647244Y-11311269D01*
X11661636Y-11440812D02*
X11699736Y-11478912D01*
X11699736Y-11440812D02*
X11661636Y-11478912D01*
X11691077Y-11511096D02*
X11729177Y-11549196D01*
X11729177Y-11511096D02*
X11691077Y-11549196D01*
X11703050Y-11753850D02*
X11741150Y-11791950D01*
X11741150Y-11753850D02*
X11703050Y-11791950D01*
X11735860Y-11587481D02*
X11773960Y-11625581D01*
X11773960Y-11587481D02*
X11735860Y-11625581D01*
X11791950Y-12345670D02*
X11830050Y-12383770D01*
X11830050Y-12345670D02*
X11791950Y-12383770D01*
X11823690Y-11118845D02*
X11861790Y-11156945D01*
X11861790Y-11118845D02*
X11823690Y-11156945D01*
X11842750Y-11893550D02*
X11880850Y-11931650D01*
X11880850Y-11893550D02*
X11842750Y-11931650D01*
X11842750Y-12096750D02*
X11880850Y-12134850D01*
X11880850Y-12096750D02*
X11842750Y-12134850D01*
X11849210Y-10534650D02*
X11887310Y-10572750D01*
X11887310Y-10534650D02*
X11849210Y-10572750D01*
X11868150Y-11715750D02*
X11906250Y-11753850D01*
X11906250Y-11715750D02*
X11868150Y-11753850D01*
X11869134Y-10686162D02*
X11907234Y-10724262D01*
X11907234Y-10686162D02*
X11869134Y-10724262D01*
X11918950Y-10445750D02*
X11957050Y-10483850D01*
X11957050Y-10445750D02*
X11918950Y-10483850D01*
X11918950Y-11360150D02*
X11957050Y-11398250D01*
X11957050Y-11360150D02*
X11918950Y-11398250D01*
X11947235Y-10906412D02*
X11985335Y-10944512D01*
X11985335Y-10906412D02*
X11947235Y-10944512D01*
X12045950Y-11245850D02*
X12084050Y-11283950D01*
X12084050Y-11245850D02*
X12045950Y-11283950D01*
X12045950Y-11410950D02*
X12084050Y-11449050D01*
X12084050Y-11410950D02*
X12045950Y-11449050D01*
X12046959Y-10777708D02*
X12085059Y-10815808D01*
X12085059Y-10777708D02*
X12046959Y-10815808D01*
X12071350Y-12045950D02*
X12109450Y-12084050D01*
X12109450Y-12045950D02*
X12071350Y-12084050D01*
X12077700Y-11893550D02*
X12115800Y-11931650D01*
X12115800Y-11893550D02*
X12077700Y-11931650D01*
X12078045Y-10864248D02*
X12116145Y-10902348D01*
X12116145Y-10864248D02*
X12078045Y-10902348D01*
X12096750Y-11537950D02*
X12134850Y-11576050D01*
X12134850Y-11537950D02*
X12096750Y-11576050D01*
X12120681Y-11818002D02*
X12158781Y-11856102D01*
X12158781Y-11818002D02*
X12120681Y-11856102D01*
X12122150Y-12185650D02*
X12160250Y-12223750D01*
X12160250Y-12185650D02*
X12122150Y-12223750D01*
X12211050Y-11410950D02*
X12249150Y-11449050D01*
X12249150Y-11410950D02*
X12211050Y-11449050D01*
X12219308Y-10972800D02*
X12257408Y-11010900D01*
X12257408Y-10972800D02*
X12219308Y-11010900D01*
X12223750Y-10445750D02*
X12261850Y-10483850D01*
X12261850Y-10445750D02*
X12223750Y-10483850D01*
X12236348Y-10892901D02*
X12274448Y-10931001D01*
X12274448Y-10892901D02*
X12236348Y-10931001D01*
X12249150Y-10648950D02*
X12287250Y-10687050D01*
X12287250Y-10648950D02*
X12249150Y-10687050D01*
X12274550Y-12045950D02*
X12312650Y-12084050D01*
X12312650Y-12045950D02*
X12274550Y-12084050D01*
X12299953Y-11814554D02*
X12338053Y-11852654D01*
X12338053Y-11814554D02*
X12299953Y-11852654D01*
X12338050Y-10826750D02*
X12376150Y-10864850D01*
X12376150Y-10826750D02*
X12338050Y-10864850D01*
X12351326Y-11581132D02*
X12389426Y-11619232D01*
X12389426Y-11581132D02*
X12351326Y-11619232D01*
X12393097Y-11222483D02*
X12431197Y-11260583D01*
X12431197Y-11222483D02*
X12393097Y-11260583D01*
X12395200Y-10623550D02*
X12433300Y-10661650D01*
X12433300Y-10623550D02*
X12395200Y-10661650D01*
X12401550Y-11055350D02*
X12439650Y-11093450D01*
X12439650Y-11055350D02*
X12401550Y-11093450D01*
X12412982Y-11512550D02*
X12451082Y-11550650D01*
X12451082Y-11512550D02*
X12412982Y-11550650D01*
X12426950Y-12185650D02*
X12465050Y-12223750D01*
X12465050Y-12185650D02*
X12426950Y-12223750D01*
X12427277Y-11339166D02*
X12465377Y-11377266D01*
X12465377Y-11339166D02*
X12427277Y-11377266D01*
X12439650Y-11817350D02*
X12477750Y-11855450D01*
X12477750Y-11817350D02*
X12439650Y-11855450D01*
X12503150Y-12045950D02*
X12541250Y-12084050D01*
X12541250Y-12045950D02*
X12503150Y-12084050D01*
X12515850Y-11664950D02*
X12553950Y-11703050D01*
X12553950Y-11664950D02*
X12515850Y-11703050D01*
X12528550Y-10629900D02*
X12566650Y-10668000D01*
X12566650Y-10629900D02*
X12528550Y-10668000D01*
X12617450Y-10560050D02*
X12655550Y-10598150D01*
X12655550Y-10560050D02*
X12617450Y-10598150D01*
X12623800Y-10775950D02*
X12661900Y-10814050D01*
X12661900Y-10775950D02*
X12623800Y-10814050D01*
X12630150Y-10924540D02*
X12668250Y-10962640D01*
X12668250Y-10924540D02*
X12630150Y-10962640D01*
X12648438Y-11443970D02*
X12686538Y-11482070D01*
X12686538Y-11443970D02*
X12648438Y-11482070D01*
X12678412Y-11530964D02*
X12716512Y-11569064D01*
X12716512Y-11530964D02*
X12678412Y-11569064D01*
X12696379Y-11228069D02*
X12734479Y-11266169D01*
X12734479Y-11228069D02*
X12696379Y-11266169D01*
X12731750Y-10293350D02*
X12769850Y-10331450D01*
X12769850Y-10293350D02*
X12731750Y-10331450D01*
X12744450Y-12160250D02*
X12782550Y-12198350D01*
X12782550Y-12160250D02*
X12744450Y-12198350D01*
X12795250Y-10534650D02*
X12833350Y-10572750D01*
X12833350Y-10534650D02*
X12795250Y-10572750D01*
X12818756Y-11664950D02*
X12856856Y-11703050D01*
X12856856Y-11664950D02*
X12818756Y-11703050D01*
X12839700Y-11398250D02*
X12877800Y-11436350D01*
X12877800Y-11398250D02*
X12839700Y-11436350D01*
X12865100Y-11125200D02*
X12903200Y-11163300D01*
X12903200Y-11125200D02*
X12865100Y-11163300D01*
X12934950Y-11639550D02*
X12973050Y-11677650D01*
X12973050Y-11639550D02*
X12934950Y-11677650D01*
X12937488Y-10954846D02*
X12975588Y-10992946D01*
X12975588Y-10954846D02*
X12937488Y-10992946D01*
X12941300Y-11169650D02*
X12979400Y-11207750D01*
X12979400Y-11169650D02*
X12941300Y-11207750D01*
X12992100Y-11949432D02*
X13030200Y-11987532D01*
X13030200Y-11949432D02*
X12992100Y-11987532D01*
X12998450Y-10737850D02*
X13036550Y-10775950D01*
X13036550Y-10737850D02*
X12998450Y-10775950D01*
X13040169Y-11267629D02*
X13078269Y-11305729D01*
X13078269Y-11267629D02*
X13040169Y-11305729D01*
X13049250Y-12147550D02*
X13087350Y-12185650D01*
X13087350Y-12147550D02*
X13049250Y-12185650D01*
X13055600Y-11671300D02*
X13093700Y-11709400D01*
X13093700Y-11671300D02*
X13055600Y-11709400D01*
X13061614Y-10210254D02*
X13099714Y-10248354D01*
X13099714Y-10210254D02*
X13061614Y-10248354D01*
X13061950Y-10953750D02*
X13100050Y-10991850D01*
X13100050Y-10953750D02*
X13061950Y-10991850D01*
X13093700Y-11747500D02*
X13131800Y-11785600D01*
X13131800Y-11747500D02*
X13093700Y-11785600D01*
X13100050Y-11080750D02*
X13138150Y-11118850D01*
X13138150Y-11080750D02*
X13100050Y-11118850D01*
X13112750Y-10737850D02*
X13150850Y-10775950D01*
X13150850Y-10737850D02*
X13112750Y-10775950D01*
X13159320Y-11021480D02*
X13197420Y-11059580D01*
X13197420Y-11021480D02*
X13159320Y-11059580D01*
X13188950Y-12039600D02*
X13227050Y-12077700D01*
X13227050Y-12039600D02*
X13188950Y-12077700D01*
X13217768Y-11475719D02*
X13255868Y-11513819D01*
X13255868Y-11475719D02*
X13217768Y-11513819D01*
X13235780Y-11224420D02*
X13273880Y-11262520D01*
X13273880Y-11224420D02*
X13235780Y-11262520D01*
X13246100Y-11861800D02*
X13284200Y-11899900D01*
X13284200Y-11861800D02*
X13246100Y-11899900D01*
X13315950Y-10374630D02*
X13354050Y-10412730D01*
X13354050Y-10374630D02*
X13315950Y-10412730D01*
X13328650Y-10763250D02*
X13366750Y-10801350D01*
X13366750Y-10763250D02*
X13328650Y-10801350D01*
X13360400Y-10890250D02*
X13398500Y-10928350D01*
X13398500Y-10890250D02*
X13360400Y-10928350D01*
X13404850Y-12515850D02*
X13442950Y-12553950D01*
X13442950Y-12515850D02*
X13404850Y-12553950D01*
X13417550Y-10585450D02*
X13455650Y-10623550D01*
X13455650Y-10585450D02*
X13417550Y-10623550D01*
X13417550Y-10680700D02*
X13455650Y-10718800D01*
X13455650Y-10680700D02*
X13417550Y-10718800D01*
X13442950Y-10280650D02*
X13481050Y-10318750D01*
X13481050Y-10280650D02*
X13442950Y-10318750D01*
X13671550Y-10775950D02*
X13709650Y-10814050D01*
X13709650Y-10775950D02*
X13671550Y-10814050D01*
X13760450Y-10852150D02*
X13798550Y-10890250D01*
X13798550Y-10852150D02*
X13760450Y-10890250D01*
X13811250Y-12160250D02*
X13849350Y-12198350D01*
X13849350Y-12160250D02*
X13811250Y-12198350D01*
X13741400Y-11366500D02*
G75*
G03X13741400Y-11366500I-25400J0D01*
G74*
G01*
X13741400Y-11493500D02*
G75*
G03X13741400Y-11493500I-25400J0D01*
G74*
G01*
X13741400Y-11620500D02*
G75*
G03X13741400Y-11620500I-25400J0D01*
G74*
G01*
X13741400Y-11747500D02*
G75*
G03X13741400Y-11747500I-25400J0D01*
G74*
G01*
X13741400Y-11874500D02*
G75*
G03X13741400Y-11874500I-25400J0D01*
G74*
G01*
X13868400Y-11366500D02*
G75*
G03X13868400Y-11366500I-25400J0D01*
G74*
G01*
X13868400Y-11493500D02*
G75*
G03X13868400Y-11493500I-25400J0D01*
G74*
G01*
X13868400Y-11620500D02*
G75*
G03X13868400Y-11620500I-25400J0D01*
G74*
G01*
X13868400Y-11747500D02*
G75*
G03X13868400Y-11747500I-25400J0D01*
G74*
G01*
X13868400Y-11874500D02*
G75*
G03X13868400Y-11874500I-25400J0D01*
G74*
G01*
X10922000Y-12465050D02*
X10922000Y-12553950D01*
X10877550Y-12509500D02*
X10966450Y-12509500D01*
X11176000Y-12465050D02*
X11176000Y-12553950D01*
X11131550Y-12509500D02*
X11220450Y-12509500D01*
X11430000Y-12465050D02*
X11430000Y-12553950D01*
X11385550Y-12509500D02*
X11474450Y-12509500D01*
X11684000Y-12465050D02*
X11684000Y-12553950D01*
X11639550Y-12509500D02*
X11728450Y-12509500D01*
X11938000Y-12465050D02*
X11938000Y-12553950D01*
X11893550Y-12509500D02*
X11982450Y-12509500D01*
X12192000Y-12465050D02*
X12192000Y-12553950D01*
X12147550Y-12509500D02*
X12236450Y-12509500D01*
X12446000Y-12465050D02*
X12446000Y-12553950D01*
X12401550Y-12509500D02*
X12490450Y-12509500D01*
X12700000Y-12465050D02*
X12700000Y-12553950D01*
X12655550Y-12509500D02*
X12744450Y-12509500D01*
X12954000Y-12465050D02*
X12954000Y-12553950D01*
X12909550Y-12509500D02*
X12998450Y-12509500D01*
X13208000Y-12465050D02*
X13208000Y-12553950D01*
X13163550Y-12509500D02*
X13252450Y-12509500D01*
D13*
X10426429Y-13170714D02*
X10426429Y-12870714D01*
X10497857Y-12870714D01*
X10540714Y-12885000D01*
X10569286Y-12913571D01*
X10583571Y-12942143D01*
X10597857Y-12999286D01*
X10597857Y-13042143D01*
X10583571Y-13099286D01*
X10569286Y-13127857D01*
X10540714Y-13156429D01*
X10497857Y-13170714D01*
X10426429Y-13170714D01*
X10726429Y-13170714D02*
X10726429Y-12970714D01*
X10726429Y-13027857D02*
X10740714Y-12999286D01*
X10755000Y-12985000D01*
X10783571Y-12970714D01*
X10812143Y-12970714D01*
X10912143Y-13170714D02*
X10912143Y-12970714D01*
X10912143Y-12870714D02*
X10897857Y-12885000D01*
X10912143Y-12899286D01*
X10926429Y-12885000D01*
X10912143Y-12870714D01*
X10912143Y-12899286D01*
X11097857Y-13170714D02*
X11069286Y-13156429D01*
X11055000Y-13127857D01*
X11055000Y-12870714D01*
X11255000Y-13170714D02*
X11226428Y-13156429D01*
X11212143Y-13127857D01*
X11212143Y-12870714D01*
X11597857Y-13170714D02*
X11597857Y-12870714D01*
X11697857Y-13085000D01*
X11797857Y-12870714D01*
X11797857Y-13170714D01*
X12069286Y-13170714D02*
X12069286Y-13013571D01*
X12055000Y-12985000D01*
X12026428Y-12970714D01*
X11969286Y-12970714D01*
X11940714Y-12985000D01*
X12069286Y-13156429D02*
X12040714Y-13170714D01*
X11969286Y-13170714D01*
X11940714Y-13156429D01*
X11926428Y-13127857D01*
X11926428Y-13099286D01*
X11940714Y-13070714D01*
X11969286Y-13056429D01*
X12040714Y-13056429D01*
X12069286Y-13042143D01*
X12212143Y-12970714D02*
X12212143Y-13270714D01*
X12212143Y-12985000D02*
X12240714Y-12970714D01*
X12297857Y-12970714D01*
X12326428Y-12985000D01*
X12340714Y-12999286D01*
X12355000Y-13027857D01*
X12355000Y-13113571D01*
X12340714Y-13142143D01*
X12326428Y-13156429D01*
X12297857Y-13170714D01*
X12240714Y-13170714D01*
X12212143Y-13156429D01*
X12483571Y-13142143D02*
X12497857Y-13156429D01*
X12483571Y-13170714D01*
X12469286Y-13156429D01*
X12483571Y-13142143D01*
X12483571Y-13170714D01*
X12483571Y-12985000D02*
X12497857Y-12999286D01*
X12483571Y-13013571D01*
X12469286Y-12999286D01*
X12483571Y-12985000D01*
X12483571Y-13013571D01*
X10116900Y-13645950D02*
X10155000Y-13684050D01*
X10155000Y-13645950D02*
X10116900Y-13684050D01*
X10483571Y-13500714D02*
X10512143Y-13500714D01*
X10540714Y-13515000D01*
X10555000Y-13529286D01*
X10569286Y-13557857D01*
X10583571Y-13615000D01*
X10583571Y-13686429D01*
X10569286Y-13743571D01*
X10555000Y-13772143D01*
X10540714Y-13786429D01*
X10512143Y-13800714D01*
X10483571Y-13800714D01*
X10455000Y-13786429D01*
X10440714Y-13772143D01*
X10426429Y-13743571D01*
X10412143Y-13686429D01*
X10412143Y-13615000D01*
X10426429Y-13557857D01*
X10440714Y-13529286D01*
X10455000Y-13515000D01*
X10483571Y-13500714D01*
X10712143Y-13772143D02*
X10726429Y-13786429D01*
X10712143Y-13800714D01*
X10697857Y-13786429D01*
X10712143Y-13772143D01*
X10712143Y-13800714D01*
X10826428Y-13500714D02*
X11012143Y-13500714D01*
X10912143Y-13615000D01*
X10955000Y-13615000D01*
X10983571Y-13629286D01*
X10997857Y-13643571D01*
X11012143Y-13672143D01*
X11012143Y-13743571D01*
X10997857Y-13772143D01*
X10983571Y-13786429D01*
X10955000Y-13800714D01*
X10869286Y-13800714D01*
X10840714Y-13786429D01*
X10826428Y-13772143D01*
X11183571Y-13629286D02*
X11155000Y-13615000D01*
X11140714Y-13600714D01*
X11126429Y-13572143D01*
X11126429Y-13557857D01*
X11140714Y-13529286D01*
X11155000Y-13515000D01*
X11183571Y-13500714D01*
X11240714Y-13500714D01*
X11269286Y-13515000D01*
X11283571Y-13529286D01*
X11297857Y-13557857D01*
X11297857Y-13572143D01*
X11283571Y-13600714D01*
X11269286Y-13615000D01*
X11240714Y-13629286D01*
X11183571Y-13629286D01*
X11155000Y-13643571D01*
X11140714Y-13657857D01*
X11126429Y-13686429D01*
X11126429Y-13743571D01*
X11140714Y-13772143D01*
X11155000Y-13786429D01*
X11183571Y-13800714D01*
X11240714Y-13800714D01*
X11269286Y-13786429D01*
X11283571Y-13772143D01*
X11297857Y-13743571D01*
X11297857Y-13686429D01*
X11283571Y-13657857D01*
X11269286Y-13643571D01*
X11240714Y-13629286D01*
X11426428Y-13800714D02*
X11426428Y-13600714D01*
X11426428Y-13629286D02*
X11440714Y-13615000D01*
X11469286Y-13600714D01*
X11512143Y-13600714D01*
X11540714Y-13615000D01*
X11555000Y-13643571D01*
X11555000Y-13800714D01*
X11555000Y-13643571D02*
X11569286Y-13615000D01*
X11597857Y-13600714D01*
X11640714Y-13600714D01*
X11669286Y-13615000D01*
X11683571Y-13643571D01*
X11683571Y-13800714D01*
X11826428Y-13800714D02*
X11826428Y-13600714D01*
X11826428Y-13629286D02*
X11840714Y-13615000D01*
X11869286Y-13600714D01*
X11912143Y-13600714D01*
X11940714Y-13615000D01*
X11955000Y-13643571D01*
X11955000Y-13800714D01*
X11955000Y-13643571D02*
X11969286Y-13615000D01*
X11997857Y-13600714D01*
X12040714Y-13600714D01*
X12069286Y-13615000D01*
X12083571Y-13643571D01*
X12083571Y-13800714D01*
X12669286Y-13486429D02*
X12412143Y-13872143D01*
X13055000Y-13500714D02*
X13083571Y-13500714D01*
X13112143Y-13515000D01*
X13126428Y-13529286D01*
X13140714Y-13557857D01*
X13155000Y-13615000D01*
X13155000Y-13686429D01*
X13140714Y-13743571D01*
X13126428Y-13772143D01*
X13112143Y-13786429D01*
X13083571Y-13800714D01*
X13055000Y-13800714D01*
X13026428Y-13786429D01*
X13012143Y-13772143D01*
X12997857Y-13743571D01*
X12983571Y-13686429D01*
X12983571Y-13615000D01*
X12997857Y-13557857D01*
X13012143Y-13529286D01*
X13026428Y-13515000D01*
X13055000Y-13500714D01*
X13283571Y-13772143D02*
X13297857Y-13786429D01*
X13283571Y-13800714D01*
X13269286Y-13786429D01*
X13283571Y-13772143D01*
X13283571Y-13800714D01*
X13483571Y-13500714D02*
X13512143Y-13500714D01*
X13540714Y-13515000D01*
X13555000Y-13529286D01*
X13569285Y-13557857D01*
X13583571Y-13615000D01*
X13583571Y-13686429D01*
X13569285Y-13743571D01*
X13555000Y-13772143D01*
X13540714Y-13786429D01*
X13512143Y-13800714D01*
X13483571Y-13800714D01*
X13455000Y-13786429D01*
X13440714Y-13772143D01*
X13426428Y-13743571D01*
X13412143Y-13686429D01*
X13412143Y-13615000D01*
X13426428Y-13557857D01*
X13440714Y-13529286D01*
X13455000Y-13515000D01*
X13483571Y-13500714D01*
X13869285Y-13800714D02*
X13697857Y-13800714D01*
X13783571Y-13800714D02*
X13783571Y-13500714D01*
X13755000Y-13543571D01*
X13726428Y-13572143D01*
X13697857Y-13586429D01*
X14140714Y-13500714D02*
X13997857Y-13500714D01*
X13983571Y-13643571D01*
X13997857Y-13629286D01*
X14026428Y-13615000D01*
X14097857Y-13615000D01*
X14126428Y-13629286D01*
X14140714Y-13643571D01*
X14155000Y-13672143D01*
X14155000Y-13743571D01*
X14140714Y-13772143D01*
X14126428Y-13786429D01*
X14097857Y-13800714D01*
X14026428Y-13800714D01*
X13997857Y-13786429D01*
X13983571Y-13772143D01*
X14269286Y-13500714D02*
X14269286Y-13557857D01*
X14383571Y-13500714D02*
X14383571Y-13557857D01*
X14826428Y-13915000D02*
X14812143Y-13900714D01*
X14783571Y-13857857D01*
X14769285Y-13829286D01*
X14755000Y-13786429D01*
X14740714Y-13715000D01*
X14740714Y-13657857D01*
X14755000Y-13586429D01*
X14769285Y-13543571D01*
X14783571Y-13515000D01*
X14812143Y-13472143D01*
X14826428Y-13457857D01*
X15097857Y-13800714D02*
X14926428Y-13800714D01*
X15012143Y-13800714D02*
X15012143Y-13500714D01*
X14983571Y-13543571D01*
X14955000Y-13572143D01*
X14926428Y-13586429D01*
X15383571Y-13800714D02*
X15212143Y-13800714D01*
X15297857Y-13800714D02*
X15297857Y-13500714D01*
X15269285Y-13543571D01*
X15240714Y-13572143D01*
X15212143Y-13586429D01*
X15555000Y-13629286D02*
X15526428Y-13615000D01*
X15512143Y-13600714D01*
X15497857Y-13572143D01*
X15497857Y-13557857D01*
X15512143Y-13529286D01*
X15526428Y-13515000D01*
X15555000Y-13500714D01*
X15612143Y-13500714D01*
X15640714Y-13515000D01*
X15655000Y-13529286D01*
X15669285Y-13557857D01*
X15669285Y-13572143D01*
X15655000Y-13600714D01*
X15640714Y-13615000D01*
X15612143Y-13629286D01*
X15555000Y-13629286D01*
X15526428Y-13643571D01*
X15512143Y-13657857D01*
X15497857Y-13686429D01*
X15497857Y-13743571D01*
X15512143Y-13772143D01*
X15526428Y-13786429D01*
X15555000Y-13800714D01*
X15612143Y-13800714D01*
X15640714Y-13786429D01*
X15655000Y-13772143D01*
X15669285Y-13743571D01*
X15669285Y-13686429D01*
X15655000Y-13657857D01*
X15640714Y-13643571D01*
X15612143Y-13629286D01*
X16026428Y-13800714D02*
X16026428Y-13500714D01*
X16155000Y-13800714D02*
X16155000Y-13643571D01*
X16140714Y-13615000D01*
X16112143Y-13600714D01*
X16069285Y-13600714D01*
X16040714Y-13615000D01*
X16026428Y-13629286D01*
X16340714Y-13800714D02*
X16312143Y-13786429D01*
X16297857Y-13772143D01*
X16283571Y-13743571D01*
X16283571Y-13657857D01*
X16297857Y-13629286D01*
X16312143Y-13615000D01*
X16340714Y-13600714D01*
X16383571Y-13600714D01*
X16412143Y-13615000D01*
X16426428Y-13629286D01*
X16440714Y-13657857D01*
X16440714Y-13743571D01*
X16426428Y-13772143D01*
X16412143Y-13786429D01*
X16383571Y-13800714D01*
X16340714Y-13800714D01*
X16612143Y-13800714D02*
X16583571Y-13786429D01*
X16569286Y-13757857D01*
X16569286Y-13500714D01*
X16840714Y-13786429D02*
X16812143Y-13800714D01*
X16755000Y-13800714D01*
X16726428Y-13786429D01*
X16712143Y-13757857D01*
X16712143Y-13643571D01*
X16726428Y-13615000D01*
X16755000Y-13600714D01*
X16812143Y-13600714D01*
X16840714Y-13615000D01*
X16855000Y-13643571D01*
X16855000Y-13672143D01*
X16712143Y-13700714D01*
X16969286Y-13786429D02*
X16997857Y-13800714D01*
X17055000Y-13800714D01*
X17083571Y-13786429D01*
X17097857Y-13757857D01*
X17097857Y-13743571D01*
X17083571Y-13715000D01*
X17055000Y-13700714D01*
X17012143Y-13700714D01*
X16983571Y-13686429D01*
X16969286Y-13657857D01*
X16969286Y-13643571D01*
X16983571Y-13615000D01*
X17012143Y-13600714D01*
X17055000Y-13600714D01*
X17083571Y-13615000D01*
X17197857Y-13915000D02*
X17212143Y-13900714D01*
X17240714Y-13857857D01*
X17255000Y-13829286D01*
X17269286Y-13786429D01*
X17283571Y-13715000D01*
X17283571Y-13657857D01*
X17269286Y-13586429D01*
X17255000Y-13543571D01*
X17240714Y-13515000D01*
X17212143Y-13472143D01*
X17197857Y-13457857D01*
D12*
X10155000Y-14061000D02*
G75*
G03X10155000Y-14061000I-25400J0D01*
G74*
G01*
D13*
X10483571Y-13896714D02*
X10512143Y-13896714D01*
X10540714Y-13911000D01*
X10555000Y-13925286D01*
X10569286Y-13953857D01*
X10583571Y-14011000D01*
X10583571Y-14082429D01*
X10569286Y-14139571D01*
X10555000Y-14168143D01*
X10540714Y-14182429D01*
X10512143Y-14196714D01*
X10483571Y-14196714D01*
X10455000Y-14182429D01*
X10440714Y-14168143D01*
X10426429Y-14139571D01*
X10412143Y-14082429D01*
X10412143Y-14011000D01*
X10426429Y-13953857D01*
X10440714Y-13925286D01*
X10455000Y-13911000D01*
X10483571Y-13896714D01*
X10712143Y-14168143D02*
X10726429Y-14182429D01*
X10712143Y-14196714D01*
X10697857Y-14182429D01*
X10712143Y-14168143D01*
X10712143Y-14196714D01*
X10997857Y-13896714D02*
X10855000Y-13896714D01*
X10840714Y-14039571D01*
X10855000Y-14025286D01*
X10883571Y-14011000D01*
X10955000Y-14011000D01*
X10983571Y-14025286D01*
X10997857Y-14039571D01*
X11012143Y-14068143D01*
X11012143Y-14139571D01*
X10997857Y-14168143D01*
X10983571Y-14182429D01*
X10955000Y-14196714D01*
X10883571Y-14196714D01*
X10855000Y-14182429D01*
X10840714Y-14168143D01*
X11297857Y-14196714D02*
X11126429Y-14196714D01*
X11212143Y-14196714D02*
X11212143Y-13896714D01*
X11183571Y-13939571D01*
X11155000Y-13968143D01*
X11126429Y-13982429D01*
X11426428Y-14196714D02*
X11426428Y-13996714D01*
X11426428Y-14025286D02*
X11440714Y-14011000D01*
X11469286Y-13996714D01*
X11512143Y-13996714D01*
X11540714Y-14011000D01*
X11555000Y-14039571D01*
X11555000Y-14196714D01*
X11555000Y-14039571D02*
X11569286Y-14011000D01*
X11597857Y-13996714D01*
X11640714Y-13996714D01*
X11669286Y-14011000D01*
X11683571Y-14039571D01*
X11683571Y-14196714D01*
X11826428Y-14196714D02*
X11826428Y-13996714D01*
X11826428Y-14025286D02*
X11840714Y-14011000D01*
X11869286Y-13996714D01*
X11912143Y-13996714D01*
X11940714Y-14011000D01*
X11955000Y-14039571D01*
X11955000Y-14196714D01*
X11955000Y-14039571D02*
X11969286Y-14011000D01*
X11997857Y-13996714D01*
X12040714Y-13996714D01*
X12069286Y-14011000D01*
X12083571Y-14039571D01*
X12083571Y-14196714D01*
X12669286Y-13882429D02*
X12412143Y-14268143D01*
X13055000Y-13896714D02*
X13083571Y-13896714D01*
X13112143Y-13911000D01*
X13126428Y-13925286D01*
X13140714Y-13953857D01*
X13155000Y-14011000D01*
X13155000Y-14082429D01*
X13140714Y-14139571D01*
X13126428Y-14168143D01*
X13112143Y-14182429D01*
X13083571Y-14196714D01*
X13055000Y-14196714D01*
X13026428Y-14182429D01*
X13012143Y-14168143D01*
X12997857Y-14139571D01*
X12983571Y-14082429D01*
X12983571Y-14011000D01*
X12997857Y-13953857D01*
X13012143Y-13925286D01*
X13026428Y-13911000D01*
X13055000Y-13896714D01*
X13283571Y-14168143D02*
X13297857Y-14182429D01*
X13283571Y-14196714D01*
X13269286Y-14182429D01*
X13283571Y-14168143D01*
X13283571Y-14196714D01*
X13483571Y-13896714D02*
X13512143Y-13896714D01*
X13540714Y-13911000D01*
X13555000Y-13925286D01*
X13569285Y-13953857D01*
X13583571Y-14011000D01*
X13583571Y-14082429D01*
X13569285Y-14139571D01*
X13555000Y-14168143D01*
X13540714Y-14182429D01*
X13512143Y-14196714D01*
X13483571Y-14196714D01*
X13455000Y-14182429D01*
X13440714Y-14168143D01*
X13426428Y-14139571D01*
X13412143Y-14082429D01*
X13412143Y-14011000D01*
X13426428Y-13953857D01*
X13440714Y-13925286D01*
X13455000Y-13911000D01*
X13483571Y-13896714D01*
X13697857Y-13925286D02*
X13712143Y-13911000D01*
X13740714Y-13896714D01*
X13812143Y-13896714D01*
X13840714Y-13911000D01*
X13855000Y-13925286D01*
X13869285Y-13953857D01*
X13869285Y-13982429D01*
X13855000Y-14025286D01*
X13683571Y-14196714D01*
X13869285Y-14196714D01*
X14055000Y-13896714D02*
X14083571Y-13896714D01*
X14112143Y-13911000D01*
X14126428Y-13925286D01*
X14140714Y-13953857D01*
X14155000Y-14011000D01*
X14155000Y-14082429D01*
X14140714Y-14139571D01*
X14126428Y-14168143D01*
X14112143Y-14182429D01*
X14083571Y-14196714D01*
X14055000Y-14196714D01*
X14026428Y-14182429D01*
X14012143Y-14168143D01*
X13997857Y-14139571D01*
X13983571Y-14082429D01*
X13983571Y-14011000D01*
X13997857Y-13953857D01*
X14012143Y-13925286D01*
X14026428Y-13911000D01*
X14055000Y-13896714D01*
X14269286Y-13896714D02*
X14269286Y-13953857D01*
X14383571Y-13896714D02*
X14383571Y-13953857D01*
X14826428Y-14311000D02*
X14812143Y-14296714D01*
X14783571Y-14253857D01*
X14769285Y-14225286D01*
X14755000Y-14182429D01*
X14740714Y-14111000D01*
X14740714Y-14053857D01*
X14755000Y-13982429D01*
X14769285Y-13939571D01*
X14783571Y-13911000D01*
X14812143Y-13868143D01*
X14826428Y-13853857D01*
X15097857Y-14196714D02*
X14926428Y-14196714D01*
X15012143Y-14196714D02*
X15012143Y-13896714D01*
X14983571Y-13939571D01*
X14955000Y-13968143D01*
X14926428Y-13982429D01*
X15283571Y-13896714D02*
X15312143Y-13896714D01*
X15340714Y-13911000D01*
X15355000Y-13925286D01*
X15369285Y-13953857D01*
X15383571Y-14011000D01*
X15383571Y-14082429D01*
X15369285Y-14139571D01*
X15355000Y-14168143D01*
X15340714Y-14182429D01*
X15312143Y-14196714D01*
X15283571Y-14196714D01*
X15255000Y-14182429D01*
X15240714Y-14168143D01*
X15226428Y-14139571D01*
X15212143Y-14082429D01*
X15212143Y-14011000D01*
X15226428Y-13953857D01*
X15240714Y-13925286D01*
X15255000Y-13911000D01*
X15283571Y-13896714D01*
X15740714Y-14196714D02*
X15740714Y-13896714D01*
X15869285Y-14196714D02*
X15869285Y-14039571D01*
X15855000Y-14011000D01*
X15826428Y-13996714D01*
X15783571Y-13996714D01*
X15755000Y-14011000D01*
X15740714Y-14025286D01*
X16055000Y-14196714D02*
X16026428Y-14182429D01*
X16012143Y-14168143D01*
X15997857Y-14139571D01*
X15997857Y-14053857D01*
X16012143Y-14025286D01*
X16026428Y-14011000D01*
X16055000Y-13996714D01*
X16097857Y-13996714D01*
X16126428Y-14011000D01*
X16140714Y-14025286D01*
X16155000Y-14053857D01*
X16155000Y-14139571D01*
X16140714Y-14168143D01*
X16126428Y-14182429D01*
X16097857Y-14196714D01*
X16055000Y-14196714D01*
X16326428Y-14196714D02*
X16297857Y-14182429D01*
X16283571Y-14153857D01*
X16283571Y-13896714D01*
X16555000Y-14182429D02*
X16526428Y-14196714D01*
X16469286Y-14196714D01*
X16440714Y-14182429D01*
X16426428Y-14153857D01*
X16426428Y-14039571D01*
X16440714Y-14011000D01*
X16469286Y-13996714D01*
X16526428Y-13996714D01*
X16555000Y-14011000D01*
X16569286Y-14039571D01*
X16569286Y-14068143D01*
X16426428Y-14096714D01*
X16683571Y-14182429D02*
X16712143Y-14196714D01*
X16769286Y-14196714D01*
X16797857Y-14182429D01*
X16812143Y-14153857D01*
X16812143Y-14139571D01*
X16797857Y-14111000D01*
X16769286Y-14096714D01*
X16726428Y-14096714D01*
X16697857Y-14082429D01*
X16683571Y-14053857D01*
X16683571Y-14039571D01*
X16697857Y-14011000D01*
X16726428Y-13996714D01*
X16769286Y-13996714D01*
X16797857Y-14011000D01*
X16912143Y-14311000D02*
X16926429Y-14296714D01*
X16955000Y-14253857D01*
X16969286Y-14225286D01*
X16983571Y-14182429D01*
X16997857Y-14111000D01*
X16997857Y-14053857D01*
X16983571Y-13982429D01*
X16969286Y-13939571D01*
X16955000Y-13911000D01*
X16926429Y-13868143D01*
X16912143Y-13853857D01*
X10110550Y-14412550D02*
X10110550Y-14501450D01*
X10066100Y-14457000D02*
X10155000Y-14457000D01*
X10483571Y-14292714D02*
X10512143Y-14292714D01*
X10540714Y-14307000D01*
X10555000Y-14321286D01*
X10569286Y-14349857D01*
X10583571Y-14407000D01*
X10583571Y-14478429D01*
X10569286Y-14535571D01*
X10555000Y-14564143D01*
X10540714Y-14578429D01*
X10512143Y-14592714D01*
X10483571Y-14592714D01*
X10455000Y-14578429D01*
X10440714Y-14564143D01*
X10426429Y-14535571D01*
X10412143Y-14478429D01*
X10412143Y-14407000D01*
X10426429Y-14349857D01*
X10440714Y-14321286D01*
X10455000Y-14307000D01*
X10483571Y-14292714D01*
X10712143Y-14564143D02*
X10726429Y-14578429D01*
X10712143Y-14592714D01*
X10697857Y-14578429D01*
X10712143Y-14564143D01*
X10712143Y-14592714D01*
X10897857Y-14421286D02*
X10869286Y-14407000D01*
X10855000Y-14392714D01*
X10840714Y-14364143D01*
X10840714Y-14349857D01*
X10855000Y-14321286D01*
X10869286Y-14307000D01*
X10897857Y-14292714D01*
X10955000Y-14292714D01*
X10983571Y-14307000D01*
X10997857Y-14321286D01*
X11012143Y-14349857D01*
X11012143Y-14364143D01*
X10997857Y-14392714D01*
X10983571Y-14407000D01*
X10955000Y-14421286D01*
X10897857Y-14421286D01*
X10869286Y-14435571D01*
X10855000Y-14449857D01*
X10840714Y-14478429D01*
X10840714Y-14535571D01*
X10855000Y-14564143D01*
X10869286Y-14578429D01*
X10897857Y-14592714D01*
X10955000Y-14592714D01*
X10983571Y-14578429D01*
X10997857Y-14564143D01*
X11012143Y-14535571D01*
X11012143Y-14478429D01*
X10997857Y-14449857D01*
X10983571Y-14435571D01*
X10955000Y-14421286D01*
X11155000Y-14592714D02*
X11212143Y-14592714D01*
X11240714Y-14578429D01*
X11255000Y-14564143D01*
X11283571Y-14521286D01*
X11297857Y-14464143D01*
X11297857Y-14349857D01*
X11283571Y-14321286D01*
X11269286Y-14307000D01*
X11240714Y-14292714D01*
X11183571Y-14292714D01*
X11155000Y-14307000D01*
X11140714Y-14321286D01*
X11126429Y-14349857D01*
X11126429Y-14421286D01*
X11140714Y-14449857D01*
X11155000Y-14464143D01*
X11183571Y-14478429D01*
X11240714Y-14478429D01*
X11269286Y-14464143D01*
X11283571Y-14449857D01*
X11297857Y-14421286D01*
X11426428Y-14592714D02*
X11426428Y-14392714D01*
X11426428Y-14421286D02*
X11440714Y-14407000D01*
X11469286Y-14392714D01*
X11512143Y-14392714D01*
X11540714Y-14407000D01*
X11555000Y-14435571D01*
X11555000Y-14592714D01*
X11555000Y-14435571D02*
X11569286Y-14407000D01*
X11597857Y-14392714D01*
X11640714Y-14392714D01*
X11669286Y-14407000D01*
X11683571Y-14435571D01*
X11683571Y-14592714D01*
X11826428Y-14592714D02*
X11826428Y-14392714D01*
X11826428Y-14421286D02*
X11840714Y-14407000D01*
X11869286Y-14392714D01*
X11912143Y-14392714D01*
X11940714Y-14407000D01*
X11955000Y-14435571D01*
X11955000Y-14592714D01*
X11955000Y-14435571D02*
X11969286Y-14407000D01*
X11997857Y-14392714D01*
X12040714Y-14392714D01*
X12069286Y-14407000D01*
X12083571Y-14435571D01*
X12083571Y-14592714D01*
X12669286Y-14278429D02*
X12412143Y-14664143D01*
X13055000Y-14292714D02*
X13083571Y-14292714D01*
X13112143Y-14307000D01*
X13126428Y-14321286D01*
X13140714Y-14349857D01*
X13155000Y-14407000D01*
X13155000Y-14478429D01*
X13140714Y-14535571D01*
X13126428Y-14564143D01*
X13112143Y-14578429D01*
X13083571Y-14592714D01*
X13055000Y-14592714D01*
X13026428Y-14578429D01*
X13012143Y-14564143D01*
X12997857Y-14535571D01*
X12983571Y-14478429D01*
X12983571Y-14407000D01*
X12997857Y-14349857D01*
X13012143Y-14321286D01*
X13026428Y-14307000D01*
X13055000Y-14292714D01*
X13283571Y-14564143D02*
X13297857Y-14578429D01*
X13283571Y-14592714D01*
X13269286Y-14578429D01*
X13283571Y-14564143D01*
X13283571Y-14592714D01*
X13483571Y-14292714D02*
X13512143Y-14292714D01*
X13540714Y-14307000D01*
X13555000Y-14321286D01*
X13569285Y-14349857D01*
X13583571Y-14407000D01*
X13583571Y-14478429D01*
X13569285Y-14535571D01*
X13555000Y-14564143D01*
X13540714Y-14578429D01*
X13512143Y-14592714D01*
X13483571Y-14592714D01*
X13455000Y-14578429D01*
X13440714Y-14564143D01*
X13426428Y-14535571D01*
X13412143Y-14478429D01*
X13412143Y-14407000D01*
X13426428Y-14349857D01*
X13440714Y-14321286D01*
X13455000Y-14307000D01*
X13483571Y-14292714D01*
X13683571Y-14292714D02*
X13869285Y-14292714D01*
X13769285Y-14407000D01*
X13812143Y-14407000D01*
X13840714Y-14421286D01*
X13855000Y-14435571D01*
X13869285Y-14464143D01*
X13869285Y-14535571D01*
X13855000Y-14564143D01*
X13840714Y-14578429D01*
X13812143Y-14592714D01*
X13726428Y-14592714D01*
X13697857Y-14578429D01*
X13683571Y-14564143D01*
X14140714Y-14292714D02*
X13997857Y-14292714D01*
X13983571Y-14435571D01*
X13997857Y-14421286D01*
X14026428Y-14407000D01*
X14097857Y-14407000D01*
X14126428Y-14421286D01*
X14140714Y-14435571D01*
X14155000Y-14464143D01*
X14155000Y-14535571D01*
X14140714Y-14564143D01*
X14126428Y-14578429D01*
X14097857Y-14592714D01*
X14026428Y-14592714D01*
X13997857Y-14578429D01*
X13983571Y-14564143D01*
X14269286Y-14292714D02*
X14269286Y-14349857D01*
X14383571Y-14292714D02*
X14383571Y-14349857D01*
X14826428Y-14707000D02*
X14812143Y-14692714D01*
X14783571Y-14649857D01*
X14769285Y-14621286D01*
X14755000Y-14578429D01*
X14740714Y-14507000D01*
X14740714Y-14449857D01*
X14755000Y-14378429D01*
X14769285Y-14335571D01*
X14783571Y-14307000D01*
X14812143Y-14264143D01*
X14826428Y-14249857D01*
X15097857Y-14592714D02*
X14926428Y-14592714D01*
X15012143Y-14592714D02*
X15012143Y-14292714D01*
X14983571Y-14335571D01*
X14955000Y-14364143D01*
X14926428Y-14378429D01*
X15283571Y-14292714D02*
X15312143Y-14292714D01*
X15340714Y-14307000D01*
X15355000Y-14321286D01*
X15369285Y-14349857D01*
X15383571Y-14407000D01*
X15383571Y-14478429D01*
X15369285Y-14535571D01*
X15355000Y-14564143D01*
X15340714Y-14578429D01*
X15312143Y-14592714D01*
X15283571Y-14592714D01*
X15255000Y-14578429D01*
X15240714Y-14564143D01*
X15226428Y-14535571D01*
X15212143Y-14478429D01*
X15212143Y-14407000D01*
X15226428Y-14349857D01*
X15240714Y-14321286D01*
X15255000Y-14307000D01*
X15283571Y-14292714D01*
X15740714Y-14592714D02*
X15740714Y-14292714D01*
X15869285Y-14592714D02*
X15869285Y-14435571D01*
X15855000Y-14407000D01*
X15826428Y-14392714D01*
X15783571Y-14392714D01*
X15755000Y-14407000D01*
X15740714Y-14421286D01*
X16055000Y-14592714D02*
X16026428Y-14578429D01*
X16012143Y-14564143D01*
X15997857Y-14535571D01*
X15997857Y-14449857D01*
X16012143Y-14421286D01*
X16026428Y-14407000D01*
X16055000Y-14392714D01*
X16097857Y-14392714D01*
X16126428Y-14407000D01*
X16140714Y-14421286D01*
X16155000Y-14449857D01*
X16155000Y-14535571D01*
X16140714Y-14564143D01*
X16126428Y-14578429D01*
X16097857Y-14592714D01*
X16055000Y-14592714D01*
X16326428Y-14592714D02*
X16297857Y-14578429D01*
X16283571Y-14549857D01*
X16283571Y-14292714D01*
X16555000Y-14578429D02*
X16526428Y-14592714D01*
X16469286Y-14592714D01*
X16440714Y-14578429D01*
X16426428Y-14549857D01*
X16426428Y-14435571D01*
X16440714Y-14407000D01*
X16469286Y-14392714D01*
X16526428Y-14392714D01*
X16555000Y-14407000D01*
X16569286Y-14435571D01*
X16569286Y-14464143D01*
X16426428Y-14492714D01*
X16683571Y-14578429D02*
X16712143Y-14592714D01*
X16769286Y-14592714D01*
X16797857Y-14578429D01*
X16812143Y-14549857D01*
X16812143Y-14535571D01*
X16797857Y-14507000D01*
X16769286Y-14492714D01*
X16726428Y-14492714D01*
X16697857Y-14478429D01*
X16683571Y-14449857D01*
X16683571Y-14435571D01*
X16697857Y-14407000D01*
X16726428Y-14392714D01*
X16769286Y-14392714D01*
X16797857Y-14407000D01*
X16912143Y-14707000D02*
X16926429Y-14692714D01*
X16955000Y-14649857D01*
X16969286Y-14621286D01*
X16983571Y-14578429D01*
X16997857Y-14507000D01*
X16997857Y-14449857D01*
X16983571Y-14378429D01*
X16969286Y-14335571D01*
X16955000Y-14307000D01*
X16926429Y-14264143D01*
X16912143Y-14249857D01*
D12*
D13*
X10583571Y-14988714D02*
X10412143Y-14988714D01*
X10497857Y-14988714D02*
X10497857Y-14688714D01*
X10469286Y-14731571D01*
X10440714Y-14760143D01*
X10412143Y-14774429D01*
X10712143Y-14960143D02*
X10726429Y-14974429D01*
X10712143Y-14988714D01*
X10697857Y-14974429D01*
X10712143Y-14960143D01*
X10712143Y-14988714D01*
X10912143Y-14688714D02*
X10940714Y-14688714D01*
X10969286Y-14703000D01*
X10983571Y-14717286D01*
X10997857Y-14745857D01*
X11012143Y-14803000D01*
X11012143Y-14874429D01*
X10997857Y-14931571D01*
X10983571Y-14960143D01*
X10969286Y-14974429D01*
X10940714Y-14988714D01*
X10912143Y-14988714D01*
X10883571Y-14974429D01*
X10869286Y-14960143D01*
X10855000Y-14931571D01*
X10840714Y-14874429D01*
X10840714Y-14803000D01*
X10855000Y-14745857D01*
X10869286Y-14717286D01*
X10883571Y-14703000D01*
X10912143Y-14688714D01*
X11126429Y-14717286D02*
X11140714Y-14703000D01*
X11169286Y-14688714D01*
X11240714Y-14688714D01*
X11269286Y-14703000D01*
X11283571Y-14717286D01*
X11297857Y-14745857D01*
X11297857Y-14774429D01*
X11283571Y-14817286D01*
X11112143Y-14988714D01*
X11297857Y-14988714D01*
X11426428Y-14988714D02*
X11426428Y-14788714D01*
X11426428Y-14817286D02*
X11440714Y-14803000D01*
X11469286Y-14788714D01*
X11512143Y-14788714D01*
X11540714Y-14803000D01*
X11555000Y-14831571D01*
X11555000Y-14988714D01*
X11555000Y-14831571D02*
X11569286Y-14803000D01*
X11597857Y-14788714D01*
X11640714Y-14788714D01*
X11669286Y-14803000D01*
X11683571Y-14831571D01*
X11683571Y-14988714D01*
X11826428Y-14988714D02*
X11826428Y-14788714D01*
X11826428Y-14817286D02*
X11840714Y-14803000D01*
X11869286Y-14788714D01*
X11912143Y-14788714D01*
X11940714Y-14803000D01*
X11955000Y-14831571D01*
X11955000Y-14988714D01*
X11955000Y-14831571D02*
X11969286Y-14803000D01*
X11997857Y-14788714D01*
X12040714Y-14788714D01*
X12069286Y-14803000D01*
X12083571Y-14831571D01*
X12083571Y-14988714D01*
X12669286Y-14674429D02*
X12412143Y-15060143D01*
X13055000Y-14688714D02*
X13083571Y-14688714D01*
X13112143Y-14703000D01*
X13126428Y-14717286D01*
X13140714Y-14745857D01*
X13155000Y-14803000D01*
X13155000Y-14874429D01*
X13140714Y-14931571D01*
X13126428Y-14960143D01*
X13112143Y-14974429D01*
X13083571Y-14988714D01*
X13055000Y-14988714D01*
X13026428Y-14974429D01*
X13012143Y-14960143D01*
X12997857Y-14931571D01*
X12983571Y-14874429D01*
X12983571Y-14803000D01*
X12997857Y-14745857D01*
X13012143Y-14717286D01*
X13026428Y-14703000D01*
X13055000Y-14688714D01*
X13283571Y-14960143D02*
X13297857Y-14974429D01*
X13283571Y-14988714D01*
X13269286Y-14974429D01*
X13283571Y-14960143D01*
X13283571Y-14988714D01*
X13483571Y-14688714D02*
X13512143Y-14688714D01*
X13540714Y-14703000D01*
X13555000Y-14717286D01*
X13569285Y-14745857D01*
X13583571Y-14803000D01*
X13583571Y-14874429D01*
X13569285Y-14931571D01*
X13555000Y-14960143D01*
X13540714Y-14974429D01*
X13512143Y-14988714D01*
X13483571Y-14988714D01*
X13455000Y-14974429D01*
X13440714Y-14960143D01*
X13426428Y-14931571D01*
X13412143Y-14874429D01*
X13412143Y-14803000D01*
X13426428Y-14745857D01*
X13440714Y-14717286D01*
X13455000Y-14703000D01*
X13483571Y-14688714D01*
X13840714Y-14788714D02*
X13840714Y-14988714D01*
X13769285Y-14674429D02*
X13697857Y-14888714D01*
X13883571Y-14888714D01*
X14055000Y-14688714D02*
X14083571Y-14688714D01*
X14112143Y-14703000D01*
X14126428Y-14717286D01*
X14140714Y-14745857D01*
X14155000Y-14803000D01*
X14155000Y-14874429D01*
X14140714Y-14931571D01*
X14126428Y-14960143D01*
X14112143Y-14974429D01*
X14083571Y-14988714D01*
X14055000Y-14988714D01*
X14026428Y-14974429D01*
X14012143Y-14960143D01*
X13997857Y-14931571D01*
X13983571Y-14874429D01*
X13983571Y-14803000D01*
X13997857Y-14745857D01*
X14012143Y-14717286D01*
X14026428Y-14703000D01*
X14055000Y-14688714D01*
X14269286Y-14688714D02*
X14269286Y-14745857D01*
X14383571Y-14688714D02*
X14383571Y-14745857D01*
X14826428Y-15103000D02*
X14812143Y-15088714D01*
X14783571Y-15045857D01*
X14769285Y-15017286D01*
X14755000Y-14974429D01*
X14740714Y-14903000D01*
X14740714Y-14845857D01*
X14755000Y-14774429D01*
X14769285Y-14731571D01*
X14783571Y-14703000D01*
X14812143Y-14660143D01*
X14826428Y-14645857D01*
X15097857Y-14988714D02*
X14926428Y-14988714D01*
X15012143Y-14988714D02*
X15012143Y-14688714D01*
X14983571Y-14731571D01*
X14955000Y-14760143D01*
X14926428Y-14774429D01*
X15197857Y-14688714D02*
X15383571Y-14688714D01*
X15283571Y-14803000D01*
X15326428Y-14803000D01*
X15355000Y-14817286D01*
X15369285Y-14831571D01*
X15383571Y-14860143D01*
X15383571Y-14931571D01*
X15369285Y-14960143D01*
X15355000Y-14974429D01*
X15326428Y-14988714D01*
X15240714Y-14988714D01*
X15212143Y-14974429D01*
X15197857Y-14960143D01*
X15740714Y-14988714D02*
X15740714Y-14688714D01*
X15869285Y-14988714D02*
X15869285Y-14831571D01*
X15855000Y-14803000D01*
X15826428Y-14788714D01*
X15783571Y-14788714D01*
X15755000Y-14803000D01*
X15740714Y-14817286D01*
X16055000Y-14988714D02*
X16026428Y-14974429D01*
X16012143Y-14960143D01*
X15997857Y-14931571D01*
X15997857Y-14845857D01*
X16012143Y-14817286D01*
X16026428Y-14803000D01*
X16055000Y-14788714D01*
X16097857Y-14788714D01*
X16126428Y-14803000D01*
X16140714Y-14817286D01*
X16155000Y-14845857D01*
X16155000Y-14931571D01*
X16140714Y-14960143D01*
X16126428Y-14974429D01*
X16097857Y-14988714D01*
X16055000Y-14988714D01*
X16326428Y-14988714D02*
X16297857Y-14974429D01*
X16283571Y-14945857D01*
X16283571Y-14688714D01*
X16555000Y-14974429D02*
X16526428Y-14988714D01*
X16469286Y-14988714D01*
X16440714Y-14974429D01*
X16426428Y-14945857D01*
X16426428Y-14831571D01*
X16440714Y-14803000D01*
X16469286Y-14788714D01*
X16526428Y-14788714D01*
X16555000Y-14803000D01*
X16569286Y-14831571D01*
X16569286Y-14860143D01*
X16426428Y-14888714D01*
X16683571Y-14974429D02*
X16712143Y-14988714D01*
X16769286Y-14988714D01*
X16797857Y-14974429D01*
X16812143Y-14945857D01*
X16812143Y-14931571D01*
X16797857Y-14903000D01*
X16769286Y-14888714D01*
X16726428Y-14888714D01*
X16697857Y-14874429D01*
X16683571Y-14845857D01*
X16683571Y-14831571D01*
X16697857Y-14803000D01*
X16726428Y-14788714D01*
X16769286Y-14788714D01*
X16797857Y-14803000D01*
X16912143Y-15103000D02*
X16926429Y-15088714D01*
X16955000Y-15045857D01*
X16969286Y-15017286D01*
X16983571Y-14974429D01*
X16997857Y-14903000D01*
X16997857Y-14845857D01*
X16983571Y-14774429D01*
X16969286Y-14731571D01*
X16955000Y-14703000D01*
X16926429Y-14660143D01*
X16912143Y-14645857D01*
M02*
