%FSLAX45Y45*%
G04 Gerber Fmt 4.5, Leading zero omitted, Abs format (unit mm)*
G04 Created by KiCad (PCBNEW (2014-08-29 BZR 5106)-product) date Thu 30 Oct 2014 03:32:49 PM PDT*
%MOMM*%
G01*
G04 APERTURE LIST*
%ADD10C,0.127000*%
%ADD11C,0.100000*%
%ADD12C,0.200000*%
%ADD13C,0.300000*%
G04 APERTURE END LIST*
D10*
D11*
X10414000Y-10160000D02*
X13716000Y-10160000D01*
X10160000Y-10414000D02*
X10160000Y-12446000D01*
X13970000Y-12446000D02*
X13970000Y-10414000D01*
X10414000Y-12700000D02*
X13716000Y-12700000D01*
X10414000Y-10160000D02*
G75*
G03X10160000Y-10414000I0J-254000D01*
G74*
G01*
X13970000Y-10414000D02*
G75*
G03X13716000Y-10160000I-254000J0D01*
G74*
G01*
X13716000Y-12700000D02*
G75*
G03X13970000Y-12446000I0J254000D01*
G74*
G01*
X10160000Y-12446000D02*
G75*
G03X10414000Y-12700000I254000J0D01*
G74*
G01*
D12*
X10309000Y-10309000D02*
X10519000Y-10519000D01*
X10519000Y-10309000D02*
X10309000Y-10519000D01*
X10309000Y-12341000D02*
X10519000Y-12551000D01*
X10519000Y-12341000D02*
X10309000Y-12551000D01*
X13611000Y-10309000D02*
X13821000Y-10519000D01*
X13821000Y-10309000D02*
X13611000Y-10519000D01*
X13611000Y-12341000D02*
X13821000Y-12551000D01*
X13821000Y-12341000D02*
X13611000Y-12551000D01*
D13*
X10426429Y-13170714D02*
X10426429Y-12870714D01*
X10497857Y-12870714D01*
X10540714Y-12885000D01*
X10569286Y-12913571D01*
X10583571Y-12942143D01*
X10597857Y-12999286D01*
X10597857Y-13042143D01*
X10583571Y-13099286D01*
X10569286Y-13127857D01*
X10540714Y-13156429D01*
X10497857Y-13170714D01*
X10426429Y-13170714D01*
X10726429Y-13170714D02*
X10726429Y-12970714D01*
X10726429Y-13027857D02*
X10740714Y-12999286D01*
X10755000Y-12985000D01*
X10783571Y-12970714D01*
X10812143Y-12970714D01*
X10912143Y-13170714D02*
X10912143Y-12970714D01*
X10912143Y-12870714D02*
X10897857Y-12885000D01*
X10912143Y-12899286D01*
X10926429Y-12885000D01*
X10912143Y-12870714D01*
X10912143Y-12899286D01*
X11097857Y-13170714D02*
X11069286Y-13156429D01*
X11055000Y-13127857D01*
X11055000Y-12870714D01*
X11255000Y-13170714D02*
X11226428Y-13156429D01*
X11212143Y-13127857D01*
X11212143Y-12870714D01*
X11597857Y-13170714D02*
X11597857Y-12870714D01*
X11697857Y-13085000D01*
X11797857Y-12870714D01*
X11797857Y-13170714D01*
X12069286Y-13170714D02*
X12069286Y-13013571D01*
X12055000Y-12985000D01*
X12026428Y-12970714D01*
X11969286Y-12970714D01*
X11940714Y-12985000D01*
X12069286Y-13156429D02*
X12040714Y-13170714D01*
X11969286Y-13170714D01*
X11940714Y-13156429D01*
X11926428Y-13127857D01*
X11926428Y-13099286D01*
X11940714Y-13070714D01*
X11969286Y-13056429D01*
X12040714Y-13056429D01*
X12069286Y-13042143D01*
X12212143Y-12970714D02*
X12212143Y-13270714D01*
X12212143Y-12985000D02*
X12240714Y-12970714D01*
X12297857Y-12970714D01*
X12326428Y-12985000D01*
X12340714Y-12999286D01*
X12355000Y-13027857D01*
X12355000Y-13113571D01*
X12340714Y-13142143D01*
X12326428Y-13156429D01*
X12297857Y-13170714D01*
X12240714Y-13170714D01*
X12212143Y-13156429D01*
X12483571Y-13142143D02*
X12497857Y-13156429D01*
X12483571Y-13170714D01*
X12469286Y-13156429D01*
X12483571Y-13142143D01*
X12483571Y-13170714D01*
X12483571Y-12985000D02*
X12497857Y-12999286D01*
X12483571Y-13013571D01*
X12469286Y-12999286D01*
X12483571Y-12985000D01*
X12483571Y-13013571D01*
X9945000Y-13560000D02*
X10155000Y-13770000D01*
X10155000Y-13560000D02*
X9945000Y-13770000D01*
X10412143Y-13529286D02*
X10426429Y-13515000D01*
X10455000Y-13500714D01*
X10526429Y-13500714D01*
X10555000Y-13515000D01*
X10569286Y-13529286D01*
X10583571Y-13557857D01*
X10583571Y-13586429D01*
X10569286Y-13629286D01*
X10397857Y-13800714D01*
X10583571Y-13800714D01*
X10712143Y-13772143D02*
X10726429Y-13786429D01*
X10712143Y-13800714D01*
X10697857Y-13786429D01*
X10712143Y-13772143D01*
X10712143Y-13800714D01*
X11012143Y-13800714D02*
X10840714Y-13800714D01*
X10926428Y-13800714D02*
X10926428Y-13500714D01*
X10897857Y-13543571D01*
X10869286Y-13572143D01*
X10840714Y-13586429D01*
X11197857Y-13500714D02*
X11226428Y-13500714D01*
X11255000Y-13515000D01*
X11269286Y-13529286D01*
X11283571Y-13557857D01*
X11297857Y-13615000D01*
X11297857Y-13686429D01*
X11283571Y-13743571D01*
X11269286Y-13772143D01*
X11255000Y-13786429D01*
X11226428Y-13800714D01*
X11197857Y-13800714D01*
X11169286Y-13786429D01*
X11155000Y-13772143D01*
X11140714Y-13743571D01*
X11126429Y-13686429D01*
X11126429Y-13615000D01*
X11140714Y-13557857D01*
X11155000Y-13529286D01*
X11169286Y-13515000D01*
X11197857Y-13500714D01*
X11426428Y-13800714D02*
X11426428Y-13600714D01*
X11426428Y-13629286D02*
X11440714Y-13615000D01*
X11469286Y-13600714D01*
X11512143Y-13600714D01*
X11540714Y-13615000D01*
X11555000Y-13643571D01*
X11555000Y-13800714D01*
X11555000Y-13643571D02*
X11569286Y-13615000D01*
X11597857Y-13600714D01*
X11640714Y-13600714D01*
X11669286Y-13615000D01*
X11683571Y-13643571D01*
X11683571Y-13800714D01*
X11826428Y-13800714D02*
X11826428Y-13600714D01*
X11826428Y-13629286D02*
X11840714Y-13615000D01*
X11869286Y-13600714D01*
X11912143Y-13600714D01*
X11940714Y-13615000D01*
X11955000Y-13643571D01*
X11955000Y-13800714D01*
X11955000Y-13643571D02*
X11969286Y-13615000D01*
X11997857Y-13600714D01*
X12040714Y-13600714D01*
X12069286Y-13615000D01*
X12083571Y-13643571D01*
X12083571Y-13800714D01*
X12669286Y-13486429D02*
X12412143Y-13872143D01*
X13055000Y-13500714D02*
X13083571Y-13500714D01*
X13112143Y-13515000D01*
X13126428Y-13529286D01*
X13140714Y-13557857D01*
X13155000Y-13615000D01*
X13155000Y-13686429D01*
X13140714Y-13743571D01*
X13126428Y-13772143D01*
X13112143Y-13786429D01*
X13083571Y-13800714D01*
X13055000Y-13800714D01*
X13026428Y-13786429D01*
X13012143Y-13772143D01*
X12997857Y-13743571D01*
X12983571Y-13686429D01*
X12983571Y-13615000D01*
X12997857Y-13557857D01*
X13012143Y-13529286D01*
X13026428Y-13515000D01*
X13055000Y-13500714D01*
X13283571Y-13772143D02*
X13297857Y-13786429D01*
X13283571Y-13800714D01*
X13269286Y-13786429D01*
X13283571Y-13772143D01*
X13283571Y-13800714D01*
X13483571Y-13500714D02*
X13512143Y-13500714D01*
X13540714Y-13515000D01*
X13555000Y-13529286D01*
X13569285Y-13557857D01*
X13583571Y-13615000D01*
X13583571Y-13686429D01*
X13569285Y-13743571D01*
X13555000Y-13772143D01*
X13540714Y-13786429D01*
X13512143Y-13800714D01*
X13483571Y-13800714D01*
X13455000Y-13786429D01*
X13440714Y-13772143D01*
X13426428Y-13743571D01*
X13412143Y-13686429D01*
X13412143Y-13615000D01*
X13426428Y-13557857D01*
X13440714Y-13529286D01*
X13455000Y-13515000D01*
X13483571Y-13500714D01*
X13755000Y-13629286D02*
X13726428Y-13615000D01*
X13712143Y-13600714D01*
X13697857Y-13572143D01*
X13697857Y-13557857D01*
X13712143Y-13529286D01*
X13726428Y-13515000D01*
X13755000Y-13500714D01*
X13812143Y-13500714D01*
X13840714Y-13515000D01*
X13855000Y-13529286D01*
X13869285Y-13557857D01*
X13869285Y-13572143D01*
X13855000Y-13600714D01*
X13840714Y-13615000D01*
X13812143Y-13629286D01*
X13755000Y-13629286D01*
X13726428Y-13643571D01*
X13712143Y-13657857D01*
X13697857Y-13686429D01*
X13697857Y-13743571D01*
X13712143Y-13772143D01*
X13726428Y-13786429D01*
X13755000Y-13800714D01*
X13812143Y-13800714D01*
X13840714Y-13786429D01*
X13855000Y-13772143D01*
X13869285Y-13743571D01*
X13869285Y-13686429D01*
X13855000Y-13657857D01*
X13840714Y-13643571D01*
X13812143Y-13629286D01*
X13969285Y-13500714D02*
X14155000Y-13500714D01*
X14055000Y-13615000D01*
X14097857Y-13615000D01*
X14126428Y-13629286D01*
X14140714Y-13643571D01*
X14155000Y-13672143D01*
X14155000Y-13743571D01*
X14140714Y-13772143D01*
X14126428Y-13786429D01*
X14097857Y-13800714D01*
X14012143Y-13800714D01*
X13983571Y-13786429D01*
X13969285Y-13772143D01*
X14269286Y-13500714D02*
X14269286Y-13557857D01*
X14383571Y-13500714D02*
X14383571Y-13557857D01*
X14826428Y-13915000D02*
X14812143Y-13900714D01*
X14783571Y-13857857D01*
X14769285Y-13829286D01*
X14755000Y-13786429D01*
X14740714Y-13715000D01*
X14740714Y-13657857D01*
X14755000Y-13586429D01*
X14769285Y-13543571D01*
X14783571Y-13515000D01*
X14812143Y-13472143D01*
X14826428Y-13457857D01*
X15069285Y-13600714D02*
X15069285Y-13800714D01*
X14997857Y-13486429D02*
X14926428Y-13700714D01*
X15112143Y-13700714D01*
X15455000Y-13800714D02*
X15455000Y-13500714D01*
X15583571Y-13800714D02*
X15583571Y-13643571D01*
X15569285Y-13615000D01*
X15540714Y-13600714D01*
X15497857Y-13600714D01*
X15469285Y-13615000D01*
X15455000Y-13629286D01*
X15769285Y-13800714D02*
X15740714Y-13786429D01*
X15726428Y-13772143D01*
X15712143Y-13743571D01*
X15712143Y-13657857D01*
X15726428Y-13629286D01*
X15740714Y-13615000D01*
X15769285Y-13600714D01*
X15812143Y-13600714D01*
X15840714Y-13615000D01*
X15855000Y-13629286D01*
X15869285Y-13657857D01*
X15869285Y-13743571D01*
X15855000Y-13772143D01*
X15840714Y-13786429D01*
X15812143Y-13800714D01*
X15769285Y-13800714D01*
X16040714Y-13800714D02*
X16012143Y-13786429D01*
X15997857Y-13757857D01*
X15997857Y-13500714D01*
X16269286Y-13786429D02*
X16240714Y-13800714D01*
X16183571Y-13800714D01*
X16155000Y-13786429D01*
X16140714Y-13757857D01*
X16140714Y-13643571D01*
X16155000Y-13615000D01*
X16183571Y-13600714D01*
X16240714Y-13600714D01*
X16269286Y-13615000D01*
X16283571Y-13643571D01*
X16283571Y-13672143D01*
X16140714Y-13700714D01*
X16397857Y-13786429D02*
X16426428Y-13800714D01*
X16483571Y-13800714D01*
X16512143Y-13786429D01*
X16526428Y-13757857D01*
X16526428Y-13743571D01*
X16512143Y-13715000D01*
X16483571Y-13700714D01*
X16440714Y-13700714D01*
X16412143Y-13686429D01*
X16397857Y-13657857D01*
X16397857Y-13643571D01*
X16412143Y-13615000D01*
X16440714Y-13600714D01*
X16483571Y-13600714D01*
X16512143Y-13615000D01*
X16626428Y-13915000D02*
X16640714Y-13900714D01*
X16669286Y-13857857D01*
X16683571Y-13829286D01*
X16697857Y-13786429D01*
X16712143Y-13715000D01*
X16712143Y-13657857D01*
X16697857Y-13586429D01*
X16683571Y-13543571D01*
X16669286Y-13515000D01*
X16640714Y-13472143D01*
X16626428Y-13457857D01*
M02*
