%FSLAX46Y46*%
G04 Gerber Fmt 4.6, Leading zero omitted, Abs format (unit mm)*
G04 Created by KiCad (PCBNEW (2014-08-29 BZR 5106)-product) date Thu 30 Oct 2014 03:32:27 PM PDT*
%MOMM*%
G01*
G04 APERTURE LIST*
%ADD10C,0.100000*%
%ADD11R,2.032000X2.032000*%
%ADD12O,2.032000X2.032000*%
%ADD13C,0.762000*%
%ADD14R,2.032000X1.727200*%
%ADD15O,2.032000X1.727200*%
%ADD16R,1.727200X1.727200*%
%ADD17O,1.727200X1.727200*%
%ADD18C,1.524000*%
%ADD19C,3.900000*%
%ADD20C,0.635000*%
%ADD21C,0.558800*%
%ADD22C,0.203200*%
%ADD23C,0.508000*%
%ADD24C,0.254000*%
%ADD25C,0.381000*%
%ADD26C,0.304800*%
G04 APERTURE END LIST*
D10*
D11*
X111125000Y-106045000D03*
D12*
X108585000Y-106045000D03*
D11*
X111125000Y-103568500D03*
D12*
X108585000Y-103568500D03*
D13*
X138430000Y-118745000D03*
X137160000Y-118745000D03*
X138430000Y-117475000D03*
X137160000Y-117475000D03*
X138430000Y-116205000D03*
X137160000Y-116205000D03*
X138430000Y-114935000D03*
X137160000Y-114935000D03*
X138430000Y-113665000D03*
X137160000Y-113665000D03*
D14*
X134620000Y-114300000D03*
D15*
X134620000Y-116840000D03*
X134620000Y-119380000D03*
X134620000Y-121920000D03*
D16*
X103505000Y-111125000D03*
D17*
X103505000Y-108585000D03*
X106045000Y-111125000D03*
X106045000Y-108585000D03*
X108585000Y-111125000D03*
X108585000Y-108585000D03*
X111125000Y-111125000D03*
X111125000Y-108585000D03*
D18*
X109220000Y-125095000D03*
X111760000Y-125095000D03*
X114300000Y-125095000D03*
X116840000Y-125095000D03*
X119380000Y-125095000D03*
X121920000Y-125095000D03*
X124460000Y-125095000D03*
X127000000Y-125095000D03*
X129540000Y-125095000D03*
X132080000Y-125095000D03*
D11*
X137160000Y-111760000D03*
D12*
X134620000Y-111760000D03*
D19*
X137160000Y-124460000D03*
X104140000Y-124460000D03*
X137160000Y-104140000D03*
X104140000Y-104140000D03*
D20*
X107315000Y-113411000D03*
X105029000Y-112522000D03*
X102489000Y-112522000D03*
X130238500Y-109664500D03*
X127301468Y-107272574D03*
X113284000Y-104140000D03*
X130044638Y-102293037D03*
X115316000Y-104394000D03*
X115219482Y-102476290D03*
X137668000Y-108712000D03*
X136906000Y-107950000D03*
X133604000Y-106997500D03*
X132588000Y-103936798D03*
X133858000Y-102933500D03*
X126045128Y-104179181D03*
X132842000Y-112458500D03*
X132778500Y-110871000D03*
X130974354Y-110065875D03*
X126555500Y-114617500D03*
X112839500Y-107696000D03*
X102743000Y-106680000D03*
X138303000Y-121793000D03*
X134239000Y-125349000D03*
X127254000Y-103251000D03*
X130746500Y-111518720D03*
X115189000Y-108966000D03*
X119756539Y-109160961D03*
X133604000Y-106045000D03*
X125349000Y-116840000D03*
X125222000Y-121031000D03*
X122809000Y-120015000D03*
X120904000Y-120015000D03*
X119380000Y-113792000D03*
X121158000Y-115570000D03*
X120650000Y-114300000D03*
X120650000Y-112649000D03*
X122301000Y-114300000D03*
D21*
X119380000Y-104648000D03*
X118682602Y-105537000D03*
D20*
X124587000Y-106426000D03*
X122428000Y-104648000D03*
X128524000Y-113792000D03*
X132461000Y-114173000D03*
X128378059Y-116840000D03*
X130556000Y-107569000D03*
X129413000Y-107569000D03*
X124307600Y-110667800D03*
X115198298Y-107492790D03*
X125857000Y-108521500D03*
X118881838Y-107052117D03*
X114173000Y-108712000D03*
X127635000Y-122301000D03*
X132715000Y-107823000D03*
X122682000Y-109855000D03*
X131762500Y-112776000D03*
X104902000Y-114935000D03*
X118618000Y-121158000D03*
X107696000Y-114935000D03*
X109982000Y-114935000D03*
X113665000Y-114681000D03*
X115951000Y-114681000D03*
X114046000Y-116078000D03*
X116332000Y-120142000D03*
X114427000Y-120142000D03*
X112141000Y-120015000D03*
X112141000Y-122047000D03*
X114300000Y-122047000D03*
X118618000Y-119126000D03*
X117221000Y-117729000D03*
X115697000Y-118364000D03*
D21*
X116662941Y-112922188D03*
X116594962Y-110672301D03*
X115443000Y-112928390D03*
X114808000Y-112141000D03*
X118872000Y-117348000D03*
X117709592Y-116058592D03*
D20*
X114808000Y-117475000D03*
X112522000Y-117475000D03*
X113665000Y-118364000D03*
X111760000Y-115316000D03*
X112776000Y-112915730D03*
X112649000Y-110871000D03*
X116332000Y-122047000D03*
X124714000Y-115824000D03*
X121170680Y-108991680D03*
X124695325Y-114930688D03*
X120509804Y-108476081D03*
X112760373Y-104794534D03*
X112753040Y-106771405D03*
X122682000Y-106299000D03*
D21*
X124333000Y-109855000D03*
X123825000Y-109220000D03*
D20*
X120904000Y-118884703D03*
X120980230Y-118046500D03*
D21*
X117101271Y-115301458D03*
D20*
X115570000Y-123698000D03*
D21*
X116806861Y-114598618D03*
D20*
X118110000Y-123647200D03*
D21*
X121412000Y-122047000D03*
D20*
X124460000Y-122047000D03*
D21*
X124587000Y-113665000D03*
D20*
X126873000Y-115443000D03*
X129540000Y-116586000D03*
D21*
X124017169Y-112547371D03*
D20*
X132080000Y-121158000D03*
X122936000Y-118364000D03*
D22*
X102489000Y-112522000D02*
X105029000Y-112522000D01*
D23*
X126983969Y-106955075D02*
X127301468Y-107272574D01*
X123279894Y-103251000D02*
X126983969Y-106955075D01*
X113655857Y-103238299D02*
X113668558Y-103251000D01*
X111125000Y-103505000D02*
X111391701Y-103238299D01*
X111391701Y-103238299D02*
X113655857Y-103238299D01*
X113668558Y-103251000D02*
X123279894Y-103251000D01*
X129160928Y-109132034D02*
X127618967Y-107590073D01*
X130238500Y-109664500D02*
X129921001Y-109347001D01*
X129921001Y-109347001D02*
X129375895Y-109347001D01*
X129375895Y-109347001D02*
X129160928Y-109132034D01*
D22*
X129904839Y-109347001D02*
X129921001Y-109347001D01*
X129849420Y-109402420D02*
X129904839Y-109347001D01*
D24*
X130301641Y-109727641D02*
X130238500Y-109664500D01*
D23*
X127618967Y-107590073D02*
X127301468Y-107272574D01*
D22*
X114906972Y-104421343D02*
X115288657Y-104421343D01*
X114869104Y-104459211D02*
X114906972Y-104421343D01*
X124968000Y-106807000D02*
X122555000Y-104394000D01*
X115288657Y-104421343D02*
X115316000Y-104394000D01*
X115765012Y-104394000D02*
X115316000Y-104394000D01*
X122555000Y-104394000D02*
X115765012Y-104394000D01*
X136906000Y-107950000D02*
X137668000Y-108712000D01*
X136588501Y-107632501D02*
X136906000Y-107950000D01*
X135953500Y-106997500D02*
X136588501Y-107632501D01*
X133604000Y-106997500D02*
X135953500Y-106997500D01*
X133154988Y-106997500D02*
X133604000Y-106997500D01*
X131127500Y-106997500D02*
X133154988Y-106997500D01*
X130556000Y-107569000D02*
X131127500Y-106997500D01*
X133604000Y-110045500D02*
X133604000Y-107446512D01*
X132778500Y-110871000D02*
X133604000Y-110045500D01*
X133604000Y-107446512D02*
X133604000Y-106997500D01*
X133858000Y-103187498D02*
X133858000Y-102933500D01*
X133921501Y-103250999D02*
X133858000Y-103187498D01*
X133604000Y-103568500D02*
X133921501Y-103250999D01*
X133604000Y-106045000D02*
X133604000Y-103568500D01*
X127254000Y-103251000D02*
X133921501Y-103250999D01*
D25*
X132778500Y-110871000D02*
X132778500Y-112395000D01*
X132778500Y-112395000D02*
X132842000Y-112458500D01*
D24*
X137083810Y-120573810D02*
X138303000Y-121793000D01*
X132969000Y-121412000D02*
X133807190Y-120573810D01*
X133807190Y-120573810D02*
X137083810Y-120573810D01*
X132969000Y-123317000D02*
X132969000Y-121412000D01*
X134239000Y-124587000D02*
X132969000Y-123317000D01*
X134239000Y-125349000D02*
X134239000Y-124587000D01*
D22*
X130746500Y-111967732D02*
X130746500Y-111518720D01*
X130746500Y-112907512D02*
X130746500Y-111967732D01*
X132011988Y-114173000D02*
X130746500Y-112907512D01*
X132461000Y-114173000D02*
X132011988Y-114173000D01*
D26*
X109474000Y-102235000D02*
X109664500Y-102425500D01*
X108585000Y-102235000D02*
X109474000Y-102235000D01*
X108585000Y-103568500D02*
X108585000Y-102235000D01*
D22*
X108585000Y-102235000D02*
X107315000Y-102235000D01*
D26*
X107315000Y-102235000D02*
X106870500Y-102679500D01*
X106997500Y-106045000D02*
X108585000Y-106045000D01*
X106870500Y-102679500D02*
X106870500Y-104330500D01*
X106870500Y-104330500D02*
X106934000Y-104394000D01*
X106934000Y-104394000D02*
X106934000Y-105981500D01*
X106934000Y-105981500D02*
X106997500Y-106045000D01*
D22*
X119756539Y-109160961D02*
X115383961Y-109160961D01*
X115383961Y-109160961D02*
X115189000Y-108966000D01*
X108585000Y-106045000D02*
X108585000Y-104608160D01*
X108585000Y-104608160D02*
X108585000Y-103505000D01*
X120904000Y-120015000D02*
X122809000Y-120015000D01*
X119380000Y-113792000D02*
X121158000Y-115570000D01*
X122301000Y-114300000D02*
X120650000Y-112649000D01*
X123952000Y-105791000D02*
X124968000Y-106807000D01*
X123121988Y-105791000D02*
X123952000Y-105791000D01*
X122428000Y-105097012D02*
X123121988Y-105791000D01*
X122428000Y-104648000D02*
X122428000Y-105097012D01*
X123825000Y-121031000D02*
X122809000Y-120015000D01*
X125222000Y-121031000D02*
X123825000Y-121031000D01*
X125349000Y-116840000D02*
X128378059Y-116840000D01*
X129413000Y-107569000D02*
X130556000Y-107569000D01*
X120650000Y-110054422D02*
X120650000Y-112649000D01*
X119756539Y-109160961D02*
X120650000Y-110054422D01*
X124066870Y-110908530D02*
X124059126Y-110908530D01*
X124307600Y-110667800D02*
X124066870Y-110908530D01*
X113449101Y-107124499D02*
X113195099Y-107378501D01*
X113195099Y-107378501D02*
X112877600Y-107696000D01*
X124968000Y-106807000D02*
X124650501Y-107124499D01*
X115198298Y-107492790D02*
X115246446Y-107444642D01*
X115246446Y-107444642D02*
X115246446Y-107124499D01*
X115246446Y-107124499D02*
X113449101Y-107124499D01*
X124650501Y-107124499D02*
X115246446Y-107124499D01*
X124059126Y-110908530D02*
X125640530Y-110908530D01*
X128206501Y-113474501D02*
X128524000Y-113792000D01*
X125640530Y-110908530D02*
X128206501Y-113474501D01*
X123062093Y-109314087D02*
X123062093Y-108712907D01*
X123062093Y-108712907D02*
X123253500Y-108521500D01*
X124059126Y-110908530D02*
X123304301Y-110153705D01*
X123304301Y-110153705D02*
X123304301Y-109556295D01*
X123253500Y-108521500D02*
X125407988Y-108521500D01*
X125407988Y-108521500D02*
X125857000Y-108521500D01*
X123304301Y-109556295D02*
X123062093Y-109314087D01*
D25*
X120168427Y-107764880D02*
X119729307Y-108204000D01*
X122654339Y-107764880D02*
X120168427Y-107764880D01*
X114490499Y-108394501D02*
X114173000Y-108712000D01*
X122655683Y-107766224D02*
X122654339Y-107764880D01*
D22*
X113723988Y-108712000D02*
X114173000Y-108712000D01*
X112921794Y-108712000D02*
X113723988Y-108712000D01*
X103505000Y-108585000D02*
X104673401Y-107416599D01*
X104673401Y-107416599D02*
X111626393Y-107416599D01*
D25*
X114681000Y-108204000D02*
X114490499Y-108394501D01*
X119729307Y-108204000D02*
X114681000Y-108204000D01*
D22*
X111626393Y-107416599D02*
X112921794Y-108712000D01*
D25*
X131762500Y-110807500D02*
X132715000Y-109855000D01*
X132715000Y-109855000D02*
X132715000Y-107823000D01*
X131762500Y-112776000D02*
X131762500Y-110807500D01*
X122655683Y-107766224D02*
X122675108Y-107746799D01*
X122675108Y-107746799D02*
X126098299Y-107746799D01*
X126098299Y-107746799D02*
X129159000Y-110807500D01*
X129159000Y-110807500D02*
X131762500Y-110807500D01*
X118884701Y-123939299D02*
X125996701Y-123939299D01*
X117805200Y-124409200D02*
X118414800Y-124409200D01*
X117335299Y-123939299D02*
X117805200Y-124409200D01*
X115265201Y-124409201D02*
X115874799Y-124409201D01*
X125996701Y-123939299D02*
X127317501Y-122618499D01*
X112915701Y-123939299D02*
X114795299Y-123939299D01*
X118414800Y-124409200D02*
X118884701Y-123939299D01*
X111760000Y-125095000D02*
X112915701Y-123939299D01*
X127317501Y-122618499D02*
X127635000Y-122301000D01*
X116344701Y-123939299D02*
X117335299Y-123939299D01*
X114795299Y-123939299D02*
X115265201Y-124409201D01*
X115874799Y-124409201D02*
X116344701Y-123939299D01*
D22*
X122655683Y-109828683D02*
X122655683Y-107766224D01*
X122682000Y-109855000D02*
X122655683Y-109828683D01*
X136347220Y-116662220D02*
X136347220Y-113598978D01*
X137160000Y-117475000D02*
X136347220Y-116662220D01*
X136347220Y-113598978D02*
X135841741Y-113093499D01*
X132079999Y-113093499D02*
X131762500Y-112776000D01*
X135841741Y-113093499D02*
X132079999Y-113093499D01*
X118300501Y-121475499D02*
X118618000Y-121158000D01*
X117729000Y-122047000D02*
X118300501Y-121475499D01*
X116332000Y-122047000D02*
X117729000Y-122047000D01*
X109982000Y-114935000D02*
X107696000Y-114935000D01*
X115951000Y-114681000D02*
X113665000Y-114681000D01*
X111760000Y-115316000D02*
X113284000Y-115316000D01*
X113284000Y-115316000D02*
X114046000Y-116078000D01*
X116332000Y-120142000D02*
X116649499Y-119824501D01*
X116649499Y-119824501D02*
X116649499Y-119316499D01*
X116649499Y-119316499D02*
X116014499Y-118681499D01*
X116014499Y-118681499D02*
X115697000Y-118364000D01*
X112141000Y-120015000D02*
X112590012Y-120015000D01*
X112590012Y-120015000D02*
X112717012Y-120142000D01*
X112717012Y-120142000D02*
X114427000Y-120142000D01*
X114300000Y-122047000D02*
X112141000Y-122047000D01*
X117221000Y-117729000D02*
X118618000Y-119126000D01*
X117221000Y-117729000D02*
X116332000Y-117729000D01*
X116332000Y-117729000D02*
X115697000Y-118364000D01*
X115697000Y-118364000D02*
X114808000Y-117475000D01*
X116656739Y-112922188D02*
X116662941Y-112922188D01*
X116594962Y-112854209D02*
X116662941Y-112922188D01*
X116594962Y-110672301D02*
X116594962Y-112854209D01*
X116637551Y-112903000D02*
X116656739Y-112922188D01*
X115443000Y-112776000D02*
X114808000Y-112141000D01*
X115443000Y-112928390D02*
X115443000Y-112776000D01*
X117314461Y-116058592D02*
X116533053Y-116840000D01*
X117709592Y-116058592D02*
X117314461Y-116058592D01*
X115443000Y-116840000D02*
X114808000Y-117475000D01*
X116533053Y-116840000D02*
X115443000Y-116840000D01*
X112776000Y-117475000D02*
X113665000Y-118364000D01*
X112522000Y-117475000D02*
X112776000Y-117475000D01*
X111760000Y-115316000D02*
X112776000Y-114300000D01*
X112776000Y-114300000D02*
X112776000Y-113364742D01*
X112776000Y-113364742D02*
X112776000Y-112915730D01*
X112649000Y-110871000D02*
X113919000Y-110871000D01*
X113919000Y-111252000D02*
X114808000Y-112141000D01*
X113919000Y-110871000D02*
X113919000Y-111252000D01*
X121348500Y-109618512D02*
X121170680Y-109440692D01*
X121348500Y-112204500D02*
X121348500Y-109618512D01*
X124073024Y-114929024D02*
X121348500Y-112204500D01*
X121170680Y-109440692D02*
X121170680Y-108991680D01*
X124073024Y-115246524D02*
X124073024Y-114929024D01*
X124650500Y-115824000D02*
X124073024Y-115246524D01*
X124714000Y-115824000D02*
X124650500Y-115824000D01*
X121793000Y-112028363D02*
X121793000Y-108690191D01*
X120616525Y-108369360D02*
X120509804Y-108476081D01*
X121472169Y-108369360D02*
X120616525Y-108369360D01*
X124695325Y-114930688D02*
X121793000Y-112028363D01*
X121793000Y-108690191D02*
X121472169Y-108369360D01*
D26*
X112760373Y-106242367D02*
X112760373Y-105243546D01*
X112760373Y-105243546D02*
X112760373Y-104794534D01*
X112776000Y-106257994D02*
X112760373Y-106242367D01*
X112776000Y-106625239D02*
X112776000Y-106257994D01*
X113093500Y-106299000D02*
X112817006Y-106299000D01*
X112817006Y-106299000D02*
X112776000Y-106257994D01*
X112753040Y-106771405D02*
X112776000Y-106748445D01*
X112776000Y-106748445D02*
X112776000Y-106616500D01*
X112776000Y-106616500D02*
X113093500Y-106299000D01*
X113093500Y-106299000D02*
X122682000Y-106299000D01*
D22*
X133096000Y-116840000D02*
X133400800Y-116840000D01*
X124333000Y-109855000D02*
X126111000Y-109855000D01*
X133400800Y-116840000D02*
X134620000Y-116840000D01*
X126111000Y-109855000D02*
X133096000Y-116840000D01*
X124220131Y-109220000D02*
X123825000Y-109220000D01*
X132461000Y-115570000D02*
X126111000Y-109220000D01*
X126111000Y-109220000D02*
X124220131Y-109220000D01*
X135154781Y-115570000D02*
X132461000Y-115570000D01*
X135940810Y-116356029D02*
X135154781Y-115570000D01*
X134620000Y-119380000D02*
X134772400Y-119380000D01*
X134772400Y-119380000D02*
X135940810Y-118211590D01*
X135940810Y-118211590D02*
X135940810Y-116356029D01*
X120357910Y-116360660D02*
X120357910Y-118338613D01*
X118011667Y-114014417D02*
X120357910Y-116360660D01*
X114836667Y-114014417D02*
X118011667Y-114014417D01*
X120357910Y-118338613D02*
X120586501Y-118567204D01*
X113115660Y-112293410D02*
X114836667Y-114014417D01*
X112496590Y-112293410D02*
X113115660Y-112293410D01*
X108506766Y-112776000D02*
X112014000Y-112776000D01*
X112014000Y-112776000D02*
X112496590Y-112293410D01*
X107416599Y-109956599D02*
X107416599Y-111685833D01*
X120586501Y-118567204D02*
X120904000Y-118884703D01*
X107416599Y-111685833D02*
X108506766Y-112776000D01*
X106045000Y-108585000D02*
X107416599Y-109956599D01*
X109956599Y-109956599D02*
X108585000Y-108585000D01*
X110515401Y-112293401D02*
X109956599Y-111734599D01*
X112268000Y-111887000D02*
X111861599Y-112293401D01*
X109956599Y-111734599D02*
X109956599Y-109956599D01*
X113284000Y-111887000D02*
X112268000Y-111887000D01*
X118084591Y-113512591D02*
X114909591Y-113512591D01*
X114909591Y-113512591D02*
X113284000Y-111887000D01*
X120980230Y-116408230D02*
X118084591Y-113512591D01*
X111861599Y-112293401D02*
X110515401Y-112293401D01*
X120980230Y-118046500D02*
X120980230Y-116408230D01*
X115570000Y-123698000D02*
X115887500Y-123380500D01*
X115887500Y-123380500D02*
X117411500Y-123380500D01*
X117411500Y-123380500D02*
X119507000Y-121285000D01*
X119507000Y-121285000D02*
X119507000Y-116713000D01*
X119507000Y-116713000D02*
X118095458Y-115301458D01*
X118095458Y-115301458D02*
X117101271Y-115301458D01*
X116806861Y-114598618D02*
X118021118Y-114598618D01*
X119913409Y-121894591D02*
X118681499Y-123126501D01*
X118021118Y-114598618D02*
X119913409Y-116490909D01*
X119913409Y-116490909D02*
X119913409Y-121894591D01*
X118745000Y-123190000D02*
X118681499Y-123126501D01*
X118632245Y-123126501D02*
X118681499Y-123126501D01*
X118111546Y-123647200D02*
X118632245Y-123126501D01*
X118110000Y-123647200D02*
X118111546Y-123647200D01*
X121412000Y-122047000D02*
X124460000Y-122047000D01*
X124866399Y-113944399D02*
X124587000Y-113665000D01*
X126365000Y-115443000D02*
X124866399Y-113944399D01*
X126873000Y-115443000D02*
X126365000Y-115443000D01*
X129260601Y-116306601D02*
X129540000Y-116586000D01*
X125501371Y-112547371D02*
X129260601Y-116306601D01*
X124017169Y-112547371D02*
X125501371Y-112547371D01*
X131800601Y-120878601D02*
X132080000Y-121158000D01*
X129286000Y-118364000D02*
X131800601Y-120878601D01*
X122936000Y-118364000D02*
X129286000Y-118364000D01*
G36*
X119100600Y-121116663D02*
X117890863Y-122326400D01*
X117856000Y-122326400D01*
X116332000Y-122326400D01*
X111861600Y-122326400D01*
X111861600Y-122174000D01*
X111861600Y-121920000D01*
X111861600Y-115781916D01*
X111294084Y-115214400D01*
X107937408Y-115214400D01*
X107937408Y-113287760D01*
X107842868Y-113058956D01*
X107667965Y-112883747D01*
X107439326Y-112788808D01*
X107191760Y-112788592D01*
X106962956Y-112883132D01*
X106787747Y-113058035D01*
X106692808Y-113286674D01*
X106692592Y-113534240D01*
X106787132Y-113763044D01*
X106962035Y-113938253D01*
X107190674Y-114033192D01*
X107438240Y-114033408D01*
X107667044Y-113938868D01*
X107842253Y-113763965D01*
X107937192Y-113535326D01*
X107937408Y-113287760D01*
X107937408Y-115214400D01*
X104817084Y-115214400D01*
X102707663Y-113104979D01*
X102841044Y-113049868D01*
X102962724Y-112928400D01*
X104555393Y-112928400D01*
X104676035Y-113049253D01*
X104904674Y-113144192D01*
X105152240Y-113144408D01*
X105381044Y-113049868D01*
X105556253Y-112874965D01*
X105651192Y-112646326D01*
X105651408Y-112398760D01*
X105569653Y-112200900D01*
X105574983Y-112204461D01*
X106022110Y-112293400D01*
X106067890Y-112293400D01*
X106515017Y-112204461D01*
X106894074Y-111951184D01*
X107024232Y-111756386D01*
X107041134Y-111841356D01*
X107129231Y-111973201D01*
X108219398Y-113063368D01*
X108351243Y-113151465D01*
X108351244Y-113151465D01*
X108506766Y-113182400D01*
X112014000Y-113182400D01*
X112169522Y-113151465D01*
X112169523Y-113151465D01*
X112301368Y-113063368D01*
X112664926Y-112699810D01*
X112947323Y-112699810D01*
X114549298Y-114301785D01*
X114549299Y-114301785D01*
X114681144Y-114389882D01*
X114836667Y-114420817D01*
X116248128Y-114420817D01*
X116222763Y-114481904D01*
X116222560Y-114714313D01*
X116311312Y-114929108D01*
X116475506Y-115093590D01*
X116543329Y-115121752D01*
X116517173Y-115184744D01*
X116516970Y-115417153D01*
X116605722Y-115631948D01*
X116769916Y-115796430D01*
X116984557Y-115885556D01*
X117216966Y-115885759D01*
X117431761Y-115797007D01*
X117521066Y-115707858D01*
X117927122Y-115707858D01*
X119100600Y-116881336D01*
X119100600Y-121116663D01*
X119100600Y-121116663D01*
G37*
X119100600Y-121116663D02*
X117890863Y-122326400D01*
X117856000Y-122326400D01*
X116332000Y-122326400D01*
X111861600Y-122326400D01*
X111861600Y-122174000D01*
X111861600Y-121920000D01*
X111861600Y-115781916D01*
X111294084Y-115214400D01*
X107937408Y-115214400D01*
X107937408Y-113287760D01*
X107842868Y-113058956D01*
X107667965Y-112883747D01*
X107439326Y-112788808D01*
X107191760Y-112788592D01*
X106962956Y-112883132D01*
X106787747Y-113058035D01*
X106692808Y-113286674D01*
X106692592Y-113534240D01*
X106787132Y-113763044D01*
X106962035Y-113938253D01*
X107190674Y-114033192D01*
X107438240Y-114033408D01*
X107667044Y-113938868D01*
X107842253Y-113763965D01*
X107937192Y-113535326D01*
X107937408Y-113287760D01*
X107937408Y-115214400D01*
X104817084Y-115214400D01*
X102707663Y-113104979D01*
X102841044Y-113049868D01*
X102962724Y-112928400D01*
X104555393Y-112928400D01*
X104676035Y-113049253D01*
X104904674Y-113144192D01*
X105152240Y-113144408D01*
X105381044Y-113049868D01*
X105556253Y-112874965D01*
X105651192Y-112646326D01*
X105651408Y-112398760D01*
X105569653Y-112200900D01*
X105574983Y-112204461D01*
X106022110Y-112293400D01*
X106067890Y-112293400D01*
X106515017Y-112204461D01*
X106894074Y-111951184D01*
X107024232Y-111756386D01*
X107041134Y-111841356D01*
X107129231Y-111973201D01*
X108219398Y-113063368D01*
X108351243Y-113151465D01*
X108351244Y-113151465D01*
X108506766Y-113182400D01*
X112014000Y-113182400D01*
X112169522Y-113151465D01*
X112169523Y-113151465D01*
X112301368Y-113063368D01*
X112664926Y-112699810D01*
X112947323Y-112699810D01*
X114549298Y-114301785D01*
X114549299Y-114301785D01*
X114681144Y-114389882D01*
X114836667Y-114420817D01*
X116248128Y-114420817D01*
X116222763Y-114481904D01*
X116222560Y-114714313D01*
X116311312Y-114929108D01*
X116475506Y-115093590D01*
X116543329Y-115121752D01*
X116517173Y-115184744D01*
X116516970Y-115417153D01*
X116605722Y-115631948D01*
X116769916Y-115796430D01*
X116984557Y-115885556D01*
X117216966Y-115885759D01*
X117431761Y-115797007D01*
X117521066Y-115707858D01*
X117927122Y-115707858D01*
X119100600Y-116881336D01*
X119100600Y-121116663D01*
G36*
X119532400Y-112225916D02*
X118452525Y-113305790D01*
X118371959Y-113225223D01*
X118240114Y-113137126D01*
X118084591Y-113106191D01*
X115077927Y-113106191D01*
X113571368Y-111599632D01*
X113439523Y-111511535D01*
X113284000Y-111480600D01*
X112289340Y-111480600D01*
X112295904Y-111464753D01*
X112244979Y-111277400D01*
X111277400Y-111277400D01*
X111277400Y-111297400D01*
X110972600Y-111297400D01*
X110972600Y-111277400D01*
X110952600Y-111277400D01*
X110952600Y-110972600D01*
X110972600Y-110972600D01*
X110972600Y-110952600D01*
X111277400Y-110952600D01*
X111277400Y-110972600D01*
X112244979Y-110972600D01*
X112295904Y-110785247D01*
X112193208Y-110537279D01*
X111886984Y-110173231D01*
X111714294Y-110083600D01*
X112877600Y-110083600D01*
X112877600Y-109109609D01*
X112921794Y-109118400D01*
X113699393Y-109118400D01*
X113820035Y-109239253D01*
X114048674Y-109334192D01*
X114296240Y-109334408D01*
X114457919Y-109267603D01*
X115273916Y-110083600D01*
X115570000Y-110083600D01*
X116289916Y-110083600D01*
X116543916Y-110337600D01*
X117559916Y-110337600D01*
X117754400Y-110532084D01*
X117754400Y-110786084D01*
X118067916Y-111099600D01*
X118575916Y-111099600D01*
X119532400Y-112056084D01*
X119532400Y-112225916D01*
X119532400Y-112225916D01*
G37*
X119532400Y-112225916D02*
X118452525Y-113305790D01*
X118371959Y-113225223D01*
X118240114Y-113137126D01*
X118084591Y-113106191D01*
X115077927Y-113106191D01*
X113571368Y-111599632D01*
X113439523Y-111511535D01*
X113284000Y-111480600D01*
X112289340Y-111480600D01*
X112295904Y-111464753D01*
X112244979Y-111277400D01*
X111277400Y-111277400D01*
X111277400Y-111297400D01*
X110972600Y-111297400D01*
X110972600Y-111277400D01*
X110952600Y-111277400D01*
X110952600Y-110972600D01*
X110972600Y-110972600D01*
X110972600Y-110952600D01*
X111277400Y-110952600D01*
X111277400Y-110972600D01*
X112244979Y-110972600D01*
X112295904Y-110785247D01*
X112193208Y-110537279D01*
X111886984Y-110173231D01*
X111714294Y-110083600D01*
X112877600Y-110083600D01*
X112877600Y-109109609D01*
X112921794Y-109118400D01*
X113699393Y-109118400D01*
X113820035Y-109239253D01*
X114048674Y-109334192D01*
X114296240Y-109334408D01*
X114457919Y-109267603D01*
X115273916Y-110083600D01*
X115570000Y-110083600D01*
X116289916Y-110083600D01*
X116543916Y-110337600D01*
X117559916Y-110337600D01*
X117754400Y-110532084D01*
X117754400Y-110786084D01*
X118067916Y-111099600D01*
X118575916Y-111099600D01*
X119532400Y-112056084D01*
X119532400Y-112225916D01*
G36*
X108757400Y-106197400D02*
X108737400Y-106197400D01*
X108737400Y-106217400D01*
X108432600Y-106217400D01*
X108432600Y-106197400D01*
X108432600Y-105892600D01*
X108432600Y-104842720D01*
X108432600Y-104770780D01*
X108432600Y-103720900D01*
X107311386Y-103720900D01*
X107262516Y-103932261D01*
X107392634Y-104246427D01*
X107742829Y-104651122D01*
X108053214Y-104806750D01*
X107742829Y-104962378D01*
X107392634Y-105367073D01*
X107262516Y-105681239D01*
X107311386Y-105892600D01*
X108432600Y-105892600D01*
X108432600Y-106197400D01*
X107311386Y-106197400D01*
X107262516Y-106408761D01*
X107392634Y-106722927D01*
X107641219Y-107010199D01*
X104673401Y-107010199D01*
X104517879Y-107041133D01*
X104386033Y-107129230D01*
X103995822Y-107519440D01*
X103975017Y-107505539D01*
X103527890Y-107416600D01*
X103482110Y-107416600D01*
X103034983Y-107505539D01*
X102655926Y-107758816D01*
X102402649Y-108137873D01*
X102313710Y-108585000D01*
X102402649Y-109032127D01*
X102655926Y-109411184D01*
X102978020Y-109626400D01*
X102209600Y-109626400D01*
X102209600Y-105372592D01*
X102227359Y-105415573D01*
X102861091Y-106050412D01*
X103689525Y-106394408D01*
X104586540Y-106395190D01*
X105415573Y-106052641D01*
X106050412Y-105418909D01*
X106394408Y-104590475D01*
X106395190Y-103693460D01*
X106052641Y-102864427D01*
X105418909Y-102229588D01*
X105370772Y-102209600D01*
X108432598Y-102209600D01*
X108432598Y-102294279D01*
X108221237Y-102246003D01*
X107742829Y-102485878D01*
X107392634Y-102890573D01*
X107262516Y-103204739D01*
X107311386Y-103416100D01*
X108432600Y-103416100D01*
X108432600Y-103396100D01*
X108737400Y-103396100D01*
X108737400Y-103416100D01*
X108757400Y-103416100D01*
X108757400Y-103720900D01*
X108737400Y-103720900D01*
X108737400Y-104770780D01*
X108737400Y-104842720D01*
X108737400Y-105892600D01*
X108757400Y-105892600D01*
X108757400Y-106197400D01*
X108757400Y-106197400D01*
G37*
X108757400Y-106197400D02*
X108737400Y-106197400D01*
X108737400Y-106217400D01*
X108432600Y-106217400D01*
X108432600Y-106197400D01*
X108432600Y-105892600D01*
X108432600Y-104842720D01*
X108432600Y-104770780D01*
X108432600Y-103720900D01*
X107311386Y-103720900D01*
X107262516Y-103932261D01*
X107392634Y-104246427D01*
X107742829Y-104651122D01*
X108053214Y-104806750D01*
X107742829Y-104962378D01*
X107392634Y-105367073D01*
X107262516Y-105681239D01*
X107311386Y-105892600D01*
X108432600Y-105892600D01*
X108432600Y-106197400D01*
X107311386Y-106197400D01*
X107262516Y-106408761D01*
X107392634Y-106722927D01*
X107641219Y-107010199D01*
X104673401Y-107010199D01*
X104517879Y-107041133D01*
X104386033Y-107129230D01*
X103995822Y-107519440D01*
X103975017Y-107505539D01*
X103527890Y-107416600D01*
X103482110Y-107416600D01*
X103034983Y-107505539D01*
X102655926Y-107758816D01*
X102402649Y-108137873D01*
X102313710Y-108585000D01*
X102402649Y-109032127D01*
X102655926Y-109411184D01*
X102978020Y-109626400D01*
X102209600Y-109626400D01*
X102209600Y-105372592D01*
X102227359Y-105415573D01*
X102861091Y-106050412D01*
X103689525Y-106394408D01*
X104586540Y-106395190D01*
X105415573Y-106052641D01*
X106050412Y-105418909D01*
X106394408Y-104590475D01*
X106395190Y-103693460D01*
X106052641Y-102864427D01*
X105418909Y-102229588D01*
X105370772Y-102209600D01*
X108432598Y-102209600D01*
X108432598Y-102294279D01*
X108221237Y-102246003D01*
X107742829Y-102485878D01*
X107392634Y-102890573D01*
X107262516Y-103204739D01*
X107311386Y-103416100D01*
X108432600Y-103416100D01*
X108432600Y-103396100D01*
X108737400Y-103396100D01*
X108737400Y-103416100D01*
X108757400Y-103416100D01*
X108757400Y-103720900D01*
X108737400Y-103720900D01*
X108737400Y-104770780D01*
X108737400Y-104842720D01*
X108737400Y-105892600D01*
X108757400Y-105892600D01*
X108757400Y-106197400D01*
G36*
X111297400Y-108737400D02*
X111277400Y-108737400D01*
X111277400Y-108757400D01*
X110972600Y-108757400D01*
X110972600Y-108737400D01*
X110005021Y-108737400D01*
X109954096Y-108924753D01*
X110056792Y-109172721D01*
X110363016Y-109536769D01*
X110535705Y-109626400D01*
X110201136Y-109626400D01*
X109655112Y-109080376D01*
X109687351Y-109032127D01*
X109776290Y-108585000D01*
X109687351Y-108137873D01*
X109476959Y-107822999D01*
X110203390Y-107822999D01*
X110056792Y-107997279D01*
X109954096Y-108245247D01*
X110005021Y-108432600D01*
X110972600Y-108432600D01*
X110972600Y-108412600D01*
X111277400Y-108412600D01*
X111277400Y-108432600D01*
X111297400Y-108432600D01*
X111297400Y-108737400D01*
X111297400Y-108737400D01*
G37*
X111297400Y-108737400D02*
X111277400Y-108737400D01*
X111277400Y-108757400D01*
X110972600Y-108757400D01*
X110972600Y-108737400D01*
X110005021Y-108737400D01*
X109954096Y-108924753D01*
X110056792Y-109172721D01*
X110363016Y-109536769D01*
X110535705Y-109626400D01*
X110201136Y-109626400D01*
X109655112Y-109080376D01*
X109687351Y-109032127D01*
X109776290Y-108585000D01*
X109687351Y-108137873D01*
X109476959Y-107822999D01*
X110203390Y-107822999D01*
X110056792Y-107997279D01*
X109954096Y-108245247D01*
X110005021Y-108432600D01*
X110972600Y-108432600D01*
X110972600Y-108412600D01*
X111277400Y-108412600D01*
X111277400Y-108432600D01*
X111297400Y-108432600D01*
X111297400Y-108737400D01*
G36*
X139090400Y-113467423D02*
X139011732Y-113277033D01*
X138818982Y-113083946D01*
X138567013Y-112979319D01*
X138475654Y-112979239D01*
X138477463Y-112977431D01*
X138531600Y-112846733D01*
X138531600Y-112705267D01*
X138531600Y-112001300D01*
X138531600Y-111518700D01*
X138531600Y-110814733D01*
X138531600Y-110673267D01*
X138477463Y-110542569D01*
X138377431Y-110442537D01*
X138246733Y-110388400D01*
X137401300Y-110388400D01*
X137312400Y-110477300D01*
X137312400Y-111607600D01*
X138442700Y-111607600D01*
X138531600Y-111518700D01*
X138531600Y-112001300D01*
X138442700Y-111912400D01*
X137312400Y-111912400D01*
X137312400Y-111932400D01*
X137007600Y-111932400D01*
X137007600Y-111912400D01*
X136987600Y-111912400D01*
X136987600Y-111607600D01*
X137007600Y-111607600D01*
X137007600Y-110477300D01*
X136918700Y-110388400D01*
X136073267Y-110388400D01*
X135942569Y-110442537D01*
X135842537Y-110542569D01*
X135788400Y-110673267D01*
X135788400Y-110814733D01*
X135788400Y-111138211D01*
X135579823Y-110826053D01*
X135151324Y-110539740D01*
X134645876Y-110439200D01*
X134594124Y-110439200D01*
X134088676Y-110539740D01*
X133660177Y-110826053D01*
X133373864Y-111254552D01*
X133273324Y-111760000D01*
X133373864Y-112265448D01*
X133655601Y-112687099D01*
X132384878Y-112687099D01*
X132384908Y-112652760D01*
X132290368Y-112423956D01*
X132257800Y-112391331D01*
X132257800Y-111012660D01*
X133065230Y-110205230D01*
X133172597Y-110044544D01*
X133172598Y-110044543D01*
X133210300Y-109855000D01*
X133210300Y-108207862D01*
X133242253Y-108175965D01*
X133337192Y-107947326D01*
X133337408Y-107699760D01*
X133242868Y-107470956D01*
X133067965Y-107295747D01*
X132839326Y-107200808D01*
X132591760Y-107200592D01*
X132362956Y-107295132D01*
X132187747Y-107470035D01*
X132092808Y-107698674D01*
X132092592Y-107946240D01*
X132187132Y-108175044D01*
X132219700Y-108207668D01*
X132219700Y-109649840D01*
X131557340Y-110312200D01*
X129364160Y-110312200D01*
X126448529Y-107396569D01*
X126287843Y-107289201D01*
X126098299Y-107251499D01*
X122675108Y-107251499D01*
X122584207Y-107269580D01*
X120168427Y-107269580D01*
X119978884Y-107307282D01*
X119818197Y-107414650D01*
X119524146Y-107708700D01*
X114681000Y-107708700D01*
X114491456Y-107746402D01*
X114330770Y-107853770D01*
X114140269Y-108044271D01*
X114094908Y-108089631D01*
X114049760Y-108089592D01*
X114018762Y-108102400D01*
X112886930Y-108102400D01*
X112150330Y-107365800D01*
X112201628Y-107365800D01*
X112313655Y-107319397D01*
X112367263Y-107265789D01*
X112400075Y-107298658D01*
X112628714Y-107393597D01*
X112876280Y-107393813D01*
X113105084Y-107299273D01*
X113280293Y-107124370D01*
X113375232Y-106895731D01*
X113375353Y-106756200D01*
X122259104Y-106756200D01*
X122329035Y-106826253D01*
X122557674Y-106921192D01*
X122805240Y-106921408D01*
X123034044Y-106826868D01*
X123209253Y-106651965D01*
X123304192Y-106423326D01*
X123304408Y-106175760D01*
X123209868Y-105946956D01*
X123034965Y-105771747D01*
X122806326Y-105676808D01*
X122558760Y-105676592D01*
X122329956Y-105771132D01*
X122259164Y-105841800D01*
X113217573Y-105841800D01*
X113217573Y-105243546D01*
X113217573Y-105217429D01*
X113287626Y-105147499D01*
X113382565Y-104918860D01*
X113382781Y-104671294D01*
X113288241Y-104442490D01*
X113113338Y-104267281D01*
X112884699Y-104172342D01*
X112637133Y-104172126D01*
X112445800Y-104251183D01*
X112445800Y-103797099D01*
X113604705Y-103797099D01*
X113668558Y-103809800D01*
X123048432Y-103809800D01*
X126588838Y-107350206D01*
X126710474Y-107471842D01*
X126773600Y-107624618D01*
X126948503Y-107799827D01*
X127102334Y-107863703D01*
X127223835Y-107985204D01*
X127223836Y-107985204D01*
X127223838Y-107985206D01*
X128765797Y-109527165D01*
X128980764Y-109742132D01*
X129162051Y-109863265D01*
X129162052Y-109863265D01*
X129375895Y-109905801D01*
X129664873Y-109905801D01*
X129710632Y-110016544D01*
X129885535Y-110191753D01*
X130114174Y-110286692D01*
X130361740Y-110286908D01*
X130590544Y-110192368D01*
X130765753Y-110017465D01*
X130860692Y-109788826D01*
X130860908Y-109541260D01*
X130766368Y-109312456D01*
X130591465Y-109137247D01*
X130437632Y-109073370D01*
X130316132Y-108951870D01*
X130134845Y-108830737D01*
X129921001Y-108788201D01*
X129607357Y-108788201D01*
X129556059Y-108736903D01*
X128014100Y-107194944D01*
X128014098Y-107194942D01*
X128014098Y-107194941D01*
X127892461Y-107073304D01*
X127829336Y-106920530D01*
X127654433Y-106745321D01*
X127500600Y-106681444D01*
X127379100Y-106559944D01*
X123675025Y-102855869D01*
X123493738Y-102734736D01*
X123279894Y-102692200D01*
X113719709Y-102692200D01*
X113655857Y-102679499D01*
X112445800Y-102679499D01*
X112445800Y-102491872D01*
X112399397Y-102379845D01*
X112313656Y-102294103D01*
X112201629Y-102247700D01*
X112080372Y-102247700D01*
X110048372Y-102247700D01*
X109936345Y-102294103D01*
X109850603Y-102379844D01*
X109804200Y-102491871D01*
X109804200Y-102613128D01*
X109804200Y-102955362D01*
X109777366Y-102890573D01*
X109427171Y-102485878D01*
X108948763Y-102246003D01*
X108737402Y-102294279D01*
X108737402Y-102209600D01*
X135927407Y-102209600D01*
X135884427Y-102227359D01*
X135249588Y-102861091D01*
X134905592Y-103689525D01*
X134904810Y-104586540D01*
X135247359Y-105415573D01*
X135881091Y-106050412D01*
X136709525Y-106394408D01*
X137606540Y-106395190D01*
X138435573Y-106052641D01*
X139070412Y-105418909D01*
X139090400Y-105370772D01*
X139090400Y-113467423D01*
X139090400Y-113467423D01*
G37*
X139090400Y-113467423D02*
X139011732Y-113277033D01*
X138818982Y-113083946D01*
X138567013Y-112979319D01*
X138475654Y-112979239D01*
X138477463Y-112977431D01*
X138531600Y-112846733D01*
X138531600Y-112705267D01*
X138531600Y-112001300D01*
X138531600Y-111518700D01*
X138531600Y-110814733D01*
X138531600Y-110673267D01*
X138477463Y-110542569D01*
X138377431Y-110442537D01*
X138246733Y-110388400D01*
X137401300Y-110388400D01*
X137312400Y-110477300D01*
X137312400Y-111607600D01*
X138442700Y-111607600D01*
X138531600Y-111518700D01*
X138531600Y-112001300D01*
X138442700Y-111912400D01*
X137312400Y-111912400D01*
X137312400Y-111932400D01*
X137007600Y-111932400D01*
X137007600Y-111912400D01*
X136987600Y-111912400D01*
X136987600Y-111607600D01*
X137007600Y-111607600D01*
X137007600Y-110477300D01*
X136918700Y-110388400D01*
X136073267Y-110388400D01*
X135942569Y-110442537D01*
X135842537Y-110542569D01*
X135788400Y-110673267D01*
X135788400Y-110814733D01*
X135788400Y-111138211D01*
X135579823Y-110826053D01*
X135151324Y-110539740D01*
X134645876Y-110439200D01*
X134594124Y-110439200D01*
X134088676Y-110539740D01*
X133660177Y-110826053D01*
X133373864Y-111254552D01*
X133273324Y-111760000D01*
X133373864Y-112265448D01*
X133655601Y-112687099D01*
X132384878Y-112687099D01*
X132384908Y-112652760D01*
X132290368Y-112423956D01*
X132257800Y-112391331D01*
X132257800Y-111012660D01*
X133065230Y-110205230D01*
X133172597Y-110044544D01*
X133172598Y-110044543D01*
X133210300Y-109855000D01*
X133210300Y-108207862D01*
X133242253Y-108175965D01*
X133337192Y-107947326D01*
X133337408Y-107699760D01*
X133242868Y-107470956D01*
X133067965Y-107295747D01*
X132839326Y-107200808D01*
X132591760Y-107200592D01*
X132362956Y-107295132D01*
X132187747Y-107470035D01*
X132092808Y-107698674D01*
X132092592Y-107946240D01*
X132187132Y-108175044D01*
X132219700Y-108207668D01*
X132219700Y-109649840D01*
X131557340Y-110312200D01*
X129364160Y-110312200D01*
X126448529Y-107396569D01*
X126287843Y-107289201D01*
X126098299Y-107251499D01*
X122675108Y-107251499D01*
X122584207Y-107269580D01*
X120168427Y-107269580D01*
X119978884Y-107307282D01*
X119818197Y-107414650D01*
X119524146Y-107708700D01*
X114681000Y-107708700D01*
X114491456Y-107746402D01*
X114330770Y-107853770D01*
X114140269Y-108044271D01*
X114094908Y-108089631D01*
X114049760Y-108089592D01*
X114018762Y-108102400D01*
X112886930Y-108102400D01*
X112150330Y-107365800D01*
X112201628Y-107365800D01*
X112313655Y-107319397D01*
X112367263Y-107265789D01*
X112400075Y-107298658D01*
X112628714Y-107393597D01*
X112876280Y-107393813D01*
X113105084Y-107299273D01*
X113280293Y-107124370D01*
X113375232Y-106895731D01*
X113375353Y-106756200D01*
X122259104Y-106756200D01*
X122329035Y-106826253D01*
X122557674Y-106921192D01*
X122805240Y-106921408D01*
X123034044Y-106826868D01*
X123209253Y-106651965D01*
X123304192Y-106423326D01*
X123304408Y-106175760D01*
X123209868Y-105946956D01*
X123034965Y-105771747D01*
X122806326Y-105676808D01*
X122558760Y-105676592D01*
X122329956Y-105771132D01*
X122259164Y-105841800D01*
X113217573Y-105841800D01*
X113217573Y-105243546D01*
X113217573Y-105217429D01*
X113287626Y-105147499D01*
X113382565Y-104918860D01*
X113382781Y-104671294D01*
X113288241Y-104442490D01*
X113113338Y-104267281D01*
X112884699Y-104172342D01*
X112637133Y-104172126D01*
X112445800Y-104251183D01*
X112445800Y-103797099D01*
X113604705Y-103797099D01*
X113668558Y-103809800D01*
X123048432Y-103809800D01*
X126588838Y-107350206D01*
X126710474Y-107471842D01*
X126773600Y-107624618D01*
X126948503Y-107799827D01*
X127102334Y-107863703D01*
X127223835Y-107985204D01*
X127223836Y-107985204D01*
X127223838Y-107985206D01*
X128765797Y-109527165D01*
X128980764Y-109742132D01*
X129162051Y-109863265D01*
X129162052Y-109863265D01*
X129375895Y-109905801D01*
X129664873Y-109905801D01*
X129710632Y-110016544D01*
X129885535Y-110191753D01*
X130114174Y-110286692D01*
X130361740Y-110286908D01*
X130590544Y-110192368D01*
X130765753Y-110017465D01*
X130860692Y-109788826D01*
X130860908Y-109541260D01*
X130766368Y-109312456D01*
X130591465Y-109137247D01*
X130437632Y-109073370D01*
X130316132Y-108951870D01*
X130134845Y-108830737D01*
X129921001Y-108788201D01*
X129607357Y-108788201D01*
X129556059Y-108736903D01*
X128014100Y-107194944D01*
X128014098Y-107194942D01*
X128014098Y-107194941D01*
X127892461Y-107073304D01*
X127829336Y-106920530D01*
X127654433Y-106745321D01*
X127500600Y-106681444D01*
X127379100Y-106559944D01*
X123675025Y-102855869D01*
X123493738Y-102734736D01*
X123279894Y-102692200D01*
X113719709Y-102692200D01*
X113655857Y-102679499D01*
X112445800Y-102679499D01*
X112445800Y-102491872D01*
X112399397Y-102379845D01*
X112313656Y-102294103D01*
X112201629Y-102247700D01*
X112080372Y-102247700D01*
X110048372Y-102247700D01*
X109936345Y-102294103D01*
X109850603Y-102379844D01*
X109804200Y-102491871D01*
X109804200Y-102613128D01*
X109804200Y-102955362D01*
X109777366Y-102890573D01*
X109427171Y-102485878D01*
X108948763Y-102246003D01*
X108737402Y-102294279D01*
X108737402Y-102209600D01*
X135927407Y-102209600D01*
X135884427Y-102227359D01*
X135249588Y-102861091D01*
X134905592Y-103689525D01*
X134904810Y-104586540D01*
X135247359Y-105415573D01*
X135881091Y-106050412D01*
X136709525Y-106394408D01*
X137606540Y-106395190D01*
X138435573Y-106052641D01*
X139070412Y-105418909D01*
X139090400Y-105370772D01*
X139090400Y-113467423D01*
G36*
X139090400Y-123227407D02*
X139072641Y-123184427D01*
X138438909Y-122549588D01*
X137610475Y-122205592D01*
X137507864Y-122205502D01*
X137507864Y-119308390D01*
X137160000Y-118960526D01*
X136944474Y-119176052D01*
X136944474Y-118745000D01*
X136596610Y-118397136D01*
X136475465Y-118436034D01*
X136409337Y-118721513D01*
X136457489Y-119010567D01*
X136475465Y-119053966D01*
X136596610Y-119092864D01*
X136944474Y-118745000D01*
X136944474Y-119176052D01*
X136812136Y-119308390D01*
X136851034Y-119429535D01*
X137136513Y-119495663D01*
X137425567Y-119447511D01*
X137468966Y-119429535D01*
X137507864Y-119308390D01*
X137507864Y-122205502D01*
X136713460Y-122204810D01*
X135943304Y-122523031D01*
X135943304Y-122259753D01*
X135943304Y-121580247D01*
X135758753Y-121203372D01*
X135409430Y-120880461D01*
X134963125Y-120715810D01*
X134772400Y-120789700D01*
X134772400Y-121767600D01*
X135892379Y-121767600D01*
X135943304Y-121580247D01*
X135943304Y-122259753D01*
X135892379Y-122072400D01*
X134772400Y-122072400D01*
X134772400Y-123050300D01*
X134963125Y-123124190D01*
X135409430Y-122959539D01*
X135758753Y-122636628D01*
X135943304Y-122259753D01*
X135943304Y-122523031D01*
X135884427Y-122547359D01*
X135249588Y-123181091D01*
X134905592Y-124009525D01*
X134904810Y-124906540D01*
X135247359Y-125735573D01*
X135881091Y-126370412D01*
X135929227Y-126390400D01*
X134467600Y-126390400D01*
X134467600Y-123050300D01*
X134467600Y-122072400D01*
X134467600Y-121767600D01*
X134467600Y-120789700D01*
X134276875Y-120715810D01*
X133830570Y-120880461D01*
X133481247Y-121203372D01*
X133296696Y-121580247D01*
X133347621Y-121767600D01*
X134467600Y-121767600D01*
X134467600Y-122072400D01*
X133347621Y-122072400D01*
X133296696Y-122259753D01*
X133481247Y-122636628D01*
X133830570Y-122959539D01*
X134276875Y-123124190D01*
X134467600Y-123050300D01*
X134467600Y-126390400D01*
X133146985Y-126390400D01*
X133146985Y-124883731D01*
X132984916Y-124491496D01*
X132702408Y-124208493D01*
X132702408Y-121034760D01*
X132607868Y-120805956D01*
X132432965Y-120630747D01*
X132204326Y-120535808D01*
X132032393Y-120535657D01*
X130162408Y-118665672D01*
X130162408Y-116462760D01*
X130067868Y-116233956D01*
X129892965Y-116058747D01*
X129664326Y-115963808D01*
X129492393Y-115963657D01*
X125788739Y-112260003D01*
X125656894Y-112171906D01*
X125501371Y-112140971D01*
X124436940Y-112140971D01*
X124348524Y-112052399D01*
X124133883Y-111963273D01*
X123901474Y-111963070D01*
X123686679Y-112051822D01*
X123522197Y-112216016D01*
X123433071Y-112430657D01*
X123432868Y-112663066D01*
X123521620Y-112877861D01*
X123685814Y-113042343D01*
X123900455Y-113131469D01*
X124132864Y-113131672D01*
X124347659Y-113042920D01*
X124436964Y-112953771D01*
X125333035Y-112953771D01*
X128917740Y-116538476D01*
X128917592Y-116709240D01*
X129012132Y-116938044D01*
X129187035Y-117113253D01*
X129415674Y-117208192D01*
X129663240Y-117208408D01*
X129892044Y-117113868D01*
X130067253Y-116938965D01*
X130162192Y-116710326D01*
X130162408Y-116462760D01*
X130162408Y-118665672D01*
X129573368Y-118076632D01*
X129441523Y-117988535D01*
X129286000Y-117957600D01*
X123409606Y-117957600D01*
X123288965Y-117836747D01*
X123060326Y-117741808D01*
X122812760Y-117741592D01*
X122583956Y-117836132D01*
X122408747Y-118011035D01*
X122313808Y-118239674D01*
X122313592Y-118487240D01*
X122408132Y-118716044D01*
X122583035Y-118891253D01*
X122811674Y-118986192D01*
X123059240Y-118986408D01*
X123288044Y-118891868D01*
X123409724Y-118770400D01*
X129117664Y-118770400D01*
X131457740Y-121110476D01*
X131457592Y-121281240D01*
X131552132Y-121510044D01*
X131727035Y-121685253D01*
X131955674Y-121780192D01*
X132203240Y-121780408D01*
X132432044Y-121685868D01*
X132607253Y-121510965D01*
X132702192Y-121282326D01*
X132702408Y-121034760D01*
X132702408Y-124208493D01*
X132685083Y-124191138D01*
X132293131Y-124028385D01*
X131868731Y-124028015D01*
X131476496Y-124190084D01*
X131176138Y-124489917D01*
X131013385Y-124881869D01*
X131013015Y-125306269D01*
X131175084Y-125698504D01*
X131474917Y-125998862D01*
X131866869Y-126161615D01*
X132291269Y-126161985D01*
X132683504Y-125999916D01*
X132983862Y-125700083D01*
X133146615Y-125308131D01*
X133146985Y-124883731D01*
X133146985Y-126390400D01*
X130606985Y-126390400D01*
X130606985Y-124883731D01*
X130444916Y-124491496D01*
X130145083Y-124191138D01*
X129753131Y-124028385D01*
X129328731Y-124028015D01*
X128936496Y-124190084D01*
X128636138Y-124489917D01*
X128473385Y-124881869D01*
X128473015Y-125306269D01*
X128635084Y-125698504D01*
X128934917Y-125998862D01*
X129326869Y-126161615D01*
X129751269Y-126161985D01*
X130143504Y-125999916D01*
X130443862Y-125700083D01*
X130606615Y-125308131D01*
X130606985Y-124883731D01*
X130606985Y-126390400D01*
X110353633Y-126390400D01*
X110353633Y-125210430D01*
X110311513Y-124767821D01*
X110223167Y-124554534D01*
X110062789Y-124467738D01*
X109435526Y-125095000D01*
X110062789Y-125722262D01*
X110223167Y-125635466D01*
X110353633Y-125210430D01*
X110353633Y-126390400D01*
X109847262Y-126390400D01*
X108432600Y-126390400D01*
X108432600Y-125916275D01*
X108523427Y-126007102D01*
X108592738Y-125937790D01*
X108679534Y-126098167D01*
X109104570Y-126228633D01*
X109547179Y-126186513D01*
X109760466Y-126098167D01*
X109847262Y-125937789D01*
X109220000Y-125310526D01*
X109205857Y-125324668D01*
X109042936Y-125161747D01*
X111421084Y-122783600D01*
X117433663Y-122783600D01*
X117243163Y-122974100D01*
X115887500Y-122974100D01*
X115731977Y-123005035D01*
X115626148Y-123075748D01*
X115626147Y-123075748D01*
X115446760Y-123075592D01*
X115217956Y-123170132D01*
X115042747Y-123345035D01*
X114985747Y-123482305D01*
X114984843Y-123481701D01*
X114795299Y-123443999D01*
X112915701Y-123443999D01*
X112726157Y-123481701D01*
X112565471Y-123589069D01*
X112081257Y-124073282D01*
X111973131Y-124028385D01*
X111548731Y-124028015D01*
X111156496Y-124190084D01*
X110856138Y-124489917D01*
X110693385Y-124881869D01*
X110693015Y-125306269D01*
X110855084Y-125698504D01*
X111154917Y-125998862D01*
X111546869Y-126161615D01*
X111971269Y-126161985D01*
X112363504Y-125999916D01*
X112663862Y-125700083D01*
X112826615Y-125308131D01*
X112826985Y-124883731D01*
X112781590Y-124773869D01*
X113120860Y-124434599D01*
X113451552Y-124434599D01*
X113396138Y-124489917D01*
X113233385Y-124881869D01*
X113233015Y-125306269D01*
X113395084Y-125698504D01*
X113694917Y-125998862D01*
X114086869Y-126161615D01*
X114511269Y-126161985D01*
X114903504Y-125999916D01*
X115203862Y-125700083D01*
X115366615Y-125308131D01*
X115366966Y-124904501D01*
X115773365Y-124904501D01*
X115773015Y-125306269D01*
X115935084Y-125698504D01*
X116234917Y-125998862D01*
X116626869Y-126161615D01*
X117051269Y-126161985D01*
X117443504Y-125999916D01*
X117743862Y-125700083D01*
X117906615Y-125308131D01*
X117906966Y-124904500D01*
X118313365Y-124904500D01*
X118313015Y-125306269D01*
X118475084Y-125698504D01*
X118774917Y-125998862D01*
X119166869Y-126161615D01*
X119591269Y-126161985D01*
X119983504Y-125999916D01*
X120283862Y-125700083D01*
X120446615Y-125308131D01*
X120446985Y-124883731D01*
X120284916Y-124491496D01*
X120228118Y-124434599D01*
X121071552Y-124434599D01*
X121016138Y-124489917D01*
X120853385Y-124881869D01*
X120853015Y-125306269D01*
X121015084Y-125698504D01*
X121314917Y-125998862D01*
X121706869Y-126161615D01*
X122131269Y-126161985D01*
X122523504Y-125999916D01*
X122823862Y-125700083D01*
X122986615Y-125308131D01*
X122986985Y-124883731D01*
X122824916Y-124491496D01*
X122768118Y-124434599D01*
X123611552Y-124434599D01*
X123556138Y-124489917D01*
X123393385Y-124881869D01*
X123393015Y-125306269D01*
X123555084Y-125698504D01*
X123854917Y-125998862D01*
X124246869Y-126161615D01*
X124671269Y-126161985D01*
X125063504Y-125999916D01*
X125363862Y-125700083D01*
X125526615Y-125308131D01*
X125526985Y-124883731D01*
X125364916Y-124491496D01*
X125308118Y-124434599D01*
X125996701Y-124434599D01*
X126186244Y-124396897D01*
X126186245Y-124396897D01*
X126195547Y-124390681D01*
X126096138Y-124489917D01*
X125933385Y-124881869D01*
X125933015Y-125306269D01*
X126095084Y-125698504D01*
X126394917Y-125998862D01*
X126786869Y-126161615D01*
X127211269Y-126161985D01*
X127603504Y-125999916D01*
X127903862Y-125700083D01*
X128066615Y-125308131D01*
X128066985Y-124883731D01*
X127904916Y-124491496D01*
X127605083Y-124191138D01*
X127213131Y-124028385D01*
X126788731Y-124028015D01*
X126481498Y-124154961D01*
X127667731Y-122968729D01*
X127713091Y-122923368D01*
X127758240Y-122923408D01*
X127987044Y-122828868D01*
X128162253Y-122653965D01*
X128257192Y-122425326D01*
X128257408Y-122177760D01*
X128162868Y-121948956D01*
X127987965Y-121773747D01*
X127759326Y-121678808D01*
X127511760Y-121678592D01*
X127282956Y-121773132D01*
X127107747Y-121948035D01*
X127012808Y-122176674D01*
X127012767Y-122222772D01*
X126967271Y-122268269D01*
X125791541Y-123443999D01*
X125082408Y-123443999D01*
X125082408Y-121923760D01*
X124987868Y-121694956D01*
X124812965Y-121519747D01*
X124584326Y-121424808D01*
X124336760Y-121424592D01*
X124107956Y-121519132D01*
X123986275Y-121640600D01*
X121831771Y-121640600D01*
X121743355Y-121552028D01*
X121528714Y-121462902D01*
X121296305Y-121462699D01*
X121081510Y-121551451D01*
X120917028Y-121715645D01*
X120827902Y-121930286D01*
X120827699Y-122162695D01*
X120916451Y-122377490D01*
X121080645Y-122541972D01*
X121295286Y-122631098D01*
X121527695Y-122631301D01*
X121742490Y-122542549D01*
X121831795Y-122453400D01*
X123986393Y-122453400D01*
X124107035Y-122574253D01*
X124335674Y-122669192D01*
X124583240Y-122669408D01*
X124812044Y-122574868D01*
X124987253Y-122399965D01*
X125082192Y-122171326D01*
X125082408Y-121923760D01*
X125082408Y-123443999D01*
X119054666Y-123443999D01*
X119120468Y-123345517D01*
X119141136Y-123241599D01*
X119599136Y-122783600D01*
X120497600Y-122783600D01*
X120497600Y-119358427D01*
X120551035Y-119411956D01*
X120779674Y-119506895D01*
X121027240Y-119507111D01*
X121256044Y-119412571D01*
X121431253Y-119237668D01*
X121526192Y-119009029D01*
X121526408Y-118761463D01*
X121431868Y-118532659D01*
X121403012Y-118503753D01*
X121507483Y-118399465D01*
X121602422Y-118170826D01*
X121602638Y-117923260D01*
X121508098Y-117694456D01*
X121386630Y-117572775D01*
X121386630Y-116408230D01*
X121355695Y-116252708D01*
X121355695Y-116252707D01*
X121267598Y-116120862D01*
X118850210Y-113703474D01*
X119989600Y-112564084D01*
X119989600Y-111717916D01*
X118914084Y-110642400D01*
X118406084Y-110642400D01*
X118211600Y-110447916D01*
X118211600Y-110193916D01*
X117898084Y-109880400D01*
X116882084Y-109880400D01*
X116628084Y-109626400D01*
X115612084Y-109626400D01*
X114909600Y-108923916D01*
X114909600Y-108699300D01*
X119729307Y-108699300D01*
X119913562Y-108662649D01*
X119981936Y-108828125D01*
X120156839Y-109003334D01*
X120385478Y-109098273D01*
X120548286Y-109098415D01*
X120548272Y-109114920D01*
X120642812Y-109343724D01*
X120770418Y-109471553D01*
X120770418Y-109471554D01*
X120795215Y-109596215D01*
X120883312Y-109728060D01*
X120942100Y-109786848D01*
X120942100Y-112204500D01*
X120973035Y-112360023D01*
X121061132Y-112491868D01*
X123666624Y-115097360D01*
X123666624Y-115246524D01*
X123697559Y-115402047D01*
X123785656Y-115533892D01*
X124091685Y-115839921D01*
X124091592Y-115947240D01*
X124186132Y-116176044D01*
X124361035Y-116351253D01*
X124589674Y-116446192D01*
X124837240Y-116446408D01*
X125066044Y-116351868D01*
X125241253Y-116176965D01*
X125336192Y-115948326D01*
X125336408Y-115700760D01*
X125241868Y-115471956D01*
X125138088Y-115367994D01*
X125222578Y-115283653D01*
X125317517Y-115055014D01*
X125317590Y-114970326D01*
X126077632Y-115730368D01*
X126209477Y-115818465D01*
X126209478Y-115818465D01*
X126365000Y-115849400D01*
X126399393Y-115849400D01*
X126520035Y-115970253D01*
X126748674Y-116065192D01*
X126996240Y-116065408D01*
X127225044Y-115970868D01*
X127400253Y-115795965D01*
X127495192Y-115567326D01*
X127495408Y-115319760D01*
X127400868Y-115090956D01*
X127225965Y-114915747D01*
X126997326Y-114820808D01*
X126749760Y-114820592D01*
X126520956Y-114915132D01*
X126466364Y-114969628D01*
X125171191Y-113674455D01*
X125171301Y-113549305D01*
X125082549Y-113334510D01*
X124918355Y-113170028D01*
X124703714Y-113080902D01*
X124471305Y-113080699D01*
X124256510Y-113169451D01*
X124092028Y-113333645D01*
X124002902Y-113548286D01*
X124002801Y-113663428D01*
X122199400Y-111860027D01*
X122199400Y-110252391D01*
X122329035Y-110382253D01*
X122557674Y-110477192D01*
X122805240Y-110477408D01*
X123034044Y-110382868D01*
X123209253Y-110207965D01*
X123304192Y-109979326D01*
X123304408Y-109731760D01*
X123209868Y-109502956D01*
X123062083Y-109354912D01*
X123062083Y-108242099D01*
X125893139Y-108242099D01*
X128808770Y-111157730D01*
X128969457Y-111265098D01*
X129159000Y-111302800D01*
X131267200Y-111302800D01*
X131267200Y-112391137D01*
X131235247Y-112423035D01*
X131140308Y-112651674D01*
X131140092Y-112899240D01*
X131234632Y-113128044D01*
X131409535Y-113303253D01*
X131638174Y-113398192D01*
X131818795Y-113398349D01*
X131924476Y-113468964D01*
X132079999Y-113499899D01*
X133299200Y-113499899D01*
X133299200Y-115163600D01*
X132629336Y-115163600D01*
X126398368Y-108932632D01*
X126266523Y-108844535D01*
X126111000Y-108813600D01*
X124244771Y-108813600D01*
X124156355Y-108725028D01*
X123941714Y-108635902D01*
X123709305Y-108635699D01*
X123494510Y-108724451D01*
X123330028Y-108888645D01*
X123240902Y-109103286D01*
X123240699Y-109335695D01*
X123329451Y-109550490D01*
X123493645Y-109714972D01*
X123708286Y-109804098D01*
X123748844Y-109804133D01*
X123748699Y-109970695D01*
X123837451Y-110185490D01*
X124001645Y-110349972D01*
X124216286Y-110439098D01*
X124448695Y-110439301D01*
X124663490Y-110350549D01*
X124752795Y-110261400D01*
X125942664Y-110261400D01*
X132808632Y-117127368D01*
X132940477Y-117215465D01*
X132940478Y-117215465D01*
X133096000Y-117246400D01*
X133354161Y-117246400D01*
X133362263Y-117287127D01*
X133615540Y-117666184D01*
X133994597Y-117919461D01*
X134441724Y-118008400D01*
X134798276Y-118008400D01*
X135245403Y-117919461D01*
X135534410Y-117726353D01*
X135534410Y-118043254D01*
X135264418Y-118313245D01*
X135245403Y-118300539D01*
X134798276Y-118211600D01*
X134441724Y-118211600D01*
X133994597Y-118300539D01*
X133615540Y-118553816D01*
X133362263Y-118932873D01*
X133273324Y-119380000D01*
X133362263Y-119827127D01*
X133615540Y-120206184D01*
X133994597Y-120459461D01*
X134441724Y-120548400D01*
X134798276Y-120548400D01*
X135245403Y-120459461D01*
X135624460Y-120206184D01*
X135877737Y-119827127D01*
X135966676Y-119380000D01*
X135877737Y-118932873D01*
X135844302Y-118882833D01*
X136228178Y-118498958D01*
X136316275Y-118367113D01*
X136347210Y-118211590D01*
X136347210Y-117236946D01*
X136474296Y-117364032D01*
X136474081Y-117610816D01*
X136578268Y-117862967D01*
X136771018Y-118056054D01*
X136842870Y-118085889D01*
X136812136Y-118181610D01*
X137160000Y-118529474D01*
X137507864Y-118181610D01*
X137477161Y-118085988D01*
X137547967Y-118056732D01*
X137741054Y-117863982D01*
X137795003Y-117734057D01*
X137848268Y-117862967D01*
X138041018Y-118056054D01*
X138170942Y-118110003D01*
X138042033Y-118163268D01*
X137848946Y-118356018D01*
X137819110Y-118427870D01*
X137723390Y-118397136D01*
X137375526Y-118745000D01*
X137723390Y-119092864D01*
X137819011Y-119062161D01*
X137848268Y-119132967D01*
X138041018Y-119326054D01*
X138292987Y-119430681D01*
X138565816Y-119430919D01*
X138817967Y-119326732D01*
X139011054Y-119133982D01*
X139090400Y-118942896D01*
X139090400Y-123227407D01*
X139090400Y-123227407D01*
G37*
X139090400Y-123227407D02*
X139072641Y-123184427D01*
X138438909Y-122549588D01*
X137610475Y-122205592D01*
X137507864Y-122205502D01*
X137507864Y-119308390D01*
X137160000Y-118960526D01*
X136944474Y-119176052D01*
X136944474Y-118745000D01*
X136596610Y-118397136D01*
X136475465Y-118436034D01*
X136409337Y-118721513D01*
X136457489Y-119010567D01*
X136475465Y-119053966D01*
X136596610Y-119092864D01*
X136944474Y-118745000D01*
X136944474Y-119176052D01*
X136812136Y-119308390D01*
X136851034Y-119429535D01*
X137136513Y-119495663D01*
X137425567Y-119447511D01*
X137468966Y-119429535D01*
X137507864Y-119308390D01*
X137507864Y-122205502D01*
X136713460Y-122204810D01*
X135943304Y-122523031D01*
X135943304Y-122259753D01*
X135943304Y-121580247D01*
X135758753Y-121203372D01*
X135409430Y-120880461D01*
X134963125Y-120715810D01*
X134772400Y-120789700D01*
X134772400Y-121767600D01*
X135892379Y-121767600D01*
X135943304Y-121580247D01*
X135943304Y-122259753D01*
X135892379Y-122072400D01*
X134772400Y-122072400D01*
X134772400Y-123050300D01*
X134963125Y-123124190D01*
X135409430Y-122959539D01*
X135758753Y-122636628D01*
X135943304Y-122259753D01*
X135943304Y-122523031D01*
X135884427Y-122547359D01*
X135249588Y-123181091D01*
X134905592Y-124009525D01*
X134904810Y-124906540D01*
X135247359Y-125735573D01*
X135881091Y-126370412D01*
X135929227Y-126390400D01*
X134467600Y-126390400D01*
X134467600Y-123050300D01*
X134467600Y-122072400D01*
X134467600Y-121767600D01*
X134467600Y-120789700D01*
X134276875Y-120715810D01*
X133830570Y-120880461D01*
X133481247Y-121203372D01*
X133296696Y-121580247D01*
X133347621Y-121767600D01*
X134467600Y-121767600D01*
X134467600Y-122072400D01*
X133347621Y-122072400D01*
X133296696Y-122259753D01*
X133481247Y-122636628D01*
X133830570Y-122959539D01*
X134276875Y-123124190D01*
X134467600Y-123050300D01*
X134467600Y-126390400D01*
X133146985Y-126390400D01*
X133146985Y-124883731D01*
X132984916Y-124491496D01*
X132702408Y-124208493D01*
X132702408Y-121034760D01*
X132607868Y-120805956D01*
X132432965Y-120630747D01*
X132204326Y-120535808D01*
X132032393Y-120535657D01*
X130162408Y-118665672D01*
X130162408Y-116462760D01*
X130067868Y-116233956D01*
X129892965Y-116058747D01*
X129664326Y-115963808D01*
X129492393Y-115963657D01*
X125788739Y-112260003D01*
X125656894Y-112171906D01*
X125501371Y-112140971D01*
X124436940Y-112140971D01*
X124348524Y-112052399D01*
X124133883Y-111963273D01*
X123901474Y-111963070D01*
X123686679Y-112051822D01*
X123522197Y-112216016D01*
X123433071Y-112430657D01*
X123432868Y-112663066D01*
X123521620Y-112877861D01*
X123685814Y-113042343D01*
X123900455Y-113131469D01*
X124132864Y-113131672D01*
X124347659Y-113042920D01*
X124436964Y-112953771D01*
X125333035Y-112953771D01*
X128917740Y-116538476D01*
X128917592Y-116709240D01*
X129012132Y-116938044D01*
X129187035Y-117113253D01*
X129415674Y-117208192D01*
X129663240Y-117208408D01*
X129892044Y-117113868D01*
X130067253Y-116938965D01*
X130162192Y-116710326D01*
X130162408Y-116462760D01*
X130162408Y-118665672D01*
X129573368Y-118076632D01*
X129441523Y-117988535D01*
X129286000Y-117957600D01*
X123409606Y-117957600D01*
X123288965Y-117836747D01*
X123060326Y-117741808D01*
X122812760Y-117741592D01*
X122583956Y-117836132D01*
X122408747Y-118011035D01*
X122313808Y-118239674D01*
X122313592Y-118487240D01*
X122408132Y-118716044D01*
X122583035Y-118891253D01*
X122811674Y-118986192D01*
X123059240Y-118986408D01*
X123288044Y-118891868D01*
X123409724Y-118770400D01*
X129117664Y-118770400D01*
X131457740Y-121110476D01*
X131457592Y-121281240D01*
X131552132Y-121510044D01*
X131727035Y-121685253D01*
X131955674Y-121780192D01*
X132203240Y-121780408D01*
X132432044Y-121685868D01*
X132607253Y-121510965D01*
X132702192Y-121282326D01*
X132702408Y-121034760D01*
X132702408Y-124208493D01*
X132685083Y-124191138D01*
X132293131Y-124028385D01*
X131868731Y-124028015D01*
X131476496Y-124190084D01*
X131176138Y-124489917D01*
X131013385Y-124881869D01*
X131013015Y-125306269D01*
X131175084Y-125698504D01*
X131474917Y-125998862D01*
X131866869Y-126161615D01*
X132291269Y-126161985D01*
X132683504Y-125999916D01*
X132983862Y-125700083D01*
X133146615Y-125308131D01*
X133146985Y-124883731D01*
X133146985Y-126390400D01*
X130606985Y-126390400D01*
X130606985Y-124883731D01*
X130444916Y-124491496D01*
X130145083Y-124191138D01*
X129753131Y-124028385D01*
X129328731Y-124028015D01*
X128936496Y-124190084D01*
X128636138Y-124489917D01*
X128473385Y-124881869D01*
X128473015Y-125306269D01*
X128635084Y-125698504D01*
X128934917Y-125998862D01*
X129326869Y-126161615D01*
X129751269Y-126161985D01*
X130143504Y-125999916D01*
X130443862Y-125700083D01*
X130606615Y-125308131D01*
X130606985Y-124883731D01*
X130606985Y-126390400D01*
X110353633Y-126390400D01*
X110353633Y-125210430D01*
X110311513Y-124767821D01*
X110223167Y-124554534D01*
X110062789Y-124467738D01*
X109435526Y-125095000D01*
X110062789Y-125722262D01*
X110223167Y-125635466D01*
X110353633Y-125210430D01*
X110353633Y-126390400D01*
X109847262Y-126390400D01*
X108432600Y-126390400D01*
X108432600Y-125916275D01*
X108523427Y-126007102D01*
X108592738Y-125937790D01*
X108679534Y-126098167D01*
X109104570Y-126228633D01*
X109547179Y-126186513D01*
X109760466Y-126098167D01*
X109847262Y-125937789D01*
X109220000Y-125310526D01*
X109205857Y-125324668D01*
X109042936Y-125161747D01*
X111421084Y-122783600D01*
X117433663Y-122783600D01*
X117243163Y-122974100D01*
X115887500Y-122974100D01*
X115731977Y-123005035D01*
X115626148Y-123075748D01*
X115626147Y-123075748D01*
X115446760Y-123075592D01*
X115217956Y-123170132D01*
X115042747Y-123345035D01*
X114985747Y-123482305D01*
X114984843Y-123481701D01*
X114795299Y-123443999D01*
X112915701Y-123443999D01*
X112726157Y-123481701D01*
X112565471Y-123589069D01*
X112081257Y-124073282D01*
X111973131Y-124028385D01*
X111548731Y-124028015D01*
X111156496Y-124190084D01*
X110856138Y-124489917D01*
X110693385Y-124881869D01*
X110693015Y-125306269D01*
X110855084Y-125698504D01*
X111154917Y-125998862D01*
X111546869Y-126161615D01*
X111971269Y-126161985D01*
X112363504Y-125999916D01*
X112663862Y-125700083D01*
X112826615Y-125308131D01*
X112826985Y-124883731D01*
X112781590Y-124773869D01*
X113120860Y-124434599D01*
X113451552Y-124434599D01*
X113396138Y-124489917D01*
X113233385Y-124881869D01*
X113233015Y-125306269D01*
X113395084Y-125698504D01*
X113694917Y-125998862D01*
X114086869Y-126161615D01*
X114511269Y-126161985D01*
X114903504Y-125999916D01*
X115203862Y-125700083D01*
X115366615Y-125308131D01*
X115366966Y-124904501D01*
X115773365Y-124904501D01*
X115773015Y-125306269D01*
X115935084Y-125698504D01*
X116234917Y-125998862D01*
X116626869Y-126161615D01*
X117051269Y-126161985D01*
X117443504Y-125999916D01*
X117743862Y-125700083D01*
X117906615Y-125308131D01*
X117906966Y-124904500D01*
X118313365Y-124904500D01*
X118313015Y-125306269D01*
X118475084Y-125698504D01*
X118774917Y-125998862D01*
X119166869Y-126161615D01*
X119591269Y-126161985D01*
X119983504Y-125999916D01*
X120283862Y-125700083D01*
X120446615Y-125308131D01*
X120446985Y-124883731D01*
X120284916Y-124491496D01*
X120228118Y-124434599D01*
X121071552Y-124434599D01*
X121016138Y-124489917D01*
X120853385Y-124881869D01*
X120853015Y-125306269D01*
X121015084Y-125698504D01*
X121314917Y-125998862D01*
X121706869Y-126161615D01*
X122131269Y-126161985D01*
X122523504Y-125999916D01*
X122823862Y-125700083D01*
X122986615Y-125308131D01*
X122986985Y-124883731D01*
X122824916Y-124491496D01*
X122768118Y-124434599D01*
X123611552Y-124434599D01*
X123556138Y-124489917D01*
X123393385Y-124881869D01*
X123393015Y-125306269D01*
X123555084Y-125698504D01*
X123854917Y-125998862D01*
X124246869Y-126161615D01*
X124671269Y-126161985D01*
X125063504Y-125999916D01*
X125363862Y-125700083D01*
X125526615Y-125308131D01*
X125526985Y-124883731D01*
X125364916Y-124491496D01*
X125308118Y-124434599D01*
X125996701Y-124434599D01*
X126186244Y-124396897D01*
X126186245Y-124396897D01*
X126195547Y-124390681D01*
X126096138Y-124489917D01*
X125933385Y-124881869D01*
X125933015Y-125306269D01*
X126095084Y-125698504D01*
X126394917Y-125998862D01*
X126786869Y-126161615D01*
X127211269Y-126161985D01*
X127603504Y-125999916D01*
X127903862Y-125700083D01*
X128066615Y-125308131D01*
X128066985Y-124883731D01*
X127904916Y-124491496D01*
X127605083Y-124191138D01*
X127213131Y-124028385D01*
X126788731Y-124028015D01*
X126481498Y-124154961D01*
X127667731Y-122968729D01*
X127713091Y-122923368D01*
X127758240Y-122923408D01*
X127987044Y-122828868D01*
X128162253Y-122653965D01*
X128257192Y-122425326D01*
X128257408Y-122177760D01*
X128162868Y-121948956D01*
X127987965Y-121773747D01*
X127759326Y-121678808D01*
X127511760Y-121678592D01*
X127282956Y-121773132D01*
X127107747Y-121948035D01*
X127012808Y-122176674D01*
X127012767Y-122222772D01*
X126967271Y-122268269D01*
X125791541Y-123443999D01*
X125082408Y-123443999D01*
X125082408Y-121923760D01*
X124987868Y-121694956D01*
X124812965Y-121519747D01*
X124584326Y-121424808D01*
X124336760Y-121424592D01*
X124107956Y-121519132D01*
X123986275Y-121640600D01*
X121831771Y-121640600D01*
X121743355Y-121552028D01*
X121528714Y-121462902D01*
X121296305Y-121462699D01*
X121081510Y-121551451D01*
X120917028Y-121715645D01*
X120827902Y-121930286D01*
X120827699Y-122162695D01*
X120916451Y-122377490D01*
X121080645Y-122541972D01*
X121295286Y-122631098D01*
X121527695Y-122631301D01*
X121742490Y-122542549D01*
X121831795Y-122453400D01*
X123986393Y-122453400D01*
X124107035Y-122574253D01*
X124335674Y-122669192D01*
X124583240Y-122669408D01*
X124812044Y-122574868D01*
X124987253Y-122399965D01*
X125082192Y-122171326D01*
X125082408Y-121923760D01*
X125082408Y-123443999D01*
X119054666Y-123443999D01*
X119120468Y-123345517D01*
X119141136Y-123241599D01*
X119599136Y-122783600D01*
X120497600Y-122783600D01*
X120497600Y-119358427D01*
X120551035Y-119411956D01*
X120779674Y-119506895D01*
X121027240Y-119507111D01*
X121256044Y-119412571D01*
X121431253Y-119237668D01*
X121526192Y-119009029D01*
X121526408Y-118761463D01*
X121431868Y-118532659D01*
X121403012Y-118503753D01*
X121507483Y-118399465D01*
X121602422Y-118170826D01*
X121602638Y-117923260D01*
X121508098Y-117694456D01*
X121386630Y-117572775D01*
X121386630Y-116408230D01*
X121355695Y-116252708D01*
X121355695Y-116252707D01*
X121267598Y-116120862D01*
X118850210Y-113703474D01*
X119989600Y-112564084D01*
X119989600Y-111717916D01*
X118914084Y-110642400D01*
X118406084Y-110642400D01*
X118211600Y-110447916D01*
X118211600Y-110193916D01*
X117898084Y-109880400D01*
X116882084Y-109880400D01*
X116628084Y-109626400D01*
X115612084Y-109626400D01*
X114909600Y-108923916D01*
X114909600Y-108699300D01*
X119729307Y-108699300D01*
X119913562Y-108662649D01*
X119981936Y-108828125D01*
X120156839Y-109003334D01*
X120385478Y-109098273D01*
X120548286Y-109098415D01*
X120548272Y-109114920D01*
X120642812Y-109343724D01*
X120770418Y-109471553D01*
X120770418Y-109471554D01*
X120795215Y-109596215D01*
X120883312Y-109728060D01*
X120942100Y-109786848D01*
X120942100Y-112204500D01*
X120973035Y-112360023D01*
X121061132Y-112491868D01*
X123666624Y-115097360D01*
X123666624Y-115246524D01*
X123697559Y-115402047D01*
X123785656Y-115533892D01*
X124091685Y-115839921D01*
X124091592Y-115947240D01*
X124186132Y-116176044D01*
X124361035Y-116351253D01*
X124589674Y-116446192D01*
X124837240Y-116446408D01*
X125066044Y-116351868D01*
X125241253Y-116176965D01*
X125336192Y-115948326D01*
X125336408Y-115700760D01*
X125241868Y-115471956D01*
X125138088Y-115367994D01*
X125222578Y-115283653D01*
X125317517Y-115055014D01*
X125317590Y-114970326D01*
X126077632Y-115730368D01*
X126209477Y-115818465D01*
X126209478Y-115818465D01*
X126365000Y-115849400D01*
X126399393Y-115849400D01*
X126520035Y-115970253D01*
X126748674Y-116065192D01*
X126996240Y-116065408D01*
X127225044Y-115970868D01*
X127400253Y-115795965D01*
X127495192Y-115567326D01*
X127495408Y-115319760D01*
X127400868Y-115090956D01*
X127225965Y-114915747D01*
X126997326Y-114820808D01*
X126749760Y-114820592D01*
X126520956Y-114915132D01*
X126466364Y-114969628D01*
X125171191Y-113674455D01*
X125171301Y-113549305D01*
X125082549Y-113334510D01*
X124918355Y-113170028D01*
X124703714Y-113080902D01*
X124471305Y-113080699D01*
X124256510Y-113169451D01*
X124092028Y-113333645D01*
X124002902Y-113548286D01*
X124002801Y-113663428D01*
X122199400Y-111860027D01*
X122199400Y-110252391D01*
X122329035Y-110382253D01*
X122557674Y-110477192D01*
X122805240Y-110477408D01*
X123034044Y-110382868D01*
X123209253Y-110207965D01*
X123304192Y-109979326D01*
X123304408Y-109731760D01*
X123209868Y-109502956D01*
X123062083Y-109354912D01*
X123062083Y-108242099D01*
X125893139Y-108242099D01*
X128808770Y-111157730D01*
X128969457Y-111265098D01*
X129159000Y-111302800D01*
X131267200Y-111302800D01*
X131267200Y-112391137D01*
X131235247Y-112423035D01*
X131140308Y-112651674D01*
X131140092Y-112899240D01*
X131234632Y-113128044D01*
X131409535Y-113303253D01*
X131638174Y-113398192D01*
X131818795Y-113398349D01*
X131924476Y-113468964D01*
X132079999Y-113499899D01*
X133299200Y-113499899D01*
X133299200Y-115163600D01*
X132629336Y-115163600D01*
X126398368Y-108932632D01*
X126266523Y-108844535D01*
X126111000Y-108813600D01*
X124244771Y-108813600D01*
X124156355Y-108725028D01*
X123941714Y-108635902D01*
X123709305Y-108635699D01*
X123494510Y-108724451D01*
X123330028Y-108888645D01*
X123240902Y-109103286D01*
X123240699Y-109335695D01*
X123329451Y-109550490D01*
X123493645Y-109714972D01*
X123708286Y-109804098D01*
X123748844Y-109804133D01*
X123748699Y-109970695D01*
X123837451Y-110185490D01*
X124001645Y-110349972D01*
X124216286Y-110439098D01*
X124448695Y-110439301D01*
X124663490Y-110350549D01*
X124752795Y-110261400D01*
X125942664Y-110261400D01*
X132808632Y-117127368D01*
X132940477Y-117215465D01*
X132940478Y-117215465D01*
X133096000Y-117246400D01*
X133354161Y-117246400D01*
X133362263Y-117287127D01*
X133615540Y-117666184D01*
X133994597Y-117919461D01*
X134441724Y-118008400D01*
X134798276Y-118008400D01*
X135245403Y-117919461D01*
X135534410Y-117726353D01*
X135534410Y-118043254D01*
X135264418Y-118313245D01*
X135245403Y-118300539D01*
X134798276Y-118211600D01*
X134441724Y-118211600D01*
X133994597Y-118300539D01*
X133615540Y-118553816D01*
X133362263Y-118932873D01*
X133273324Y-119380000D01*
X133362263Y-119827127D01*
X133615540Y-120206184D01*
X133994597Y-120459461D01*
X134441724Y-120548400D01*
X134798276Y-120548400D01*
X135245403Y-120459461D01*
X135624460Y-120206184D01*
X135877737Y-119827127D01*
X135966676Y-119380000D01*
X135877737Y-118932873D01*
X135844302Y-118882833D01*
X136228178Y-118498958D01*
X136316275Y-118367113D01*
X136347210Y-118211590D01*
X136347210Y-117236946D01*
X136474296Y-117364032D01*
X136474081Y-117610816D01*
X136578268Y-117862967D01*
X136771018Y-118056054D01*
X136842870Y-118085889D01*
X136812136Y-118181610D01*
X137160000Y-118529474D01*
X137507864Y-118181610D01*
X137477161Y-118085988D01*
X137547967Y-118056732D01*
X137741054Y-117863982D01*
X137795003Y-117734057D01*
X137848268Y-117862967D01*
X138041018Y-118056054D01*
X138170942Y-118110003D01*
X138042033Y-118163268D01*
X137848946Y-118356018D01*
X137819110Y-118427870D01*
X137723390Y-118397136D01*
X137375526Y-118745000D01*
X137723390Y-119092864D01*
X137819011Y-119062161D01*
X137848268Y-119132967D01*
X138041018Y-119326054D01*
X138292987Y-119430681D01*
X138565816Y-119430919D01*
X138817967Y-119326732D01*
X139011054Y-119133982D01*
X139090400Y-118942896D01*
X139090400Y-123227407D01*
M02*
