%FSLAX46Y46*%
G04 Gerber Fmt 4.6, Leading zero omitted, Abs format (unit mm)*
G04 Created by KiCad (PCBNEW (2014-08-29 BZR 5106)-product) date Tue 04 Nov 2014 06:17:05 PM PST*
%MOMM*%
G01*
G04 APERTURE LIST*
%ADD10C,0.100000*%
%ADD11R,0.800100X1.000760*%
%ADD12R,0.398780X0.599440*%
%ADD13R,1.250000X2.100000*%
%ADD14R,1.397000X0.889000*%
%ADD15R,0.599440X0.398780*%
%ADD16R,0.889000X1.397000*%
%ADD17R,0.797560X0.797560*%
%ADD18R,2.032000X2.032000*%
%ADD19O,2.032000X2.032000*%
%ADD20C,0.762000*%
%ADD21R,2.032000X1.727200*%
%ADD22O,2.032000X1.727200*%
%ADD23C,1.524000*%
%ADD24R,0.400000X0.300000*%
%ADD25R,1.000000X3.000000*%
%ADD26R,0.280000X0.800000*%
%ADD27R,2.000000X1.200000*%
%ADD28R,1.150000X1.400000*%
%ADD29R,0.400000X1.400000*%
%ADD30R,2.300000X1.900000*%
%ADD31R,1.700000X1.900000*%
%ADD32R,1.500000X1.000000*%
%ADD33C,3.900000*%
%ADD34R,0.600000X0.290000*%
%ADD35R,0.558800X0.685800*%
%ADD36R,1.727200X2.032000*%
%ADD37O,1.727200X2.032000*%
%ADD38C,0.635000*%
%ADD39C,0.558800*%
%ADD40C,0.381000*%
%ADD41C,0.355600*%
%ADD42C,0.508000*%
%ADD43C,0.203200*%
%ADD44C,0.254000*%
%ADD45C,0.304800*%
%ADD46C,0.266700*%
%ADD47C,0.762000*%
G04 APERTURE END LIST*
D10*
D11*
X120650000Y-110065820D03*
X119697500Y-107866180D03*
X121602500Y-107866180D03*
D12*
X124401580Y-116840000D03*
X123502420Y-116840000D03*
X119194580Y-110490000D03*
X118295420Y-110490000D03*
D13*
X109826400Y-119202200D03*
X103076400Y-119202200D03*
D14*
X128016000Y-106235500D03*
X128016000Y-104330500D03*
D12*
X133545580Y-106997500D03*
X132646420Y-106997500D03*
X133545580Y-105981500D03*
X132646420Y-105981500D03*
D14*
X133350000Y-104902000D03*
X133350000Y-102997000D03*
X125666500Y-113474500D03*
X125666500Y-111569500D03*
D15*
X125603000Y-115384580D03*
X125603000Y-114485420D03*
D12*
X136911080Y-108775500D03*
X136011920Y-108775500D03*
X123512580Y-110744000D03*
X122613420Y-110744000D03*
D16*
X115633500Y-110871000D03*
X113728500Y-110871000D03*
D15*
X117475000Y-110802420D03*
X117475000Y-111701580D03*
D12*
X115501420Y-112141000D03*
X116400580Y-112141000D03*
X124020580Y-111633000D03*
X123121420Y-111633000D03*
D15*
X116078000Y-105859580D03*
X116078000Y-104960420D03*
D12*
X115501420Y-119253000D03*
X116400580Y-119253000D03*
D15*
X114808000Y-118295420D03*
X114808000Y-119194580D03*
X112522000Y-118295420D03*
X112522000Y-119194580D03*
D17*
X114300000Y-104127300D03*
X114300000Y-102628700D03*
D15*
X113284000Y-109542580D03*
X113284000Y-108643420D03*
D18*
X111125000Y-106045000D03*
D19*
X108585000Y-106045000D03*
D18*
X111125000Y-103568500D03*
D19*
X108585000Y-103568500D03*
D20*
X138430000Y-118745000D03*
X137160000Y-118745000D03*
X138430000Y-117475000D03*
X137160000Y-117475000D03*
X138430000Y-116205000D03*
X137160000Y-116205000D03*
X138430000Y-114935000D03*
X137160000Y-114935000D03*
X138430000Y-113665000D03*
X137160000Y-113665000D03*
D21*
X134620000Y-114300000D03*
D22*
X134620000Y-116840000D03*
X134620000Y-119380000D03*
X134620000Y-121920000D03*
D23*
X109220000Y-125095000D03*
X111760000Y-125095000D03*
X114300000Y-125095000D03*
X116840000Y-125095000D03*
X119380000Y-125095000D03*
X121920000Y-125095000D03*
X124460000Y-125095000D03*
X127000000Y-125095000D03*
X129540000Y-125095000D03*
X132080000Y-125095000D03*
D24*
X104775000Y-107615000D03*
X104775000Y-107015000D03*
D25*
X131810000Y-103949500D03*
X129810000Y-103949500D03*
D12*
X114114580Y-119253000D03*
X113215420Y-119253000D03*
X114495580Y-107696000D03*
X113596420Y-107696000D03*
D15*
X113030000Y-102420420D03*
X113030000Y-103319580D03*
X132588000Y-108717080D03*
X132588000Y-107817920D03*
X132588000Y-110431580D03*
X132588000Y-109532420D03*
X125476000Y-105732580D03*
X125476000Y-104833420D03*
X134620000Y-108717080D03*
X134620000Y-107817920D03*
D18*
X137160000Y-111760000D03*
D19*
X134620000Y-111760000D03*
D10*
G36*
X117167967Y-118347719D02*
X117875074Y-119054826D01*
X117627587Y-119302313D01*
X116920480Y-118595206D01*
X117167967Y-118347719D01*
X117167967Y-118347719D01*
G37*
G36*
X117627586Y-117888099D02*
X118334693Y-118595206D01*
X118087206Y-118842693D01*
X117380099Y-118135586D01*
X117627586Y-117888099D01*
X117627586Y-117888099D01*
G37*
G36*
X118087206Y-117428480D02*
X118794313Y-118135587D01*
X118546826Y-118383074D01*
X117839719Y-117675967D01*
X118087206Y-117428480D01*
X118087206Y-117428480D01*
G37*
G36*
X116814413Y-116155687D02*
X117521520Y-116862794D01*
X117274033Y-117110281D01*
X116566926Y-116403174D01*
X116814413Y-116155687D01*
X116814413Y-116155687D01*
G37*
G36*
X116354794Y-116615307D02*
X117061901Y-117322414D01*
X116814414Y-117569901D01*
X116107307Y-116862794D01*
X116354794Y-116615307D01*
X116354794Y-116615307D01*
G37*
G36*
X115895174Y-117074926D02*
X116602281Y-117782033D01*
X116354794Y-118029520D01*
X115647687Y-117322413D01*
X115895174Y-117074926D01*
X115895174Y-117074926D01*
G37*
D26*
X131810000Y-106255500D03*
X131310000Y-106255500D03*
X130810000Y-106255500D03*
X130310000Y-106255500D03*
X129810000Y-106255500D03*
X129810000Y-108755500D03*
X130310000Y-108755500D03*
X130810000Y-108755500D03*
X131310000Y-108755500D03*
X131810000Y-108755500D03*
D27*
X130810000Y-107505500D03*
D10*
G36*
X119890270Y-111244916D02*
X120066283Y-111068903D01*
X120490152Y-111492772D01*
X120314139Y-111668785D01*
X119890270Y-111244916D01*
X119890270Y-111244916D01*
G37*
G36*
X119536448Y-111598738D02*
X119712461Y-111422725D01*
X120136330Y-111846594D01*
X119960317Y-112022607D01*
X119536448Y-111598738D01*
X119536448Y-111598738D01*
G37*
G36*
X119182626Y-111952561D02*
X119358639Y-111776548D01*
X119782508Y-112200417D01*
X119606495Y-112376430D01*
X119182626Y-111952561D01*
X119182626Y-111952561D01*
G37*
G36*
X118828804Y-112306383D02*
X119004817Y-112130370D01*
X119428686Y-112554239D01*
X119252673Y-112730252D01*
X118828804Y-112306383D01*
X118828804Y-112306383D01*
G37*
G36*
X118476778Y-112658409D02*
X118652791Y-112482396D01*
X119076660Y-112906265D01*
X118900647Y-113082278D01*
X118476778Y-112658409D01*
X118476778Y-112658409D01*
G37*
G36*
X118122955Y-113012231D02*
X118298968Y-112836218D01*
X118722837Y-113260087D01*
X118546824Y-113436100D01*
X118122955Y-113012231D01*
X118122955Y-113012231D01*
G37*
G36*
X117769133Y-113366053D02*
X117945146Y-113190040D01*
X118369015Y-113613909D01*
X118193002Y-113789922D01*
X117769133Y-113366053D01*
X117769133Y-113366053D01*
G37*
G36*
X117415311Y-113719875D02*
X117591324Y-113543862D01*
X118015193Y-113967731D01*
X117839180Y-114143744D01*
X117415311Y-113719875D01*
X117415311Y-113719875D01*
G37*
G36*
X118827008Y-116299005D02*
X119250877Y-115875136D01*
X119426890Y-116051149D01*
X119003021Y-116475018D01*
X118827008Y-116299005D01*
X118827008Y-116299005D01*
G37*
G36*
X119179034Y-116651032D02*
X119602903Y-116227163D01*
X119778916Y-116403176D01*
X119355047Y-116827045D01*
X119179034Y-116651032D01*
X119179034Y-116651032D01*
G37*
G36*
X119532856Y-117004854D02*
X119956725Y-116580985D01*
X120132738Y-116756998D01*
X119708869Y-117180867D01*
X119532856Y-117004854D01*
X119532856Y-117004854D01*
G37*
G36*
X119886678Y-117358676D02*
X120310547Y-116934807D01*
X120486560Y-117110820D01*
X120062691Y-117534689D01*
X119886678Y-117358676D01*
X119886678Y-117358676D01*
G37*
G36*
X118316929Y-114300000D02*
X120650000Y-111966929D01*
X122983071Y-114300000D01*
X120650000Y-116633071D01*
X118316929Y-114300000D01*
X118316929Y-114300000D01*
G37*
G36*
X117413515Y-114885513D02*
X117837384Y-114461644D01*
X118013397Y-114637657D01*
X117589528Y-115061526D01*
X117413515Y-114885513D01*
X117413515Y-114885513D01*
G37*
G36*
X117767337Y-115239335D02*
X118191206Y-114815466D01*
X118367219Y-114991479D01*
X117943350Y-115415348D01*
X117767337Y-115239335D01*
X117767337Y-115239335D01*
G37*
G36*
X118121159Y-115593157D02*
X118545028Y-115169288D01*
X118721041Y-115345301D01*
X118297172Y-115769170D01*
X118121159Y-115593157D01*
X118121159Y-115593157D01*
G37*
G36*
X118473185Y-115945183D02*
X118897054Y-115521314D01*
X119073067Y-115697327D01*
X118649198Y-116121196D01*
X118473185Y-115945183D01*
X118473185Y-115945183D01*
G37*
G36*
X120809848Y-117107228D02*
X120985861Y-116931215D01*
X121409730Y-117355084D01*
X121233717Y-117531097D01*
X120809848Y-117107228D01*
X120809848Y-117107228D01*
G37*
G36*
X121165466Y-116755202D02*
X121341479Y-116579189D01*
X121765348Y-117003058D01*
X121589335Y-117179071D01*
X121165466Y-116755202D01*
X121165466Y-116755202D01*
G37*
G36*
X121517492Y-116403176D02*
X121693505Y-116227163D01*
X122117374Y-116651032D01*
X121941361Y-116827045D01*
X121517492Y-116403176D01*
X121517492Y-116403176D01*
G37*
G36*
X121871314Y-116049353D02*
X122047327Y-115873340D01*
X122471196Y-116297209D01*
X122295183Y-116473222D01*
X121871314Y-116049353D01*
X121871314Y-116049353D01*
G37*
G36*
X122225136Y-115695531D02*
X122401149Y-115519518D01*
X122825018Y-115943387D01*
X122649005Y-116119400D01*
X122225136Y-115695531D01*
X122225136Y-115695531D01*
G37*
G36*
X122578959Y-115341709D02*
X122754972Y-115165696D01*
X123178841Y-115589565D01*
X123002828Y-115765578D01*
X122578959Y-115341709D01*
X122578959Y-115341709D01*
G37*
G36*
X122932781Y-114987887D02*
X123108794Y-114811874D01*
X123532663Y-115235743D01*
X123356650Y-115411756D01*
X122932781Y-114987887D01*
X122932781Y-114987887D01*
G37*
G36*
X123286603Y-114634065D02*
X123462616Y-114458052D01*
X123886485Y-114881921D01*
X123710472Y-115057934D01*
X123286603Y-114634065D01*
X123286603Y-114634065D01*
G37*
G36*
X123284807Y-113964139D02*
X123708676Y-113540270D01*
X123884689Y-113716283D01*
X123460820Y-114140152D01*
X123284807Y-113964139D01*
X123284807Y-113964139D01*
G37*
G36*
X122930985Y-113610317D02*
X123354854Y-113186448D01*
X123530867Y-113362461D01*
X123106998Y-113786330D01*
X122930985Y-113610317D01*
X122930985Y-113610317D01*
G37*
G36*
X122577163Y-113256495D02*
X123001032Y-112832626D01*
X123177045Y-113008639D01*
X122753176Y-113432508D01*
X122577163Y-113256495D01*
X122577163Y-113256495D01*
G37*
G36*
X122225136Y-112904469D02*
X122649005Y-112480600D01*
X122825018Y-112656613D01*
X122401149Y-113080482D01*
X122225136Y-112904469D01*
X122225136Y-112904469D01*
G37*
G36*
X121871314Y-112550647D02*
X122295183Y-112126778D01*
X122471196Y-112302791D01*
X122047327Y-112726660D01*
X121871314Y-112550647D01*
X121871314Y-112550647D01*
G37*
G36*
X121517492Y-112196824D02*
X121941361Y-111772955D01*
X122117374Y-111948968D01*
X121693505Y-112372837D01*
X121517492Y-112196824D01*
X121517492Y-112196824D01*
G37*
G36*
X121163670Y-111843002D02*
X121587539Y-111419133D01*
X121763552Y-111595146D01*
X121339683Y-112019015D01*
X121163670Y-111843002D01*
X121163670Y-111843002D01*
G37*
G36*
X120809848Y-111489180D02*
X121233717Y-111065311D01*
X121409730Y-111241324D01*
X120985861Y-111665193D01*
X120809848Y-111489180D01*
X120809848Y-111489180D01*
G37*
D28*
X116294000Y-106977000D03*
X116294000Y-109177000D03*
X117894000Y-109177000D03*
X117894000Y-106977000D03*
D29*
X121950000Y-105918000D03*
X121300000Y-105918000D03*
X120650000Y-105918000D03*
X120000000Y-105918000D03*
X119350000Y-105918000D03*
D30*
X124400000Y-103068000D03*
D31*
X121850000Y-103068000D03*
X119450000Y-103068000D03*
D30*
X116900000Y-103068000D03*
D32*
X117450000Y-105318000D03*
X123850000Y-105318000D03*
D33*
X137160000Y-124460000D03*
X104140000Y-124460000D03*
X137160000Y-104140000D03*
X104140000Y-104140000D03*
D34*
X113475000Y-105168000D03*
X113475000Y-105668000D03*
X113475000Y-106668000D03*
X115125000Y-106668000D03*
X115125000Y-106168000D03*
X115125000Y-105668000D03*
X115125000Y-105168000D03*
X113475000Y-106168000D03*
D14*
X123761500Y-107505500D03*
X123761500Y-109410500D03*
D35*
X125272800Y-110109000D03*
X127711200Y-110109000D03*
D17*
X111760000Y-109588300D03*
X111760000Y-108089700D03*
D11*
X126492000Y-106469180D03*
X127444500Y-108668820D03*
X125539500Y-108668820D03*
D15*
X110617000Y-108008420D03*
X110617000Y-108907580D03*
X128841500Y-110685580D03*
X128841500Y-109786420D03*
D12*
X114358420Y-114300000D03*
X115257580Y-114300000D03*
D36*
X108585000Y-108839000D03*
D37*
X106045000Y-108839000D03*
X103505000Y-108839000D03*
D38*
X102489000Y-106807000D03*
X131127500Y-117665500D03*
X132651500Y-118808500D03*
X126619000Y-104330500D03*
X128016000Y-103187500D03*
X128587500Y-114173000D03*
X127154290Y-112471190D03*
X128025661Y-110988339D03*
X124333000Y-106426000D03*
X126428500Y-107632500D03*
X126555500Y-114617500D03*
X133794500Y-109093000D03*
X126716625Y-109573750D03*
X134620000Y-102997000D03*
X128016000Y-105270298D03*
X126365000Y-105410000D03*
X131783698Y-110405302D03*
X136906000Y-107950000D03*
X137795000Y-108712000D03*
X122936000Y-120650000D03*
X120904000Y-120650000D03*
X130806638Y-102293037D03*
X115316000Y-104394000D03*
X115219482Y-102476290D03*
X134366000Y-106997500D03*
X133350000Y-103936798D03*
X112839500Y-107696000D03*
X138303000Y-121793000D03*
X134239000Y-125349000D03*
X115189000Y-108966000D03*
X134366000Y-106045000D03*
X125349000Y-116840000D03*
X119380000Y-113792000D03*
X121158000Y-115570000D03*
X120650000Y-114300000D03*
X120650000Y-112649000D03*
X122301000Y-114300000D03*
D39*
X119380000Y-104648000D03*
X118682602Y-105537000D03*
D38*
X122428000Y-104648000D03*
X128378059Y-116840000D03*
X131318000Y-107569000D03*
X130175000Y-107569000D03*
X115198298Y-107492790D03*
X118881838Y-107052117D03*
X124206000Y-110744000D03*
X119662854Y-109254615D03*
X115064589Y-122986800D03*
X132548302Y-112434698D03*
X130683000Y-121666000D03*
X125222000Y-120650000D03*
X124587000Y-118364000D03*
X127635000Y-121793000D03*
X122383581Y-109918500D03*
X130592194Y-112866787D03*
X114173000Y-108712000D03*
X133477000Y-107823000D03*
X129603500Y-111887000D03*
X131191000Y-110998000D03*
X107823000Y-111252000D03*
X110236000Y-113157000D03*
X113351954Y-113660546D03*
X111252000Y-111633000D03*
X118427396Y-111378950D03*
X116078000Y-115189000D03*
X114300000Y-115633500D03*
X112141000Y-115570000D03*
X118618000Y-121158000D03*
X116332000Y-120142000D03*
X114427000Y-120142000D03*
X112141000Y-120015000D03*
X112141000Y-122047000D03*
X114300000Y-122047000D03*
X118618000Y-119126000D03*
X117221000Y-117729000D03*
X115697000Y-118364000D03*
D39*
X116662941Y-112922188D03*
X116594962Y-110672301D03*
X115443000Y-112928390D03*
X114808000Y-112141000D03*
X118872000Y-117348000D03*
D38*
X114808000Y-117475000D03*
X112522000Y-117475000D03*
X113665000Y-118364000D03*
X112649000Y-110871000D03*
X116332000Y-122047000D03*
X117549104Y-116065310D03*
X115570000Y-116522500D03*
X120660087Y-107967581D03*
X123703759Y-116001820D03*
X120970954Y-108832983D03*
X124320320Y-115316000D03*
X122682000Y-106680000D03*
X112760373Y-104794534D03*
X112747113Y-106790446D03*
D39*
X122553982Y-109119510D03*
X123571000Y-108458000D03*
D38*
X121397312Y-118370525D03*
X130746500Y-116903500D03*
D39*
X117101271Y-115301458D03*
D38*
X115570000Y-123698000D03*
D39*
X116806861Y-114598618D03*
D38*
X118110000Y-123647200D03*
D39*
X121412000Y-122047000D03*
D38*
X124460000Y-122047000D03*
X126936500Y-115443000D03*
D39*
X124463267Y-113582160D03*
D38*
X129540000Y-116586000D03*
D39*
X124121474Y-112415332D03*
D38*
X123190030Y-118336043D03*
X132080000Y-120586500D03*
X130810000Y-109728000D03*
X129565379Y-109738960D03*
X120967500Y-119126000D03*
X110744000Y-109728000D03*
X116078000Y-114173000D03*
X128841500Y-111442500D03*
X132368182Y-114947690D03*
X130111500Y-119684820D03*
X125476000Y-106489500D03*
D40*
X113157000Y-119194580D02*
X113215420Y-119253000D01*
D41*
X112522000Y-119194580D02*
X113157000Y-119194580D01*
X112522000Y-119194580D02*
X112097820Y-119194580D01*
D42*
X109834020Y-119194580D02*
X109826400Y-119202200D01*
D41*
X112097820Y-119194580D02*
X109834020Y-119194580D01*
D43*
X104775000Y-107015000D02*
X102697000Y-107015000D01*
X102697000Y-107015000D02*
X102489000Y-106807000D01*
D44*
X106807000Y-105537000D02*
X105908935Y-106435065D01*
X105908935Y-106435065D02*
X105664000Y-106680000D01*
D43*
X104775000Y-107015000D02*
X104775000Y-106661800D01*
X104775000Y-106661800D02*
X105001735Y-106435065D01*
X105001735Y-106435065D02*
X105908935Y-106435065D01*
X120904000Y-121412000D02*
X120904000Y-120650000D01*
X132778500Y-121666000D02*
X132778500Y-118935500D01*
X132778500Y-118935500D02*
X132651500Y-118808500D01*
X133032500Y-121920000D02*
X132778500Y-121666000D01*
X134620000Y-121920000D02*
X133032500Y-121920000D01*
D40*
X128016000Y-104330500D02*
X126619000Y-104330500D01*
D43*
X128016000Y-104330500D02*
X128016000Y-103187500D01*
X128378059Y-114382441D02*
X128587500Y-114173000D01*
X128378059Y-116840000D02*
X128378059Y-114382441D01*
X126568200Y-111569500D02*
X127154290Y-112155590D01*
X127154290Y-112155590D02*
X127154290Y-112471190D01*
X126716625Y-110460625D02*
X127244339Y-110988339D01*
X127244339Y-110988339D02*
X128025661Y-110988339D01*
X126716625Y-109573750D02*
X126716625Y-110460625D01*
X125158500Y-107188000D02*
X124396500Y-106426000D01*
X124396500Y-106426000D02*
X124333000Y-106426000D01*
X125534988Y-107188000D02*
X125158500Y-107188000D01*
X126428500Y-107632500D02*
X125979488Y-107632500D01*
X125979488Y-107632500D02*
X125534988Y-107188000D01*
X126301500Y-115316000D02*
X126301500Y-114871500D01*
X126301500Y-114871500D02*
X126555500Y-114617500D01*
X126174500Y-115316000D02*
X126301500Y-115316000D01*
X125603000Y-115384580D02*
X126105920Y-115384580D01*
X126105920Y-115384580D02*
X126174500Y-115316000D01*
X132461000Y-112522000D02*
X131793994Y-112522000D01*
X133159500Y-121856500D02*
X133223000Y-121920000D01*
X133223000Y-121920000D02*
X134620000Y-121920000D01*
X133159500Y-113982500D02*
X133159500Y-121856500D01*
X131793994Y-112616994D02*
X133159500Y-113982500D01*
X131793994Y-112522000D02*
X131793994Y-112616994D01*
X133413500Y-110363000D02*
X133794500Y-109982000D01*
X133794500Y-109982000D02*
X133794500Y-109093000D01*
X132756910Y-110363000D02*
X133413500Y-110363000D01*
X132588000Y-110431580D02*
X132688330Y-110431580D01*
X132688330Y-110431580D02*
X132756910Y-110363000D01*
X125666500Y-111569500D02*
X126568200Y-111569500D01*
X126568200Y-111569500D02*
X126716625Y-111421075D01*
X126716625Y-111421075D02*
X126716625Y-109573750D01*
X132461000Y-112522000D02*
X132588000Y-112395000D01*
X131783698Y-110405302D02*
X131754095Y-110375699D01*
X131754095Y-110375699D02*
X130892295Y-110375699D01*
X130892295Y-110375699D02*
X130568699Y-110699295D01*
X130568699Y-110699295D02*
X130568699Y-111296705D01*
X130568699Y-111296705D02*
X131793994Y-112522000D01*
X118881838Y-107052117D02*
X117969117Y-107052117D01*
X117969117Y-107052117D02*
X117894000Y-106977000D01*
X133350000Y-102997000D02*
X134620000Y-102997000D01*
X128016000Y-104330500D02*
X128016000Y-105270298D01*
X125476000Y-105732580D02*
X125798580Y-105410000D01*
X125798580Y-105410000D02*
X126365000Y-105410000D01*
X110617000Y-107442000D02*
X110363000Y-107442000D01*
X110363000Y-107442000D02*
X110286801Y-107365801D01*
X110286801Y-107365801D02*
X109905801Y-107365801D01*
X109905801Y-107365801D02*
X109600999Y-107060999D01*
X109600999Y-107060999D02*
X108585000Y-106045000D01*
X110617000Y-108008420D02*
X110617000Y-107442000D01*
X110617000Y-107442000D02*
X111061498Y-107442000D01*
X111061498Y-107442000D02*
X111117379Y-107386119D01*
X111117379Y-107386119D02*
X112402621Y-107386119D01*
X112402621Y-107386119D02*
X112458502Y-107442000D01*
X112458502Y-107442000D02*
X112585500Y-107442000D01*
X112585500Y-107442000D02*
X112839500Y-107696000D01*
X125603000Y-115384580D02*
X125603000Y-116586000D01*
X125603000Y-116586000D02*
X125349000Y-116840000D01*
X124020580Y-111633000D02*
X124020580Y-110929420D01*
X124020580Y-110929420D02*
X124206000Y-110744000D01*
X125603000Y-111633000D02*
X125666500Y-111569500D01*
X124206000Y-110744000D02*
X124206000Y-109728000D01*
X124079000Y-109728000D02*
X123761500Y-109410500D01*
X124206000Y-109728000D02*
X124079000Y-109728000D01*
X131310000Y-108755500D02*
X131310000Y-109339000D01*
X131783698Y-109956290D02*
X131783698Y-110405302D01*
X131310000Y-109339000D02*
X131783698Y-109812698D01*
X131783698Y-109812698D02*
X131783698Y-109956290D01*
X132588000Y-110431580D02*
X131809976Y-110431580D01*
X131809976Y-110431580D02*
X131783698Y-110405302D01*
X137160000Y-110236000D02*
X136911080Y-109987080D01*
X136911080Y-109987080D02*
X136911080Y-108775500D01*
X137160000Y-111760000D02*
X137160000Y-110236000D01*
X136906000Y-107950000D02*
X136456988Y-107950000D01*
X136456988Y-107950000D02*
X135504488Y-106997500D01*
X135504488Y-106997500D02*
X134815012Y-106997500D01*
X134815012Y-106997500D02*
X134366000Y-106997500D01*
X136911080Y-108775500D02*
X137731500Y-108775500D01*
X137731500Y-108775500D02*
X137795000Y-108712000D01*
X130810000Y-107505500D02*
X130810000Y-102296399D01*
X130810000Y-102296399D02*
X130806638Y-102293037D01*
X116078000Y-104960420D02*
X116078000Y-104521000D01*
X116078000Y-104521000D02*
X115951000Y-104394000D01*
X115951000Y-104394000D02*
X115316000Y-104394000D01*
X115219482Y-104297482D02*
X115316000Y-104394000D01*
X115219482Y-102476290D02*
X115219482Y-104297482D01*
X134366000Y-106807000D02*
X134366000Y-106997500D01*
X134366000Y-106045000D02*
X134366000Y-106807000D01*
D40*
X133350000Y-102997000D02*
X133350000Y-103936798D01*
D44*
X106807000Y-103632000D02*
X106807000Y-105537000D01*
X106870500Y-103568500D02*
X106807000Y-103632000D01*
X108585000Y-103568500D02*
X106870500Y-103568500D01*
X134620000Y-121920000D02*
X134620000Y-123291600D01*
X134620000Y-123291600D02*
X134239000Y-123672600D01*
X134239000Y-123672600D02*
X134239000Y-125349000D01*
D43*
X118682602Y-105537000D02*
X118681500Y-105538102D01*
X118681500Y-105538102D02*
X118681500Y-106189500D01*
X118681500Y-106189500D02*
X117894000Y-106977000D01*
X114495580Y-107696000D02*
X114995088Y-107696000D01*
X114995088Y-107696000D02*
X115198298Y-107492790D01*
X115400000Y-109177000D02*
X115189000Y-108966000D01*
X116294000Y-109177000D02*
X115400000Y-109177000D01*
X119380000Y-113792000D02*
X119888000Y-114300000D01*
X119888000Y-114300000D02*
X120650000Y-114300000D01*
X120650000Y-112649000D02*
X120650000Y-114300000D01*
X120650000Y-114300000D02*
X122301000Y-114300000D01*
X133604000Y-107055920D02*
X133545580Y-106997500D01*
X133545580Y-106997500D02*
X133545580Y-105981500D01*
X122525077Y-112780541D02*
X121005618Y-114300000D01*
X121005618Y-114300000D02*
X120650000Y-114300000D01*
D40*
X119350000Y-104678000D02*
X119380000Y-104648000D01*
X119350000Y-105918000D02*
X119350000Y-104678000D01*
X119350000Y-105537000D02*
X118682602Y-105537000D01*
X119350000Y-105918000D02*
X119350000Y-105537000D01*
D43*
X115189000Y-108384340D02*
X115189000Y-108966000D01*
X115870420Y-105168000D02*
X116078000Y-104960420D01*
X115125000Y-105168000D02*
X115870420Y-105168000D01*
X119775131Y-104648000D02*
X122428000Y-104648000D01*
X119380000Y-104648000D02*
X119775131Y-104648000D01*
X116131340Y-108130340D02*
X115443000Y-108130340D01*
X116274800Y-108273800D02*
X116131340Y-108130340D01*
X116294000Y-108273800D02*
X116274800Y-108273800D01*
X116294000Y-109177000D02*
X116294000Y-108273800D01*
X136779001Y-118364001D02*
X137160000Y-118745000D01*
X136474199Y-118059199D02*
X136779001Y-118364001D01*
X136474199Y-116889418D02*
X136474199Y-118059199D01*
X135154781Y-115570000D02*
X136474199Y-116889418D01*
X133299190Y-116356029D02*
X134085219Y-115570000D01*
X133299190Y-120091190D02*
X133299190Y-116356029D01*
X133934200Y-120726200D02*
X133299190Y-120091190D01*
X134085219Y-115570000D02*
X135154781Y-115570000D01*
X134620000Y-120853200D02*
X134493000Y-120726200D01*
X134493000Y-120726200D02*
X133934200Y-120726200D01*
X134620000Y-121920000D02*
X134620000Y-120853200D01*
X118295420Y-110421420D02*
X118055801Y-110181801D01*
X118295420Y-110490000D02*
X118295420Y-110421420D01*
X117173801Y-110181801D02*
X116294000Y-109302000D01*
X116294000Y-109302000D02*
X116294000Y-109177000D01*
X118055801Y-110181801D02*
X117173801Y-110181801D01*
X124401580Y-116840000D02*
X125349000Y-116840000D01*
D44*
X130810000Y-106255500D02*
X130810000Y-107061000D01*
X130810000Y-107061000D02*
X131000501Y-107251501D01*
X131000501Y-107251501D02*
X131318000Y-107569000D01*
D43*
X134302500Y-105981500D02*
X134366000Y-106045000D01*
X133545580Y-105981500D02*
X134302500Y-105981500D01*
X115129000Y-106172000D02*
X115125000Y-106168000D01*
X115414199Y-106172000D02*
X115129000Y-106172000D01*
X115414199Y-106124601D02*
X115414199Y-106172000D01*
X115417600Y-105664000D02*
X115417600Y-106121200D01*
X115129000Y-105664000D02*
X115417600Y-105664000D01*
X115417600Y-106121200D02*
X115414199Y-106124601D01*
X115125000Y-105668000D02*
X115129000Y-105664000D01*
X115413600Y-105668000D02*
X115125000Y-105668000D01*
X115417600Y-105664000D02*
X115413600Y-105668000D01*
X115417600Y-105232200D02*
X115417600Y-105664000D01*
X115392200Y-105206800D02*
X115417600Y-105232200D01*
X115163800Y-105206800D02*
X115392200Y-105206800D01*
X115125000Y-105168000D02*
X115163800Y-105206800D01*
X114622580Y-107696000D02*
X115316000Y-107696000D01*
X115316000Y-108203938D02*
X115342701Y-108230639D01*
X115316000Y-107696000D02*
X115316000Y-108203938D01*
X115342701Y-108230639D02*
X115189000Y-108384340D01*
X115443000Y-108130340D02*
X115342701Y-108230639D01*
X114622580Y-107696000D02*
X114995088Y-107696000D01*
X131310000Y-107577000D02*
X131318000Y-107569000D01*
X131310000Y-108755500D02*
X131310000Y-107577000D01*
X123512580Y-110744000D02*
X124206000Y-110744000D01*
X124020580Y-111672908D02*
X124020580Y-111633000D01*
X123455967Y-112237521D02*
X124020580Y-111672908D01*
X122525077Y-112780541D02*
X123068097Y-112237521D01*
X123068097Y-112237521D02*
X123455967Y-112237521D01*
X120650000Y-109965490D02*
X119939125Y-109254615D01*
X120650000Y-110065820D02*
X120650000Y-109965490D01*
X119939125Y-109254615D02*
X119662854Y-109254615D01*
X115064589Y-122986800D02*
X120442000Y-122986800D01*
X125349000Y-116840000D02*
X125349000Y-120523000D01*
X125349000Y-120523000D02*
X125222000Y-120650000D01*
X124889549Y-112318789D02*
X124568810Y-111998050D01*
X126836791Y-112153691D02*
X126733309Y-112153691D01*
X124568810Y-111998050D02*
X124568810Y-111633000D01*
X126733309Y-112153691D02*
X126568211Y-112318789D01*
X127154290Y-112471190D02*
X126836791Y-112153691D01*
X124568810Y-111633000D02*
X125603000Y-111633000D01*
X124020580Y-111633000D02*
X124568810Y-111633000D01*
X125651149Y-112232551D02*
X125651149Y-112318789D01*
X125666500Y-112217200D02*
X125651149Y-112232551D01*
X125666500Y-111569500D02*
X125666500Y-112217200D01*
X125651149Y-112318789D02*
X124889549Y-112318789D01*
X126568211Y-112318789D02*
X125651149Y-112318789D01*
D40*
X127635000Y-121343988D02*
X127635000Y-121793000D01*
X127635000Y-115860578D02*
X127635000Y-121343988D01*
X127698500Y-115797078D02*
X127635000Y-115860578D01*
X127698500Y-113792000D02*
X127698500Y-115797078D01*
D43*
X122613420Y-110148339D02*
X122383581Y-109918500D01*
X122613420Y-110744000D02*
X122613420Y-110148339D01*
D40*
X127698500Y-113792000D02*
X128623713Y-112866787D01*
X128623713Y-112866787D02*
X130143182Y-112866787D01*
X130143182Y-112866787D02*
X130592194Y-112866787D01*
X126301500Y-113792000D02*
X127698500Y-113792000D01*
X125857000Y-113347500D02*
X126301500Y-113792000D01*
D45*
X113284000Y-108643420D02*
X114104420Y-108643420D01*
X114104420Y-108643420D02*
X114173000Y-108712000D01*
D43*
X134239000Y-107823000D02*
X134244080Y-107817920D01*
X133482080Y-107817920D02*
X134620000Y-107817920D01*
X133477000Y-107823000D02*
X134239000Y-107823000D01*
D46*
X132646420Y-105981500D02*
X132646420Y-106997500D01*
X132544820Y-106083100D02*
X132646420Y-105981500D01*
X131826000Y-106083100D02*
X132544820Y-106083100D01*
X131826000Y-106239500D02*
X131826000Y-106083100D01*
X131810000Y-106255500D02*
X131826000Y-106239500D01*
X132689600Y-105270300D02*
X133057900Y-104902000D01*
X132689600Y-105938320D02*
X132689600Y-105270300D01*
X133057900Y-104902000D02*
X133350000Y-104902000D01*
X132646420Y-105981500D02*
X132689600Y-105938320D01*
D43*
X132588000Y-107055920D02*
X132646420Y-106997500D01*
X132588000Y-107817920D02*
X132588000Y-107055920D01*
D40*
X132593080Y-107823000D02*
X132588000Y-107817920D01*
X133477000Y-107823000D02*
X132593080Y-107823000D01*
D43*
X121817433Y-112072896D02*
X121941892Y-111948437D01*
X121941892Y-111948437D02*
X121941892Y-111918448D01*
X121941892Y-111918448D02*
X122613420Y-111246920D01*
X122613420Y-111246920D02*
X122613420Y-110744000D01*
X125603000Y-113601500D02*
X125857000Y-113347500D01*
X125603000Y-114485420D02*
X125603000Y-113601500D01*
X123586544Y-114757993D02*
X124031836Y-114312701D01*
X125430281Y-114312701D02*
X125603000Y-114485420D01*
X124031836Y-114312701D02*
X125430281Y-114312701D01*
X123230926Y-113486389D02*
X123634160Y-113083155D01*
X123634160Y-113083155D02*
X124050227Y-113083155D01*
X124363467Y-112999533D02*
X124587000Y-112776000D01*
X124050227Y-113083155D02*
X124133849Y-112999533D01*
X126873000Y-113093500D02*
X127571500Y-113093500D01*
X124133849Y-112999533D02*
X124363467Y-112999533D01*
X127571500Y-113093500D02*
X128397001Y-112267999D01*
X124587000Y-112776000D02*
X124673358Y-112776000D01*
X126504699Y-112725199D02*
X126873000Y-113093500D01*
X128397001Y-112267999D02*
X129222501Y-112267999D01*
X124673358Y-112776000D02*
X124724159Y-112725199D01*
X124724159Y-112725199D02*
X126504699Y-112725199D01*
X129222501Y-112267999D02*
X129286001Y-112204499D01*
X129286001Y-112204499D02*
X129603500Y-111887000D01*
X134620000Y-108717080D02*
X135953500Y-108717080D01*
X135953500Y-108717080D02*
X136011920Y-108775500D01*
X134620000Y-113196840D02*
X134620000Y-114300000D01*
X134620000Y-111760000D02*
X134620000Y-113196840D01*
X134747000Y-114300000D02*
X134620000Y-114300000D01*
X135890000Y-115443000D02*
X134747000Y-114300000D01*
X136398000Y-115443000D02*
X135890000Y-115443000D01*
X137160000Y-116205000D02*
X136398000Y-115443000D01*
X131953000Y-111760000D02*
X131191000Y-110998000D01*
X134620000Y-111760000D02*
X131953000Y-111760000D01*
X134620000Y-108717080D02*
X134620000Y-111760000D01*
X117774690Y-112001270D02*
X117475000Y-111701580D01*
X118699704Y-112001270D02*
X117774690Y-112001270D01*
X119128745Y-112430311D02*
X118699704Y-112001270D01*
X108585000Y-108839000D02*
X108585000Y-108966000D01*
X108585000Y-108966000D02*
X109969301Y-110350301D01*
X109969301Y-110350301D02*
X112248693Y-110350301D01*
X112248693Y-110350301D02*
X112653824Y-109945170D01*
X112653824Y-109945170D02*
X112781080Y-109945170D01*
X112781080Y-109945170D02*
X113183670Y-109542580D01*
X113183670Y-109542580D02*
X113284000Y-109542580D01*
X113284000Y-109542580D02*
X113342420Y-109601000D01*
X113342420Y-109601000D02*
X114617500Y-109601000D01*
X114617500Y-109601000D02*
X115633500Y-110617000D01*
X115633500Y-110617000D02*
X115633500Y-110871000D01*
X115697000Y-111252000D02*
X115697000Y-110934500D01*
X116522500Y-111252000D02*
X115697000Y-111252000D01*
X115697000Y-110934500D02*
X115633500Y-110871000D01*
X116972080Y-111701580D02*
X116522500Y-111252000D01*
X117475000Y-111701580D02*
X116972080Y-111701580D01*
X115633500Y-110712250D02*
X115633500Y-110871000D01*
X104648000Y-108839000D02*
X104775000Y-108712000D01*
X104775000Y-108712000D02*
X104775000Y-107615000D01*
X103505000Y-108839000D02*
X104648000Y-108839000D01*
X104648000Y-108839000D02*
X104876590Y-109067590D01*
X106299000Y-110617000D02*
X106934000Y-111252000D01*
X104876590Y-109067590D02*
X104876590Y-109475371D01*
X104876590Y-109475371D02*
X105561029Y-110159810D01*
X105561029Y-110159810D02*
X105968810Y-110159810D01*
X105968810Y-110159810D02*
X106299000Y-110490000D01*
X106934000Y-111252000D02*
X107823000Y-111252000D01*
X106299000Y-110490000D02*
X106299000Y-110617000D01*
X112141000Y-115570000D02*
X110744000Y-114173000D01*
X110744000Y-114173000D02*
X110744000Y-113792000D01*
X110744000Y-113792000D02*
X110236000Y-113284000D01*
X110236000Y-113284000D02*
X110236000Y-113157000D01*
X111252000Y-112141000D02*
X110553499Y-112839501D01*
X111252000Y-111633000D02*
X111252000Y-112141000D01*
X110553499Y-112839501D02*
X110236000Y-113157000D01*
X118829431Y-111423353D02*
X118471799Y-111423353D01*
X116771039Y-112814090D02*
X116662941Y-112922188D01*
X118422896Y-113136159D02*
X118100827Y-112814090D01*
X118471799Y-111423353D02*
X118427396Y-111378950D01*
X118100827Y-112814090D02*
X116771039Y-112814090D01*
X118829431Y-111423353D02*
X118701248Y-111295170D01*
X119482567Y-112076489D02*
X118829431Y-111423353D01*
X112141000Y-115570000D02*
X114236500Y-115570000D01*
X114236500Y-115570000D02*
X114300000Y-115633500D01*
X112522000Y-114935000D02*
X112522000Y-115556872D01*
X112522000Y-115556872D02*
X112522000Y-117475000D01*
X112141000Y-115570000D02*
X112154128Y-115556872D01*
X112154128Y-115556872D02*
X112522000Y-115556872D01*
X118872000Y-117348000D02*
X119151399Y-117627399D01*
X118935499Y-118808501D02*
X118618000Y-119126000D01*
X119151399Y-117627399D02*
X119151399Y-118592601D01*
X119151399Y-118592601D02*
X118935499Y-118808501D01*
X117857396Y-118365396D02*
X118618000Y-119126000D01*
X113157000Y-114300000D02*
X112522000Y-114935000D01*
X114358420Y-114300000D02*
X113157000Y-114300000D01*
X114808000Y-118295420D02*
X114808000Y-117475000D01*
X112522000Y-118295420D02*
X112522000Y-117475000D01*
X118618000Y-119126000D02*
X118618000Y-121158000D01*
X114427000Y-120142000D02*
X116332000Y-120142000D01*
X112141000Y-122047000D02*
X112141000Y-120015000D01*
X116584604Y-117092604D02*
X117221000Y-117729000D01*
X115949985Y-117857015D02*
X115697000Y-118110000D01*
X115697000Y-118110000D02*
X115697000Y-118364000D01*
X116124984Y-117552223D02*
X115949985Y-117727222D01*
X115949985Y-117727222D02*
X115949985Y-117857015D01*
X116656739Y-112928390D02*
X116662941Y-112922188D01*
X115443000Y-112928390D02*
X116656739Y-112928390D01*
X117575330Y-110802420D02*
X117475000Y-110802420D01*
X118068080Y-111295170D02*
X117575330Y-110802420D01*
X118701248Y-111295170D02*
X118068080Y-111295170D01*
X116725081Y-110802420D02*
X116594962Y-110672301D01*
X117475000Y-110802420D02*
X116725081Y-110802420D01*
X115501420Y-112869970D02*
X115443000Y-112928390D01*
X115501420Y-112141000D02*
X115501420Y-112869970D01*
X114808000Y-112141000D02*
X115501420Y-112141000D01*
X118872000Y-117134079D02*
X118872000Y-117348000D01*
X119478975Y-116527104D02*
X118872000Y-117134079D01*
X117831737Y-116058592D02*
X117709592Y-116058592D01*
X118421100Y-115469229D02*
X117831737Y-116058592D01*
X114358988Y-117475000D02*
X112522000Y-117475000D01*
X114808000Y-117475000D02*
X114358988Y-117475000D01*
X113728500Y-110871000D02*
X112649000Y-110871000D01*
X116332000Y-122047000D02*
X114300000Y-122047000D01*
X117709592Y-116058592D02*
X117328592Y-116058592D01*
X117328592Y-116058592D02*
X117155659Y-115885659D01*
X117825019Y-116065310D02*
X117549104Y-116065310D01*
X118421100Y-115469229D02*
X117825019Y-116065310D01*
X114808000Y-117284500D02*
X115570000Y-116522500D01*
X114808000Y-117475000D02*
X114808000Y-117284500D01*
X118652260Y-112657878D02*
X118776719Y-112782337D01*
X117069850Y-112407680D02*
X118402062Y-112407680D01*
X116803170Y-112141000D02*
X117069850Y-112407680D01*
X116400580Y-112141000D02*
X116803170Y-112141000D01*
X118402062Y-112407680D02*
X118652260Y-112657878D01*
X123502420Y-116796802D02*
X123502420Y-116840000D01*
X122525077Y-115819459D02*
X123502420Y-116796802D01*
X122428000Y-112169974D02*
X122428000Y-112014000D01*
X122171255Y-112426719D02*
X122428000Y-112169974D01*
X122428000Y-112014000D02*
X122682000Y-111760000D01*
X122994420Y-111760000D02*
X123121420Y-111633000D01*
X122682000Y-111760000D02*
X122994420Y-111760000D01*
X116294000Y-106977000D02*
X116294000Y-107102000D01*
X116294000Y-107102000D02*
X117269000Y-108077000D01*
X117269000Y-108077000D02*
X118617642Y-108077000D01*
X118617642Y-108077000D02*
X118872000Y-108331358D01*
X118872000Y-109384767D02*
X119364149Y-109876916D01*
X118872000Y-108331358D02*
X118872000Y-109384767D01*
X119364149Y-109876916D02*
X119592416Y-109876916D01*
X120065752Y-111244385D02*
X120190211Y-111368844D01*
X119592416Y-109876916D02*
X119888000Y-110172500D01*
X119888000Y-110172500D02*
X119888000Y-111066633D01*
X119888000Y-111066633D02*
X120065752Y-111244385D01*
X120190211Y-111368844D02*
X120190211Y-111368791D01*
X116078000Y-106761000D02*
X116294000Y-106977000D01*
X116078000Y-105859580D02*
X116078000Y-106761000D01*
X119836389Y-111722666D02*
X119836389Y-111708389D01*
X119194580Y-111080857D02*
X119194580Y-110490000D01*
X119836389Y-111722666D02*
X119194580Y-111080857D01*
X119194580Y-110389670D02*
X117981910Y-109177000D01*
X119194580Y-110490000D02*
X119194580Y-110389670D01*
X117981910Y-109177000D02*
X117894000Y-109177000D01*
D41*
X115443000Y-119253000D02*
X114808000Y-119253000D01*
X114173000Y-119253000D02*
X114808000Y-119253000D01*
D43*
X115443000Y-119194580D02*
X115501420Y-119253000D01*
X114808000Y-119194580D02*
X115443000Y-119194580D01*
X114173000Y-119194580D02*
X114114580Y-119253000D01*
X114808000Y-119194580D02*
X114173000Y-119194580D01*
D41*
X116400580Y-119253000D02*
X116969793Y-119253000D01*
X116969793Y-119253000D02*
X117397777Y-118825016D01*
D43*
X114520199Y-106566399D02*
X114520199Y-104161101D01*
X114621800Y-106668000D02*
X114520199Y-106566399D01*
X115125000Y-106668000D02*
X114621800Y-106668000D01*
X114218720Y-102420420D02*
X114427000Y-102628700D01*
X114091720Y-102420420D02*
X114300000Y-102628700D01*
X113030000Y-102420420D02*
X114091720Y-102420420D01*
X121300000Y-106045000D02*
X121285000Y-106060000D01*
X121539000Y-107802680D02*
X121539000Y-107696000D01*
X121602500Y-107866180D02*
X121539000Y-107802680D01*
X121602500Y-107188000D02*
X121602500Y-107866180D01*
X121300000Y-106885500D02*
X121602500Y-107188000D01*
X121300000Y-105918000D02*
X121300000Y-106885500D01*
X121300000Y-107965000D02*
X121297419Y-107967581D01*
X121297419Y-107967581D02*
X121109099Y-107967581D01*
X121109099Y-107967581D02*
X120660087Y-107967581D01*
X122878900Y-115465637D02*
X123415083Y-116001820D01*
X123415083Y-116001820D02*
X123703759Y-116001820D01*
X120650000Y-106807000D02*
X120650000Y-105918000D01*
X120650000Y-106045000D02*
X120650000Y-106807000D01*
X119867680Y-107569000D02*
X119697500Y-107739180D01*
X119888000Y-107569000D02*
X119867680Y-107569000D01*
X119697500Y-107759500D02*
X120285567Y-107171433D01*
X119697500Y-107866180D02*
X119697500Y-107759500D01*
X120285567Y-107171433D02*
X119888000Y-107569000D01*
X120650000Y-106807000D02*
X120285567Y-107171433D01*
X119697500Y-107866180D02*
X119697500Y-107966510D01*
X119697500Y-107966510D02*
X120563973Y-108832983D01*
X120563973Y-108832983D02*
X120970954Y-108832983D01*
X124256820Y-115379500D02*
X124320320Y-115316000D01*
X123232722Y-115111815D02*
X123500407Y-115379500D01*
X123500407Y-115379500D02*
X124256820Y-115379500D01*
D40*
X122682000Y-106680000D02*
X122301000Y-106680000D01*
X121950000Y-106329000D02*
X121950000Y-105918000D01*
X122301000Y-106680000D02*
X121950000Y-106329000D01*
X122999499Y-106997499D02*
X122682000Y-106680000D01*
X123507500Y-107505500D02*
X122999499Y-106997499D01*
X123761500Y-107505500D02*
X123507500Y-107505500D01*
D43*
X113030000Y-103319580D02*
X113030000Y-104524907D01*
X113030000Y-104524907D02*
X112760373Y-104794534D01*
D44*
X112777152Y-104794534D02*
X112760373Y-104794534D01*
X112861843Y-104709843D02*
X112777152Y-104794534D01*
X113320000Y-105168000D02*
X112861843Y-104709843D01*
X112903000Y-104751000D02*
X112861843Y-104709843D01*
X113475000Y-105168000D02*
X113320000Y-105168000D01*
D40*
X125432820Y-108668820D02*
X125539500Y-108668820D01*
X124269500Y-107505500D02*
X125432820Y-108668820D01*
X123761500Y-107505500D02*
X124269500Y-107505500D01*
X125272800Y-110109000D02*
X125349000Y-110032800D01*
X125425200Y-108783120D02*
X125539500Y-108668820D01*
X125323600Y-109524800D02*
X125425200Y-109423200D01*
X125323600Y-110058200D02*
X125323600Y-109524800D01*
X125425200Y-109423200D02*
X125425200Y-108783120D01*
X125272800Y-110109000D02*
X125323600Y-110058200D01*
D44*
X112869559Y-106668000D02*
X112747113Y-106790446D01*
X113475000Y-106668000D02*
X112869559Y-106668000D01*
D43*
X121463611Y-111719074D02*
X121761261Y-111421424D01*
X122065795Y-109296199D02*
X122377293Y-109296199D01*
X122377293Y-109296199D02*
X122553982Y-109119510D01*
X121761261Y-109600733D02*
X122065795Y-109296199D01*
X121761261Y-111421424D02*
X121761261Y-109600733D01*
X134772400Y-116840000D02*
X134620000Y-116840000D01*
X135839200Y-117906800D02*
X134772400Y-116840000D01*
X135839200Y-118439186D02*
X135839200Y-117906800D01*
X136830815Y-119430801D02*
X135839200Y-118439186D01*
X137744199Y-119430801D02*
X136830815Y-119430801D01*
X138430000Y-118745000D02*
X137744199Y-119430801D01*
X123175869Y-108458000D02*
X123571000Y-108458000D01*
X122350874Y-108458000D02*
X123175869Y-108458000D01*
X121897455Y-108889789D02*
X121919085Y-108889789D01*
X121109789Y-111365252D02*
X121354851Y-111120190D01*
X121354851Y-109432393D02*
X121897455Y-108889789D01*
X121354851Y-111120190D02*
X121354851Y-109432393D01*
X121919085Y-108889789D02*
X122350874Y-108458000D01*
X134620000Y-119380000D02*
X135001000Y-119761000D01*
X136144000Y-119888000D02*
X138301986Y-119888000D01*
X139115801Y-119074185D02*
X139115801Y-116890801D01*
X135001000Y-119761000D02*
X136017000Y-119761000D01*
X136017000Y-119761000D02*
X136144000Y-119888000D01*
X138301986Y-119888000D02*
X139115801Y-119074185D01*
X139115801Y-116890801D02*
X138430000Y-116205000D01*
D46*
X131310000Y-104449500D02*
X131810000Y-103949500D01*
X131310000Y-106255500D02*
X131310000Y-104449500D01*
X130310000Y-104449500D02*
X129810000Y-103949500D01*
X130310000Y-106255500D02*
X130310000Y-104449500D01*
D43*
X113475000Y-105668000D02*
X113957389Y-105668000D01*
X113957389Y-105668000D02*
X114007588Y-105718199D01*
X114007588Y-105718199D02*
X114018841Y-105718199D01*
X114018841Y-105718199D02*
X114079801Y-105779159D01*
X114079801Y-105779159D02*
X114079801Y-107112289D01*
X114079801Y-107112289D02*
X113596420Y-107595670D01*
X113596420Y-107595670D02*
X113596420Y-107696000D01*
X130187699Y-110026705D02*
X130187699Y-109499341D01*
X129984500Y-111379000D02*
X129984500Y-110240846D01*
X130193170Y-110032176D02*
X130187699Y-110026705D01*
X130746500Y-116903500D02*
X131305301Y-116344699D01*
X129984500Y-110240846D02*
X130193170Y-110032176D01*
X131305301Y-112699801D02*
X129984500Y-111379000D01*
X131305301Y-116344699D02*
X131305301Y-112699801D01*
X130310000Y-108755500D02*
X130310000Y-109306994D01*
X130310000Y-109306994D02*
X130216410Y-109400584D01*
X130216410Y-109400584D02*
X130216409Y-109499341D01*
X130216409Y-109499341D02*
X130187699Y-109528051D01*
X121322396Y-118370525D02*
X121397312Y-118370525D01*
X120186619Y-117234748D02*
X121322396Y-118370525D01*
X132549580Y-108755500D02*
X132588000Y-108717080D01*
X131810000Y-108755500D02*
X132549580Y-108755500D01*
D44*
X132588000Y-108717080D02*
X132588000Y-109532420D01*
D43*
X118110000Y-117698761D02*
X118317016Y-117905777D01*
X118237000Y-117475000D02*
X118110000Y-117602000D01*
X118237000Y-117065026D02*
X118237000Y-117475000D01*
X118110000Y-117602000D02*
X118110000Y-117698761D01*
X119126949Y-116175077D02*
X118237000Y-117065026D01*
X117251239Y-116840000D02*
X117044223Y-116632984D01*
X117881381Y-116713000D02*
X117475000Y-116713000D01*
X118773126Y-115821255D02*
X117881381Y-116713000D01*
X117348000Y-116840000D02*
X117475000Y-116713000D01*
X117251239Y-116840000D02*
X117348000Y-116840000D01*
D44*
X125603000Y-104833420D02*
X125407420Y-104833420D01*
X125407420Y-104833420D02*
X125095000Y-104521000D01*
X125095000Y-104521000D02*
X125095000Y-103763000D01*
X125095000Y-103763000D02*
X124400000Y-103068000D01*
X123698000Y-105597000D02*
X123850000Y-105445000D01*
D47*
X117450000Y-103618000D02*
X116900000Y-103068000D01*
X117450000Y-105318000D02*
X117450000Y-103618000D01*
X116900000Y-103068000D02*
X119450000Y-103068000D01*
X121850000Y-103068000D02*
X119450000Y-103068000D01*
X121850000Y-103068000D02*
X124400000Y-103068000D01*
X123850000Y-103618000D02*
X124400000Y-103068000D01*
X123850000Y-105318000D02*
X123850000Y-103618000D01*
D43*
X118067278Y-115115407D02*
X117739685Y-115443000D01*
X117739685Y-115443000D02*
X117348000Y-115443000D01*
X117348000Y-115443000D02*
X117206458Y-115301458D01*
X117206458Y-115301458D02*
X117101271Y-115301458D01*
X115570000Y-123825000D02*
X114300000Y-125095000D01*
X115570000Y-123698000D02*
X115570000Y-123825000D01*
X117713456Y-114761585D02*
X117378871Y-114427000D01*
X117378871Y-114427000D02*
X116978479Y-114427000D01*
X116978479Y-114427000D02*
X116806861Y-114598618D01*
X118110000Y-123825000D02*
X116840000Y-125095000D01*
X118110000Y-123647200D02*
X118110000Y-123825000D01*
X120141999Y-124333001D02*
X119380000Y-125095000D01*
X122118757Y-119181243D02*
X122118757Y-122356243D01*
X122477796Y-118822204D02*
X122118757Y-119181243D01*
X122118757Y-122356243D02*
X120141999Y-124333001D01*
X122477796Y-117955253D02*
X122477796Y-118822204D01*
X121589866Y-117067323D02*
X122477796Y-117955253D01*
X121589866Y-117003589D02*
X121589866Y-117067323D01*
X121465407Y-116879130D02*
X121589866Y-117003589D01*
X123812331Y-123202669D02*
X122681999Y-124333001D01*
X122998229Y-117280540D02*
X123431431Y-117713742D01*
X122171255Y-116173281D02*
X122998229Y-117000255D01*
X122998229Y-117000255D02*
X122998229Y-117280540D01*
X122681999Y-124333001D02*
X121920000Y-125095000D01*
X123431431Y-117713742D02*
X123488735Y-117713742D01*
X123812331Y-118037338D02*
X123812331Y-123202669D01*
X123488735Y-117713742D02*
X123812331Y-118037338D01*
X124460000Y-122047000D02*
X124460000Y-125095000D01*
X121691399Y-121767601D02*
X121412000Y-122047000D01*
X121691399Y-118973601D02*
X121691399Y-121767601D01*
X122071387Y-118123594D02*
X122071387Y-118593613D01*
X122071387Y-118593613D02*
X121691399Y-118973601D01*
X121234248Y-117355615D02*
X121303408Y-117355615D01*
X121303408Y-117355615D02*
X122071387Y-118123594D01*
X121109789Y-117231156D02*
X121234248Y-117355615D01*
X127000000Y-115506500D02*
X126936500Y-115443000D01*
X127000000Y-125095000D02*
X127000000Y-115506500D01*
X124419107Y-113538000D02*
X124463267Y-113582160D01*
X123886959Y-113538000D02*
X124419107Y-113538000D01*
X123584748Y-113840211D02*
X123886959Y-113538000D01*
X123882724Y-112654082D02*
X124121474Y-112415332D01*
X122877104Y-113132567D02*
X123355589Y-112654082D01*
X123355589Y-112654082D02*
X123882724Y-112654082D01*
X129222501Y-116903499D02*
X129540000Y-116586000D01*
X128778001Y-124333001D02*
X128778001Y-117347999D01*
X129540000Y-125095000D02*
X128778001Y-124333001D01*
X128778001Y-117347999D02*
X129222501Y-116903499D01*
X123190030Y-118092737D02*
X123190030Y-118336043D01*
X122591821Y-117301492D02*
X122591821Y-117494528D01*
X121817433Y-116527104D02*
X122591821Y-117301492D01*
X122591821Y-117494528D02*
X123190030Y-118092737D01*
X132080000Y-125095000D02*
X132080000Y-120586500D01*
X129810000Y-108755500D02*
X129810000Y-109331000D01*
X129810000Y-109331000D02*
X129500619Y-109640381D01*
X129466800Y-109640381D02*
X129565379Y-109738960D01*
X129500619Y-109640381D02*
X129466800Y-109640381D01*
X130810000Y-108755500D02*
X130810000Y-109728000D01*
X129517919Y-109786420D02*
X129565379Y-109738960D01*
X128841500Y-109786420D02*
X129517919Y-109786420D01*
D44*
X128036000Y-106255500D02*
X128016000Y-106235500D01*
X129266359Y-106255500D02*
X128036000Y-106255500D01*
X129810000Y-106255500D02*
X129266359Y-106255500D01*
D40*
X127660400Y-110058200D02*
X127711200Y-110109000D01*
X127660400Y-109524800D02*
X127660400Y-110058200D01*
X127444500Y-109308900D02*
X127660400Y-109524800D01*
X127444500Y-108668820D02*
X127444500Y-109308900D01*
X127779780Y-110177580D02*
X127711200Y-110109000D01*
D44*
X129286000Y-106275141D02*
X129266359Y-106255500D01*
X129286000Y-108521500D02*
X129286000Y-106275141D01*
X129536000Y-108771500D02*
X129286000Y-108521500D01*
X129794000Y-108771500D02*
X129536000Y-108771500D01*
X129810000Y-108755500D02*
X129794000Y-108771500D01*
D40*
X127571500Y-106426000D02*
X127825500Y-106426000D01*
X127825500Y-106426000D02*
X128016000Y-106235500D01*
X127571500Y-107660440D02*
X127571500Y-106426000D01*
X127444500Y-107787440D02*
X127571500Y-107660440D01*
X127444500Y-108668820D02*
X127444500Y-107787440D01*
D43*
X111620300Y-109728000D02*
X111760000Y-109588300D01*
X110744000Y-109728000D02*
X111620300Y-109728000D01*
X120967500Y-118930663D02*
X119570500Y-117533663D01*
X119570500Y-117143223D02*
X119832797Y-116880926D01*
X119570500Y-117533663D02*
X119570500Y-117143223D01*
X120967500Y-119126000D02*
X120967500Y-118930663D01*
X111678720Y-108008420D02*
X111760000Y-108089700D01*
X111620300Y-108089700D02*
X111760000Y-108089700D01*
X110802420Y-108907580D02*
X111620300Y-108089700D01*
X110617000Y-108907580D02*
X110802420Y-108907580D01*
X116078000Y-114173000D02*
X115384580Y-114173000D01*
X115384580Y-114173000D02*
X115257580Y-114300000D01*
X117539239Y-113843803D02*
X117368625Y-114014417D01*
X117715252Y-113843803D02*
X117539239Y-113843803D01*
X117368625Y-114014417D02*
X116526444Y-114014417D01*
X116526444Y-114014417D02*
X116367861Y-114173000D01*
X116367861Y-114173000D02*
X116078000Y-114173000D01*
X128841500Y-110685580D02*
X128841500Y-111442500D01*
X130428999Y-119367321D02*
X130111500Y-119684820D01*
X132368182Y-117428138D02*
X130428999Y-119367321D01*
X132368182Y-114947690D02*
X132368182Y-117428138D01*
X116906443Y-113531807D02*
X117217750Y-113220500D01*
X114103307Y-113531807D02*
X116906443Y-113531807D01*
X109791500Y-110871000D02*
X111442500Y-110871000D01*
X107226100Y-110172500D02*
X109093000Y-110172500D01*
X111442500Y-110871000D02*
X114103307Y-113531807D01*
X109093000Y-110172500D02*
X109791500Y-110871000D01*
X106045000Y-108991400D02*
X107226100Y-110172500D01*
X117799593Y-113220500D02*
X118069074Y-113489981D01*
X117217750Y-113220500D02*
X117799593Y-113220500D01*
X106045000Y-108839000D02*
X106045000Y-108991400D01*
D40*
X125496320Y-106469180D02*
X125476000Y-106489500D01*
X126492000Y-106469180D02*
X125496320Y-106469180D01*
D44*
X113471000Y-106172000D02*
X113475000Y-106168000D01*
X112939638Y-106172000D02*
X113471000Y-106172000D01*
X112812638Y-106045000D02*
X112939638Y-106172000D01*
X111125000Y-106045000D02*
X112812638Y-106045000D01*
D42*
X111125000Y-103568500D02*
X111125000Y-106045000D01*
D43*
G36*
X117647400Y-110902115D02*
X117624860Y-110902115D01*
X117624860Y-110974820D01*
X117325140Y-110974820D01*
X117325140Y-110902115D01*
X116908580Y-110902115D01*
X116827965Y-110982729D01*
X116809868Y-110964632D01*
X116678023Y-110876535D01*
X116522500Y-110845600D01*
X116382800Y-110845600D01*
X116382800Y-110181800D01*
X116599063Y-110181800D01*
X116857721Y-110440458D01*
X116819680Y-110532297D01*
X116819680Y-110613825D01*
X116908580Y-110702725D01*
X117325140Y-110702725D01*
X117325140Y-110630020D01*
X117624860Y-110630020D01*
X117624860Y-110702725D01*
X117647400Y-110702725D01*
X117647400Y-110902115D01*
X117647400Y-110902115D01*
G37*
X117647400Y-110902115D02*
X117624860Y-110902115D01*
X117624860Y-110974820D01*
X117325140Y-110974820D01*
X117325140Y-110902115D01*
X116908580Y-110902115D01*
X116827965Y-110982729D01*
X116809868Y-110964632D01*
X116678023Y-110876535D01*
X116522500Y-110845600D01*
X116382800Y-110845600D01*
X116382800Y-110181800D01*
X116599063Y-110181800D01*
X116857721Y-110440458D01*
X116819680Y-110532297D01*
X116819680Y-110613825D01*
X116908580Y-110702725D01*
X117325140Y-110702725D01*
X117325140Y-110630020D01*
X117624860Y-110630020D01*
X117624860Y-110702725D01*
X117647400Y-110702725D01*
X117647400Y-110902115D01*
G36*
X117820133Y-112814080D02*
X117818562Y-112817873D01*
X117799593Y-112814100D01*
X117217750Y-112814100D01*
X117062228Y-112845034D01*
X116930382Y-112933132D01*
X116738107Y-113125407D01*
X115401725Y-113125407D01*
X115401725Y-112707420D01*
X115401725Y-112290860D01*
X115035330Y-112290860D01*
X114946430Y-112379760D01*
X114946430Y-112511453D01*
X115000567Y-112642151D01*
X115100599Y-112742183D01*
X115231297Y-112796320D01*
X115312825Y-112796320D01*
X115401725Y-112707420D01*
X115401725Y-113125407D01*
X114528600Y-113125407D01*
X114528600Y-111640233D01*
X114528600Y-111498767D01*
X114528600Y-111112300D01*
X114439700Y-111023400D01*
X113880900Y-111023400D01*
X113880900Y-111836200D01*
X113969800Y-111925100D01*
X114243733Y-111925100D01*
X114374431Y-111870963D01*
X114474463Y-111770931D01*
X114528600Y-111640233D01*
X114528600Y-113125407D01*
X114271643Y-113125407D01*
X113576100Y-112429864D01*
X113576100Y-111836200D01*
X113576100Y-111023400D01*
X113017300Y-111023400D01*
X112928400Y-111112300D01*
X112928400Y-111498767D01*
X112928400Y-111640233D01*
X112982537Y-111770931D01*
X113082569Y-111870963D01*
X113213267Y-111925100D01*
X113487200Y-111925100D01*
X113576100Y-111836200D01*
X113576100Y-112429864D01*
X111902936Y-110756701D01*
X112248693Y-110756701D01*
X112404215Y-110725766D01*
X112404216Y-110725766D01*
X112536061Y-110637669D01*
X112832360Y-110341369D01*
X112928400Y-110322266D01*
X112928400Y-110629700D01*
X113017300Y-110718600D01*
X113576100Y-110718600D01*
X113576100Y-110698600D01*
X113880900Y-110698600D01*
X113880900Y-110718600D01*
X114439700Y-110718600D01*
X114528600Y-110629700D01*
X114528600Y-110243233D01*
X114528600Y-110101767D01*
X114518042Y-110076278D01*
X114884200Y-110442436D01*
X114884200Y-111630128D01*
X114930603Y-111742155D01*
X114950110Y-111761662D01*
X114946430Y-111770547D01*
X114946430Y-111902240D01*
X115035330Y-111991140D01*
X115401725Y-111991140D01*
X115401725Y-111968600D01*
X115601115Y-111968600D01*
X115601115Y-111991140D01*
X115673820Y-111991140D01*
X115673820Y-112290860D01*
X115601115Y-112290860D01*
X115601115Y-112707420D01*
X115690015Y-112796320D01*
X115771543Y-112796320D01*
X115902241Y-112742183D01*
X115986920Y-112657503D01*
X116028534Y-112699117D01*
X116140561Y-112745520D01*
X116261818Y-112745520D01*
X116660598Y-112745520D01*
X116772625Y-112699117D01*
X116779587Y-112692154D01*
X116782481Y-112695048D01*
X116782482Y-112695048D01*
X116914327Y-112783145D01*
X117069850Y-112814080D01*
X117820133Y-112814080D01*
X117820133Y-112814080D01*
G37*
X117820133Y-112814080D02*
X117818562Y-112817873D01*
X117799593Y-112814100D01*
X117217750Y-112814100D01*
X117062228Y-112845034D01*
X116930382Y-112933132D01*
X116738107Y-113125407D01*
X115401725Y-113125407D01*
X115401725Y-112707420D01*
X115401725Y-112290860D01*
X115035330Y-112290860D01*
X114946430Y-112379760D01*
X114946430Y-112511453D01*
X115000567Y-112642151D01*
X115100599Y-112742183D01*
X115231297Y-112796320D01*
X115312825Y-112796320D01*
X115401725Y-112707420D01*
X115401725Y-113125407D01*
X114528600Y-113125407D01*
X114528600Y-111640233D01*
X114528600Y-111498767D01*
X114528600Y-111112300D01*
X114439700Y-111023400D01*
X113880900Y-111023400D01*
X113880900Y-111836200D01*
X113969800Y-111925100D01*
X114243733Y-111925100D01*
X114374431Y-111870963D01*
X114474463Y-111770931D01*
X114528600Y-111640233D01*
X114528600Y-113125407D01*
X114271643Y-113125407D01*
X113576100Y-112429864D01*
X113576100Y-111836200D01*
X113576100Y-111023400D01*
X113017300Y-111023400D01*
X112928400Y-111112300D01*
X112928400Y-111498767D01*
X112928400Y-111640233D01*
X112982537Y-111770931D01*
X113082569Y-111870963D01*
X113213267Y-111925100D01*
X113487200Y-111925100D01*
X113576100Y-111836200D01*
X113576100Y-112429864D01*
X111902936Y-110756701D01*
X112248693Y-110756701D01*
X112404215Y-110725766D01*
X112404216Y-110725766D01*
X112536061Y-110637669D01*
X112832360Y-110341369D01*
X112928400Y-110322266D01*
X112928400Y-110629700D01*
X113017300Y-110718600D01*
X113576100Y-110718600D01*
X113576100Y-110698600D01*
X113880900Y-110698600D01*
X113880900Y-110718600D01*
X114439700Y-110718600D01*
X114528600Y-110629700D01*
X114528600Y-110243233D01*
X114528600Y-110101767D01*
X114518042Y-110076278D01*
X114884200Y-110442436D01*
X114884200Y-111630128D01*
X114930603Y-111742155D01*
X114950110Y-111761662D01*
X114946430Y-111770547D01*
X114946430Y-111902240D01*
X115035330Y-111991140D01*
X115401725Y-111991140D01*
X115401725Y-111968600D01*
X115601115Y-111968600D01*
X115601115Y-111991140D01*
X115673820Y-111991140D01*
X115673820Y-112290860D01*
X115601115Y-112290860D01*
X115601115Y-112707420D01*
X115690015Y-112796320D01*
X115771543Y-112796320D01*
X115902241Y-112742183D01*
X115986920Y-112657503D01*
X116028534Y-112699117D01*
X116140561Y-112745520D01*
X116261818Y-112745520D01*
X116660598Y-112745520D01*
X116772625Y-112699117D01*
X116779587Y-112692154D01*
X116782481Y-112695048D01*
X116782482Y-112695048D01*
X116914327Y-112783145D01*
X117069850Y-112814080D01*
X117820133Y-112814080D01*
G36*
X118572816Y-113185499D02*
X118472237Y-113286079D01*
X118266639Y-113080481D01*
X118272926Y-113074195D01*
X118256987Y-113058256D01*
X118344993Y-112970250D01*
X118360932Y-112986189D01*
X118367219Y-112979902D01*
X118572816Y-113185499D01*
X118572816Y-113185499D01*
G37*
X118572816Y-113185499D02*
X118472237Y-113286079D01*
X118266639Y-113080481D01*
X118272926Y-113074195D01*
X118256987Y-113058256D01*
X118344993Y-112970250D01*
X118360932Y-112986189D01*
X118367219Y-112979902D01*
X118572816Y-113185499D01*
G36*
X119532400Y-112225916D02*
X119531907Y-112226408D01*
X119326310Y-112020811D01*
X119332597Y-112014525D01*
X119038044Y-111719973D01*
X118993143Y-111719973D01*
X118987072Y-111713902D01*
X118945901Y-111686392D01*
X118855227Y-111625805D01*
X118699704Y-111594870D01*
X118079520Y-111594870D01*
X118079520Y-111441562D01*
X118033117Y-111329535D01*
X117991503Y-111287920D01*
X118076183Y-111203241D01*
X118121216Y-111094520D01*
X118156658Y-111094520D01*
X118537468Y-111094520D01*
X118656474Y-111213526D01*
X119532400Y-112089452D01*
X119532400Y-112225916D01*
X119532400Y-112225916D01*
G37*
X119532400Y-112225916D02*
X119531907Y-112226408D01*
X119326310Y-112020811D01*
X119332597Y-112014525D01*
X119038044Y-111719973D01*
X118993143Y-111719973D01*
X118987072Y-111713902D01*
X118945901Y-111686392D01*
X118855227Y-111625805D01*
X118699704Y-111594870D01*
X118079520Y-111594870D01*
X118079520Y-111441562D01*
X118033117Y-111329535D01*
X117991503Y-111287920D01*
X118076183Y-111203241D01*
X118121216Y-111094520D01*
X118156658Y-111094520D01*
X118537468Y-111094520D01*
X118656474Y-111213526D01*
X119532400Y-112089452D01*
X119532400Y-112225916D01*
G36*
X120040400Y-120099916D02*
X117813916Y-122326400D01*
X116332000Y-122326400D01*
X111861600Y-122326400D01*
X111861600Y-122174000D01*
X111861600Y-121920000D01*
X111861600Y-119677180D01*
X112097820Y-119677180D01*
X112109528Y-119677180D01*
X112161651Y-119698770D01*
X112282908Y-119698770D01*
X112746612Y-119698770D01*
X112757633Y-119725375D01*
X112843374Y-119811117D01*
X112955401Y-119857520D01*
X113076658Y-119857520D01*
X113475438Y-119857520D01*
X113587465Y-119811117D01*
X113665000Y-119733582D01*
X113742534Y-119811117D01*
X113854561Y-119857520D01*
X113975818Y-119857520D01*
X114374598Y-119857520D01*
X114486625Y-119811117D01*
X114562142Y-119735600D01*
X114808000Y-119735600D01*
X115053857Y-119735600D01*
X115129374Y-119811117D01*
X115241401Y-119857520D01*
X115362658Y-119857520D01*
X115761438Y-119857520D01*
X115873465Y-119811117D01*
X115951000Y-119733582D01*
X116028534Y-119811117D01*
X116140561Y-119857520D01*
X116261818Y-119857520D01*
X116660598Y-119857520D01*
X116772625Y-119811117D01*
X116848142Y-119735600D01*
X116969793Y-119735600D01*
X117154476Y-119698864D01*
X117311043Y-119594250D01*
X117399757Y-119505536D01*
X117454931Y-119560710D01*
X117566958Y-119607113D01*
X117688215Y-119607114D01*
X117800242Y-119560710D01*
X117885983Y-119474969D01*
X118133471Y-119227481D01*
X118145561Y-119198293D01*
X118157939Y-119198293D01*
X118288637Y-119144156D01*
X118337663Y-119095130D01*
X118337663Y-118969407D01*
X117903287Y-118535031D01*
X117844809Y-118593508D01*
X117747000Y-118495699D01*
X117739027Y-118483766D01*
X117727093Y-118475792D01*
X117629283Y-118377982D01*
X117687761Y-118319505D01*
X117253385Y-117885129D01*
X117127662Y-117885129D01*
X117078636Y-117934155D01*
X117064871Y-117967386D01*
X117064871Y-117822338D01*
X117064871Y-117696615D01*
X116630495Y-117262239D01*
X116545077Y-117347657D01*
X116545076Y-117347657D01*
X116414969Y-117477764D01*
X116414969Y-117046713D01*
X115980593Y-116612337D01*
X115854870Y-116612337D01*
X115805844Y-116661363D01*
X115773010Y-116740629D01*
X115693743Y-116773463D01*
X115644717Y-116822489D01*
X115644717Y-116948212D01*
X116079093Y-117382588D01*
X116164511Y-117297170D01*
X116164512Y-117297170D01*
X116329550Y-117132131D01*
X116414969Y-117046713D01*
X116414969Y-117477764D01*
X116294619Y-117598114D01*
X116728995Y-118032490D01*
X116854718Y-118032490D01*
X116903744Y-117983464D01*
X116936577Y-117904197D01*
X117015845Y-117871364D01*
X117064871Y-117822338D01*
X117064871Y-117967386D01*
X117024499Y-118064853D01*
X117024499Y-118077232D01*
X116995312Y-118089322D01*
X116909571Y-118175063D01*
X116662083Y-118422551D01*
X116615680Y-118534578D01*
X116615679Y-118648480D01*
X116605251Y-118648480D01*
X116605251Y-118281957D01*
X116605251Y-118156234D01*
X116170875Y-117721858D01*
X115955349Y-117937384D01*
X115955349Y-117506332D01*
X115520973Y-117071956D01*
X115395250Y-117071956D01*
X115346224Y-117120982D01*
X115292087Y-117251680D01*
X115292087Y-117393147D01*
X115346224Y-117523845D01*
X115446256Y-117623876D01*
X115579168Y-117756789D01*
X115704892Y-117756789D01*
X115955349Y-117506332D01*
X115955349Y-117937384D01*
X115920418Y-117972315D01*
X115920418Y-118098039D01*
X116053331Y-118230951D01*
X116153362Y-118330983D01*
X116284060Y-118385120D01*
X116425527Y-118385120D01*
X116556225Y-118330983D01*
X116605251Y-118281957D01*
X116605251Y-118648480D01*
X116539342Y-118648480D01*
X116140562Y-118648480D01*
X116028535Y-118694883D01*
X115950999Y-118772417D01*
X115873466Y-118694883D01*
X115761439Y-118648480D01*
X115640182Y-118648480D01*
X115428966Y-118648480D01*
X115463320Y-118565543D01*
X115463320Y-118484015D01*
X115463320Y-118106825D01*
X115463320Y-118025297D01*
X115409183Y-117894599D01*
X115309151Y-117794567D01*
X115178453Y-117740430D01*
X115046760Y-117740430D01*
X114957860Y-117829330D01*
X114957860Y-118195725D01*
X115374420Y-118195725D01*
X115463320Y-118106825D01*
X115463320Y-118484015D01*
X115374420Y-118395115D01*
X114957860Y-118395115D01*
X114957860Y-118467820D01*
X114658140Y-118467820D01*
X114658140Y-118395115D01*
X114658140Y-118195725D01*
X114658140Y-117829330D01*
X114569240Y-117740430D01*
X114437547Y-117740430D01*
X114306849Y-117794567D01*
X114258725Y-117842691D01*
X114258725Y-114866420D01*
X114258725Y-114449860D01*
X113892330Y-114449860D01*
X113803430Y-114538760D01*
X113803430Y-114670453D01*
X113857567Y-114801151D01*
X113957599Y-114901183D01*
X114088297Y-114955320D01*
X114169825Y-114955320D01*
X114258725Y-114866420D01*
X114258725Y-117842691D01*
X114206817Y-117894599D01*
X114152680Y-118025297D01*
X114152680Y-118106825D01*
X114241580Y-118195725D01*
X114658140Y-118195725D01*
X114658140Y-118395115D01*
X114241580Y-118395115D01*
X114152680Y-118484015D01*
X114152680Y-118565543D01*
X114187033Y-118648480D01*
X113854562Y-118648480D01*
X113742535Y-118694883D01*
X113664999Y-118772417D01*
X113587466Y-118694883D01*
X113475439Y-118648480D01*
X113354182Y-118648480D01*
X113142966Y-118648480D01*
X113177320Y-118565543D01*
X113177320Y-118484015D01*
X113177320Y-118106825D01*
X113177320Y-118025297D01*
X113123183Y-117894599D01*
X113023151Y-117794567D01*
X112892453Y-117740430D01*
X112760760Y-117740430D01*
X112671860Y-117829330D01*
X112671860Y-118195725D01*
X113088420Y-118195725D01*
X113177320Y-118106825D01*
X113177320Y-118484015D01*
X113088420Y-118395115D01*
X112671860Y-118395115D01*
X112671860Y-118467820D01*
X112372140Y-118467820D01*
X112372140Y-118395115D01*
X112372140Y-118195725D01*
X112372140Y-117829330D01*
X112283240Y-117740430D01*
X112151547Y-117740430D01*
X112020849Y-117794567D01*
X111920817Y-117894599D01*
X111866680Y-118025297D01*
X111866680Y-118106825D01*
X111955580Y-118195725D01*
X112372140Y-118195725D01*
X112372140Y-118395115D01*
X111955580Y-118395115D01*
X111866680Y-118484015D01*
X111866680Y-118565543D01*
X111920817Y-118696241D01*
X111936556Y-118711980D01*
X111861600Y-118711980D01*
X111861600Y-115790611D01*
X110054662Y-113338338D01*
X107615168Y-111540816D01*
X104709190Y-110662264D01*
X104709190Y-109182125D01*
X104635300Y-108991400D01*
X103657400Y-108991400D01*
X103657400Y-110111379D01*
X103844753Y-110162304D01*
X104221628Y-109977753D01*
X104544539Y-109628430D01*
X104709190Y-109182125D01*
X104709190Y-110662264D01*
X103352600Y-110252133D01*
X103352600Y-110111379D01*
X103352600Y-108991400D01*
X102374700Y-108991400D01*
X102300810Y-109182125D01*
X102465461Y-109628430D01*
X102788372Y-109977753D01*
X103165247Y-110162304D01*
X103352600Y-110111379D01*
X103352600Y-110252133D01*
X102209600Y-109906575D01*
X102209600Y-107543600D01*
X103108263Y-107543600D01*
X102788372Y-107700247D01*
X102465461Y-108049570D01*
X102300810Y-108495875D01*
X102374700Y-108686600D01*
X103352600Y-108686600D01*
X103352600Y-108666600D01*
X103657400Y-108666600D01*
X103657400Y-108686600D01*
X104635300Y-108686600D01*
X104709190Y-108495875D01*
X104570743Y-108120600D01*
X104586100Y-108120600D01*
X104675000Y-108031700D01*
X104675000Y-107690000D01*
X104308300Y-107690000D01*
X104258339Y-107739960D01*
X104221628Y-107700247D01*
X103901736Y-107543600D01*
X105787217Y-107543600D01*
X105597873Y-107581263D01*
X105319179Y-107767479D01*
X105241700Y-107690000D01*
X104875000Y-107690000D01*
X104875000Y-108031700D01*
X104963900Y-108120600D01*
X105027677Y-108120600D01*
X104965539Y-108213597D01*
X104876600Y-108660724D01*
X104876600Y-109017276D01*
X104965539Y-109464403D01*
X105218816Y-109843460D01*
X105597873Y-110096737D01*
X106045000Y-110185676D01*
X106492127Y-110096737D01*
X106542166Y-110063302D01*
X106938732Y-110459868D01*
X107070577Y-110547965D01*
X107070578Y-110547965D01*
X107226100Y-110578900D01*
X108924664Y-110578900D01*
X109504132Y-111158368D01*
X109635977Y-111246465D01*
X109791500Y-111277400D01*
X111274164Y-111277400D01*
X113815939Y-113819175D01*
X113841948Y-113836554D01*
X113803430Y-113929547D01*
X113803430Y-114061240D01*
X113892330Y-114150140D01*
X114258725Y-114150140D01*
X114258725Y-114127600D01*
X114458115Y-114127600D01*
X114458115Y-114150140D01*
X114530820Y-114150140D01*
X114530820Y-114449860D01*
X114458115Y-114449860D01*
X114458115Y-114866420D01*
X114547015Y-114955320D01*
X114628543Y-114955320D01*
X114759241Y-114901183D01*
X114843920Y-114816503D01*
X114885534Y-114858117D01*
X114997561Y-114904520D01*
X115118818Y-114904520D01*
X115517598Y-114904520D01*
X115629625Y-114858117D01*
X115715367Y-114772376D01*
X115742275Y-114707412D01*
X115953674Y-114795192D01*
X116201240Y-114795408D01*
X116248072Y-114776057D01*
X116311312Y-114929108D01*
X116475506Y-115093590D01*
X116543329Y-115121752D01*
X116517173Y-115184744D01*
X116516970Y-115417153D01*
X116605722Y-115631948D01*
X116769916Y-115796430D01*
X116984557Y-115885556D01*
X117216966Y-115885759D01*
X117318946Y-115843621D01*
X117318947Y-115843621D01*
X117348000Y-115849400D01*
X117739685Y-115849400D01*
X117858607Y-115825745D01*
X117858608Y-115825745D01*
X117976577Y-115825745D01*
X118271130Y-115531193D01*
X118264843Y-115524906D01*
X118474033Y-115315717D01*
X118572816Y-115414500D01*
X118363626Y-115623689D01*
X118359136Y-115619199D01*
X118064584Y-115913752D01*
X118064584Y-115955061D01*
X117713045Y-116306600D01*
X117475000Y-116306600D01*
X117409422Y-116319643D01*
X116987069Y-115897290D01*
X116875042Y-115850887D01*
X116753785Y-115850886D01*
X116641758Y-115897290D01*
X116556017Y-115983031D01*
X116308529Y-116230519D01*
X116296438Y-116259707D01*
X116284061Y-116259707D01*
X116153363Y-116313844D01*
X116104337Y-116362870D01*
X116104337Y-116488593D01*
X116538713Y-116922969D01*
X116597190Y-116864491D01*
X116812716Y-117080017D01*
X116754239Y-117138495D01*
X117188615Y-117572871D01*
X117314338Y-117572871D01*
X117363364Y-117523845D01*
X117417501Y-117393147D01*
X117417501Y-117380767D01*
X117446688Y-117368678D01*
X117532429Y-117282937D01*
X117695966Y-117119400D01*
X117830600Y-117119400D01*
X117830600Y-117254034D01*
X117828810Y-117255824D01*
X117581322Y-117503312D01*
X117569232Y-117532499D01*
X117556853Y-117532499D01*
X117426155Y-117586636D01*
X117377129Y-117635662D01*
X117377129Y-117761385D01*
X117811505Y-118195761D01*
X117869982Y-118137283D01*
X118085508Y-118352809D01*
X118027031Y-118411287D01*
X118461407Y-118845663D01*
X118587130Y-118845663D01*
X118636156Y-118796637D01*
X118690293Y-118665939D01*
X118690293Y-118653561D01*
X118719481Y-118641471D01*
X118805222Y-118555730D01*
X119052710Y-118308242D01*
X119099113Y-118196215D01*
X119099114Y-118074959D01*
X119052710Y-117962932D01*
X118966969Y-117877190D01*
X118630356Y-117540577D01*
X118643400Y-117475000D01*
X118643400Y-117233362D01*
X118993142Y-116883620D01*
X119034452Y-116883620D01*
X119329005Y-116589068D01*
X119324514Y-116584577D01*
X119533703Y-116375387D01*
X119632487Y-116474171D01*
X119423297Y-116683360D01*
X119417011Y-116677074D01*
X119122459Y-116971627D01*
X119122459Y-117097350D01*
X119153616Y-117128508D01*
X119166006Y-117133640D01*
X119164100Y-117143223D01*
X119164100Y-117533663D01*
X119195035Y-117689186D01*
X119283132Y-117821031D01*
X120040400Y-118578299D01*
X120040400Y-120099916D01*
X120040400Y-120099916D01*
G37*
X120040400Y-120099916D02*
X117813916Y-122326400D01*
X116332000Y-122326400D01*
X111861600Y-122326400D01*
X111861600Y-122174000D01*
X111861600Y-121920000D01*
X111861600Y-119677180D01*
X112097820Y-119677180D01*
X112109528Y-119677180D01*
X112161651Y-119698770D01*
X112282908Y-119698770D01*
X112746612Y-119698770D01*
X112757633Y-119725375D01*
X112843374Y-119811117D01*
X112955401Y-119857520D01*
X113076658Y-119857520D01*
X113475438Y-119857520D01*
X113587465Y-119811117D01*
X113665000Y-119733582D01*
X113742534Y-119811117D01*
X113854561Y-119857520D01*
X113975818Y-119857520D01*
X114374598Y-119857520D01*
X114486625Y-119811117D01*
X114562142Y-119735600D01*
X114808000Y-119735600D01*
X115053857Y-119735600D01*
X115129374Y-119811117D01*
X115241401Y-119857520D01*
X115362658Y-119857520D01*
X115761438Y-119857520D01*
X115873465Y-119811117D01*
X115951000Y-119733582D01*
X116028534Y-119811117D01*
X116140561Y-119857520D01*
X116261818Y-119857520D01*
X116660598Y-119857520D01*
X116772625Y-119811117D01*
X116848142Y-119735600D01*
X116969793Y-119735600D01*
X117154476Y-119698864D01*
X117311043Y-119594250D01*
X117399757Y-119505536D01*
X117454931Y-119560710D01*
X117566958Y-119607113D01*
X117688215Y-119607114D01*
X117800242Y-119560710D01*
X117885983Y-119474969D01*
X118133471Y-119227481D01*
X118145561Y-119198293D01*
X118157939Y-119198293D01*
X118288637Y-119144156D01*
X118337663Y-119095130D01*
X118337663Y-118969407D01*
X117903287Y-118535031D01*
X117844809Y-118593508D01*
X117747000Y-118495699D01*
X117739027Y-118483766D01*
X117727093Y-118475792D01*
X117629283Y-118377982D01*
X117687761Y-118319505D01*
X117253385Y-117885129D01*
X117127662Y-117885129D01*
X117078636Y-117934155D01*
X117064871Y-117967386D01*
X117064871Y-117822338D01*
X117064871Y-117696615D01*
X116630495Y-117262239D01*
X116545077Y-117347657D01*
X116545076Y-117347657D01*
X116414969Y-117477764D01*
X116414969Y-117046713D01*
X115980593Y-116612337D01*
X115854870Y-116612337D01*
X115805844Y-116661363D01*
X115773010Y-116740629D01*
X115693743Y-116773463D01*
X115644717Y-116822489D01*
X115644717Y-116948212D01*
X116079093Y-117382588D01*
X116164511Y-117297170D01*
X116164512Y-117297170D01*
X116329550Y-117132131D01*
X116414969Y-117046713D01*
X116414969Y-117477764D01*
X116294619Y-117598114D01*
X116728995Y-118032490D01*
X116854718Y-118032490D01*
X116903744Y-117983464D01*
X116936577Y-117904197D01*
X117015845Y-117871364D01*
X117064871Y-117822338D01*
X117064871Y-117967386D01*
X117024499Y-118064853D01*
X117024499Y-118077232D01*
X116995312Y-118089322D01*
X116909571Y-118175063D01*
X116662083Y-118422551D01*
X116615680Y-118534578D01*
X116615679Y-118648480D01*
X116605251Y-118648480D01*
X116605251Y-118281957D01*
X116605251Y-118156234D01*
X116170875Y-117721858D01*
X115955349Y-117937384D01*
X115955349Y-117506332D01*
X115520973Y-117071956D01*
X115395250Y-117071956D01*
X115346224Y-117120982D01*
X115292087Y-117251680D01*
X115292087Y-117393147D01*
X115346224Y-117523845D01*
X115446256Y-117623876D01*
X115579168Y-117756789D01*
X115704892Y-117756789D01*
X115955349Y-117506332D01*
X115955349Y-117937384D01*
X115920418Y-117972315D01*
X115920418Y-118098039D01*
X116053331Y-118230951D01*
X116153362Y-118330983D01*
X116284060Y-118385120D01*
X116425527Y-118385120D01*
X116556225Y-118330983D01*
X116605251Y-118281957D01*
X116605251Y-118648480D01*
X116539342Y-118648480D01*
X116140562Y-118648480D01*
X116028535Y-118694883D01*
X115950999Y-118772417D01*
X115873466Y-118694883D01*
X115761439Y-118648480D01*
X115640182Y-118648480D01*
X115428966Y-118648480D01*
X115463320Y-118565543D01*
X115463320Y-118484015D01*
X115463320Y-118106825D01*
X115463320Y-118025297D01*
X115409183Y-117894599D01*
X115309151Y-117794567D01*
X115178453Y-117740430D01*
X115046760Y-117740430D01*
X114957860Y-117829330D01*
X114957860Y-118195725D01*
X115374420Y-118195725D01*
X115463320Y-118106825D01*
X115463320Y-118484015D01*
X115374420Y-118395115D01*
X114957860Y-118395115D01*
X114957860Y-118467820D01*
X114658140Y-118467820D01*
X114658140Y-118395115D01*
X114658140Y-118195725D01*
X114658140Y-117829330D01*
X114569240Y-117740430D01*
X114437547Y-117740430D01*
X114306849Y-117794567D01*
X114258725Y-117842691D01*
X114258725Y-114866420D01*
X114258725Y-114449860D01*
X113892330Y-114449860D01*
X113803430Y-114538760D01*
X113803430Y-114670453D01*
X113857567Y-114801151D01*
X113957599Y-114901183D01*
X114088297Y-114955320D01*
X114169825Y-114955320D01*
X114258725Y-114866420D01*
X114258725Y-117842691D01*
X114206817Y-117894599D01*
X114152680Y-118025297D01*
X114152680Y-118106825D01*
X114241580Y-118195725D01*
X114658140Y-118195725D01*
X114658140Y-118395115D01*
X114241580Y-118395115D01*
X114152680Y-118484015D01*
X114152680Y-118565543D01*
X114187033Y-118648480D01*
X113854562Y-118648480D01*
X113742535Y-118694883D01*
X113664999Y-118772417D01*
X113587466Y-118694883D01*
X113475439Y-118648480D01*
X113354182Y-118648480D01*
X113142966Y-118648480D01*
X113177320Y-118565543D01*
X113177320Y-118484015D01*
X113177320Y-118106825D01*
X113177320Y-118025297D01*
X113123183Y-117894599D01*
X113023151Y-117794567D01*
X112892453Y-117740430D01*
X112760760Y-117740430D01*
X112671860Y-117829330D01*
X112671860Y-118195725D01*
X113088420Y-118195725D01*
X113177320Y-118106825D01*
X113177320Y-118484015D01*
X113088420Y-118395115D01*
X112671860Y-118395115D01*
X112671860Y-118467820D01*
X112372140Y-118467820D01*
X112372140Y-118395115D01*
X112372140Y-118195725D01*
X112372140Y-117829330D01*
X112283240Y-117740430D01*
X112151547Y-117740430D01*
X112020849Y-117794567D01*
X111920817Y-117894599D01*
X111866680Y-118025297D01*
X111866680Y-118106825D01*
X111955580Y-118195725D01*
X112372140Y-118195725D01*
X112372140Y-118395115D01*
X111955580Y-118395115D01*
X111866680Y-118484015D01*
X111866680Y-118565543D01*
X111920817Y-118696241D01*
X111936556Y-118711980D01*
X111861600Y-118711980D01*
X111861600Y-115790611D01*
X110054662Y-113338338D01*
X107615168Y-111540816D01*
X104709190Y-110662264D01*
X104709190Y-109182125D01*
X104635300Y-108991400D01*
X103657400Y-108991400D01*
X103657400Y-110111379D01*
X103844753Y-110162304D01*
X104221628Y-109977753D01*
X104544539Y-109628430D01*
X104709190Y-109182125D01*
X104709190Y-110662264D01*
X103352600Y-110252133D01*
X103352600Y-110111379D01*
X103352600Y-108991400D01*
X102374700Y-108991400D01*
X102300810Y-109182125D01*
X102465461Y-109628430D01*
X102788372Y-109977753D01*
X103165247Y-110162304D01*
X103352600Y-110111379D01*
X103352600Y-110252133D01*
X102209600Y-109906575D01*
X102209600Y-107543600D01*
X103108263Y-107543600D01*
X102788372Y-107700247D01*
X102465461Y-108049570D01*
X102300810Y-108495875D01*
X102374700Y-108686600D01*
X103352600Y-108686600D01*
X103352600Y-108666600D01*
X103657400Y-108666600D01*
X103657400Y-108686600D01*
X104635300Y-108686600D01*
X104709190Y-108495875D01*
X104570743Y-108120600D01*
X104586100Y-108120600D01*
X104675000Y-108031700D01*
X104675000Y-107690000D01*
X104308300Y-107690000D01*
X104258339Y-107739960D01*
X104221628Y-107700247D01*
X103901736Y-107543600D01*
X105787217Y-107543600D01*
X105597873Y-107581263D01*
X105319179Y-107767479D01*
X105241700Y-107690000D01*
X104875000Y-107690000D01*
X104875000Y-108031700D01*
X104963900Y-108120600D01*
X105027677Y-108120600D01*
X104965539Y-108213597D01*
X104876600Y-108660724D01*
X104876600Y-109017276D01*
X104965539Y-109464403D01*
X105218816Y-109843460D01*
X105597873Y-110096737D01*
X106045000Y-110185676D01*
X106492127Y-110096737D01*
X106542166Y-110063302D01*
X106938732Y-110459868D01*
X107070577Y-110547965D01*
X107070578Y-110547965D01*
X107226100Y-110578900D01*
X108924664Y-110578900D01*
X109504132Y-111158368D01*
X109635977Y-111246465D01*
X109791500Y-111277400D01*
X111274164Y-111277400D01*
X113815939Y-113819175D01*
X113841948Y-113836554D01*
X113803430Y-113929547D01*
X113803430Y-114061240D01*
X113892330Y-114150140D01*
X114258725Y-114150140D01*
X114258725Y-114127600D01*
X114458115Y-114127600D01*
X114458115Y-114150140D01*
X114530820Y-114150140D01*
X114530820Y-114449860D01*
X114458115Y-114449860D01*
X114458115Y-114866420D01*
X114547015Y-114955320D01*
X114628543Y-114955320D01*
X114759241Y-114901183D01*
X114843920Y-114816503D01*
X114885534Y-114858117D01*
X114997561Y-114904520D01*
X115118818Y-114904520D01*
X115517598Y-114904520D01*
X115629625Y-114858117D01*
X115715367Y-114772376D01*
X115742275Y-114707412D01*
X115953674Y-114795192D01*
X116201240Y-114795408D01*
X116248072Y-114776057D01*
X116311312Y-114929108D01*
X116475506Y-115093590D01*
X116543329Y-115121752D01*
X116517173Y-115184744D01*
X116516970Y-115417153D01*
X116605722Y-115631948D01*
X116769916Y-115796430D01*
X116984557Y-115885556D01*
X117216966Y-115885759D01*
X117318946Y-115843621D01*
X117318947Y-115843621D01*
X117348000Y-115849400D01*
X117739685Y-115849400D01*
X117858607Y-115825745D01*
X117858608Y-115825745D01*
X117976577Y-115825745D01*
X118271130Y-115531193D01*
X118264843Y-115524906D01*
X118474033Y-115315717D01*
X118572816Y-115414500D01*
X118363626Y-115623689D01*
X118359136Y-115619199D01*
X118064584Y-115913752D01*
X118064584Y-115955061D01*
X117713045Y-116306600D01*
X117475000Y-116306600D01*
X117409422Y-116319643D01*
X116987069Y-115897290D01*
X116875042Y-115850887D01*
X116753785Y-115850886D01*
X116641758Y-115897290D01*
X116556017Y-115983031D01*
X116308529Y-116230519D01*
X116296438Y-116259707D01*
X116284061Y-116259707D01*
X116153363Y-116313844D01*
X116104337Y-116362870D01*
X116104337Y-116488593D01*
X116538713Y-116922969D01*
X116597190Y-116864491D01*
X116812716Y-117080017D01*
X116754239Y-117138495D01*
X117188615Y-117572871D01*
X117314338Y-117572871D01*
X117363364Y-117523845D01*
X117417501Y-117393147D01*
X117417501Y-117380767D01*
X117446688Y-117368678D01*
X117532429Y-117282937D01*
X117695966Y-117119400D01*
X117830600Y-117119400D01*
X117830600Y-117254034D01*
X117828810Y-117255824D01*
X117581322Y-117503312D01*
X117569232Y-117532499D01*
X117556853Y-117532499D01*
X117426155Y-117586636D01*
X117377129Y-117635662D01*
X117377129Y-117761385D01*
X117811505Y-118195761D01*
X117869982Y-118137283D01*
X118085508Y-118352809D01*
X118027031Y-118411287D01*
X118461407Y-118845663D01*
X118587130Y-118845663D01*
X118636156Y-118796637D01*
X118690293Y-118665939D01*
X118690293Y-118653561D01*
X118719481Y-118641471D01*
X118805222Y-118555730D01*
X119052710Y-118308242D01*
X119099113Y-118196215D01*
X119099114Y-118074959D01*
X119052710Y-117962932D01*
X118966969Y-117877190D01*
X118630356Y-117540577D01*
X118643400Y-117475000D01*
X118643400Y-117233362D01*
X118993142Y-116883620D01*
X119034452Y-116883620D01*
X119329005Y-116589068D01*
X119324514Y-116584577D01*
X119533703Y-116375387D01*
X119632487Y-116474171D01*
X119423297Y-116683360D01*
X119417011Y-116677074D01*
X119122459Y-116971627D01*
X119122459Y-117097350D01*
X119153616Y-117128508D01*
X119166006Y-117133640D01*
X119164100Y-117143223D01*
X119164100Y-117533663D01*
X119195035Y-117689186D01*
X119283132Y-117821031D01*
X120040400Y-118578299D01*
X120040400Y-120099916D01*
G36*
X108757400Y-106197400D02*
X108737400Y-106197400D01*
X108737400Y-106217400D01*
X108432600Y-106217400D01*
X108432600Y-106197400D01*
X108432600Y-105892600D01*
X108432600Y-104842720D01*
X108432600Y-104770780D01*
X108432600Y-103720900D01*
X107311386Y-103720900D01*
X107262516Y-103932261D01*
X107392634Y-104246427D01*
X107742829Y-104651122D01*
X108053214Y-104806750D01*
X107742829Y-104962378D01*
X107392634Y-105367073D01*
X107262516Y-105681239D01*
X107311386Y-105892600D01*
X108432600Y-105892600D01*
X108432600Y-106197400D01*
X107311386Y-106197400D01*
X107262516Y-106408761D01*
X107392634Y-106722927D01*
X107707158Y-107086400D01*
X105330600Y-107086400D01*
X105330600Y-106851100D01*
X105330600Y-106794267D01*
X105276463Y-106663569D01*
X105176431Y-106563537D01*
X105045733Y-106509400D01*
X104963900Y-106509400D01*
X104875000Y-106598300D01*
X104875000Y-106940000D01*
X105241700Y-106940000D01*
X105330600Y-106851100D01*
X105330600Y-107086400D01*
X104675000Y-107086400D01*
X104675000Y-106940000D01*
X104675000Y-106598300D01*
X104586100Y-106509400D01*
X104504267Y-106509400D01*
X104373569Y-106563537D01*
X104273537Y-106663569D01*
X104219400Y-106794267D01*
X104219400Y-106851100D01*
X104308300Y-106940000D01*
X104675000Y-106940000D01*
X104675000Y-107086400D01*
X102209600Y-107086400D01*
X102209600Y-105372592D01*
X102227359Y-105415573D01*
X102861091Y-106050412D01*
X103689525Y-106394408D01*
X104586540Y-106395190D01*
X105415573Y-106052641D01*
X106050412Y-105418909D01*
X106394408Y-104590475D01*
X106395190Y-103693460D01*
X106052641Y-102864427D01*
X105418909Y-102229588D01*
X105370772Y-102209600D01*
X108432598Y-102209600D01*
X108432598Y-102294279D01*
X108221237Y-102246003D01*
X107742829Y-102485878D01*
X107392634Y-102890573D01*
X107262516Y-103204739D01*
X107311386Y-103416100D01*
X108432600Y-103416100D01*
X108432600Y-103396100D01*
X108737400Y-103396100D01*
X108737400Y-103416100D01*
X108757400Y-103416100D01*
X108757400Y-103720900D01*
X108737400Y-103720900D01*
X108737400Y-104770780D01*
X108737400Y-104842720D01*
X108737400Y-105892600D01*
X108757400Y-105892600D01*
X108757400Y-106197400D01*
X108757400Y-106197400D01*
G37*
X108757400Y-106197400D02*
X108737400Y-106197400D01*
X108737400Y-106217400D01*
X108432600Y-106217400D01*
X108432600Y-106197400D01*
X108432600Y-105892600D01*
X108432600Y-104842720D01*
X108432600Y-104770780D01*
X108432600Y-103720900D01*
X107311386Y-103720900D01*
X107262516Y-103932261D01*
X107392634Y-104246427D01*
X107742829Y-104651122D01*
X108053214Y-104806750D01*
X107742829Y-104962378D01*
X107392634Y-105367073D01*
X107262516Y-105681239D01*
X107311386Y-105892600D01*
X108432600Y-105892600D01*
X108432600Y-106197400D01*
X107311386Y-106197400D01*
X107262516Y-106408761D01*
X107392634Y-106722927D01*
X107707158Y-107086400D01*
X105330600Y-107086400D01*
X105330600Y-106851100D01*
X105330600Y-106794267D01*
X105276463Y-106663569D01*
X105176431Y-106563537D01*
X105045733Y-106509400D01*
X104963900Y-106509400D01*
X104875000Y-106598300D01*
X104875000Y-106940000D01*
X105241700Y-106940000D01*
X105330600Y-106851100D01*
X105330600Y-107086400D01*
X104675000Y-107086400D01*
X104675000Y-106940000D01*
X104675000Y-106598300D01*
X104586100Y-106509400D01*
X104504267Y-106509400D01*
X104373569Y-106563537D01*
X104273537Y-106663569D01*
X104219400Y-106794267D01*
X104219400Y-106851100D01*
X104308300Y-106940000D01*
X104675000Y-106940000D01*
X104675000Y-107086400D01*
X102209600Y-107086400D01*
X102209600Y-105372592D01*
X102227359Y-105415573D01*
X102861091Y-106050412D01*
X103689525Y-106394408D01*
X104586540Y-106395190D01*
X105415573Y-106052641D01*
X106050412Y-105418909D01*
X106394408Y-104590475D01*
X106395190Y-103693460D01*
X106052641Y-102864427D01*
X105418909Y-102229588D01*
X105370772Y-102209600D01*
X108432598Y-102209600D01*
X108432598Y-102294279D01*
X108221237Y-102246003D01*
X107742829Y-102485878D01*
X107392634Y-102890573D01*
X107262516Y-103204739D01*
X107311386Y-103416100D01*
X108432600Y-103416100D01*
X108432600Y-103396100D01*
X108737400Y-103396100D01*
X108737400Y-103416100D01*
X108757400Y-103416100D01*
X108757400Y-103720900D01*
X108737400Y-103720900D01*
X108737400Y-104770780D01*
X108737400Y-104842720D01*
X108737400Y-105892600D01*
X108757400Y-105892600D01*
X108757400Y-106197400D01*
G36*
X109804200Y-107086400D02*
X109462841Y-107086400D01*
X109777366Y-106722927D01*
X109804200Y-106658137D01*
X109804200Y-107086400D01*
X109804200Y-107086400D01*
G37*
X109804200Y-107086400D02*
X109462841Y-107086400D01*
X109777366Y-106722927D01*
X109804200Y-106658137D01*
X109804200Y-107086400D01*
G36*
X113111305Y-108102400D02*
X112623600Y-108102400D01*
X112623600Y-107412638D01*
X112870353Y-107412854D01*
X113099157Y-107318314D01*
X113099590Y-107317881D01*
X113092230Y-107335651D01*
X113092230Y-107456908D01*
X113092230Y-108056348D01*
X113111305Y-108102400D01*
X113111305Y-108102400D01*
G37*
X113111305Y-108102400D02*
X112623600Y-108102400D01*
X112623600Y-107412638D01*
X112870353Y-107412854D01*
X113099157Y-107318314D01*
X113099590Y-107317881D01*
X113092230Y-107335651D01*
X113092230Y-107456908D01*
X113092230Y-108056348D01*
X113111305Y-108102400D01*
G36*
X116738664Y-108121400D02*
X116535300Y-108121400D01*
X116446400Y-108210300D01*
X116446400Y-109024600D01*
X116466400Y-109024600D01*
X116466400Y-109329400D01*
X116446400Y-109329400D01*
X116446400Y-109349400D01*
X116141600Y-109349400D01*
X116141600Y-109329400D01*
X116141600Y-109024600D01*
X116141600Y-108210300D01*
X116052700Y-108121400D01*
X115789733Y-108121400D01*
X115648267Y-108121400D01*
X115517569Y-108175537D01*
X115417537Y-108275569D01*
X115363400Y-108406267D01*
X115363400Y-108935700D01*
X115452300Y-109024600D01*
X116141600Y-109024600D01*
X116141600Y-109329400D01*
X115452300Y-109329400D01*
X115383692Y-109398008D01*
X114909600Y-108923916D01*
X114909600Y-108283984D01*
X114996433Y-108197151D01*
X115050570Y-108066453D01*
X115050570Y-107934760D01*
X114961670Y-107845860D01*
X114595275Y-107845860D01*
X114595275Y-107868400D01*
X114395885Y-107868400D01*
X114395885Y-107845860D01*
X114323180Y-107845860D01*
X114323180Y-107546140D01*
X114395885Y-107546140D01*
X114395885Y-107523600D01*
X114595275Y-107523600D01*
X114595275Y-107546140D01*
X114961670Y-107546140D01*
X115050570Y-107457240D01*
X115050570Y-107325547D01*
X114996433Y-107194849D01*
X114919384Y-107117800D01*
X115414200Y-107117800D01*
X115414200Y-107737628D01*
X115460603Y-107849655D01*
X115546344Y-107935397D01*
X115658371Y-107981800D01*
X115779628Y-107981800D01*
X116599064Y-107981800D01*
X116738664Y-108121400D01*
X116738664Y-108121400D01*
G37*
X116738664Y-108121400D02*
X116535300Y-108121400D01*
X116446400Y-108210300D01*
X116446400Y-109024600D01*
X116466400Y-109024600D01*
X116466400Y-109329400D01*
X116446400Y-109329400D01*
X116446400Y-109349400D01*
X116141600Y-109349400D01*
X116141600Y-109329400D01*
X116141600Y-109024600D01*
X116141600Y-108210300D01*
X116052700Y-108121400D01*
X115789733Y-108121400D01*
X115648267Y-108121400D01*
X115517569Y-108175537D01*
X115417537Y-108275569D01*
X115363400Y-108406267D01*
X115363400Y-108935700D01*
X115452300Y-109024600D01*
X116141600Y-109024600D01*
X116141600Y-109329400D01*
X115452300Y-109329400D01*
X115383692Y-109398008D01*
X114909600Y-108923916D01*
X114909600Y-108283984D01*
X114996433Y-108197151D01*
X115050570Y-108066453D01*
X115050570Y-107934760D01*
X114961670Y-107845860D01*
X114595275Y-107845860D01*
X114595275Y-107868400D01*
X114395885Y-107868400D01*
X114395885Y-107845860D01*
X114323180Y-107845860D01*
X114323180Y-107546140D01*
X114395885Y-107546140D01*
X114395885Y-107523600D01*
X114595275Y-107523600D01*
X114595275Y-107546140D01*
X114961670Y-107546140D01*
X115050570Y-107457240D01*
X115050570Y-107325547D01*
X114996433Y-107194849D01*
X114919384Y-107117800D01*
X115414200Y-107117800D01*
X115414200Y-107737628D01*
X115460603Y-107849655D01*
X115546344Y-107935397D01*
X115658371Y-107981800D01*
X115779628Y-107981800D01*
X116599064Y-107981800D01*
X116738664Y-108121400D01*
G36*
X116764200Y-104513200D02*
X116639372Y-104513200D01*
X116634713Y-104515129D01*
X116579151Y-104459567D01*
X116448453Y-104405430D01*
X116316760Y-104405430D01*
X116227860Y-104494330D01*
X116227860Y-104860725D01*
X116250400Y-104860725D01*
X116250400Y-105060115D01*
X116227860Y-105060115D01*
X116227860Y-105132820D01*
X115928140Y-105132820D01*
X115928140Y-105060115D01*
X115905600Y-105060115D01*
X115905600Y-104860725D01*
X115928140Y-104860725D01*
X115928140Y-104494330D01*
X115839240Y-104405430D01*
X115707547Y-104405430D01*
X115576849Y-104459567D01*
X115476817Y-104559599D01*
X115432164Y-104667400D01*
X115363900Y-104667400D01*
X115275000Y-104756300D01*
X115275000Y-105095500D01*
X115297400Y-105095500D01*
X115297400Y-105233900D01*
X115290800Y-105240500D01*
X115275000Y-105240500D01*
X115275000Y-105256300D01*
X115275000Y-105579700D01*
X115275000Y-105595500D01*
X115290800Y-105595500D01*
X115297400Y-105602100D01*
X115297400Y-105733900D01*
X115290800Y-105740500D01*
X115275000Y-105740500D01*
X115275000Y-105756300D01*
X115275000Y-106079700D01*
X115275000Y-106095500D01*
X115290800Y-106095500D01*
X115297400Y-106102100D01*
X115297400Y-106218200D01*
X114952600Y-106218200D01*
X114952600Y-106102100D01*
X114959200Y-106095500D01*
X114975000Y-106095500D01*
X114975000Y-106079700D01*
X114975000Y-105756300D01*
X114975000Y-105740500D01*
X114959200Y-105740500D01*
X114952600Y-105733900D01*
X114952600Y-105602100D01*
X114959200Y-105595500D01*
X114975000Y-105595500D01*
X114975000Y-105579700D01*
X114975000Y-105256300D01*
X114975000Y-105240500D01*
X114959200Y-105240500D01*
X114952600Y-105233900D01*
X114952600Y-105095500D01*
X114975000Y-105095500D01*
X114975000Y-104756300D01*
X114937306Y-104718606D01*
X114957177Y-104698736D01*
X115003580Y-104586709D01*
X115003580Y-104465452D01*
X115003580Y-103667892D01*
X114957177Y-103555865D01*
X114871436Y-103470123D01*
X114759409Y-103423720D01*
X114638152Y-103423720D01*
X113840592Y-103423720D01*
X113728565Y-103470123D01*
X113642823Y-103555864D01*
X113634520Y-103575909D01*
X113634520Y-103458342D01*
X113634520Y-103180089D01*
X113642823Y-103200135D01*
X113728564Y-103285877D01*
X113840591Y-103332280D01*
X113961848Y-103332280D01*
X114759408Y-103332280D01*
X114871435Y-103285877D01*
X114957177Y-103200136D01*
X115003580Y-103088109D01*
X115003580Y-102966852D01*
X115003580Y-102209600D01*
X115445200Y-102209600D01*
X115445200Y-104078628D01*
X115491603Y-104190655D01*
X115577344Y-104276397D01*
X115689371Y-104322800D01*
X115810628Y-104322800D01*
X116764200Y-104322800D01*
X116764200Y-104513200D01*
X116764200Y-104513200D01*
G37*
X116764200Y-104513200D02*
X116639372Y-104513200D01*
X116634713Y-104515129D01*
X116579151Y-104459567D01*
X116448453Y-104405430D01*
X116316760Y-104405430D01*
X116227860Y-104494330D01*
X116227860Y-104860725D01*
X116250400Y-104860725D01*
X116250400Y-105060115D01*
X116227860Y-105060115D01*
X116227860Y-105132820D01*
X115928140Y-105132820D01*
X115928140Y-105060115D01*
X115905600Y-105060115D01*
X115905600Y-104860725D01*
X115928140Y-104860725D01*
X115928140Y-104494330D01*
X115839240Y-104405430D01*
X115707547Y-104405430D01*
X115576849Y-104459567D01*
X115476817Y-104559599D01*
X115432164Y-104667400D01*
X115363900Y-104667400D01*
X115275000Y-104756300D01*
X115275000Y-105095500D01*
X115297400Y-105095500D01*
X115297400Y-105233900D01*
X115290800Y-105240500D01*
X115275000Y-105240500D01*
X115275000Y-105256300D01*
X115275000Y-105579700D01*
X115275000Y-105595500D01*
X115290800Y-105595500D01*
X115297400Y-105602100D01*
X115297400Y-105733900D01*
X115290800Y-105740500D01*
X115275000Y-105740500D01*
X115275000Y-105756300D01*
X115275000Y-106079700D01*
X115275000Y-106095500D01*
X115290800Y-106095500D01*
X115297400Y-106102100D01*
X115297400Y-106218200D01*
X114952600Y-106218200D01*
X114952600Y-106102100D01*
X114959200Y-106095500D01*
X114975000Y-106095500D01*
X114975000Y-106079700D01*
X114975000Y-105756300D01*
X114975000Y-105740500D01*
X114959200Y-105740500D01*
X114952600Y-105733900D01*
X114952600Y-105602100D01*
X114959200Y-105595500D01*
X114975000Y-105595500D01*
X114975000Y-105579700D01*
X114975000Y-105256300D01*
X114975000Y-105240500D01*
X114959200Y-105240500D01*
X114952600Y-105233900D01*
X114952600Y-105095500D01*
X114975000Y-105095500D01*
X114975000Y-104756300D01*
X114937306Y-104718606D01*
X114957177Y-104698736D01*
X115003580Y-104586709D01*
X115003580Y-104465452D01*
X115003580Y-103667892D01*
X114957177Y-103555865D01*
X114871436Y-103470123D01*
X114759409Y-103423720D01*
X114638152Y-103423720D01*
X113840592Y-103423720D01*
X113728565Y-103470123D01*
X113642823Y-103555864D01*
X113634520Y-103575909D01*
X113634520Y-103458342D01*
X113634520Y-103180089D01*
X113642823Y-103200135D01*
X113728564Y-103285877D01*
X113840591Y-103332280D01*
X113961848Y-103332280D01*
X114759408Y-103332280D01*
X114871435Y-103285877D01*
X114957177Y-103200136D01*
X115003580Y-103088109D01*
X115003580Y-102966852D01*
X115003580Y-102209600D01*
X115445200Y-102209600D01*
X115445200Y-104078628D01*
X115491603Y-104190655D01*
X115577344Y-104276397D01*
X115689371Y-104322800D01*
X115810628Y-104322800D01*
X116764200Y-104322800D01*
X116764200Y-104513200D01*
G36*
X120497598Y-109298738D02*
X120408700Y-109209840D01*
X120179217Y-109209840D01*
X120048519Y-109263977D01*
X119948487Y-109364009D01*
X119894350Y-109494707D01*
X119894350Y-109604114D01*
X119879784Y-109589548D01*
X119747939Y-109501451D01*
X119592416Y-109470516D01*
X119532485Y-109470516D01*
X119278400Y-109216431D01*
X119278400Y-108671360D01*
X119358078Y-108671360D01*
X119827614Y-108671360D01*
X120276605Y-109120351D01*
X120408450Y-109208448D01*
X120408451Y-109208448D01*
X120480839Y-109222846D01*
X120480840Y-109222847D01*
X120497598Y-109239634D01*
X120497598Y-109298738D01*
X120497598Y-109298738D01*
G37*
X120497598Y-109298738D02*
X120408700Y-109209840D01*
X120179217Y-109209840D01*
X120048519Y-109263977D01*
X119948487Y-109364009D01*
X119894350Y-109494707D01*
X119894350Y-109604114D01*
X119879784Y-109589548D01*
X119747939Y-109501451D01*
X119592416Y-109470516D01*
X119532485Y-109470516D01*
X119278400Y-109216431D01*
X119278400Y-108671360D01*
X119358078Y-108671360D01*
X119827614Y-108671360D01*
X120276605Y-109120351D01*
X120408450Y-109208448D01*
X120408451Y-109208448D01*
X120480839Y-109222846D01*
X120480840Y-109222847D01*
X120497598Y-109239634D01*
X120497598Y-109298738D01*
G36*
X120879668Y-114314142D02*
X120664142Y-114529668D01*
X120650000Y-114515526D01*
X120635857Y-114529668D01*
X120420331Y-114314142D01*
X120434474Y-114300000D01*
X120420331Y-114285857D01*
X120635857Y-114070331D01*
X120650000Y-114084474D01*
X120664142Y-114070331D01*
X120879668Y-114285857D01*
X120865526Y-114300000D01*
X120879668Y-114314142D01*
X120879668Y-114314142D01*
G37*
X120879668Y-114314142D02*
X120664142Y-114529668D01*
X120650000Y-114515526D01*
X120635857Y-114529668D01*
X120420331Y-114314142D01*
X120434474Y-114300000D01*
X120420331Y-114285857D01*
X120635857Y-114070331D01*
X120650000Y-114084474D01*
X120664142Y-114070331D01*
X120879668Y-114285857D01*
X120865526Y-114300000D01*
X120879668Y-114314142D01*
G36*
X120946176Y-110921800D02*
X120648204Y-111219772D01*
X120350232Y-110921800D01*
X120408700Y-110921800D01*
X120497600Y-110832900D01*
X120497600Y-110218220D01*
X120477600Y-110218220D01*
X120477600Y-109913420D01*
X120497600Y-109913420D01*
X120497600Y-109893420D01*
X120802400Y-109893420D01*
X120802400Y-109913420D01*
X120822400Y-109913420D01*
X120822400Y-110218220D01*
X120802400Y-110218220D01*
X120802400Y-110832900D01*
X120891300Y-110921800D01*
X120946176Y-110921800D01*
X120946176Y-110921800D01*
G37*
X120946176Y-110921800D02*
X120648204Y-111219772D01*
X120350232Y-110921800D01*
X120408700Y-110921800D01*
X120497600Y-110832900D01*
X120497600Y-110218220D01*
X120477600Y-110218220D01*
X120477600Y-109913420D01*
X120497600Y-109913420D01*
X120497600Y-109893420D01*
X120802400Y-109893420D01*
X120802400Y-109913420D01*
X120822400Y-109913420D01*
X120822400Y-110218220D01*
X120802400Y-110218220D01*
X120802400Y-110832900D01*
X120891300Y-110921800D01*
X120946176Y-110921800D01*
G36*
X123580452Y-112194876D02*
X123558526Y-112247682D01*
X123355589Y-112247682D01*
X123200066Y-112278617D01*
X123068221Y-112366714D01*
X123010910Y-112424025D01*
X122969600Y-112424025D01*
X122675047Y-112718577D01*
X122679538Y-112723068D01*
X122467604Y-112935002D01*
X122463113Y-112930511D01*
X122447174Y-112946449D01*
X122359168Y-112858443D01*
X122375107Y-112842505D01*
X122368820Y-112836218D01*
X122580754Y-112624284D01*
X122587041Y-112630571D01*
X122881593Y-112336018D01*
X122881593Y-112237520D01*
X122982658Y-112237520D01*
X123381438Y-112237520D01*
X123493465Y-112191117D01*
X123535079Y-112149503D01*
X123580452Y-112194876D01*
X123580452Y-112194876D01*
G37*
X123580452Y-112194876D02*
X123558526Y-112247682D01*
X123355589Y-112247682D01*
X123200066Y-112278617D01*
X123068221Y-112366714D01*
X123010910Y-112424025D01*
X122969600Y-112424025D01*
X122675047Y-112718577D01*
X122679538Y-112723068D01*
X122467604Y-112935002D01*
X122463113Y-112930511D01*
X122447174Y-112946449D01*
X122359168Y-112858443D01*
X122375107Y-112842505D01*
X122368820Y-112836218D01*
X122580754Y-112624284D01*
X122587041Y-112630571D01*
X122881593Y-112336018D01*
X122881593Y-112237520D01*
X122982658Y-112237520D01*
X123381438Y-112237520D01*
X123493465Y-112191117D01*
X123535079Y-112149503D01*
X123580452Y-112194876D01*
G36*
X124873605Y-109323876D02*
X124866002Y-109335256D01*
X124832684Y-109502757D01*
X124820745Y-109507703D01*
X124746123Y-109582323D01*
X124726700Y-109562900D01*
X123913900Y-109562900D01*
X123913900Y-109582900D01*
X123609100Y-109582900D01*
X123609100Y-109562900D01*
X123589100Y-109562900D01*
X123589100Y-109258100D01*
X123609100Y-109258100D01*
X123609100Y-109238100D01*
X123913900Y-109238100D01*
X123913900Y-109258100D01*
X124726700Y-109258100D01*
X124815600Y-109169200D01*
X124815600Y-108895267D01*
X124761463Y-108764569D01*
X124661431Y-108664537D01*
X124530733Y-108610400D01*
X124389267Y-108610400D01*
X124140279Y-108610400D01*
X124155098Y-108574714D01*
X124155301Y-108342305D01*
X124119144Y-108254800D01*
X124318340Y-108254800D01*
X124834650Y-108771110D01*
X124834650Y-109229828D01*
X124873605Y-109323876D01*
X124873605Y-109323876D01*
G37*
X124873605Y-109323876D02*
X124866002Y-109335256D01*
X124832684Y-109502757D01*
X124820745Y-109507703D01*
X124746123Y-109582323D01*
X124726700Y-109562900D01*
X123913900Y-109562900D01*
X123913900Y-109582900D01*
X123609100Y-109582900D01*
X123609100Y-109562900D01*
X123589100Y-109562900D01*
X123589100Y-109258100D01*
X123609100Y-109258100D01*
X123609100Y-109238100D01*
X123913900Y-109238100D01*
X123913900Y-109258100D01*
X124726700Y-109258100D01*
X124815600Y-109169200D01*
X124815600Y-108895267D01*
X124761463Y-108764569D01*
X124661431Y-108664537D01*
X124530733Y-108610400D01*
X124389267Y-108610400D01*
X124140279Y-108610400D01*
X124155098Y-108574714D01*
X124155301Y-108342305D01*
X124119144Y-108254800D01*
X124318340Y-108254800D01*
X124834650Y-108771110D01*
X124834650Y-109229828D01*
X124873605Y-109323876D01*
G36*
X125648400Y-105832275D02*
X125625860Y-105832275D01*
X125625860Y-105877910D01*
X125600326Y-105867308D01*
X125352760Y-105867092D01*
X125326140Y-105878091D01*
X125326140Y-105832275D01*
X125303600Y-105832275D01*
X125303600Y-105632885D01*
X125326140Y-105632885D01*
X125326140Y-105560180D01*
X125625860Y-105560180D01*
X125625860Y-105632885D01*
X125648400Y-105632885D01*
X125648400Y-105832275D01*
X125648400Y-105832275D01*
G37*
X125648400Y-105832275D02*
X125625860Y-105832275D01*
X125625860Y-105877910D01*
X125600326Y-105867308D01*
X125352760Y-105867092D01*
X125326140Y-105878091D01*
X125326140Y-105832275D01*
X125303600Y-105832275D01*
X125303600Y-105632885D01*
X125326140Y-105632885D01*
X125326140Y-105560180D01*
X125625860Y-105560180D01*
X125625860Y-105632885D01*
X125648400Y-105632885D01*
X125648400Y-105832275D01*
G36*
X128383291Y-111864325D02*
X128241478Y-111892534D01*
X128109633Y-111980631D01*
X127403164Y-112687100D01*
X127041336Y-112687100D01*
X126792067Y-112437831D01*
X126660222Y-112349734D01*
X126540962Y-112326012D01*
X126566431Y-112315463D01*
X126666463Y-112215431D01*
X126720600Y-112084733D01*
X126720600Y-111810800D01*
X126720600Y-111328200D01*
X126720600Y-111054267D01*
X126666463Y-110923569D01*
X126566431Y-110823537D01*
X126435733Y-110769400D01*
X126294267Y-110769400D01*
X125907800Y-110769400D01*
X125818900Y-110858300D01*
X125818900Y-111417100D01*
X126631700Y-111417100D01*
X126720600Y-111328200D01*
X126720600Y-111810800D01*
X126631700Y-111721900D01*
X125818900Y-111721900D01*
X125818900Y-111741900D01*
X125514100Y-111741900D01*
X125514100Y-111721900D01*
X125514100Y-111417100D01*
X125514100Y-110858300D01*
X125425200Y-110769400D01*
X125038733Y-110769400D01*
X124897267Y-110769400D01*
X124766569Y-110823537D01*
X124666537Y-110923569D01*
X124612400Y-111054267D01*
X124612400Y-111328200D01*
X124701300Y-111417100D01*
X125514100Y-111417100D01*
X125514100Y-111721900D01*
X124701300Y-111721900D01*
X124612400Y-111810800D01*
X124612400Y-112080210D01*
X124563900Y-112031626D01*
X124575570Y-112003453D01*
X124575570Y-111871760D01*
X124486670Y-111782860D01*
X124120275Y-111782860D01*
X124120275Y-111805400D01*
X123920885Y-111805400D01*
X123920885Y-111782860D01*
X123848180Y-111782860D01*
X123848180Y-111483140D01*
X123920885Y-111483140D01*
X123920885Y-111460600D01*
X124120275Y-111460600D01*
X124120275Y-111483140D01*
X124486670Y-111483140D01*
X124575570Y-111394240D01*
X124575570Y-111262547D01*
X124521433Y-111131849D01*
X124421401Y-111031817D01*
X124290703Y-110977680D01*
X124209175Y-110977680D01*
X124172982Y-111013873D01*
X124172982Y-110977680D01*
X124067570Y-110977680D01*
X124062490Y-110977680D01*
X123978670Y-110893860D01*
X123612275Y-110893860D01*
X123612275Y-110916400D01*
X123412885Y-110916400D01*
X123412885Y-110893860D01*
X123340180Y-110893860D01*
X123340180Y-110594140D01*
X123412885Y-110594140D01*
X123412885Y-110571600D01*
X123612275Y-110571600D01*
X123612275Y-110594140D01*
X123978670Y-110594140D01*
X124067570Y-110505240D01*
X124067570Y-110373547D01*
X124013433Y-110242849D01*
X123913902Y-110143318D01*
X123913902Y-110121702D01*
X124002800Y-110210600D01*
X124389267Y-110210600D01*
X124530733Y-110210600D01*
X124661431Y-110156463D01*
X124688600Y-110129294D01*
X124688600Y-110512528D01*
X124735003Y-110624555D01*
X124820744Y-110710297D01*
X124932771Y-110756700D01*
X125054028Y-110756700D01*
X125612828Y-110756700D01*
X125724855Y-110710297D01*
X125810597Y-110624556D01*
X125857000Y-110512529D01*
X125857000Y-110391272D01*
X125857000Y-109705472D01*
X125843161Y-109672063D01*
X125843161Y-109672062D01*
X125882798Y-109612744D01*
X125882798Y-109612743D01*
X125910395Y-109474000D01*
X126000178Y-109474000D01*
X126112205Y-109427597D01*
X126197947Y-109341856D01*
X126244350Y-109229829D01*
X126244350Y-109108572D01*
X126244350Y-108107812D01*
X126197947Y-107995785D01*
X126112206Y-107910043D01*
X126000179Y-107863640D01*
X125878922Y-107863640D01*
X125328100Y-107863640D01*
X124764800Y-107300340D01*
X124764800Y-107000372D01*
X124718397Y-106888345D01*
X124632656Y-106802603D01*
X124520629Y-106756200D01*
X124399372Y-106756200D01*
X123458660Y-106756200D01*
X123349729Y-106647269D01*
X123304368Y-106601908D01*
X123304408Y-106556760D01*
X123209868Y-106327956D01*
X123034965Y-106152747D01*
X122806326Y-106057808D01*
X122558760Y-106057592D01*
X122454800Y-106100547D01*
X122454800Y-105157372D01*
X122408397Y-105045345D01*
X122322656Y-104959603D01*
X122210629Y-104913200D01*
X122089372Y-104913200D01*
X121689372Y-104913200D01*
X121625000Y-104939863D01*
X121560629Y-104913200D01*
X121439372Y-104913200D01*
X121039372Y-104913200D01*
X120975000Y-104939863D01*
X120910629Y-104913200D01*
X120789372Y-104913200D01*
X120389372Y-104913200D01*
X120325000Y-104939863D01*
X120260629Y-104913200D01*
X120139372Y-104913200D01*
X119743374Y-104913200D01*
X119620733Y-104862400D01*
X119538900Y-104862400D01*
X119450000Y-104951300D01*
X119450000Y-105765600D01*
X119495200Y-105765600D01*
X119495200Y-106070400D01*
X119450000Y-106070400D01*
X119450000Y-106884700D01*
X119538900Y-106973600D01*
X119620733Y-106973600D01*
X119743374Y-106922800D01*
X119860628Y-106922800D01*
X119959464Y-106922800D01*
X119821264Y-107061000D01*
X119236822Y-107061000D01*
X119124795Y-107107403D01*
X119039053Y-107193144D01*
X118992650Y-107305171D01*
X118992650Y-107426428D01*
X118992650Y-107877271D01*
X118905010Y-107789632D01*
X118824600Y-107735903D01*
X118824600Y-107218300D01*
X118735700Y-107129400D01*
X118046400Y-107129400D01*
X118046400Y-107149400D01*
X117741600Y-107149400D01*
X117741600Y-107129400D01*
X117721600Y-107129400D01*
X117721600Y-106824600D01*
X117741600Y-106824600D01*
X117741600Y-106804600D01*
X118046400Y-106804600D01*
X118046400Y-106824600D01*
X118735700Y-106824600D01*
X118817001Y-106743298D01*
X118848537Y-106819431D01*
X118948569Y-106919463D01*
X119079267Y-106973600D01*
X119161100Y-106973600D01*
X119250000Y-106884700D01*
X119250000Y-106070400D01*
X119250000Y-105765600D01*
X119250000Y-104951300D01*
X119161100Y-104862400D01*
X119079267Y-104862400D01*
X118948569Y-104916537D01*
X118848537Y-105016569D01*
X118794400Y-105147267D01*
X118794400Y-105288733D01*
X118794400Y-105676700D01*
X118883300Y-105765600D01*
X119250000Y-105765600D01*
X119250000Y-106070400D01*
X118883300Y-106070400D01*
X118801998Y-106151701D01*
X118770463Y-106075569D01*
X118670431Y-105975537D01*
X118539733Y-105921400D01*
X118487083Y-105921400D01*
X118504800Y-105878629D01*
X118504800Y-105757372D01*
X118504800Y-104757372D01*
X118458397Y-104645345D01*
X118372656Y-104559603D01*
X118260629Y-104513200D01*
X118139372Y-104513200D01*
X118135800Y-104513200D01*
X118135800Y-104312373D01*
X118222655Y-104276397D01*
X118308397Y-104190656D01*
X118325000Y-104150572D01*
X118341603Y-104190655D01*
X118427344Y-104276397D01*
X118539371Y-104322800D01*
X118660628Y-104322800D01*
X120360628Y-104322800D01*
X120472655Y-104276397D01*
X120558397Y-104190656D01*
X120604800Y-104078629D01*
X120604800Y-103957372D01*
X120604800Y-103753800D01*
X120695200Y-103753800D01*
X120695200Y-104078628D01*
X120741603Y-104190655D01*
X120827344Y-104276397D01*
X120939371Y-104322800D01*
X121060628Y-104322800D01*
X122760628Y-104322800D01*
X122872655Y-104276397D01*
X122958397Y-104190656D01*
X122975000Y-104150572D01*
X122991603Y-104190655D01*
X123077344Y-104276397D01*
X123164200Y-104312373D01*
X123164200Y-104513200D01*
X123039372Y-104513200D01*
X122927345Y-104559603D01*
X122841603Y-104645344D01*
X122795200Y-104757371D01*
X122795200Y-104878628D01*
X122795200Y-105878628D01*
X122841603Y-105990655D01*
X122927344Y-106076397D01*
X123039371Y-106122800D01*
X123160628Y-106122800D01*
X124660628Y-106122800D01*
X124772655Y-106076397D01*
X124828198Y-106020854D01*
X124874817Y-106133401D01*
X124927975Y-106186559D01*
X124853808Y-106365174D01*
X124853592Y-106612740D01*
X124948132Y-106841544D01*
X125123035Y-107016753D01*
X125351674Y-107111692D01*
X125599240Y-107111908D01*
X125788591Y-107033669D01*
X125833553Y-107142215D01*
X125919294Y-107227957D01*
X126031321Y-107274360D01*
X126152578Y-107274360D01*
X126952678Y-107274360D01*
X127064705Y-107227957D01*
X127076200Y-107216462D01*
X127076200Y-107464253D01*
X126986902Y-107597896D01*
X126949200Y-107787440D01*
X126949200Y-107877980D01*
X126871795Y-107910043D01*
X126786053Y-107995784D01*
X126739650Y-108107811D01*
X126739650Y-108229068D01*
X126739650Y-109229828D01*
X126786053Y-109341855D01*
X126871794Y-109427597D01*
X126981879Y-109473195D01*
X126981880Y-109473196D01*
X126986902Y-109498444D01*
X127094270Y-109659130D01*
X127130986Y-109695846D01*
X127127000Y-109705471D01*
X127127000Y-109826728D01*
X127127000Y-110512528D01*
X127173403Y-110624555D01*
X127259144Y-110710297D01*
X127371171Y-110756700D01*
X127492428Y-110756700D01*
X128051228Y-110756700D01*
X128163255Y-110710297D01*
X128236980Y-110636572D01*
X128236980Y-110945598D01*
X128283383Y-111057625D01*
X128314770Y-111089012D01*
X128314247Y-111089535D01*
X128219308Y-111318174D01*
X128219092Y-111565740D01*
X128313632Y-111794544D01*
X128383291Y-111864325D01*
X128383291Y-111864325D01*
G37*
X128383291Y-111864325D02*
X128241478Y-111892534D01*
X128109633Y-111980631D01*
X127403164Y-112687100D01*
X127041336Y-112687100D01*
X126792067Y-112437831D01*
X126660222Y-112349734D01*
X126540962Y-112326012D01*
X126566431Y-112315463D01*
X126666463Y-112215431D01*
X126720600Y-112084733D01*
X126720600Y-111810800D01*
X126720600Y-111328200D01*
X126720600Y-111054267D01*
X126666463Y-110923569D01*
X126566431Y-110823537D01*
X126435733Y-110769400D01*
X126294267Y-110769400D01*
X125907800Y-110769400D01*
X125818900Y-110858300D01*
X125818900Y-111417100D01*
X126631700Y-111417100D01*
X126720600Y-111328200D01*
X126720600Y-111810800D01*
X126631700Y-111721900D01*
X125818900Y-111721900D01*
X125818900Y-111741900D01*
X125514100Y-111741900D01*
X125514100Y-111721900D01*
X125514100Y-111417100D01*
X125514100Y-110858300D01*
X125425200Y-110769400D01*
X125038733Y-110769400D01*
X124897267Y-110769400D01*
X124766569Y-110823537D01*
X124666537Y-110923569D01*
X124612400Y-111054267D01*
X124612400Y-111328200D01*
X124701300Y-111417100D01*
X125514100Y-111417100D01*
X125514100Y-111721900D01*
X124701300Y-111721900D01*
X124612400Y-111810800D01*
X124612400Y-112080210D01*
X124563900Y-112031626D01*
X124575570Y-112003453D01*
X124575570Y-111871760D01*
X124486670Y-111782860D01*
X124120275Y-111782860D01*
X124120275Y-111805400D01*
X123920885Y-111805400D01*
X123920885Y-111782860D01*
X123848180Y-111782860D01*
X123848180Y-111483140D01*
X123920885Y-111483140D01*
X123920885Y-111460600D01*
X124120275Y-111460600D01*
X124120275Y-111483140D01*
X124486670Y-111483140D01*
X124575570Y-111394240D01*
X124575570Y-111262547D01*
X124521433Y-111131849D01*
X124421401Y-111031817D01*
X124290703Y-110977680D01*
X124209175Y-110977680D01*
X124172982Y-111013873D01*
X124172982Y-110977680D01*
X124067570Y-110977680D01*
X124062490Y-110977680D01*
X123978670Y-110893860D01*
X123612275Y-110893860D01*
X123612275Y-110916400D01*
X123412885Y-110916400D01*
X123412885Y-110893860D01*
X123340180Y-110893860D01*
X123340180Y-110594140D01*
X123412885Y-110594140D01*
X123412885Y-110571600D01*
X123612275Y-110571600D01*
X123612275Y-110594140D01*
X123978670Y-110594140D01*
X124067570Y-110505240D01*
X124067570Y-110373547D01*
X124013433Y-110242849D01*
X123913902Y-110143318D01*
X123913902Y-110121702D01*
X124002800Y-110210600D01*
X124389267Y-110210600D01*
X124530733Y-110210600D01*
X124661431Y-110156463D01*
X124688600Y-110129294D01*
X124688600Y-110512528D01*
X124735003Y-110624555D01*
X124820744Y-110710297D01*
X124932771Y-110756700D01*
X125054028Y-110756700D01*
X125612828Y-110756700D01*
X125724855Y-110710297D01*
X125810597Y-110624556D01*
X125857000Y-110512529D01*
X125857000Y-110391272D01*
X125857000Y-109705472D01*
X125843161Y-109672063D01*
X125843161Y-109672062D01*
X125882798Y-109612744D01*
X125882798Y-109612743D01*
X125910395Y-109474000D01*
X126000178Y-109474000D01*
X126112205Y-109427597D01*
X126197947Y-109341856D01*
X126244350Y-109229829D01*
X126244350Y-109108572D01*
X126244350Y-108107812D01*
X126197947Y-107995785D01*
X126112206Y-107910043D01*
X126000179Y-107863640D01*
X125878922Y-107863640D01*
X125328100Y-107863640D01*
X124764800Y-107300340D01*
X124764800Y-107000372D01*
X124718397Y-106888345D01*
X124632656Y-106802603D01*
X124520629Y-106756200D01*
X124399372Y-106756200D01*
X123458660Y-106756200D01*
X123349729Y-106647269D01*
X123304368Y-106601908D01*
X123304408Y-106556760D01*
X123209868Y-106327956D01*
X123034965Y-106152747D01*
X122806326Y-106057808D01*
X122558760Y-106057592D01*
X122454800Y-106100547D01*
X122454800Y-105157372D01*
X122408397Y-105045345D01*
X122322656Y-104959603D01*
X122210629Y-104913200D01*
X122089372Y-104913200D01*
X121689372Y-104913200D01*
X121625000Y-104939863D01*
X121560629Y-104913200D01*
X121439372Y-104913200D01*
X121039372Y-104913200D01*
X120975000Y-104939863D01*
X120910629Y-104913200D01*
X120789372Y-104913200D01*
X120389372Y-104913200D01*
X120325000Y-104939863D01*
X120260629Y-104913200D01*
X120139372Y-104913200D01*
X119743374Y-104913200D01*
X119620733Y-104862400D01*
X119538900Y-104862400D01*
X119450000Y-104951300D01*
X119450000Y-105765600D01*
X119495200Y-105765600D01*
X119495200Y-106070400D01*
X119450000Y-106070400D01*
X119450000Y-106884700D01*
X119538900Y-106973600D01*
X119620733Y-106973600D01*
X119743374Y-106922800D01*
X119860628Y-106922800D01*
X119959464Y-106922800D01*
X119821264Y-107061000D01*
X119236822Y-107061000D01*
X119124795Y-107107403D01*
X119039053Y-107193144D01*
X118992650Y-107305171D01*
X118992650Y-107426428D01*
X118992650Y-107877271D01*
X118905010Y-107789632D01*
X118824600Y-107735903D01*
X118824600Y-107218300D01*
X118735700Y-107129400D01*
X118046400Y-107129400D01*
X118046400Y-107149400D01*
X117741600Y-107149400D01*
X117741600Y-107129400D01*
X117721600Y-107129400D01*
X117721600Y-106824600D01*
X117741600Y-106824600D01*
X117741600Y-106804600D01*
X118046400Y-106804600D01*
X118046400Y-106824600D01*
X118735700Y-106824600D01*
X118817001Y-106743298D01*
X118848537Y-106819431D01*
X118948569Y-106919463D01*
X119079267Y-106973600D01*
X119161100Y-106973600D01*
X119250000Y-106884700D01*
X119250000Y-106070400D01*
X119250000Y-105765600D01*
X119250000Y-104951300D01*
X119161100Y-104862400D01*
X119079267Y-104862400D01*
X118948569Y-104916537D01*
X118848537Y-105016569D01*
X118794400Y-105147267D01*
X118794400Y-105288733D01*
X118794400Y-105676700D01*
X118883300Y-105765600D01*
X119250000Y-105765600D01*
X119250000Y-106070400D01*
X118883300Y-106070400D01*
X118801998Y-106151701D01*
X118770463Y-106075569D01*
X118670431Y-105975537D01*
X118539733Y-105921400D01*
X118487083Y-105921400D01*
X118504800Y-105878629D01*
X118504800Y-105757372D01*
X118504800Y-104757372D01*
X118458397Y-104645345D01*
X118372656Y-104559603D01*
X118260629Y-104513200D01*
X118139372Y-104513200D01*
X118135800Y-104513200D01*
X118135800Y-104312373D01*
X118222655Y-104276397D01*
X118308397Y-104190656D01*
X118325000Y-104150572D01*
X118341603Y-104190655D01*
X118427344Y-104276397D01*
X118539371Y-104322800D01*
X118660628Y-104322800D01*
X120360628Y-104322800D01*
X120472655Y-104276397D01*
X120558397Y-104190656D01*
X120604800Y-104078629D01*
X120604800Y-103957372D01*
X120604800Y-103753800D01*
X120695200Y-103753800D01*
X120695200Y-104078628D01*
X120741603Y-104190655D01*
X120827344Y-104276397D01*
X120939371Y-104322800D01*
X121060628Y-104322800D01*
X122760628Y-104322800D01*
X122872655Y-104276397D01*
X122958397Y-104190656D01*
X122975000Y-104150572D01*
X122991603Y-104190655D01*
X123077344Y-104276397D01*
X123164200Y-104312373D01*
X123164200Y-104513200D01*
X123039372Y-104513200D01*
X122927345Y-104559603D01*
X122841603Y-104645344D01*
X122795200Y-104757371D01*
X122795200Y-104878628D01*
X122795200Y-105878628D01*
X122841603Y-105990655D01*
X122927344Y-106076397D01*
X123039371Y-106122800D01*
X123160628Y-106122800D01*
X124660628Y-106122800D01*
X124772655Y-106076397D01*
X124828198Y-106020854D01*
X124874817Y-106133401D01*
X124927975Y-106186559D01*
X124853808Y-106365174D01*
X124853592Y-106612740D01*
X124948132Y-106841544D01*
X125123035Y-107016753D01*
X125351674Y-107111692D01*
X125599240Y-107111908D01*
X125788591Y-107033669D01*
X125833553Y-107142215D01*
X125919294Y-107227957D01*
X126031321Y-107274360D01*
X126152578Y-107274360D01*
X126952678Y-107274360D01*
X127064705Y-107227957D01*
X127076200Y-107216462D01*
X127076200Y-107464253D01*
X126986902Y-107597896D01*
X126949200Y-107787440D01*
X126949200Y-107877980D01*
X126871795Y-107910043D01*
X126786053Y-107995784D01*
X126739650Y-108107811D01*
X126739650Y-108229068D01*
X126739650Y-109229828D01*
X126786053Y-109341855D01*
X126871794Y-109427597D01*
X126981879Y-109473195D01*
X126981880Y-109473196D01*
X126986902Y-109498444D01*
X127094270Y-109659130D01*
X127130986Y-109695846D01*
X127127000Y-109705471D01*
X127127000Y-109826728D01*
X127127000Y-110512528D01*
X127173403Y-110624555D01*
X127259144Y-110710297D01*
X127371171Y-110756700D01*
X127492428Y-110756700D01*
X128051228Y-110756700D01*
X128163255Y-110710297D01*
X128236980Y-110636572D01*
X128236980Y-110945598D01*
X128283383Y-111057625D01*
X128314770Y-111089012D01*
X128314247Y-111089535D01*
X128219308Y-111318174D01*
X128219092Y-111565740D01*
X128313632Y-111794544D01*
X128383291Y-111864325D01*
G36*
X129382005Y-105754300D02*
X129365200Y-105794871D01*
X129365200Y-105823700D01*
X129266359Y-105823700D01*
X129019300Y-105823700D01*
X129019300Y-105730372D01*
X128972897Y-105618345D01*
X128887156Y-105532603D01*
X128775129Y-105486200D01*
X128653872Y-105486200D01*
X127863600Y-105486200D01*
X127863600Y-105041700D01*
X127863600Y-104482900D01*
X127863600Y-104178100D01*
X127863600Y-103619300D01*
X127774700Y-103530400D01*
X127388233Y-103530400D01*
X127246767Y-103530400D01*
X127116069Y-103584537D01*
X127016037Y-103684569D01*
X126961900Y-103815267D01*
X126961900Y-104089200D01*
X127050800Y-104178100D01*
X127863600Y-104178100D01*
X127863600Y-104482900D01*
X127050800Y-104482900D01*
X126961900Y-104571800D01*
X126961900Y-104845733D01*
X127016037Y-104976431D01*
X127116069Y-105076463D01*
X127246767Y-105130600D01*
X127388233Y-105130600D01*
X127774700Y-105130600D01*
X127863600Y-105041700D01*
X127863600Y-105486200D01*
X127256872Y-105486200D01*
X127144845Y-105532603D01*
X127059103Y-105618344D01*
X127027375Y-105694940D01*
X126952679Y-105664000D01*
X126831422Y-105664000D01*
X126131320Y-105664000D01*
X126131320Y-105580178D01*
X126095127Y-105580178D01*
X126131320Y-105543985D01*
X126131320Y-105462457D01*
X126077183Y-105331759D01*
X125992503Y-105247079D01*
X126034117Y-105205466D01*
X126080520Y-105093439D01*
X126080520Y-104972182D01*
X126080520Y-104573402D01*
X126034117Y-104461375D01*
X125948376Y-104375633D01*
X125836349Y-104329230D01*
X125715092Y-104329230D01*
X125526800Y-104329230D01*
X125526800Y-104322800D01*
X125610628Y-104322800D01*
X125722655Y-104276397D01*
X125808397Y-104190656D01*
X125854800Y-104078629D01*
X125854800Y-103957372D01*
X125854800Y-102209600D01*
X129118847Y-102209600D01*
X129051603Y-102276844D01*
X129005200Y-102388871D01*
X129005200Y-102510128D01*
X129005200Y-103673806D01*
X128915931Y-103584537D01*
X128785233Y-103530400D01*
X128643767Y-103530400D01*
X128257300Y-103530400D01*
X128168400Y-103619300D01*
X128168400Y-104178100D01*
X128188400Y-104178100D01*
X128188400Y-104482900D01*
X128168400Y-104482900D01*
X128168400Y-105041700D01*
X128257300Y-105130600D01*
X128643767Y-105130600D01*
X128785233Y-105130600D01*
X128915931Y-105076463D01*
X129005200Y-104987194D01*
X129005200Y-105510128D01*
X129051603Y-105622155D01*
X129137344Y-105707897D01*
X129249371Y-105754300D01*
X129370628Y-105754300D01*
X129382005Y-105754300D01*
X129382005Y-105754300D01*
G37*
X129382005Y-105754300D02*
X129365200Y-105794871D01*
X129365200Y-105823700D01*
X129266359Y-105823700D01*
X129019300Y-105823700D01*
X129019300Y-105730372D01*
X128972897Y-105618345D01*
X128887156Y-105532603D01*
X128775129Y-105486200D01*
X128653872Y-105486200D01*
X127863600Y-105486200D01*
X127863600Y-105041700D01*
X127863600Y-104482900D01*
X127863600Y-104178100D01*
X127863600Y-103619300D01*
X127774700Y-103530400D01*
X127388233Y-103530400D01*
X127246767Y-103530400D01*
X127116069Y-103584537D01*
X127016037Y-103684569D01*
X126961900Y-103815267D01*
X126961900Y-104089200D01*
X127050800Y-104178100D01*
X127863600Y-104178100D01*
X127863600Y-104482900D01*
X127050800Y-104482900D01*
X126961900Y-104571800D01*
X126961900Y-104845733D01*
X127016037Y-104976431D01*
X127116069Y-105076463D01*
X127246767Y-105130600D01*
X127388233Y-105130600D01*
X127774700Y-105130600D01*
X127863600Y-105041700D01*
X127863600Y-105486200D01*
X127256872Y-105486200D01*
X127144845Y-105532603D01*
X127059103Y-105618344D01*
X127027375Y-105694940D01*
X126952679Y-105664000D01*
X126831422Y-105664000D01*
X126131320Y-105664000D01*
X126131320Y-105580178D01*
X126095127Y-105580178D01*
X126131320Y-105543985D01*
X126131320Y-105462457D01*
X126077183Y-105331759D01*
X125992503Y-105247079D01*
X126034117Y-105205466D01*
X126080520Y-105093439D01*
X126080520Y-104972182D01*
X126080520Y-104573402D01*
X126034117Y-104461375D01*
X125948376Y-104375633D01*
X125836349Y-104329230D01*
X125715092Y-104329230D01*
X125526800Y-104329230D01*
X125526800Y-104322800D01*
X125610628Y-104322800D01*
X125722655Y-104276397D01*
X125808397Y-104190656D01*
X125854800Y-104078629D01*
X125854800Y-103957372D01*
X125854800Y-102209600D01*
X129118847Y-102209600D01*
X129051603Y-102276844D01*
X129005200Y-102388871D01*
X129005200Y-102510128D01*
X129005200Y-103673806D01*
X128915931Y-103584537D01*
X128785233Y-103530400D01*
X128643767Y-103530400D01*
X128257300Y-103530400D01*
X128168400Y-103619300D01*
X128168400Y-104178100D01*
X128188400Y-104178100D01*
X128188400Y-104482900D01*
X128168400Y-104482900D01*
X128168400Y-105041700D01*
X128257300Y-105130600D01*
X128643767Y-105130600D01*
X128785233Y-105130600D01*
X128915931Y-105076463D01*
X129005200Y-104987194D01*
X129005200Y-105510128D01*
X129051603Y-105622155D01*
X129137344Y-105707897D01*
X129249371Y-105754300D01*
X129370628Y-105754300D01*
X129382005Y-105754300D01*
G36*
X131118847Y-102209600D02*
X131051603Y-102276844D01*
X131005200Y-102388871D01*
X131005200Y-102510128D01*
X131005200Y-104134662D01*
X131000181Y-104139681D01*
X130905202Y-104281827D01*
X130871850Y-104449500D01*
X130871850Y-105778816D01*
X130865200Y-105794871D01*
X130865200Y-105916128D01*
X130865200Y-106716128D01*
X130880000Y-106751858D01*
X130880000Y-106922200D01*
X130962400Y-107004600D01*
X130962400Y-107353100D01*
X130982400Y-107353100D01*
X130982400Y-107657900D01*
X130962400Y-107657900D01*
X130962400Y-107677900D01*
X130657600Y-107677900D01*
X130657600Y-107657900D01*
X130637600Y-107657900D01*
X130637600Y-107353100D01*
X130657600Y-107353100D01*
X130657600Y-107004600D01*
X130740000Y-106922200D01*
X130740000Y-106751859D01*
X130754800Y-106716129D01*
X130754800Y-106594872D01*
X130754800Y-105794872D01*
X130748150Y-105778817D01*
X130748150Y-104449500D01*
X130714798Y-104281827D01*
X130619819Y-104139681D01*
X130614800Y-104134662D01*
X130614800Y-102388872D01*
X130568397Y-102276845D01*
X130501152Y-102209600D01*
X131118847Y-102209600D01*
X131118847Y-102209600D01*
G37*
X131118847Y-102209600D02*
X131051603Y-102276844D01*
X131005200Y-102388871D01*
X131005200Y-102510128D01*
X131005200Y-104134662D01*
X131000181Y-104139681D01*
X130905202Y-104281827D01*
X130871850Y-104449500D01*
X130871850Y-105778816D01*
X130865200Y-105794871D01*
X130865200Y-105916128D01*
X130865200Y-106716128D01*
X130880000Y-106751858D01*
X130880000Y-106922200D01*
X130962400Y-107004600D01*
X130962400Y-107353100D01*
X130982400Y-107353100D01*
X130982400Y-107657900D01*
X130962400Y-107657900D01*
X130962400Y-107677900D01*
X130657600Y-107677900D01*
X130657600Y-107657900D01*
X130637600Y-107657900D01*
X130637600Y-107353100D01*
X130657600Y-107353100D01*
X130657600Y-107004600D01*
X130740000Y-106922200D01*
X130740000Y-106751859D01*
X130754800Y-106716129D01*
X130754800Y-106594872D01*
X130754800Y-105794872D01*
X130748150Y-105778817D01*
X130748150Y-104449500D01*
X130714798Y-104281827D01*
X130619819Y-104139681D01*
X130614800Y-104134662D01*
X130614800Y-102388872D01*
X130568397Y-102276845D01*
X130501152Y-102209600D01*
X131118847Y-102209600D01*
G36*
X131365200Y-108927900D02*
X131254800Y-108927900D01*
X131254800Y-108583100D01*
X131365200Y-108583100D01*
X131365200Y-108927900D01*
X131365200Y-108927900D01*
G37*
X131365200Y-108927900D02*
X131254800Y-108927900D01*
X131254800Y-108583100D01*
X131365200Y-108583100D01*
X131365200Y-108927900D01*
G36*
X139090400Y-113467423D02*
X139011732Y-113277033D01*
X138818982Y-113083946D01*
X138567013Y-112979319D01*
X138475654Y-112979239D01*
X138477463Y-112977431D01*
X138531600Y-112846733D01*
X138531600Y-112705267D01*
X138531600Y-112001300D01*
X138531600Y-111518700D01*
X138531600Y-110814733D01*
X138531600Y-110673267D01*
X138477463Y-110542569D01*
X138377431Y-110442537D01*
X138246733Y-110388400D01*
X137466070Y-110388400D01*
X137466070Y-109145953D01*
X137466070Y-109014260D01*
X137466070Y-108536740D01*
X137466070Y-108405047D01*
X137411933Y-108274349D01*
X137311901Y-108174317D01*
X137181203Y-108120180D01*
X137099675Y-108120180D01*
X137010775Y-108209080D01*
X137010775Y-108625640D01*
X137377170Y-108625640D01*
X137466070Y-108536740D01*
X137466070Y-109014260D01*
X137377170Y-108925360D01*
X137010775Y-108925360D01*
X137010775Y-109341920D01*
X137099675Y-109430820D01*
X137181203Y-109430820D01*
X137311901Y-109376683D01*
X137411933Y-109276651D01*
X137466070Y-109145953D01*
X137466070Y-110388400D01*
X137401300Y-110388400D01*
X137312400Y-110477300D01*
X137312400Y-111607600D01*
X138442700Y-111607600D01*
X138531600Y-111518700D01*
X138531600Y-112001300D01*
X138442700Y-111912400D01*
X137312400Y-111912400D01*
X137312400Y-111932400D01*
X137007600Y-111932400D01*
X137007600Y-111912400D01*
X136987600Y-111912400D01*
X136987600Y-111607600D01*
X137007600Y-111607600D01*
X137007600Y-110477300D01*
X136918700Y-110388400D01*
X136073267Y-110388400D01*
X135942569Y-110442537D01*
X135842537Y-110542569D01*
X135788400Y-110673267D01*
X135788400Y-110814733D01*
X135788400Y-111138211D01*
X135579823Y-110826053D01*
X135151324Y-110539740D01*
X135026400Y-110514891D01*
X135026400Y-109202194D01*
X135092375Y-109174867D01*
X135143762Y-109123480D01*
X135507730Y-109123480D01*
X135507730Y-109135848D01*
X135554133Y-109247875D01*
X135639874Y-109333617D01*
X135751901Y-109380020D01*
X135873158Y-109380020D01*
X136271938Y-109380020D01*
X136383965Y-109333617D01*
X136425579Y-109292003D01*
X136510259Y-109376683D01*
X136640957Y-109430820D01*
X136722485Y-109430820D01*
X136811385Y-109341920D01*
X136811385Y-108925360D01*
X136738680Y-108925360D01*
X136738680Y-108625640D01*
X136811385Y-108625640D01*
X136811385Y-108209080D01*
X136722485Y-108120180D01*
X136640957Y-108120180D01*
X136510259Y-108174317D01*
X136425579Y-108258996D01*
X136383966Y-108217383D01*
X136271939Y-108170980D01*
X136150682Y-108170980D01*
X135751902Y-108170980D01*
X135639875Y-108217383D01*
X135554133Y-108303124D01*
X135551003Y-108310680D01*
X135143762Y-108310680D01*
X135100582Y-108267499D01*
X135178117Y-108189966D01*
X135224520Y-108077939D01*
X135224520Y-107956682D01*
X135224520Y-107557902D01*
X135178117Y-107445875D01*
X135092376Y-107360133D01*
X134980349Y-107313730D01*
X134859092Y-107313730D01*
X134404100Y-107313730D01*
X134404100Y-103512233D01*
X134404100Y-103238300D01*
X134315200Y-103149400D01*
X133502400Y-103149400D01*
X133502400Y-103708200D01*
X133591300Y-103797100D01*
X133977767Y-103797100D01*
X134119233Y-103797100D01*
X134249931Y-103742963D01*
X134349963Y-103642931D01*
X134404100Y-103512233D01*
X134404100Y-107313730D01*
X134259652Y-107313730D01*
X134147625Y-107360133D01*
X134096237Y-107411520D01*
X134082523Y-107411520D01*
X134100570Y-107367953D01*
X134100570Y-107236260D01*
X134100570Y-106758740D01*
X134100570Y-106627047D01*
X134046433Y-106496349D01*
X134039584Y-106489500D01*
X134046433Y-106482651D01*
X134100570Y-106351953D01*
X134100570Y-106220260D01*
X134011670Y-106131360D01*
X133645275Y-106131360D01*
X133645275Y-106431080D01*
X133645275Y-106547920D01*
X133645275Y-106847640D01*
X134011670Y-106847640D01*
X134100570Y-106758740D01*
X134100570Y-107236260D01*
X134011670Y-107147360D01*
X133645275Y-107147360D01*
X133645275Y-107169900D01*
X133445885Y-107169900D01*
X133445885Y-107147360D01*
X133373180Y-107147360D01*
X133373180Y-106847640D01*
X133445885Y-106847640D01*
X133445885Y-106547920D01*
X133445885Y-106431080D01*
X133445885Y-106131360D01*
X133373180Y-106131360D01*
X133373180Y-105831640D01*
X133445885Y-105831640D01*
X133445885Y-105809100D01*
X133645275Y-105809100D01*
X133645275Y-105831640D01*
X134011670Y-105831640D01*
X134100570Y-105742740D01*
X134100570Y-105651300D01*
X134109128Y-105651300D01*
X134221155Y-105604897D01*
X134306897Y-105519156D01*
X134353300Y-105407129D01*
X134353300Y-105285872D01*
X134353300Y-104396872D01*
X134306897Y-104284845D01*
X134221156Y-104199103D01*
X134109129Y-104152700D01*
X133987872Y-104152700D01*
X132614800Y-104152700D01*
X132614800Y-103797100D01*
X132722233Y-103797100D01*
X133108700Y-103797100D01*
X133197600Y-103708200D01*
X133197600Y-103149400D01*
X133177600Y-103149400D01*
X133177600Y-102844600D01*
X133197600Y-102844600D01*
X133197600Y-102824600D01*
X133502400Y-102824600D01*
X133502400Y-102844600D01*
X134315200Y-102844600D01*
X134404100Y-102755700D01*
X134404100Y-102481767D01*
X134349963Y-102351069D01*
X134249931Y-102251037D01*
X134149893Y-102209600D01*
X135927407Y-102209600D01*
X135884427Y-102227359D01*
X135249588Y-102861091D01*
X134905592Y-103689525D01*
X134904810Y-104586540D01*
X135247359Y-105415573D01*
X135881091Y-106050412D01*
X136709525Y-106394408D01*
X137606540Y-106395190D01*
X138435573Y-106052641D01*
X139070412Y-105418909D01*
X139090400Y-105370772D01*
X139090400Y-113467423D01*
X139090400Y-113467423D01*
G37*
X139090400Y-113467423D02*
X139011732Y-113277033D01*
X138818982Y-113083946D01*
X138567013Y-112979319D01*
X138475654Y-112979239D01*
X138477463Y-112977431D01*
X138531600Y-112846733D01*
X138531600Y-112705267D01*
X138531600Y-112001300D01*
X138531600Y-111518700D01*
X138531600Y-110814733D01*
X138531600Y-110673267D01*
X138477463Y-110542569D01*
X138377431Y-110442537D01*
X138246733Y-110388400D01*
X137466070Y-110388400D01*
X137466070Y-109145953D01*
X137466070Y-109014260D01*
X137466070Y-108536740D01*
X137466070Y-108405047D01*
X137411933Y-108274349D01*
X137311901Y-108174317D01*
X137181203Y-108120180D01*
X137099675Y-108120180D01*
X137010775Y-108209080D01*
X137010775Y-108625640D01*
X137377170Y-108625640D01*
X137466070Y-108536740D01*
X137466070Y-109014260D01*
X137377170Y-108925360D01*
X137010775Y-108925360D01*
X137010775Y-109341920D01*
X137099675Y-109430820D01*
X137181203Y-109430820D01*
X137311901Y-109376683D01*
X137411933Y-109276651D01*
X137466070Y-109145953D01*
X137466070Y-110388400D01*
X137401300Y-110388400D01*
X137312400Y-110477300D01*
X137312400Y-111607600D01*
X138442700Y-111607600D01*
X138531600Y-111518700D01*
X138531600Y-112001300D01*
X138442700Y-111912400D01*
X137312400Y-111912400D01*
X137312400Y-111932400D01*
X137007600Y-111932400D01*
X137007600Y-111912400D01*
X136987600Y-111912400D01*
X136987600Y-111607600D01*
X137007600Y-111607600D01*
X137007600Y-110477300D01*
X136918700Y-110388400D01*
X136073267Y-110388400D01*
X135942569Y-110442537D01*
X135842537Y-110542569D01*
X135788400Y-110673267D01*
X135788400Y-110814733D01*
X135788400Y-111138211D01*
X135579823Y-110826053D01*
X135151324Y-110539740D01*
X135026400Y-110514891D01*
X135026400Y-109202194D01*
X135092375Y-109174867D01*
X135143762Y-109123480D01*
X135507730Y-109123480D01*
X135507730Y-109135848D01*
X135554133Y-109247875D01*
X135639874Y-109333617D01*
X135751901Y-109380020D01*
X135873158Y-109380020D01*
X136271938Y-109380020D01*
X136383965Y-109333617D01*
X136425579Y-109292003D01*
X136510259Y-109376683D01*
X136640957Y-109430820D01*
X136722485Y-109430820D01*
X136811385Y-109341920D01*
X136811385Y-108925360D01*
X136738680Y-108925360D01*
X136738680Y-108625640D01*
X136811385Y-108625640D01*
X136811385Y-108209080D01*
X136722485Y-108120180D01*
X136640957Y-108120180D01*
X136510259Y-108174317D01*
X136425579Y-108258996D01*
X136383966Y-108217383D01*
X136271939Y-108170980D01*
X136150682Y-108170980D01*
X135751902Y-108170980D01*
X135639875Y-108217383D01*
X135554133Y-108303124D01*
X135551003Y-108310680D01*
X135143762Y-108310680D01*
X135100582Y-108267499D01*
X135178117Y-108189966D01*
X135224520Y-108077939D01*
X135224520Y-107956682D01*
X135224520Y-107557902D01*
X135178117Y-107445875D01*
X135092376Y-107360133D01*
X134980349Y-107313730D01*
X134859092Y-107313730D01*
X134404100Y-107313730D01*
X134404100Y-103512233D01*
X134404100Y-103238300D01*
X134315200Y-103149400D01*
X133502400Y-103149400D01*
X133502400Y-103708200D01*
X133591300Y-103797100D01*
X133977767Y-103797100D01*
X134119233Y-103797100D01*
X134249931Y-103742963D01*
X134349963Y-103642931D01*
X134404100Y-103512233D01*
X134404100Y-107313730D01*
X134259652Y-107313730D01*
X134147625Y-107360133D01*
X134096237Y-107411520D01*
X134082523Y-107411520D01*
X134100570Y-107367953D01*
X134100570Y-107236260D01*
X134100570Y-106758740D01*
X134100570Y-106627047D01*
X134046433Y-106496349D01*
X134039584Y-106489500D01*
X134046433Y-106482651D01*
X134100570Y-106351953D01*
X134100570Y-106220260D01*
X134011670Y-106131360D01*
X133645275Y-106131360D01*
X133645275Y-106431080D01*
X133645275Y-106547920D01*
X133645275Y-106847640D01*
X134011670Y-106847640D01*
X134100570Y-106758740D01*
X134100570Y-107236260D01*
X134011670Y-107147360D01*
X133645275Y-107147360D01*
X133645275Y-107169900D01*
X133445885Y-107169900D01*
X133445885Y-107147360D01*
X133373180Y-107147360D01*
X133373180Y-106847640D01*
X133445885Y-106847640D01*
X133445885Y-106547920D01*
X133445885Y-106431080D01*
X133445885Y-106131360D01*
X133373180Y-106131360D01*
X133373180Y-105831640D01*
X133445885Y-105831640D01*
X133445885Y-105809100D01*
X133645275Y-105809100D01*
X133645275Y-105831640D01*
X134011670Y-105831640D01*
X134100570Y-105742740D01*
X134100570Y-105651300D01*
X134109128Y-105651300D01*
X134221155Y-105604897D01*
X134306897Y-105519156D01*
X134353300Y-105407129D01*
X134353300Y-105285872D01*
X134353300Y-104396872D01*
X134306897Y-104284845D01*
X134221156Y-104199103D01*
X134109129Y-104152700D01*
X133987872Y-104152700D01*
X132614800Y-104152700D01*
X132614800Y-103797100D01*
X132722233Y-103797100D01*
X133108700Y-103797100D01*
X133197600Y-103708200D01*
X133197600Y-103149400D01*
X133177600Y-103149400D01*
X133177600Y-102844600D01*
X133197600Y-102844600D01*
X133197600Y-102824600D01*
X133502400Y-102824600D01*
X133502400Y-102844600D01*
X134315200Y-102844600D01*
X134404100Y-102755700D01*
X134404100Y-102481767D01*
X134349963Y-102351069D01*
X134249931Y-102251037D01*
X134149893Y-102209600D01*
X135927407Y-102209600D01*
X135884427Y-102227359D01*
X135249588Y-102861091D01*
X134905592Y-103689525D01*
X134904810Y-104586540D01*
X135247359Y-105415573D01*
X135881091Y-106050412D01*
X136709525Y-106394408D01*
X137606540Y-106395190D01*
X138435573Y-106052641D01*
X139070412Y-105418909D01*
X139090400Y-105370772D01*
X139090400Y-113467423D01*
G36*
X139090400Y-123227407D02*
X139072641Y-123184427D01*
X138438909Y-122549588D01*
X137610475Y-122205592D01*
X136713460Y-122204810D01*
X135943304Y-122523031D01*
X135943304Y-122259753D01*
X135943304Y-121580247D01*
X135758753Y-121203372D01*
X135409430Y-120880461D01*
X134963125Y-120715810D01*
X134772400Y-120789700D01*
X134772400Y-121767600D01*
X135892379Y-121767600D01*
X135943304Y-121580247D01*
X135943304Y-122259753D01*
X135892379Y-122072400D01*
X134772400Y-122072400D01*
X134772400Y-123050300D01*
X134963125Y-123124190D01*
X135409430Y-122959539D01*
X135758753Y-122636628D01*
X135943304Y-122259753D01*
X135943304Y-122523031D01*
X135884427Y-122547359D01*
X135249588Y-123181091D01*
X134905592Y-124009525D01*
X134904810Y-124906540D01*
X135247359Y-125735573D01*
X135881091Y-126370412D01*
X135929227Y-126390400D01*
X134467600Y-126390400D01*
X134467600Y-123050300D01*
X134467600Y-122072400D01*
X134467600Y-121767600D01*
X134467600Y-120789700D01*
X134276875Y-120715810D01*
X133830570Y-120880461D01*
X133481247Y-121203372D01*
X133296696Y-121580247D01*
X133347621Y-121767600D01*
X134467600Y-121767600D01*
X134467600Y-122072400D01*
X133347621Y-122072400D01*
X133296696Y-122259753D01*
X133481247Y-122636628D01*
X133830570Y-122959539D01*
X134276875Y-123124190D01*
X134467600Y-123050300D01*
X134467600Y-126390400D01*
X133146985Y-126390400D01*
X133146985Y-124883731D01*
X132990590Y-124505228D01*
X132990590Y-114824450D01*
X132896050Y-114595646D01*
X132721147Y-114420437D01*
X132492508Y-114325498D01*
X132244942Y-114325282D01*
X132016138Y-114419822D01*
X131840929Y-114594725D01*
X131745990Y-114823364D01*
X131745774Y-115070930D01*
X131840314Y-115299734D01*
X131961782Y-115421414D01*
X131961782Y-117259802D01*
X130159023Y-119062560D01*
X129988260Y-119062412D01*
X129759456Y-119156952D01*
X129584247Y-119331855D01*
X129489308Y-119560494D01*
X129489092Y-119808060D01*
X129583632Y-120036864D01*
X129758535Y-120212073D01*
X129987174Y-120307012D01*
X130234740Y-120307228D01*
X130463544Y-120212688D01*
X130638753Y-120037785D01*
X130733692Y-119809146D01*
X130733842Y-119637213D01*
X132655550Y-117715506D01*
X132743647Y-117583661D01*
X132743647Y-117583660D01*
X132774582Y-117428138D01*
X132774582Y-115421296D01*
X132895435Y-115300655D01*
X132990374Y-115072016D01*
X132990590Y-114824450D01*
X132990590Y-124505228D01*
X132984916Y-124491496D01*
X132685083Y-124191138D01*
X132486400Y-124108637D01*
X132486400Y-121060106D01*
X132607253Y-120939465D01*
X132702192Y-120710826D01*
X132702408Y-120463260D01*
X132607868Y-120234456D01*
X132432965Y-120059247D01*
X132204326Y-119964308D01*
X131956760Y-119964092D01*
X131727956Y-120058632D01*
X131552747Y-120233535D01*
X131457808Y-120462174D01*
X131457592Y-120709740D01*
X131552132Y-120938544D01*
X131673600Y-121060224D01*
X131673600Y-124108641D01*
X131476496Y-124190084D01*
X131176138Y-124489917D01*
X131013385Y-124881869D01*
X131013015Y-125306269D01*
X131175084Y-125698504D01*
X131474917Y-125998862D01*
X131866869Y-126161615D01*
X132291269Y-126161985D01*
X132683504Y-125999916D01*
X132983862Y-125700083D01*
X133146615Y-125308131D01*
X133146985Y-124883731D01*
X133146985Y-126390400D01*
X112826985Y-126390400D01*
X112826985Y-124883731D01*
X112664916Y-124491496D01*
X112365083Y-124191138D01*
X111973131Y-124028385D01*
X111548731Y-124028015D01*
X111156496Y-124190084D01*
X110856138Y-124489917D01*
X110693385Y-124881869D01*
X110693015Y-125306269D01*
X110855084Y-125698504D01*
X111154917Y-125998862D01*
X111546869Y-126161615D01*
X111971269Y-126161985D01*
X112363504Y-125999916D01*
X112663862Y-125700083D01*
X112826615Y-125308131D01*
X112826985Y-124883731D01*
X112826985Y-126390400D01*
X110353633Y-126390400D01*
X110353633Y-125210430D01*
X110311513Y-124767821D01*
X110223167Y-124554534D01*
X110062789Y-124467738D01*
X109435526Y-125095000D01*
X110062789Y-125722262D01*
X110223167Y-125635466D01*
X110353633Y-125210430D01*
X110353633Y-126390400D01*
X109847262Y-126390400D01*
X108432600Y-126390400D01*
X108432600Y-125916275D01*
X108523427Y-126007102D01*
X108592738Y-125937790D01*
X108679534Y-126098167D01*
X109104570Y-126228633D01*
X109547179Y-126186513D01*
X109760466Y-126098167D01*
X109847262Y-125937789D01*
X109220000Y-125310526D01*
X109205857Y-125324668D01*
X109042936Y-125161747D01*
X111421084Y-122783600D01*
X118025084Y-122783600D01*
X120497600Y-120311084D01*
X120497600Y-119536113D01*
X120614535Y-119653253D01*
X120843174Y-119748192D01*
X121090740Y-119748408D01*
X121284999Y-119668141D01*
X121284999Y-121467370D01*
X121081510Y-121551451D01*
X120917028Y-121715645D01*
X120827902Y-121930286D01*
X120827699Y-122162695D01*
X120916451Y-122377490D01*
X121080645Y-122541972D01*
X121276829Y-122623434D01*
X119854631Y-124045633D01*
X119790093Y-124110170D01*
X119593131Y-124028385D01*
X119168731Y-124028015D01*
X118776496Y-124190084D01*
X118732408Y-124234094D01*
X118732408Y-123523960D01*
X118637868Y-123295156D01*
X118462965Y-123119947D01*
X118234326Y-123025008D01*
X117986760Y-123024792D01*
X117757956Y-123119332D01*
X117582747Y-123294235D01*
X117487808Y-123522874D01*
X117487592Y-123770440D01*
X117517482Y-123842781D01*
X117250093Y-124110170D01*
X117053131Y-124028385D01*
X116628731Y-124028015D01*
X116236496Y-124190084D01*
X116192408Y-124234094D01*
X116192408Y-123574760D01*
X116097868Y-123345956D01*
X115922965Y-123170747D01*
X115694326Y-123075808D01*
X115446760Y-123075592D01*
X115217956Y-123170132D01*
X115042747Y-123345035D01*
X114947808Y-123573674D01*
X114947592Y-123821240D01*
X114962629Y-123857634D01*
X114710093Y-124110170D01*
X114513131Y-124028385D01*
X114088731Y-124028015D01*
X113696496Y-124190084D01*
X113396138Y-124489917D01*
X113233385Y-124881869D01*
X113233015Y-125306269D01*
X113395084Y-125698504D01*
X113694917Y-125998862D01*
X114086869Y-126161615D01*
X114511269Y-126161985D01*
X114903504Y-125999916D01*
X115203862Y-125700083D01*
X115366615Y-125308131D01*
X115366985Y-124883731D01*
X115284831Y-124684904D01*
X115649366Y-124320369D01*
X115693240Y-124320408D01*
X115922044Y-124225868D01*
X116097253Y-124050965D01*
X116192192Y-123822326D01*
X116192408Y-123574760D01*
X116192408Y-124234094D01*
X115936138Y-124489917D01*
X115773385Y-124881869D01*
X115773015Y-125306269D01*
X115935084Y-125698504D01*
X116234917Y-125998862D01*
X116626869Y-126161615D01*
X117051269Y-126161985D01*
X117443504Y-125999916D01*
X117743862Y-125700083D01*
X117906615Y-125308131D01*
X117906985Y-124883731D01*
X117824831Y-124684904D01*
X118244978Y-124264757D01*
X118462044Y-124175068D01*
X118637253Y-124000165D01*
X118732192Y-123771526D01*
X118732408Y-123523960D01*
X118732408Y-124234094D01*
X118476138Y-124489917D01*
X118313385Y-124881869D01*
X118313015Y-125306269D01*
X118475084Y-125698504D01*
X118774917Y-125998862D01*
X119166869Y-126161615D01*
X119591269Y-126161985D01*
X119983504Y-125999916D01*
X120283862Y-125700083D01*
X120446615Y-125308131D01*
X120446985Y-124883731D01*
X120364831Y-124684904D01*
X120429367Y-124620369D01*
X122406125Y-122643611D01*
X122494222Y-122511766D01*
X122494222Y-122511765D01*
X122525157Y-122356243D01*
X122525157Y-119349579D01*
X122765164Y-119109572D01*
X122853261Y-118977727D01*
X122853261Y-118977726D01*
X122873050Y-118878238D01*
X123065704Y-118958235D01*
X123313270Y-118958451D01*
X123405931Y-118920164D01*
X123405931Y-123034333D01*
X122394631Y-124045633D01*
X122330093Y-124110170D01*
X122133131Y-124028385D01*
X121708731Y-124028015D01*
X121316496Y-124190084D01*
X121016138Y-124489917D01*
X120853385Y-124881869D01*
X120853015Y-125306269D01*
X121015084Y-125698504D01*
X121314917Y-125998862D01*
X121706869Y-126161615D01*
X122131269Y-126161985D01*
X122523504Y-125999916D01*
X122823862Y-125700083D01*
X122986615Y-125308131D01*
X122986985Y-124883731D01*
X122904831Y-124684904D01*
X122969367Y-124620369D01*
X124053600Y-123536136D01*
X124053600Y-124108641D01*
X123856496Y-124190084D01*
X123556138Y-124489917D01*
X123393385Y-124881869D01*
X123393015Y-125306269D01*
X123555084Y-125698504D01*
X123854917Y-125998862D01*
X124246869Y-126161615D01*
X124671269Y-126161985D01*
X125063504Y-125999916D01*
X125363862Y-125700083D01*
X125526615Y-125308131D01*
X125526985Y-124883731D01*
X125453140Y-124705013D01*
X125453140Y-115850670D01*
X125453140Y-115484275D01*
X125036580Y-115484275D01*
X124947680Y-115573175D01*
X124947680Y-115654703D01*
X125001817Y-115785401D01*
X125101849Y-115885433D01*
X125232547Y-115939570D01*
X125364240Y-115939570D01*
X125453140Y-115850670D01*
X125453140Y-124705013D01*
X125364916Y-124491496D01*
X125065083Y-124191138D01*
X124866400Y-124108637D01*
X124866400Y-122520606D01*
X124987253Y-122399965D01*
X125082192Y-122171326D01*
X125082408Y-121923760D01*
X124987868Y-121694956D01*
X124956570Y-121663603D01*
X124956570Y-117210453D01*
X124956570Y-117078760D01*
X124956570Y-116601240D01*
X124956570Y-116469547D01*
X124902433Y-116338849D01*
X124802401Y-116238817D01*
X124671703Y-116184680D01*
X124590175Y-116184680D01*
X124501275Y-116273580D01*
X124501275Y-116690140D01*
X124867670Y-116690140D01*
X124956570Y-116601240D01*
X124956570Y-117078760D01*
X124867670Y-116989860D01*
X124501275Y-116989860D01*
X124501275Y-117406420D01*
X124590175Y-117495320D01*
X124671703Y-117495320D01*
X124802401Y-117441183D01*
X124902433Y-117341151D01*
X124956570Y-117210453D01*
X124956570Y-121663603D01*
X124812965Y-121519747D01*
X124584326Y-121424808D01*
X124336760Y-121424592D01*
X124218731Y-121473360D01*
X124218731Y-118037338D01*
X124187796Y-117881816D01*
X124187796Y-117881815D01*
X124099699Y-117749970D01*
X123784931Y-117435202D01*
X123874465Y-117398117D01*
X123916079Y-117356503D01*
X124000759Y-117441183D01*
X124131457Y-117495320D01*
X124212985Y-117495320D01*
X124301885Y-117406420D01*
X124301885Y-116989860D01*
X124229180Y-116989860D01*
X124229180Y-116690140D01*
X124301885Y-116690140D01*
X124301885Y-116273580D01*
X124275632Y-116247327D01*
X124325951Y-116126146D01*
X124326114Y-115938305D01*
X124443560Y-115938408D01*
X124672364Y-115843868D01*
X124847573Y-115668965D01*
X124942512Y-115440326D01*
X124942728Y-115192760D01*
X124848188Y-114963956D01*
X124673285Y-114788747D01*
X124505558Y-114719101D01*
X124998480Y-114719101D01*
X124998480Y-114745438D01*
X125044883Y-114857465D01*
X125086496Y-114899079D01*
X125001817Y-114983759D01*
X124947680Y-115114457D01*
X124947680Y-115195985D01*
X125036580Y-115284885D01*
X125453140Y-115284885D01*
X125453140Y-115212180D01*
X125752860Y-115212180D01*
X125752860Y-115284885D01*
X126169420Y-115284885D01*
X126258320Y-115195985D01*
X126258320Y-115114457D01*
X126204183Y-114983759D01*
X126119503Y-114899079D01*
X126161117Y-114857466D01*
X126207520Y-114745439D01*
X126207520Y-114624182D01*
X126207520Y-114268606D01*
X126301500Y-114287300D01*
X127203200Y-114287300D01*
X127203200Y-114879926D01*
X127060826Y-114820808D01*
X126813260Y-114820592D01*
X126584456Y-114915132D01*
X126409247Y-115090035D01*
X126314308Y-115318674D01*
X126314092Y-115566240D01*
X126408632Y-115795044D01*
X126583535Y-115970253D01*
X126593600Y-115974432D01*
X126593600Y-124108641D01*
X126396496Y-124190084D01*
X126258320Y-124328018D01*
X126258320Y-115654703D01*
X126258320Y-115573175D01*
X126169420Y-115484275D01*
X125752860Y-115484275D01*
X125752860Y-115850670D01*
X125841760Y-115939570D01*
X125973453Y-115939570D01*
X126104151Y-115885433D01*
X126204183Y-115785401D01*
X126258320Y-115654703D01*
X126258320Y-124328018D01*
X126096138Y-124489917D01*
X125933385Y-124881869D01*
X125933015Y-125306269D01*
X126095084Y-125698504D01*
X126394917Y-125998862D01*
X126786869Y-126161615D01*
X127211269Y-126161985D01*
X127603504Y-125999916D01*
X127903862Y-125700083D01*
X128066615Y-125308131D01*
X128066985Y-124883731D01*
X127904916Y-124491496D01*
X127605083Y-124191138D01*
X127406400Y-124108637D01*
X127406400Y-122371893D01*
X127510674Y-122415192D01*
X127758240Y-122415408D01*
X127987044Y-122320868D01*
X128162253Y-122145965D01*
X128257192Y-121917326D01*
X128257408Y-121669760D01*
X128162868Y-121440956D01*
X128130300Y-121408331D01*
X128130300Y-121343988D01*
X128130300Y-116025230D01*
X128156098Y-115986621D01*
X128193800Y-115797078D01*
X128193800Y-113997160D01*
X128828873Y-113362087D01*
X130143182Y-113362087D01*
X130207331Y-113362087D01*
X130239229Y-113394040D01*
X130467868Y-113488979D01*
X130715434Y-113489195D01*
X130898901Y-113413387D01*
X130898901Y-116176363D01*
X130794023Y-116281240D01*
X130623260Y-116281092D01*
X130394456Y-116375632D01*
X130219247Y-116550535D01*
X130162211Y-116687891D01*
X130162408Y-116462760D01*
X130067868Y-116233956D01*
X129892965Y-116058747D01*
X129664326Y-115963808D01*
X129416760Y-115963592D01*
X129187956Y-116058132D01*
X129012747Y-116233035D01*
X128917808Y-116461674D01*
X128917657Y-116633606D01*
X128490633Y-117060631D01*
X128402536Y-117192476D01*
X128371601Y-117347999D01*
X128371601Y-124333001D01*
X128402536Y-124488524D01*
X128490633Y-124620369D01*
X128555170Y-124684906D01*
X128473385Y-124881869D01*
X128473015Y-125306269D01*
X128635084Y-125698504D01*
X128934917Y-125998862D01*
X129326869Y-126161615D01*
X129751269Y-126161985D01*
X130143504Y-125999916D01*
X130443862Y-125700083D01*
X130606615Y-125308131D01*
X130606985Y-124883731D01*
X130444916Y-124491496D01*
X130145083Y-124191138D01*
X129753131Y-124028385D01*
X129328731Y-124028015D01*
X129184401Y-124087651D01*
X129184401Y-117516335D01*
X129492476Y-117208259D01*
X129663240Y-117208408D01*
X129892044Y-117113868D01*
X130067253Y-116938965D01*
X130124288Y-116801608D01*
X130124092Y-117026740D01*
X130218632Y-117255544D01*
X130393535Y-117430753D01*
X130622174Y-117525692D01*
X130869740Y-117525908D01*
X131098544Y-117431368D01*
X131273753Y-117256465D01*
X131368692Y-117027826D01*
X131368842Y-116855893D01*
X131592669Y-116632067D01*
X131680766Y-116500222D01*
X131680766Y-116500221D01*
X131711701Y-116344699D01*
X131711701Y-112699801D01*
X131680766Y-112544279D01*
X131680766Y-112544278D01*
X131592669Y-112412433D01*
X130390900Y-111210664D01*
X130390900Y-110409182D01*
X130480538Y-110319544D01*
X130509061Y-110276856D01*
X130685674Y-110350192D01*
X130933240Y-110350408D01*
X131162044Y-110255868D01*
X131337253Y-110080965D01*
X131432192Y-109852326D01*
X131432408Y-109604760D01*
X131393708Y-109511100D01*
X131462402Y-109511100D01*
X131462402Y-109504602D01*
X131468900Y-109511100D01*
X131520733Y-109511100D01*
X131643374Y-109460300D01*
X131730628Y-109460300D01*
X131983480Y-109460300D01*
X131983480Y-109792438D01*
X132029883Y-109904465D01*
X132071496Y-109946079D01*
X131986817Y-110030759D01*
X131932680Y-110161457D01*
X131932680Y-110242985D01*
X132021580Y-110331885D01*
X132438140Y-110331885D01*
X132438140Y-110259180D01*
X132737860Y-110259180D01*
X132737860Y-110331885D01*
X133154420Y-110331885D01*
X133243320Y-110242985D01*
X133243320Y-110161457D01*
X133189183Y-110030759D01*
X133104503Y-109946079D01*
X133146117Y-109904466D01*
X133192520Y-109792439D01*
X133192520Y-109671182D01*
X133192520Y-109272402D01*
X133146117Y-109160375D01*
X133110492Y-109124750D01*
X133146117Y-109089126D01*
X133192520Y-108977099D01*
X133192520Y-108855842D01*
X133192520Y-108457062D01*
X133153314Y-108362410D01*
X133352674Y-108445192D01*
X133600240Y-108445408D01*
X133829044Y-108350868D01*
X133950724Y-108229400D01*
X134101317Y-108229400D01*
X134139417Y-108267500D01*
X134061883Y-108345034D01*
X134015480Y-108457061D01*
X134015480Y-108578318D01*
X134015480Y-108977098D01*
X134061883Y-109089125D01*
X134147624Y-109174867D01*
X134213600Y-109202195D01*
X134213600Y-110514891D01*
X134088676Y-110539740D01*
X133660177Y-110826053D01*
X133373864Y-111254552D01*
X133354162Y-111353600D01*
X133243320Y-111353600D01*
X133243320Y-110701703D01*
X133243320Y-110620175D01*
X133154420Y-110531275D01*
X132737860Y-110531275D01*
X132737860Y-110897670D01*
X132826760Y-110986570D01*
X132958453Y-110986570D01*
X133089151Y-110932433D01*
X133189183Y-110832401D01*
X133243320Y-110701703D01*
X133243320Y-111353600D01*
X132438140Y-111353600D01*
X132438140Y-110897670D01*
X132438140Y-110531275D01*
X132021580Y-110531275D01*
X131932680Y-110620175D01*
X131932680Y-110701703D01*
X131986817Y-110832401D01*
X132086849Y-110932433D01*
X132217547Y-110986570D01*
X132349240Y-110986570D01*
X132438140Y-110897670D01*
X132438140Y-111353600D01*
X132121336Y-111353600D01*
X131813259Y-111045523D01*
X131813408Y-110874760D01*
X131718868Y-110645956D01*
X131543965Y-110470747D01*
X131315326Y-110375808D01*
X131067760Y-110375592D01*
X130838956Y-110470132D01*
X130663747Y-110645035D01*
X130568808Y-110873674D01*
X130568592Y-111121240D01*
X130663132Y-111350044D01*
X130838035Y-111525253D01*
X131066674Y-111620192D01*
X131238606Y-111620342D01*
X131665632Y-112047368D01*
X131797477Y-112135465D01*
X131797478Y-112135465D01*
X131953000Y-112166400D01*
X133354162Y-112166400D01*
X133373864Y-112265448D01*
X133660177Y-112693947D01*
X134088676Y-112980260D01*
X134213600Y-113005108D01*
X134213600Y-113131600D01*
X133543372Y-113131600D01*
X133431345Y-113178003D01*
X133345603Y-113263744D01*
X133299200Y-113375771D01*
X133299200Y-113497028D01*
X133299200Y-115224228D01*
X133345603Y-115336255D01*
X133431344Y-115421997D01*
X133543371Y-115468400D01*
X133664628Y-115468400D01*
X135340664Y-115468400D01*
X135602632Y-115730368D01*
X135734477Y-115818465D01*
X135890000Y-115849400D01*
X136229664Y-115849400D01*
X136474296Y-116094032D01*
X136474081Y-116340816D01*
X136578268Y-116592967D01*
X136771018Y-116786054D01*
X136900942Y-116840003D01*
X136772033Y-116893268D01*
X136578946Y-117086018D01*
X136474319Y-117337987D01*
X136474081Y-117610816D01*
X136578268Y-117862967D01*
X136771018Y-118056054D01*
X136842870Y-118085889D01*
X136812136Y-118181610D01*
X137160000Y-118529474D01*
X137507864Y-118181610D01*
X137477161Y-118085988D01*
X137547967Y-118056732D01*
X137741054Y-117863982D01*
X137795003Y-117734057D01*
X137848268Y-117862967D01*
X138041018Y-118056054D01*
X138170942Y-118110003D01*
X138042033Y-118163268D01*
X137848946Y-118356018D01*
X137819110Y-118427870D01*
X137723390Y-118397136D01*
X137375526Y-118745000D01*
X137389668Y-118759142D01*
X137174142Y-118974668D01*
X137160000Y-118960526D01*
X137145857Y-118974668D01*
X136930331Y-118759142D01*
X136944474Y-118745000D01*
X136596610Y-118397136D01*
X136475465Y-118436034D01*
X136463300Y-118488550D01*
X136245600Y-118270850D01*
X136245600Y-117906800D01*
X136214665Y-117751278D01*
X136214665Y-117751277D01*
X136126568Y-117619432D01*
X135844302Y-117337166D01*
X135877737Y-117287127D01*
X135966676Y-116840000D01*
X135877737Y-116392873D01*
X135624460Y-116013816D01*
X135245403Y-115760539D01*
X134798276Y-115671600D01*
X134441724Y-115671600D01*
X133994597Y-115760539D01*
X133615540Y-116013816D01*
X133362263Y-116392873D01*
X133273324Y-116840000D01*
X133362263Y-117287127D01*
X133615540Y-117666184D01*
X133994597Y-117919461D01*
X134441724Y-118008400D01*
X134798276Y-118008400D01*
X135245403Y-117919461D01*
X135264418Y-117906754D01*
X135432800Y-118075136D01*
X135432800Y-118425753D01*
X135245403Y-118300539D01*
X134798276Y-118211600D01*
X134441724Y-118211600D01*
X133994597Y-118300539D01*
X133615540Y-118553816D01*
X133362263Y-118932873D01*
X133273324Y-119380000D01*
X133362263Y-119827127D01*
X133615540Y-120206184D01*
X133994597Y-120459461D01*
X134441724Y-120548400D01*
X134798276Y-120548400D01*
X135245403Y-120459461D01*
X135624460Y-120206184D01*
X135650374Y-120167400D01*
X135848664Y-120167400D01*
X135856632Y-120175368D01*
X135988477Y-120263465D01*
X136144000Y-120294400D01*
X138301986Y-120294400D01*
X138457508Y-120263465D01*
X138457509Y-120263465D01*
X138589354Y-120175368D01*
X139090400Y-119674322D01*
X139090400Y-123227407D01*
X139090400Y-123227407D01*
G37*
X139090400Y-123227407D02*
X139072641Y-123184427D01*
X138438909Y-122549588D01*
X137610475Y-122205592D01*
X136713460Y-122204810D01*
X135943304Y-122523031D01*
X135943304Y-122259753D01*
X135943304Y-121580247D01*
X135758753Y-121203372D01*
X135409430Y-120880461D01*
X134963125Y-120715810D01*
X134772400Y-120789700D01*
X134772400Y-121767600D01*
X135892379Y-121767600D01*
X135943304Y-121580247D01*
X135943304Y-122259753D01*
X135892379Y-122072400D01*
X134772400Y-122072400D01*
X134772400Y-123050300D01*
X134963125Y-123124190D01*
X135409430Y-122959539D01*
X135758753Y-122636628D01*
X135943304Y-122259753D01*
X135943304Y-122523031D01*
X135884427Y-122547359D01*
X135249588Y-123181091D01*
X134905592Y-124009525D01*
X134904810Y-124906540D01*
X135247359Y-125735573D01*
X135881091Y-126370412D01*
X135929227Y-126390400D01*
X134467600Y-126390400D01*
X134467600Y-123050300D01*
X134467600Y-122072400D01*
X134467600Y-121767600D01*
X134467600Y-120789700D01*
X134276875Y-120715810D01*
X133830570Y-120880461D01*
X133481247Y-121203372D01*
X133296696Y-121580247D01*
X133347621Y-121767600D01*
X134467600Y-121767600D01*
X134467600Y-122072400D01*
X133347621Y-122072400D01*
X133296696Y-122259753D01*
X133481247Y-122636628D01*
X133830570Y-122959539D01*
X134276875Y-123124190D01*
X134467600Y-123050300D01*
X134467600Y-126390400D01*
X133146985Y-126390400D01*
X133146985Y-124883731D01*
X132990590Y-124505228D01*
X132990590Y-114824450D01*
X132896050Y-114595646D01*
X132721147Y-114420437D01*
X132492508Y-114325498D01*
X132244942Y-114325282D01*
X132016138Y-114419822D01*
X131840929Y-114594725D01*
X131745990Y-114823364D01*
X131745774Y-115070930D01*
X131840314Y-115299734D01*
X131961782Y-115421414D01*
X131961782Y-117259802D01*
X130159023Y-119062560D01*
X129988260Y-119062412D01*
X129759456Y-119156952D01*
X129584247Y-119331855D01*
X129489308Y-119560494D01*
X129489092Y-119808060D01*
X129583632Y-120036864D01*
X129758535Y-120212073D01*
X129987174Y-120307012D01*
X130234740Y-120307228D01*
X130463544Y-120212688D01*
X130638753Y-120037785D01*
X130733692Y-119809146D01*
X130733842Y-119637213D01*
X132655550Y-117715506D01*
X132743647Y-117583661D01*
X132743647Y-117583660D01*
X132774582Y-117428138D01*
X132774582Y-115421296D01*
X132895435Y-115300655D01*
X132990374Y-115072016D01*
X132990590Y-114824450D01*
X132990590Y-124505228D01*
X132984916Y-124491496D01*
X132685083Y-124191138D01*
X132486400Y-124108637D01*
X132486400Y-121060106D01*
X132607253Y-120939465D01*
X132702192Y-120710826D01*
X132702408Y-120463260D01*
X132607868Y-120234456D01*
X132432965Y-120059247D01*
X132204326Y-119964308D01*
X131956760Y-119964092D01*
X131727956Y-120058632D01*
X131552747Y-120233535D01*
X131457808Y-120462174D01*
X131457592Y-120709740D01*
X131552132Y-120938544D01*
X131673600Y-121060224D01*
X131673600Y-124108641D01*
X131476496Y-124190084D01*
X131176138Y-124489917D01*
X131013385Y-124881869D01*
X131013015Y-125306269D01*
X131175084Y-125698504D01*
X131474917Y-125998862D01*
X131866869Y-126161615D01*
X132291269Y-126161985D01*
X132683504Y-125999916D01*
X132983862Y-125700083D01*
X133146615Y-125308131D01*
X133146985Y-124883731D01*
X133146985Y-126390400D01*
X112826985Y-126390400D01*
X112826985Y-124883731D01*
X112664916Y-124491496D01*
X112365083Y-124191138D01*
X111973131Y-124028385D01*
X111548731Y-124028015D01*
X111156496Y-124190084D01*
X110856138Y-124489917D01*
X110693385Y-124881869D01*
X110693015Y-125306269D01*
X110855084Y-125698504D01*
X111154917Y-125998862D01*
X111546869Y-126161615D01*
X111971269Y-126161985D01*
X112363504Y-125999916D01*
X112663862Y-125700083D01*
X112826615Y-125308131D01*
X112826985Y-124883731D01*
X112826985Y-126390400D01*
X110353633Y-126390400D01*
X110353633Y-125210430D01*
X110311513Y-124767821D01*
X110223167Y-124554534D01*
X110062789Y-124467738D01*
X109435526Y-125095000D01*
X110062789Y-125722262D01*
X110223167Y-125635466D01*
X110353633Y-125210430D01*
X110353633Y-126390400D01*
X109847262Y-126390400D01*
X108432600Y-126390400D01*
X108432600Y-125916275D01*
X108523427Y-126007102D01*
X108592738Y-125937790D01*
X108679534Y-126098167D01*
X109104570Y-126228633D01*
X109547179Y-126186513D01*
X109760466Y-126098167D01*
X109847262Y-125937789D01*
X109220000Y-125310526D01*
X109205857Y-125324668D01*
X109042936Y-125161747D01*
X111421084Y-122783600D01*
X118025084Y-122783600D01*
X120497600Y-120311084D01*
X120497600Y-119536113D01*
X120614535Y-119653253D01*
X120843174Y-119748192D01*
X121090740Y-119748408D01*
X121284999Y-119668141D01*
X121284999Y-121467370D01*
X121081510Y-121551451D01*
X120917028Y-121715645D01*
X120827902Y-121930286D01*
X120827699Y-122162695D01*
X120916451Y-122377490D01*
X121080645Y-122541972D01*
X121276829Y-122623434D01*
X119854631Y-124045633D01*
X119790093Y-124110170D01*
X119593131Y-124028385D01*
X119168731Y-124028015D01*
X118776496Y-124190084D01*
X118732408Y-124234094D01*
X118732408Y-123523960D01*
X118637868Y-123295156D01*
X118462965Y-123119947D01*
X118234326Y-123025008D01*
X117986760Y-123024792D01*
X117757956Y-123119332D01*
X117582747Y-123294235D01*
X117487808Y-123522874D01*
X117487592Y-123770440D01*
X117517482Y-123842781D01*
X117250093Y-124110170D01*
X117053131Y-124028385D01*
X116628731Y-124028015D01*
X116236496Y-124190084D01*
X116192408Y-124234094D01*
X116192408Y-123574760D01*
X116097868Y-123345956D01*
X115922965Y-123170747D01*
X115694326Y-123075808D01*
X115446760Y-123075592D01*
X115217956Y-123170132D01*
X115042747Y-123345035D01*
X114947808Y-123573674D01*
X114947592Y-123821240D01*
X114962629Y-123857634D01*
X114710093Y-124110170D01*
X114513131Y-124028385D01*
X114088731Y-124028015D01*
X113696496Y-124190084D01*
X113396138Y-124489917D01*
X113233385Y-124881869D01*
X113233015Y-125306269D01*
X113395084Y-125698504D01*
X113694917Y-125998862D01*
X114086869Y-126161615D01*
X114511269Y-126161985D01*
X114903504Y-125999916D01*
X115203862Y-125700083D01*
X115366615Y-125308131D01*
X115366985Y-124883731D01*
X115284831Y-124684904D01*
X115649366Y-124320369D01*
X115693240Y-124320408D01*
X115922044Y-124225868D01*
X116097253Y-124050965D01*
X116192192Y-123822326D01*
X116192408Y-123574760D01*
X116192408Y-124234094D01*
X115936138Y-124489917D01*
X115773385Y-124881869D01*
X115773015Y-125306269D01*
X115935084Y-125698504D01*
X116234917Y-125998862D01*
X116626869Y-126161615D01*
X117051269Y-126161985D01*
X117443504Y-125999916D01*
X117743862Y-125700083D01*
X117906615Y-125308131D01*
X117906985Y-124883731D01*
X117824831Y-124684904D01*
X118244978Y-124264757D01*
X118462044Y-124175068D01*
X118637253Y-124000165D01*
X118732192Y-123771526D01*
X118732408Y-123523960D01*
X118732408Y-124234094D01*
X118476138Y-124489917D01*
X118313385Y-124881869D01*
X118313015Y-125306269D01*
X118475084Y-125698504D01*
X118774917Y-125998862D01*
X119166869Y-126161615D01*
X119591269Y-126161985D01*
X119983504Y-125999916D01*
X120283862Y-125700083D01*
X120446615Y-125308131D01*
X120446985Y-124883731D01*
X120364831Y-124684904D01*
X120429367Y-124620369D01*
X122406125Y-122643611D01*
X122494222Y-122511766D01*
X122494222Y-122511765D01*
X122525157Y-122356243D01*
X122525157Y-119349579D01*
X122765164Y-119109572D01*
X122853261Y-118977727D01*
X122853261Y-118977726D01*
X122873050Y-118878238D01*
X123065704Y-118958235D01*
X123313270Y-118958451D01*
X123405931Y-118920164D01*
X123405931Y-123034333D01*
X122394631Y-124045633D01*
X122330093Y-124110170D01*
X122133131Y-124028385D01*
X121708731Y-124028015D01*
X121316496Y-124190084D01*
X121016138Y-124489917D01*
X120853385Y-124881869D01*
X120853015Y-125306269D01*
X121015084Y-125698504D01*
X121314917Y-125998862D01*
X121706869Y-126161615D01*
X122131269Y-126161985D01*
X122523504Y-125999916D01*
X122823862Y-125700083D01*
X122986615Y-125308131D01*
X122986985Y-124883731D01*
X122904831Y-124684904D01*
X122969367Y-124620369D01*
X124053600Y-123536136D01*
X124053600Y-124108641D01*
X123856496Y-124190084D01*
X123556138Y-124489917D01*
X123393385Y-124881869D01*
X123393015Y-125306269D01*
X123555084Y-125698504D01*
X123854917Y-125998862D01*
X124246869Y-126161615D01*
X124671269Y-126161985D01*
X125063504Y-125999916D01*
X125363862Y-125700083D01*
X125526615Y-125308131D01*
X125526985Y-124883731D01*
X125453140Y-124705013D01*
X125453140Y-115850670D01*
X125453140Y-115484275D01*
X125036580Y-115484275D01*
X124947680Y-115573175D01*
X124947680Y-115654703D01*
X125001817Y-115785401D01*
X125101849Y-115885433D01*
X125232547Y-115939570D01*
X125364240Y-115939570D01*
X125453140Y-115850670D01*
X125453140Y-124705013D01*
X125364916Y-124491496D01*
X125065083Y-124191138D01*
X124866400Y-124108637D01*
X124866400Y-122520606D01*
X124987253Y-122399965D01*
X125082192Y-122171326D01*
X125082408Y-121923760D01*
X124987868Y-121694956D01*
X124956570Y-121663603D01*
X124956570Y-117210453D01*
X124956570Y-117078760D01*
X124956570Y-116601240D01*
X124956570Y-116469547D01*
X124902433Y-116338849D01*
X124802401Y-116238817D01*
X124671703Y-116184680D01*
X124590175Y-116184680D01*
X124501275Y-116273580D01*
X124501275Y-116690140D01*
X124867670Y-116690140D01*
X124956570Y-116601240D01*
X124956570Y-117078760D01*
X124867670Y-116989860D01*
X124501275Y-116989860D01*
X124501275Y-117406420D01*
X124590175Y-117495320D01*
X124671703Y-117495320D01*
X124802401Y-117441183D01*
X124902433Y-117341151D01*
X124956570Y-117210453D01*
X124956570Y-121663603D01*
X124812965Y-121519747D01*
X124584326Y-121424808D01*
X124336760Y-121424592D01*
X124218731Y-121473360D01*
X124218731Y-118037338D01*
X124187796Y-117881816D01*
X124187796Y-117881815D01*
X124099699Y-117749970D01*
X123784931Y-117435202D01*
X123874465Y-117398117D01*
X123916079Y-117356503D01*
X124000759Y-117441183D01*
X124131457Y-117495320D01*
X124212985Y-117495320D01*
X124301885Y-117406420D01*
X124301885Y-116989860D01*
X124229180Y-116989860D01*
X124229180Y-116690140D01*
X124301885Y-116690140D01*
X124301885Y-116273580D01*
X124275632Y-116247327D01*
X124325951Y-116126146D01*
X124326114Y-115938305D01*
X124443560Y-115938408D01*
X124672364Y-115843868D01*
X124847573Y-115668965D01*
X124942512Y-115440326D01*
X124942728Y-115192760D01*
X124848188Y-114963956D01*
X124673285Y-114788747D01*
X124505558Y-114719101D01*
X124998480Y-114719101D01*
X124998480Y-114745438D01*
X125044883Y-114857465D01*
X125086496Y-114899079D01*
X125001817Y-114983759D01*
X124947680Y-115114457D01*
X124947680Y-115195985D01*
X125036580Y-115284885D01*
X125453140Y-115284885D01*
X125453140Y-115212180D01*
X125752860Y-115212180D01*
X125752860Y-115284885D01*
X126169420Y-115284885D01*
X126258320Y-115195985D01*
X126258320Y-115114457D01*
X126204183Y-114983759D01*
X126119503Y-114899079D01*
X126161117Y-114857466D01*
X126207520Y-114745439D01*
X126207520Y-114624182D01*
X126207520Y-114268606D01*
X126301500Y-114287300D01*
X127203200Y-114287300D01*
X127203200Y-114879926D01*
X127060826Y-114820808D01*
X126813260Y-114820592D01*
X126584456Y-114915132D01*
X126409247Y-115090035D01*
X126314308Y-115318674D01*
X126314092Y-115566240D01*
X126408632Y-115795044D01*
X126583535Y-115970253D01*
X126593600Y-115974432D01*
X126593600Y-124108641D01*
X126396496Y-124190084D01*
X126258320Y-124328018D01*
X126258320Y-115654703D01*
X126258320Y-115573175D01*
X126169420Y-115484275D01*
X125752860Y-115484275D01*
X125752860Y-115850670D01*
X125841760Y-115939570D01*
X125973453Y-115939570D01*
X126104151Y-115885433D01*
X126204183Y-115785401D01*
X126258320Y-115654703D01*
X126258320Y-124328018D01*
X126096138Y-124489917D01*
X125933385Y-124881869D01*
X125933015Y-125306269D01*
X126095084Y-125698504D01*
X126394917Y-125998862D01*
X126786869Y-126161615D01*
X127211269Y-126161985D01*
X127603504Y-125999916D01*
X127903862Y-125700083D01*
X128066615Y-125308131D01*
X128066985Y-124883731D01*
X127904916Y-124491496D01*
X127605083Y-124191138D01*
X127406400Y-124108637D01*
X127406400Y-122371893D01*
X127510674Y-122415192D01*
X127758240Y-122415408D01*
X127987044Y-122320868D01*
X128162253Y-122145965D01*
X128257192Y-121917326D01*
X128257408Y-121669760D01*
X128162868Y-121440956D01*
X128130300Y-121408331D01*
X128130300Y-121343988D01*
X128130300Y-116025230D01*
X128156098Y-115986621D01*
X128193800Y-115797078D01*
X128193800Y-113997160D01*
X128828873Y-113362087D01*
X130143182Y-113362087D01*
X130207331Y-113362087D01*
X130239229Y-113394040D01*
X130467868Y-113488979D01*
X130715434Y-113489195D01*
X130898901Y-113413387D01*
X130898901Y-116176363D01*
X130794023Y-116281240D01*
X130623260Y-116281092D01*
X130394456Y-116375632D01*
X130219247Y-116550535D01*
X130162211Y-116687891D01*
X130162408Y-116462760D01*
X130067868Y-116233956D01*
X129892965Y-116058747D01*
X129664326Y-115963808D01*
X129416760Y-115963592D01*
X129187956Y-116058132D01*
X129012747Y-116233035D01*
X128917808Y-116461674D01*
X128917657Y-116633606D01*
X128490633Y-117060631D01*
X128402536Y-117192476D01*
X128371601Y-117347999D01*
X128371601Y-124333001D01*
X128402536Y-124488524D01*
X128490633Y-124620369D01*
X128555170Y-124684906D01*
X128473385Y-124881869D01*
X128473015Y-125306269D01*
X128635084Y-125698504D01*
X128934917Y-125998862D01*
X129326869Y-126161615D01*
X129751269Y-126161985D01*
X130143504Y-125999916D01*
X130443862Y-125700083D01*
X130606615Y-125308131D01*
X130606985Y-124883731D01*
X130444916Y-124491496D01*
X130145083Y-124191138D01*
X129753131Y-124028385D01*
X129328731Y-124028015D01*
X129184401Y-124087651D01*
X129184401Y-117516335D01*
X129492476Y-117208259D01*
X129663240Y-117208408D01*
X129892044Y-117113868D01*
X130067253Y-116938965D01*
X130124288Y-116801608D01*
X130124092Y-117026740D01*
X130218632Y-117255544D01*
X130393535Y-117430753D01*
X130622174Y-117525692D01*
X130869740Y-117525908D01*
X131098544Y-117431368D01*
X131273753Y-117256465D01*
X131368692Y-117027826D01*
X131368842Y-116855893D01*
X131592669Y-116632067D01*
X131680766Y-116500222D01*
X131680766Y-116500221D01*
X131711701Y-116344699D01*
X131711701Y-112699801D01*
X131680766Y-112544279D01*
X131680766Y-112544278D01*
X131592669Y-112412433D01*
X130390900Y-111210664D01*
X130390900Y-110409182D01*
X130480538Y-110319544D01*
X130509061Y-110276856D01*
X130685674Y-110350192D01*
X130933240Y-110350408D01*
X131162044Y-110255868D01*
X131337253Y-110080965D01*
X131432192Y-109852326D01*
X131432408Y-109604760D01*
X131393708Y-109511100D01*
X131462402Y-109511100D01*
X131462402Y-109504602D01*
X131468900Y-109511100D01*
X131520733Y-109511100D01*
X131643374Y-109460300D01*
X131730628Y-109460300D01*
X131983480Y-109460300D01*
X131983480Y-109792438D01*
X132029883Y-109904465D01*
X132071496Y-109946079D01*
X131986817Y-110030759D01*
X131932680Y-110161457D01*
X131932680Y-110242985D01*
X132021580Y-110331885D01*
X132438140Y-110331885D01*
X132438140Y-110259180D01*
X132737860Y-110259180D01*
X132737860Y-110331885D01*
X133154420Y-110331885D01*
X133243320Y-110242985D01*
X133243320Y-110161457D01*
X133189183Y-110030759D01*
X133104503Y-109946079D01*
X133146117Y-109904466D01*
X133192520Y-109792439D01*
X133192520Y-109671182D01*
X133192520Y-109272402D01*
X133146117Y-109160375D01*
X133110492Y-109124750D01*
X133146117Y-109089126D01*
X133192520Y-108977099D01*
X133192520Y-108855842D01*
X133192520Y-108457062D01*
X133153314Y-108362410D01*
X133352674Y-108445192D01*
X133600240Y-108445408D01*
X133829044Y-108350868D01*
X133950724Y-108229400D01*
X134101317Y-108229400D01*
X134139417Y-108267500D01*
X134061883Y-108345034D01*
X134015480Y-108457061D01*
X134015480Y-108578318D01*
X134015480Y-108977098D01*
X134061883Y-109089125D01*
X134147624Y-109174867D01*
X134213600Y-109202195D01*
X134213600Y-110514891D01*
X134088676Y-110539740D01*
X133660177Y-110826053D01*
X133373864Y-111254552D01*
X133354162Y-111353600D01*
X133243320Y-111353600D01*
X133243320Y-110701703D01*
X133243320Y-110620175D01*
X133154420Y-110531275D01*
X132737860Y-110531275D01*
X132737860Y-110897670D01*
X132826760Y-110986570D01*
X132958453Y-110986570D01*
X133089151Y-110932433D01*
X133189183Y-110832401D01*
X133243320Y-110701703D01*
X133243320Y-111353600D01*
X132438140Y-111353600D01*
X132438140Y-110897670D01*
X132438140Y-110531275D01*
X132021580Y-110531275D01*
X131932680Y-110620175D01*
X131932680Y-110701703D01*
X131986817Y-110832401D01*
X132086849Y-110932433D01*
X132217547Y-110986570D01*
X132349240Y-110986570D01*
X132438140Y-110897670D01*
X132438140Y-111353600D01*
X132121336Y-111353600D01*
X131813259Y-111045523D01*
X131813408Y-110874760D01*
X131718868Y-110645956D01*
X131543965Y-110470747D01*
X131315326Y-110375808D01*
X131067760Y-110375592D01*
X130838956Y-110470132D01*
X130663747Y-110645035D01*
X130568808Y-110873674D01*
X130568592Y-111121240D01*
X130663132Y-111350044D01*
X130838035Y-111525253D01*
X131066674Y-111620192D01*
X131238606Y-111620342D01*
X131665632Y-112047368D01*
X131797477Y-112135465D01*
X131797478Y-112135465D01*
X131953000Y-112166400D01*
X133354162Y-112166400D01*
X133373864Y-112265448D01*
X133660177Y-112693947D01*
X134088676Y-112980260D01*
X134213600Y-113005108D01*
X134213600Y-113131600D01*
X133543372Y-113131600D01*
X133431345Y-113178003D01*
X133345603Y-113263744D01*
X133299200Y-113375771D01*
X133299200Y-113497028D01*
X133299200Y-115224228D01*
X133345603Y-115336255D01*
X133431344Y-115421997D01*
X133543371Y-115468400D01*
X133664628Y-115468400D01*
X135340664Y-115468400D01*
X135602632Y-115730368D01*
X135734477Y-115818465D01*
X135890000Y-115849400D01*
X136229664Y-115849400D01*
X136474296Y-116094032D01*
X136474081Y-116340816D01*
X136578268Y-116592967D01*
X136771018Y-116786054D01*
X136900942Y-116840003D01*
X136772033Y-116893268D01*
X136578946Y-117086018D01*
X136474319Y-117337987D01*
X136474081Y-117610816D01*
X136578268Y-117862967D01*
X136771018Y-118056054D01*
X136842870Y-118085889D01*
X136812136Y-118181610D01*
X137160000Y-118529474D01*
X137507864Y-118181610D01*
X137477161Y-118085988D01*
X137547967Y-118056732D01*
X137741054Y-117863982D01*
X137795003Y-117734057D01*
X137848268Y-117862967D01*
X138041018Y-118056054D01*
X138170942Y-118110003D01*
X138042033Y-118163268D01*
X137848946Y-118356018D01*
X137819110Y-118427870D01*
X137723390Y-118397136D01*
X137375526Y-118745000D01*
X137389668Y-118759142D01*
X137174142Y-118974668D01*
X137160000Y-118960526D01*
X137145857Y-118974668D01*
X136930331Y-118759142D01*
X136944474Y-118745000D01*
X136596610Y-118397136D01*
X136475465Y-118436034D01*
X136463300Y-118488550D01*
X136245600Y-118270850D01*
X136245600Y-117906800D01*
X136214665Y-117751278D01*
X136214665Y-117751277D01*
X136126568Y-117619432D01*
X135844302Y-117337166D01*
X135877737Y-117287127D01*
X135966676Y-116840000D01*
X135877737Y-116392873D01*
X135624460Y-116013816D01*
X135245403Y-115760539D01*
X134798276Y-115671600D01*
X134441724Y-115671600D01*
X133994597Y-115760539D01*
X133615540Y-116013816D01*
X133362263Y-116392873D01*
X133273324Y-116840000D01*
X133362263Y-117287127D01*
X133615540Y-117666184D01*
X133994597Y-117919461D01*
X134441724Y-118008400D01*
X134798276Y-118008400D01*
X135245403Y-117919461D01*
X135264418Y-117906754D01*
X135432800Y-118075136D01*
X135432800Y-118425753D01*
X135245403Y-118300539D01*
X134798276Y-118211600D01*
X134441724Y-118211600D01*
X133994597Y-118300539D01*
X133615540Y-118553816D01*
X133362263Y-118932873D01*
X133273324Y-119380000D01*
X133362263Y-119827127D01*
X133615540Y-120206184D01*
X133994597Y-120459461D01*
X134441724Y-120548400D01*
X134798276Y-120548400D01*
X135245403Y-120459461D01*
X135624460Y-120206184D01*
X135650374Y-120167400D01*
X135848664Y-120167400D01*
X135856632Y-120175368D01*
X135988477Y-120263465D01*
X136144000Y-120294400D01*
X138301986Y-120294400D01*
X138457508Y-120263465D01*
X138457509Y-120263465D01*
X138589354Y-120175368D01*
X139090400Y-119674322D01*
X139090400Y-123227407D01*
M02*
