%FSLAX45Y45*%
G04 Gerber Fmt 4.5, Leading zero omitted, Abs format (unit mm)*
G04 Created by KiCad (PCBNEW (2014-08-29 BZR 5106)-product) date Thu 30 Oct 2014 03:32:49 PM PDT*
%MOMM*%
G01*
G04 APERTURE LIST*
%ADD10C,0.127000*%
%ADD11C,0.100000*%
%ADD12C,0.200000*%
%ADD13C,0.300000*%
G04 APERTURE END LIST*
D10*
D11*
X10414000Y-10160000D02*
X13716000Y-10160000D01*
X10160000Y-10414000D02*
X10160000Y-12446000D01*
X13970000Y-12446000D02*
X13970000Y-10414000D01*
X10414000Y-12700000D02*
X13716000Y-12700000D01*
X10414000Y-10160000D02*
G75*
G03X10160000Y-10414000I0J-254000D01*
G74*
G01*
X13970000Y-10414000D02*
G75*
G03X13716000Y-10160000I-254000J0D01*
G74*
G01*
X13716000Y-12700000D02*
G75*
G03X13970000Y-12446000I0J254000D01*
G74*
G01*
X10160000Y-12446000D02*
G75*
G03X10414000Y-12700000I254000J0D01*
G74*
G01*
D12*
X10229850Y-11233150D02*
X10267950Y-11271250D01*
X10267950Y-11233150D02*
X10229850Y-11271250D01*
X10255250Y-10648950D02*
X10293350Y-10687050D01*
X10293350Y-10648950D02*
X10255250Y-10687050D01*
X10471150Y-11474450D02*
X10509250Y-11512550D01*
X10509250Y-11474450D02*
X10471150Y-11512550D01*
X10483850Y-11233150D02*
X10521950Y-11271250D01*
X10521950Y-11233150D02*
X10483850Y-11271250D01*
X10712450Y-11322050D02*
X10750550Y-11360150D01*
X10750550Y-11322050D02*
X10712450Y-11360150D01*
X10750550Y-11474450D02*
X10788650Y-11512550D01*
X10788650Y-11474450D02*
X10750550Y-11512550D01*
X10979150Y-11474450D02*
X11017250Y-11512550D01*
X11017250Y-11474450D02*
X10979150Y-11512550D01*
X11156950Y-11512550D02*
X11195050Y-11550650D01*
X11195050Y-11512550D02*
X11156950Y-11550650D01*
X11195050Y-11982450D02*
X11233150Y-12020550D01*
X11233150Y-11982450D02*
X11195050Y-12020550D01*
X11195050Y-12185650D02*
X11233150Y-12223750D01*
X11233150Y-12185650D02*
X11195050Y-12223750D01*
X11233150Y-11728450D02*
X11271250Y-11766550D01*
X11271250Y-11728450D02*
X11233150Y-11766550D01*
X11245850Y-11068050D02*
X11283950Y-11106150D01*
X11283950Y-11068050D02*
X11245850Y-11106150D01*
X11256254Y-10658091D02*
X11294354Y-10696191D01*
X11294354Y-10658091D02*
X11256254Y-10696191D01*
X11256987Y-10460403D02*
X11295087Y-10498503D01*
X11295087Y-10460403D02*
X11256987Y-10498503D01*
X11258550Y-11272523D02*
X11296650Y-11310623D01*
X11296650Y-11272523D02*
X11258550Y-11310623D01*
X11264900Y-10750550D02*
X11303000Y-10788650D01*
X11303000Y-10750550D02*
X11264900Y-10788650D01*
X11309350Y-10394950D02*
X11347450Y-10433050D01*
X11347450Y-10394950D02*
X11309350Y-10433050D01*
X11347450Y-11449050D02*
X11385550Y-11487150D01*
X11385550Y-11449050D02*
X11347450Y-11487150D01*
X11347450Y-11817350D02*
X11385550Y-11855450D01*
X11385550Y-11817350D02*
X11347450Y-11855450D01*
X11385550Y-11588750D02*
X11423650Y-11626850D01*
X11423650Y-11588750D02*
X11385550Y-11626850D01*
X11398250Y-10852150D02*
X11436350Y-10890250D01*
X11436350Y-10852150D02*
X11398250Y-10890250D01*
X11410950Y-12185650D02*
X11449050Y-12223750D01*
X11449050Y-12185650D02*
X11410950Y-12223750D01*
X11423650Y-11995150D02*
X11461750Y-12033250D01*
X11461750Y-11995150D02*
X11423650Y-12033250D01*
X11461750Y-11195050D02*
X11499850Y-11233150D01*
X11499850Y-11195050D02*
X11461750Y-11233150D01*
X11461750Y-11728450D02*
X11499850Y-11766550D01*
X11499850Y-11728450D02*
X11461750Y-11766550D01*
X11499850Y-10877550D02*
X11537950Y-10915650D01*
X11537950Y-10877550D02*
X11499850Y-10915650D01*
X11500780Y-10730229D02*
X11538880Y-10768329D01*
X11538880Y-10730229D02*
X11500780Y-10768329D01*
X11502898Y-10228579D02*
X11540998Y-10266679D01*
X11540998Y-10228579D02*
X11502898Y-10266679D01*
X11512550Y-10420350D02*
X11550650Y-10458450D01*
X11550650Y-10420350D02*
X11512550Y-10458450D01*
X11525250Y-11273789D02*
X11563350Y-11311889D01*
X11563350Y-11273789D02*
X11525250Y-11311889D01*
X11537950Y-12350750D02*
X11576050Y-12388850D01*
X11576050Y-12350750D02*
X11537950Y-12388850D01*
X11550650Y-11817350D02*
X11588750Y-11855450D01*
X11588750Y-11817350D02*
X11550650Y-11855450D01*
X11576050Y-11449050D02*
X11614150Y-11487150D01*
X11614150Y-11449050D02*
X11576050Y-11487150D01*
X11614150Y-11995150D02*
X11652250Y-12033250D01*
X11652250Y-11995150D02*
X11614150Y-12033250D01*
X11614150Y-12185650D02*
X11652250Y-12223750D01*
X11652250Y-12185650D02*
X11614150Y-12223750D01*
X11640446Y-11048180D02*
X11678546Y-11086280D01*
X11678546Y-11048180D02*
X11640446Y-11086280D01*
X11647244Y-11273169D02*
X11685344Y-11311269D01*
X11685344Y-11273169D02*
X11647244Y-11311269D01*
X11661636Y-11440812D02*
X11699736Y-11478912D01*
X11699736Y-11440812D02*
X11661636Y-11478912D01*
X11691077Y-11511096D02*
X11729177Y-11549196D01*
X11729177Y-11511096D02*
X11691077Y-11549196D01*
X11703050Y-11753850D02*
X11741150Y-11791950D01*
X11741150Y-11753850D02*
X11703050Y-11791950D01*
X11751909Y-11586809D02*
X11790009Y-11624909D01*
X11790009Y-11586809D02*
X11751909Y-11624909D01*
X11791950Y-12345670D02*
X11830050Y-12383770D01*
X11830050Y-12345670D02*
X11791950Y-12383770D01*
X11842750Y-11893550D02*
X11880850Y-11931650D01*
X11880850Y-11893550D02*
X11842750Y-11931650D01*
X11842750Y-12096750D02*
X11880850Y-12134850D01*
X11880850Y-12096750D02*
X11842750Y-12134850D01*
X11849210Y-10534650D02*
X11887310Y-10572750D01*
X11887310Y-10534650D02*
X11849210Y-10572750D01*
X11868150Y-11715750D02*
X11906250Y-11753850D01*
X11906250Y-11715750D02*
X11868150Y-11753850D01*
X11869134Y-10686162D02*
X11907234Y-10724262D01*
X11907234Y-10686162D02*
X11869134Y-10724262D01*
X11918950Y-10445750D02*
X11957050Y-10483850D01*
X11957050Y-10445750D02*
X11918950Y-10483850D01*
X11918950Y-11360150D02*
X11957050Y-11398250D01*
X11957050Y-11360150D02*
X11918950Y-11398250D01*
X11956604Y-10897046D02*
X11994704Y-10935146D01*
X11994704Y-10897046D02*
X11956604Y-10935146D01*
X12031930Y-10828558D02*
X12070030Y-10866658D01*
X12070030Y-10828558D02*
X12031930Y-10866658D01*
X12045950Y-11245850D02*
X12084050Y-11283950D01*
X12084050Y-11245850D02*
X12045950Y-11283950D01*
X12045950Y-11410950D02*
X12084050Y-11449050D01*
X12084050Y-11410950D02*
X12045950Y-11449050D01*
X12071350Y-11869420D02*
X12109450Y-11907520D01*
X12109450Y-11869420D02*
X12071350Y-11907520D01*
X12071350Y-11982450D02*
X12109450Y-12020550D01*
X12109450Y-11982450D02*
X12071350Y-12020550D01*
X12078973Y-11785600D02*
X12117073Y-11823700D01*
X12117073Y-11785600D02*
X12078973Y-11823700D01*
X12096750Y-11537950D02*
X12134850Y-11576050D01*
X12134850Y-11537950D02*
X12096750Y-11576050D01*
X12098018Y-10880118D02*
X12136118Y-10918218D01*
X12136118Y-10880118D02*
X12098018Y-10918218D01*
X12122150Y-12185650D02*
X12160250Y-12223750D01*
X12160250Y-12185650D02*
X12122150Y-12223750D01*
X12211050Y-11410950D02*
X12249150Y-11449050D01*
X12249150Y-11410950D02*
X12211050Y-11449050D01*
X12223750Y-10445750D02*
X12261850Y-10483850D01*
X12261850Y-10445750D02*
X12223750Y-10483850D01*
X12249150Y-10610850D02*
X12287250Y-10648950D01*
X12287250Y-10610850D02*
X12249150Y-10648950D01*
X12249150Y-10966450D02*
X12287250Y-11004550D01*
X12287250Y-10966450D02*
X12249150Y-11004550D01*
X12261850Y-11982450D02*
X12299950Y-12020550D01*
X12299950Y-11982450D02*
X12261850Y-12020550D01*
X12274550Y-11817350D02*
X12312650Y-11855450D01*
X12312650Y-11817350D02*
X12274550Y-11855450D01*
X12363450Y-10902950D02*
X12401550Y-10941050D01*
X12401550Y-10902950D02*
X12363450Y-10941050D01*
X12382667Y-11235687D02*
X12420767Y-11273787D01*
X12420767Y-11235687D02*
X12382667Y-11273787D01*
X12411710Y-11047730D02*
X12449810Y-11085830D01*
X12449810Y-11047730D02*
X12411710Y-11085830D01*
X12414250Y-10966450D02*
X12452350Y-11004550D01*
X12452350Y-10966450D02*
X12414250Y-11004550D01*
X12426950Y-12185650D02*
X12465050Y-12223750D01*
X12465050Y-12185650D02*
X12426950Y-12223750D01*
X12439650Y-10623550D02*
X12477750Y-10661650D01*
X12477750Y-10623550D02*
X12439650Y-10661650D01*
X12439650Y-11347450D02*
X12477750Y-11385550D01*
X12477750Y-11347450D02*
X12439650Y-11385550D01*
X12450482Y-11474019D02*
X12488582Y-11512119D01*
X12488582Y-11474019D02*
X12450482Y-11512119D01*
X12452350Y-11563350D02*
X12490450Y-11601450D01*
X12490450Y-11563350D02*
X12452350Y-11601450D01*
X12503150Y-12084050D02*
X12541250Y-12122150D01*
X12541250Y-12084050D02*
X12503150Y-12122150D01*
X12515850Y-11664950D02*
X12553950Y-11703050D01*
X12553950Y-11664950D02*
X12515850Y-11703050D01*
X12566650Y-10833100D02*
X12604750Y-10871200D01*
X12604750Y-10833100D02*
X12566650Y-10871200D01*
X12585463Y-10398868D02*
X12623563Y-10436968D01*
X12623563Y-10398868D02*
X12585463Y-10436968D01*
X12636500Y-11442700D02*
X12674600Y-11480800D01*
X12674600Y-11442700D02*
X12636500Y-11480800D01*
X12668250Y-11525250D02*
X12706350Y-11563350D01*
X12706350Y-11525250D02*
X12668250Y-11563350D01*
X12706350Y-10306050D02*
X12744450Y-10344150D01*
X12744450Y-10306050D02*
X12706350Y-10344150D01*
X12711097Y-10708207D02*
X12749197Y-10746307D01*
X12749197Y-10708207D02*
X12711097Y-10746307D01*
X12744450Y-12211050D02*
X12782550Y-12249150D01*
X12782550Y-12211050D02*
X12744450Y-12249150D01*
X12818756Y-11664950D02*
X12856856Y-11703050D01*
X12856856Y-11664950D02*
X12818756Y-11703050D01*
X12833350Y-11360150D02*
X12871450Y-11398250D01*
X12871450Y-11360150D02*
X12833350Y-11398250D01*
X12922250Y-10737850D02*
X12960350Y-10775950D01*
X12960350Y-10737850D02*
X12922250Y-10775950D01*
X12934950Y-11639550D02*
X12973050Y-11677650D01*
X12973050Y-11639550D02*
X12934950Y-11677650D01*
X12985414Y-10210254D02*
X13023514Y-10248354D01*
X13023514Y-10210254D02*
X12985414Y-10248354D01*
X13004800Y-10947400D02*
X13042900Y-10985500D01*
X13042900Y-10947400D02*
X13004800Y-10985500D01*
X13036550Y-10737850D02*
X13074650Y-10775950D01*
X13074650Y-10737850D02*
X13036550Y-10775950D01*
X13055600Y-11132822D02*
X13093700Y-11170922D01*
X13093700Y-11132822D02*
X13055600Y-11170922D01*
X13078385Y-10987538D02*
X13116485Y-11025638D01*
X13116485Y-10987538D02*
X13078385Y-11025638D01*
X13157200Y-11258550D02*
X13195300Y-11296650D01*
X13195300Y-11258550D02*
X13157200Y-11296650D01*
X13188950Y-12096750D02*
X13227050Y-12134850D01*
X13227050Y-12096750D02*
X13188950Y-12134850D01*
X13227050Y-11398250D02*
X13265150Y-11436350D01*
X13265150Y-11398250D02*
X13227050Y-11436350D01*
X13239750Y-10374630D02*
X13277850Y-10412730D01*
X13277850Y-10374630D02*
X13239750Y-10412730D01*
X13252450Y-10763250D02*
X13290550Y-10801350D01*
X13290550Y-10763250D02*
X13252450Y-10801350D01*
X13258800Y-11068050D02*
X13296900Y-11106150D01*
X13296900Y-11068050D02*
X13258800Y-11106150D01*
X13265150Y-11226800D02*
X13303250Y-11264900D01*
X13303250Y-11226800D02*
X13265150Y-11264900D01*
X13341350Y-10585450D02*
X13379450Y-10623550D01*
X13379450Y-10585450D02*
X13341350Y-10623550D01*
X13341350Y-10680700D02*
X13379450Y-10718800D01*
X13379450Y-10680700D02*
X13341350Y-10718800D01*
X13366750Y-10274300D02*
X13404850Y-10312400D01*
X13404850Y-10274300D02*
X13366750Y-10312400D01*
X13404850Y-12515850D02*
X13442950Y-12553950D01*
X13442950Y-12515850D02*
X13404850Y-12553950D01*
X13671550Y-10775950D02*
X13709650Y-10814050D01*
X13709650Y-10775950D02*
X13671550Y-10814050D01*
X13696950Y-11347450D02*
X13735050Y-11385550D01*
X13735050Y-11347450D02*
X13696950Y-11385550D01*
X13696950Y-11474450D02*
X13735050Y-11512550D01*
X13735050Y-11474450D02*
X13696950Y-11512550D01*
X13696950Y-11601450D02*
X13735050Y-11639550D01*
X13735050Y-11601450D02*
X13696950Y-11639550D01*
X13696950Y-11728450D02*
X13735050Y-11766550D01*
X13735050Y-11728450D02*
X13696950Y-11766550D01*
X13696950Y-11855450D02*
X13735050Y-11893550D01*
X13735050Y-11855450D02*
X13696950Y-11893550D01*
X13747750Y-10852150D02*
X13785850Y-10890250D01*
X13785850Y-10852150D02*
X13747750Y-10890250D01*
X13811250Y-12160250D02*
X13849350Y-12198350D01*
X13849350Y-12160250D02*
X13811250Y-12198350D01*
X13823950Y-11347450D02*
X13862050Y-11385550D01*
X13862050Y-11347450D02*
X13823950Y-11385550D01*
X13823950Y-11474450D02*
X13862050Y-11512550D01*
X13862050Y-11474450D02*
X13823950Y-11512550D01*
X13823950Y-11601450D02*
X13862050Y-11639550D01*
X13862050Y-11601450D02*
X13823950Y-11639550D01*
X13823950Y-11728450D02*
X13862050Y-11766550D01*
X13862050Y-11728450D02*
X13823950Y-11766550D01*
X13823950Y-11855450D02*
X13862050Y-11893550D01*
X13862050Y-11855450D02*
X13823950Y-11893550D01*
X10966450Y-12509500D02*
G75*
G03X10966450Y-12509500I-44450J0D01*
G74*
G01*
X11220450Y-12509500D02*
G75*
G03X11220450Y-12509500I-44450J0D01*
G74*
G01*
X11474450Y-12509500D02*
G75*
G03X11474450Y-12509500I-44450J0D01*
G74*
G01*
X11728450Y-12509500D02*
G75*
G03X11728450Y-12509500I-44450J0D01*
G74*
G01*
X11982450Y-12509500D02*
G75*
G03X11982450Y-12509500I-44450J0D01*
G74*
G01*
X12236450Y-12509500D02*
G75*
G03X12236450Y-12509500I-44450J0D01*
G74*
G01*
X12490450Y-12509500D02*
G75*
G03X12490450Y-12509500I-44450J0D01*
G74*
G01*
X12744450Y-12509500D02*
G75*
G03X12744450Y-12509500I-44450J0D01*
G74*
G01*
X12998450Y-12509500D02*
G75*
G03X12998450Y-12509500I-44450J0D01*
G74*
G01*
X13252450Y-12509500D02*
G75*
G03X13252450Y-12509500I-44450J0D01*
G74*
G01*
X10350500Y-10807700D02*
X10350500Y-10909300D01*
X10299700Y-10858500D02*
X10401300Y-10858500D01*
X10350500Y-11061700D02*
X10350500Y-11163300D01*
X10299700Y-11112500D02*
X10401300Y-11112500D01*
X10604500Y-10807700D02*
X10604500Y-10909300D01*
X10553700Y-10858500D02*
X10655300Y-10858500D01*
X10604500Y-11061700D02*
X10604500Y-11163300D01*
X10553700Y-11112500D02*
X10655300Y-11112500D01*
X10858500Y-10306050D02*
X10858500Y-10407650D01*
X10807700Y-10356850D02*
X10909300Y-10356850D01*
X10858500Y-10553700D02*
X10858500Y-10655300D01*
X10807700Y-10604500D02*
X10909300Y-10604500D01*
X10858500Y-10807700D02*
X10858500Y-10909300D01*
X10807700Y-10858500D02*
X10909300Y-10858500D01*
X10858500Y-11061700D02*
X10858500Y-11163300D01*
X10807700Y-11112500D02*
X10909300Y-11112500D01*
X11112500Y-10306050D02*
X11112500Y-10407650D01*
X11061700Y-10356850D02*
X11163300Y-10356850D01*
X11112500Y-10553700D02*
X11112500Y-10655300D01*
X11061700Y-10604500D02*
X11163300Y-10604500D01*
X11112500Y-10807700D02*
X11112500Y-10909300D01*
X11061700Y-10858500D02*
X11163300Y-10858500D01*
X11112500Y-11061700D02*
X11112500Y-11163300D01*
X11061700Y-11112500D02*
X11163300Y-11112500D01*
X13462000Y-11125200D02*
X13462000Y-11226800D01*
X13411200Y-11176000D02*
X13512800Y-11176000D01*
X13462000Y-11379200D02*
X13462000Y-11480800D01*
X13411200Y-11430000D02*
X13512800Y-11430000D01*
X13462000Y-11633200D02*
X13462000Y-11734800D01*
X13411200Y-11684000D02*
X13512800Y-11684000D01*
X13462000Y-11887200D02*
X13462000Y-11988800D01*
X13411200Y-11938000D02*
X13512800Y-11938000D01*
X13462000Y-12141200D02*
X13462000Y-12242800D01*
X13411200Y-12192000D02*
X13512800Y-12192000D01*
X13716000Y-11125200D02*
X13716000Y-11226800D01*
X13665200Y-11176000D02*
X13766800Y-11176000D01*
D13*
X10426429Y-13170714D02*
X10426429Y-12870714D01*
X10497857Y-12870714D01*
X10540714Y-12885000D01*
X10569286Y-12913571D01*
X10583571Y-12942143D01*
X10597857Y-12999286D01*
X10597857Y-13042143D01*
X10583571Y-13099286D01*
X10569286Y-13127857D01*
X10540714Y-13156429D01*
X10497857Y-13170714D01*
X10426429Y-13170714D01*
X10726429Y-13170714D02*
X10726429Y-12970714D01*
X10726429Y-13027857D02*
X10740714Y-12999286D01*
X10755000Y-12985000D01*
X10783571Y-12970714D01*
X10812143Y-12970714D01*
X10912143Y-13170714D02*
X10912143Y-12970714D01*
X10912143Y-12870714D02*
X10897857Y-12885000D01*
X10912143Y-12899286D01*
X10926429Y-12885000D01*
X10912143Y-12870714D01*
X10912143Y-12899286D01*
X11097857Y-13170714D02*
X11069286Y-13156429D01*
X11055000Y-13127857D01*
X11055000Y-12870714D01*
X11255000Y-13170714D02*
X11226428Y-13156429D01*
X11212143Y-13127857D01*
X11212143Y-12870714D01*
X11597857Y-13170714D02*
X11597857Y-12870714D01*
X11697857Y-13085000D01*
X11797857Y-12870714D01*
X11797857Y-13170714D01*
X12069286Y-13170714D02*
X12069286Y-13013571D01*
X12055000Y-12985000D01*
X12026428Y-12970714D01*
X11969286Y-12970714D01*
X11940714Y-12985000D01*
X12069286Y-13156429D02*
X12040714Y-13170714D01*
X11969286Y-13170714D01*
X11940714Y-13156429D01*
X11926428Y-13127857D01*
X11926428Y-13099286D01*
X11940714Y-13070714D01*
X11969286Y-13056429D01*
X12040714Y-13056429D01*
X12069286Y-13042143D01*
X12212143Y-12970714D02*
X12212143Y-13270714D01*
X12212143Y-12985000D02*
X12240714Y-12970714D01*
X12297857Y-12970714D01*
X12326428Y-12985000D01*
X12340714Y-12999286D01*
X12355000Y-13027857D01*
X12355000Y-13113571D01*
X12340714Y-13142143D01*
X12326428Y-13156429D01*
X12297857Y-13170714D01*
X12240714Y-13170714D01*
X12212143Y-13156429D01*
X12483571Y-13142143D02*
X12497857Y-13156429D01*
X12483571Y-13170714D01*
X12469286Y-13156429D01*
X12483571Y-13142143D01*
X12483571Y-13170714D01*
X12483571Y-12985000D02*
X12497857Y-12999286D01*
X12483571Y-13013571D01*
X12469286Y-12999286D01*
X12483571Y-12985000D01*
X12483571Y-13013571D01*
X10116900Y-13645950D02*
X10155000Y-13684050D01*
X10155000Y-13645950D02*
X10116900Y-13684050D01*
X10483571Y-13500714D02*
X10512143Y-13500714D01*
X10540714Y-13515000D01*
X10555000Y-13529286D01*
X10569286Y-13557857D01*
X10583571Y-13615000D01*
X10583571Y-13686429D01*
X10569286Y-13743571D01*
X10555000Y-13772143D01*
X10540714Y-13786429D01*
X10512143Y-13800714D01*
X10483571Y-13800714D01*
X10455000Y-13786429D01*
X10440714Y-13772143D01*
X10426429Y-13743571D01*
X10412143Y-13686429D01*
X10412143Y-13615000D01*
X10426429Y-13557857D01*
X10440714Y-13529286D01*
X10455000Y-13515000D01*
X10483571Y-13500714D01*
X10712143Y-13772143D02*
X10726429Y-13786429D01*
X10712143Y-13800714D01*
X10697857Y-13786429D01*
X10712143Y-13772143D01*
X10712143Y-13800714D01*
X10826428Y-13500714D02*
X11012143Y-13500714D01*
X10912143Y-13615000D01*
X10955000Y-13615000D01*
X10983571Y-13629286D01*
X10997857Y-13643571D01*
X11012143Y-13672143D01*
X11012143Y-13743571D01*
X10997857Y-13772143D01*
X10983571Y-13786429D01*
X10955000Y-13800714D01*
X10869286Y-13800714D01*
X10840714Y-13786429D01*
X10826428Y-13772143D01*
X11183571Y-13629286D02*
X11155000Y-13615000D01*
X11140714Y-13600714D01*
X11126429Y-13572143D01*
X11126429Y-13557857D01*
X11140714Y-13529286D01*
X11155000Y-13515000D01*
X11183571Y-13500714D01*
X11240714Y-13500714D01*
X11269286Y-13515000D01*
X11283571Y-13529286D01*
X11297857Y-13557857D01*
X11297857Y-13572143D01*
X11283571Y-13600714D01*
X11269286Y-13615000D01*
X11240714Y-13629286D01*
X11183571Y-13629286D01*
X11155000Y-13643571D01*
X11140714Y-13657857D01*
X11126429Y-13686429D01*
X11126429Y-13743571D01*
X11140714Y-13772143D01*
X11155000Y-13786429D01*
X11183571Y-13800714D01*
X11240714Y-13800714D01*
X11269286Y-13786429D01*
X11283571Y-13772143D01*
X11297857Y-13743571D01*
X11297857Y-13686429D01*
X11283571Y-13657857D01*
X11269286Y-13643571D01*
X11240714Y-13629286D01*
X11426428Y-13800714D02*
X11426428Y-13600714D01*
X11426428Y-13629286D02*
X11440714Y-13615000D01*
X11469286Y-13600714D01*
X11512143Y-13600714D01*
X11540714Y-13615000D01*
X11555000Y-13643571D01*
X11555000Y-13800714D01*
X11555000Y-13643571D02*
X11569286Y-13615000D01*
X11597857Y-13600714D01*
X11640714Y-13600714D01*
X11669286Y-13615000D01*
X11683571Y-13643571D01*
X11683571Y-13800714D01*
X11826428Y-13800714D02*
X11826428Y-13600714D01*
X11826428Y-13629286D02*
X11840714Y-13615000D01*
X11869286Y-13600714D01*
X11912143Y-13600714D01*
X11940714Y-13615000D01*
X11955000Y-13643571D01*
X11955000Y-13800714D01*
X11955000Y-13643571D02*
X11969286Y-13615000D01*
X11997857Y-13600714D01*
X12040714Y-13600714D01*
X12069286Y-13615000D01*
X12083571Y-13643571D01*
X12083571Y-13800714D01*
X12669286Y-13486429D02*
X12412143Y-13872143D01*
X13055000Y-13500714D02*
X13083571Y-13500714D01*
X13112143Y-13515000D01*
X13126428Y-13529286D01*
X13140714Y-13557857D01*
X13155000Y-13615000D01*
X13155000Y-13686429D01*
X13140714Y-13743571D01*
X13126428Y-13772143D01*
X13112143Y-13786429D01*
X13083571Y-13800714D01*
X13055000Y-13800714D01*
X13026428Y-13786429D01*
X13012143Y-13772143D01*
X12997857Y-13743571D01*
X12983571Y-13686429D01*
X12983571Y-13615000D01*
X12997857Y-13557857D01*
X13012143Y-13529286D01*
X13026428Y-13515000D01*
X13055000Y-13500714D01*
X13283571Y-13772143D02*
X13297857Y-13786429D01*
X13283571Y-13800714D01*
X13269286Y-13786429D01*
X13283571Y-13772143D01*
X13283571Y-13800714D01*
X13483571Y-13500714D02*
X13512143Y-13500714D01*
X13540714Y-13515000D01*
X13555000Y-13529286D01*
X13569285Y-13557857D01*
X13583571Y-13615000D01*
X13583571Y-13686429D01*
X13569285Y-13743571D01*
X13555000Y-13772143D01*
X13540714Y-13786429D01*
X13512143Y-13800714D01*
X13483571Y-13800714D01*
X13455000Y-13786429D01*
X13440714Y-13772143D01*
X13426428Y-13743571D01*
X13412143Y-13686429D01*
X13412143Y-13615000D01*
X13426428Y-13557857D01*
X13440714Y-13529286D01*
X13455000Y-13515000D01*
X13483571Y-13500714D01*
X13869285Y-13800714D02*
X13697857Y-13800714D01*
X13783571Y-13800714D02*
X13783571Y-13500714D01*
X13755000Y-13543571D01*
X13726428Y-13572143D01*
X13697857Y-13586429D01*
X14140714Y-13500714D02*
X13997857Y-13500714D01*
X13983571Y-13643571D01*
X13997857Y-13629286D01*
X14026428Y-13615000D01*
X14097857Y-13615000D01*
X14126428Y-13629286D01*
X14140714Y-13643571D01*
X14155000Y-13672143D01*
X14155000Y-13743571D01*
X14140714Y-13772143D01*
X14126428Y-13786429D01*
X14097857Y-13800714D01*
X14026428Y-13800714D01*
X13997857Y-13786429D01*
X13983571Y-13772143D01*
X14269286Y-13500714D02*
X14269286Y-13557857D01*
X14383571Y-13500714D02*
X14383571Y-13557857D01*
X14826428Y-13915000D02*
X14812143Y-13900714D01*
X14783571Y-13857857D01*
X14769285Y-13829286D01*
X14755000Y-13786429D01*
X14740714Y-13715000D01*
X14740714Y-13657857D01*
X14755000Y-13586429D01*
X14769285Y-13543571D01*
X14783571Y-13515000D01*
X14812143Y-13472143D01*
X14826428Y-13457857D01*
X15097857Y-13800714D02*
X14926428Y-13800714D01*
X15012143Y-13800714D02*
X15012143Y-13500714D01*
X14983571Y-13543571D01*
X14955000Y-13572143D01*
X14926428Y-13586429D01*
X15383571Y-13800714D02*
X15212143Y-13800714D01*
X15297857Y-13800714D02*
X15297857Y-13500714D01*
X15269285Y-13543571D01*
X15240714Y-13572143D01*
X15212143Y-13586429D01*
X15640714Y-13500714D02*
X15583571Y-13500714D01*
X15555000Y-13515000D01*
X15540714Y-13529286D01*
X15512143Y-13572143D01*
X15497857Y-13629286D01*
X15497857Y-13743571D01*
X15512143Y-13772143D01*
X15526428Y-13786429D01*
X15555000Y-13800714D01*
X15612143Y-13800714D01*
X15640714Y-13786429D01*
X15655000Y-13772143D01*
X15669285Y-13743571D01*
X15669285Y-13672143D01*
X15655000Y-13643571D01*
X15640714Y-13629286D01*
X15612143Y-13615000D01*
X15555000Y-13615000D01*
X15526428Y-13629286D01*
X15512143Y-13643571D01*
X15497857Y-13672143D01*
X16026428Y-13800714D02*
X16026428Y-13500714D01*
X16155000Y-13800714D02*
X16155000Y-13643571D01*
X16140714Y-13615000D01*
X16112143Y-13600714D01*
X16069285Y-13600714D01*
X16040714Y-13615000D01*
X16026428Y-13629286D01*
X16340714Y-13800714D02*
X16312143Y-13786429D01*
X16297857Y-13772143D01*
X16283571Y-13743571D01*
X16283571Y-13657857D01*
X16297857Y-13629286D01*
X16312143Y-13615000D01*
X16340714Y-13600714D01*
X16383571Y-13600714D01*
X16412143Y-13615000D01*
X16426428Y-13629286D01*
X16440714Y-13657857D01*
X16440714Y-13743571D01*
X16426428Y-13772143D01*
X16412143Y-13786429D01*
X16383571Y-13800714D01*
X16340714Y-13800714D01*
X16612143Y-13800714D02*
X16583571Y-13786429D01*
X16569286Y-13757857D01*
X16569286Y-13500714D01*
X16840714Y-13786429D02*
X16812143Y-13800714D01*
X16755000Y-13800714D01*
X16726428Y-13786429D01*
X16712143Y-13757857D01*
X16712143Y-13643571D01*
X16726428Y-13615000D01*
X16755000Y-13600714D01*
X16812143Y-13600714D01*
X16840714Y-13615000D01*
X16855000Y-13643571D01*
X16855000Y-13672143D01*
X16712143Y-13700714D01*
X16969286Y-13786429D02*
X16997857Y-13800714D01*
X17055000Y-13800714D01*
X17083571Y-13786429D01*
X17097857Y-13757857D01*
X17097857Y-13743571D01*
X17083571Y-13715000D01*
X17055000Y-13700714D01*
X17012143Y-13700714D01*
X16983571Y-13686429D01*
X16969286Y-13657857D01*
X16969286Y-13643571D01*
X16983571Y-13615000D01*
X17012143Y-13600714D01*
X17055000Y-13600714D01*
X17083571Y-13615000D01*
X17197857Y-13915000D02*
X17212143Y-13900714D01*
X17240714Y-13857857D01*
X17255000Y-13829286D01*
X17269286Y-13786429D01*
X17283571Y-13715000D01*
X17283571Y-13657857D01*
X17269286Y-13586429D01*
X17255000Y-13543571D01*
X17240714Y-13515000D01*
X17212143Y-13472143D01*
X17197857Y-13457857D01*
D12*
X10155000Y-14061000D02*
G75*
G03X10155000Y-14061000I-44450J0D01*
G74*
G01*
D13*
X10483571Y-13896714D02*
X10512143Y-13896714D01*
X10540714Y-13911000D01*
X10555000Y-13925286D01*
X10569286Y-13953857D01*
X10583571Y-14011000D01*
X10583571Y-14082429D01*
X10569286Y-14139571D01*
X10555000Y-14168143D01*
X10540714Y-14182429D01*
X10512143Y-14196714D01*
X10483571Y-14196714D01*
X10455000Y-14182429D01*
X10440714Y-14168143D01*
X10426429Y-14139571D01*
X10412143Y-14082429D01*
X10412143Y-14011000D01*
X10426429Y-13953857D01*
X10440714Y-13925286D01*
X10455000Y-13911000D01*
X10483571Y-13896714D01*
X10712143Y-14168143D02*
X10726429Y-14182429D01*
X10712143Y-14196714D01*
X10697857Y-14182429D01*
X10712143Y-14168143D01*
X10712143Y-14196714D01*
X10897857Y-14025286D02*
X10869286Y-14011000D01*
X10855000Y-13996714D01*
X10840714Y-13968143D01*
X10840714Y-13953857D01*
X10855000Y-13925286D01*
X10869286Y-13911000D01*
X10897857Y-13896714D01*
X10955000Y-13896714D01*
X10983571Y-13911000D01*
X10997857Y-13925286D01*
X11012143Y-13953857D01*
X11012143Y-13968143D01*
X10997857Y-13996714D01*
X10983571Y-14011000D01*
X10955000Y-14025286D01*
X10897857Y-14025286D01*
X10869286Y-14039571D01*
X10855000Y-14053857D01*
X10840714Y-14082429D01*
X10840714Y-14139571D01*
X10855000Y-14168143D01*
X10869286Y-14182429D01*
X10897857Y-14196714D01*
X10955000Y-14196714D01*
X10983571Y-14182429D01*
X10997857Y-14168143D01*
X11012143Y-14139571D01*
X11012143Y-14082429D01*
X10997857Y-14053857D01*
X10983571Y-14039571D01*
X10955000Y-14025286D01*
X11155000Y-14196714D02*
X11212143Y-14196714D01*
X11240714Y-14182429D01*
X11255000Y-14168143D01*
X11283571Y-14125286D01*
X11297857Y-14068143D01*
X11297857Y-13953857D01*
X11283571Y-13925286D01*
X11269286Y-13911000D01*
X11240714Y-13896714D01*
X11183571Y-13896714D01*
X11155000Y-13911000D01*
X11140714Y-13925286D01*
X11126429Y-13953857D01*
X11126429Y-14025286D01*
X11140714Y-14053857D01*
X11155000Y-14068143D01*
X11183571Y-14082429D01*
X11240714Y-14082429D01*
X11269286Y-14068143D01*
X11283571Y-14053857D01*
X11297857Y-14025286D01*
X11426428Y-14196714D02*
X11426428Y-13996714D01*
X11426428Y-14025286D02*
X11440714Y-14011000D01*
X11469286Y-13996714D01*
X11512143Y-13996714D01*
X11540714Y-14011000D01*
X11555000Y-14039571D01*
X11555000Y-14196714D01*
X11555000Y-14039571D02*
X11569286Y-14011000D01*
X11597857Y-13996714D01*
X11640714Y-13996714D01*
X11669286Y-14011000D01*
X11683571Y-14039571D01*
X11683571Y-14196714D01*
X11826428Y-14196714D02*
X11826428Y-13996714D01*
X11826428Y-14025286D02*
X11840714Y-14011000D01*
X11869286Y-13996714D01*
X11912143Y-13996714D01*
X11940714Y-14011000D01*
X11955000Y-14039571D01*
X11955000Y-14196714D01*
X11955000Y-14039571D02*
X11969286Y-14011000D01*
X11997857Y-13996714D01*
X12040714Y-13996714D01*
X12069286Y-14011000D01*
X12083571Y-14039571D01*
X12083571Y-14196714D01*
X12669286Y-13882429D02*
X12412143Y-14268143D01*
X13055000Y-13896714D02*
X13083571Y-13896714D01*
X13112143Y-13911000D01*
X13126428Y-13925286D01*
X13140714Y-13953857D01*
X13155000Y-14011000D01*
X13155000Y-14082429D01*
X13140714Y-14139571D01*
X13126428Y-14168143D01*
X13112143Y-14182429D01*
X13083571Y-14196714D01*
X13055000Y-14196714D01*
X13026428Y-14182429D01*
X13012143Y-14168143D01*
X12997857Y-14139571D01*
X12983571Y-14082429D01*
X12983571Y-14011000D01*
X12997857Y-13953857D01*
X13012143Y-13925286D01*
X13026428Y-13911000D01*
X13055000Y-13896714D01*
X13283571Y-14168143D02*
X13297857Y-14182429D01*
X13283571Y-14196714D01*
X13269286Y-14182429D01*
X13283571Y-14168143D01*
X13283571Y-14196714D01*
X13483571Y-13896714D02*
X13512143Y-13896714D01*
X13540714Y-13911000D01*
X13555000Y-13925286D01*
X13569285Y-13953857D01*
X13583571Y-14011000D01*
X13583571Y-14082429D01*
X13569285Y-14139571D01*
X13555000Y-14168143D01*
X13540714Y-14182429D01*
X13512143Y-14196714D01*
X13483571Y-14196714D01*
X13455000Y-14182429D01*
X13440714Y-14168143D01*
X13426428Y-14139571D01*
X13412143Y-14082429D01*
X13412143Y-14011000D01*
X13426428Y-13953857D01*
X13440714Y-13925286D01*
X13455000Y-13911000D01*
X13483571Y-13896714D01*
X13683571Y-13896714D02*
X13869285Y-13896714D01*
X13769285Y-14011000D01*
X13812143Y-14011000D01*
X13840714Y-14025286D01*
X13855000Y-14039571D01*
X13869285Y-14068143D01*
X13869285Y-14139571D01*
X13855000Y-14168143D01*
X13840714Y-14182429D01*
X13812143Y-14196714D01*
X13726428Y-14196714D01*
X13697857Y-14182429D01*
X13683571Y-14168143D01*
X14140714Y-13896714D02*
X13997857Y-13896714D01*
X13983571Y-14039571D01*
X13997857Y-14025286D01*
X14026428Y-14011000D01*
X14097857Y-14011000D01*
X14126428Y-14025286D01*
X14140714Y-14039571D01*
X14155000Y-14068143D01*
X14155000Y-14139571D01*
X14140714Y-14168143D01*
X14126428Y-14182429D01*
X14097857Y-14196714D01*
X14026428Y-14196714D01*
X13997857Y-14182429D01*
X13983571Y-14168143D01*
X14269286Y-13896714D02*
X14269286Y-13953857D01*
X14383571Y-13896714D02*
X14383571Y-13953857D01*
X14826428Y-14311000D02*
X14812143Y-14296714D01*
X14783571Y-14253857D01*
X14769285Y-14225286D01*
X14755000Y-14182429D01*
X14740714Y-14111000D01*
X14740714Y-14053857D01*
X14755000Y-13982429D01*
X14769285Y-13939571D01*
X14783571Y-13911000D01*
X14812143Y-13868143D01*
X14826428Y-13853857D01*
X15097857Y-14196714D02*
X14926428Y-14196714D01*
X15012143Y-14196714D02*
X15012143Y-13896714D01*
X14983571Y-13939571D01*
X14955000Y-13968143D01*
X14926428Y-13982429D01*
X15283571Y-13896714D02*
X15312143Y-13896714D01*
X15340714Y-13911000D01*
X15355000Y-13925286D01*
X15369285Y-13953857D01*
X15383571Y-14011000D01*
X15383571Y-14082429D01*
X15369285Y-14139571D01*
X15355000Y-14168143D01*
X15340714Y-14182429D01*
X15312143Y-14196714D01*
X15283571Y-14196714D01*
X15255000Y-14182429D01*
X15240714Y-14168143D01*
X15226428Y-14139571D01*
X15212143Y-14082429D01*
X15212143Y-14011000D01*
X15226428Y-13953857D01*
X15240714Y-13925286D01*
X15255000Y-13911000D01*
X15283571Y-13896714D01*
X15740714Y-14196714D02*
X15740714Y-13896714D01*
X15869285Y-14196714D02*
X15869285Y-14039571D01*
X15855000Y-14011000D01*
X15826428Y-13996714D01*
X15783571Y-13996714D01*
X15755000Y-14011000D01*
X15740714Y-14025286D01*
X16055000Y-14196714D02*
X16026428Y-14182429D01*
X16012143Y-14168143D01*
X15997857Y-14139571D01*
X15997857Y-14053857D01*
X16012143Y-14025286D01*
X16026428Y-14011000D01*
X16055000Y-13996714D01*
X16097857Y-13996714D01*
X16126428Y-14011000D01*
X16140714Y-14025286D01*
X16155000Y-14053857D01*
X16155000Y-14139571D01*
X16140714Y-14168143D01*
X16126428Y-14182429D01*
X16097857Y-14196714D01*
X16055000Y-14196714D01*
X16326428Y-14196714D02*
X16297857Y-14182429D01*
X16283571Y-14153857D01*
X16283571Y-13896714D01*
X16555000Y-14182429D02*
X16526428Y-14196714D01*
X16469286Y-14196714D01*
X16440714Y-14182429D01*
X16426428Y-14153857D01*
X16426428Y-14039571D01*
X16440714Y-14011000D01*
X16469286Y-13996714D01*
X16526428Y-13996714D01*
X16555000Y-14011000D01*
X16569286Y-14039571D01*
X16569286Y-14068143D01*
X16426428Y-14096714D01*
X16683571Y-14182429D02*
X16712143Y-14196714D01*
X16769286Y-14196714D01*
X16797857Y-14182429D01*
X16812143Y-14153857D01*
X16812143Y-14139571D01*
X16797857Y-14111000D01*
X16769286Y-14096714D01*
X16726428Y-14096714D01*
X16697857Y-14082429D01*
X16683571Y-14053857D01*
X16683571Y-14039571D01*
X16697857Y-14011000D01*
X16726428Y-13996714D01*
X16769286Y-13996714D01*
X16797857Y-14011000D01*
X16912143Y-14311000D02*
X16926429Y-14296714D01*
X16955000Y-14253857D01*
X16969286Y-14225286D01*
X16983571Y-14182429D01*
X16997857Y-14111000D01*
X16997857Y-14053857D01*
X16983571Y-13982429D01*
X16969286Y-13939571D01*
X16955000Y-13911000D01*
X16926429Y-13868143D01*
X16912143Y-13853857D01*
X10104200Y-14406200D02*
X10104200Y-14507800D01*
X10053400Y-14457000D02*
X10155000Y-14457000D01*
X10583571Y-14592714D02*
X10412143Y-14592714D01*
X10497857Y-14592714D02*
X10497857Y-14292714D01*
X10469286Y-14335571D01*
X10440714Y-14364143D01*
X10412143Y-14378429D01*
X10712143Y-14564143D02*
X10726429Y-14578429D01*
X10712143Y-14592714D01*
X10697857Y-14578429D01*
X10712143Y-14564143D01*
X10712143Y-14592714D01*
X10912143Y-14292714D02*
X10940714Y-14292714D01*
X10969286Y-14307000D01*
X10983571Y-14321286D01*
X10997857Y-14349857D01*
X11012143Y-14407000D01*
X11012143Y-14478429D01*
X10997857Y-14535571D01*
X10983571Y-14564143D01*
X10969286Y-14578429D01*
X10940714Y-14592714D01*
X10912143Y-14592714D01*
X10883571Y-14578429D01*
X10869286Y-14564143D01*
X10855000Y-14535571D01*
X10840714Y-14478429D01*
X10840714Y-14407000D01*
X10855000Y-14349857D01*
X10869286Y-14321286D01*
X10883571Y-14307000D01*
X10912143Y-14292714D01*
X11126429Y-14321286D02*
X11140714Y-14307000D01*
X11169286Y-14292714D01*
X11240714Y-14292714D01*
X11269286Y-14307000D01*
X11283571Y-14321286D01*
X11297857Y-14349857D01*
X11297857Y-14378429D01*
X11283571Y-14421286D01*
X11112143Y-14592714D01*
X11297857Y-14592714D01*
X11426428Y-14592714D02*
X11426428Y-14392714D01*
X11426428Y-14421286D02*
X11440714Y-14407000D01*
X11469286Y-14392714D01*
X11512143Y-14392714D01*
X11540714Y-14407000D01*
X11555000Y-14435571D01*
X11555000Y-14592714D01*
X11555000Y-14435571D02*
X11569286Y-14407000D01*
X11597857Y-14392714D01*
X11640714Y-14392714D01*
X11669286Y-14407000D01*
X11683571Y-14435571D01*
X11683571Y-14592714D01*
X11826428Y-14592714D02*
X11826428Y-14392714D01*
X11826428Y-14421286D02*
X11840714Y-14407000D01*
X11869286Y-14392714D01*
X11912143Y-14392714D01*
X11940714Y-14407000D01*
X11955000Y-14435571D01*
X11955000Y-14592714D01*
X11955000Y-14435571D02*
X11969286Y-14407000D01*
X11997857Y-14392714D01*
X12040714Y-14392714D01*
X12069286Y-14407000D01*
X12083571Y-14435571D01*
X12083571Y-14592714D01*
X12669286Y-14278429D02*
X12412143Y-14664143D01*
X13055000Y-14292714D02*
X13083571Y-14292714D01*
X13112143Y-14307000D01*
X13126428Y-14321286D01*
X13140714Y-14349857D01*
X13155000Y-14407000D01*
X13155000Y-14478429D01*
X13140714Y-14535571D01*
X13126428Y-14564143D01*
X13112143Y-14578429D01*
X13083571Y-14592714D01*
X13055000Y-14592714D01*
X13026428Y-14578429D01*
X13012143Y-14564143D01*
X12997857Y-14535571D01*
X12983571Y-14478429D01*
X12983571Y-14407000D01*
X12997857Y-14349857D01*
X13012143Y-14321286D01*
X13026428Y-14307000D01*
X13055000Y-14292714D01*
X13283571Y-14564143D02*
X13297857Y-14578429D01*
X13283571Y-14592714D01*
X13269286Y-14578429D01*
X13283571Y-14564143D01*
X13283571Y-14592714D01*
X13483571Y-14292714D02*
X13512143Y-14292714D01*
X13540714Y-14307000D01*
X13555000Y-14321286D01*
X13569285Y-14349857D01*
X13583571Y-14407000D01*
X13583571Y-14478429D01*
X13569285Y-14535571D01*
X13555000Y-14564143D01*
X13540714Y-14578429D01*
X13512143Y-14592714D01*
X13483571Y-14592714D01*
X13455000Y-14578429D01*
X13440714Y-14564143D01*
X13426428Y-14535571D01*
X13412143Y-14478429D01*
X13412143Y-14407000D01*
X13426428Y-14349857D01*
X13440714Y-14321286D01*
X13455000Y-14307000D01*
X13483571Y-14292714D01*
X13840714Y-14392714D02*
X13840714Y-14592714D01*
X13769285Y-14278429D02*
X13697857Y-14492714D01*
X13883571Y-14492714D01*
X14055000Y-14292714D02*
X14083571Y-14292714D01*
X14112143Y-14307000D01*
X14126428Y-14321286D01*
X14140714Y-14349857D01*
X14155000Y-14407000D01*
X14155000Y-14478429D01*
X14140714Y-14535571D01*
X14126428Y-14564143D01*
X14112143Y-14578429D01*
X14083571Y-14592714D01*
X14055000Y-14592714D01*
X14026428Y-14578429D01*
X14012143Y-14564143D01*
X13997857Y-14535571D01*
X13983571Y-14478429D01*
X13983571Y-14407000D01*
X13997857Y-14349857D01*
X14012143Y-14321286D01*
X14026428Y-14307000D01*
X14055000Y-14292714D01*
X14269286Y-14292714D02*
X14269286Y-14349857D01*
X14383571Y-14292714D02*
X14383571Y-14349857D01*
X14826428Y-14707000D02*
X14812143Y-14692714D01*
X14783571Y-14649857D01*
X14769285Y-14621286D01*
X14755000Y-14578429D01*
X14740714Y-14507000D01*
X14740714Y-14449857D01*
X14755000Y-14378429D01*
X14769285Y-14335571D01*
X14783571Y-14307000D01*
X14812143Y-14264143D01*
X14826428Y-14249857D01*
X15097857Y-14592714D02*
X14926428Y-14592714D01*
X15012143Y-14592714D02*
X15012143Y-14292714D01*
X14983571Y-14335571D01*
X14955000Y-14364143D01*
X14926428Y-14378429D01*
X15269285Y-14421286D02*
X15240714Y-14407000D01*
X15226428Y-14392714D01*
X15212143Y-14364143D01*
X15212143Y-14349857D01*
X15226428Y-14321286D01*
X15240714Y-14307000D01*
X15269285Y-14292714D01*
X15326428Y-14292714D01*
X15355000Y-14307000D01*
X15369285Y-14321286D01*
X15383571Y-14349857D01*
X15383571Y-14364143D01*
X15369285Y-14392714D01*
X15355000Y-14407000D01*
X15326428Y-14421286D01*
X15269285Y-14421286D01*
X15240714Y-14435571D01*
X15226428Y-14449857D01*
X15212143Y-14478429D01*
X15212143Y-14535571D01*
X15226428Y-14564143D01*
X15240714Y-14578429D01*
X15269285Y-14592714D01*
X15326428Y-14592714D01*
X15355000Y-14578429D01*
X15369285Y-14564143D01*
X15383571Y-14535571D01*
X15383571Y-14478429D01*
X15369285Y-14449857D01*
X15355000Y-14435571D01*
X15326428Y-14421286D01*
X15740714Y-14592714D02*
X15740714Y-14292714D01*
X15869285Y-14592714D02*
X15869285Y-14435571D01*
X15855000Y-14407000D01*
X15826428Y-14392714D01*
X15783571Y-14392714D01*
X15755000Y-14407000D01*
X15740714Y-14421286D01*
X16055000Y-14592714D02*
X16026428Y-14578429D01*
X16012143Y-14564143D01*
X15997857Y-14535571D01*
X15997857Y-14449857D01*
X16012143Y-14421286D01*
X16026428Y-14407000D01*
X16055000Y-14392714D01*
X16097857Y-14392714D01*
X16126428Y-14407000D01*
X16140714Y-14421286D01*
X16155000Y-14449857D01*
X16155000Y-14535571D01*
X16140714Y-14564143D01*
X16126428Y-14578429D01*
X16097857Y-14592714D01*
X16055000Y-14592714D01*
X16326428Y-14592714D02*
X16297857Y-14578429D01*
X16283571Y-14549857D01*
X16283571Y-14292714D01*
X16555000Y-14578429D02*
X16526428Y-14592714D01*
X16469286Y-14592714D01*
X16440714Y-14578429D01*
X16426428Y-14549857D01*
X16426428Y-14435571D01*
X16440714Y-14407000D01*
X16469286Y-14392714D01*
X16526428Y-14392714D01*
X16555000Y-14407000D01*
X16569286Y-14435571D01*
X16569286Y-14464143D01*
X16426428Y-14492714D01*
X16683571Y-14578429D02*
X16712143Y-14592714D01*
X16769286Y-14592714D01*
X16797857Y-14578429D01*
X16812143Y-14549857D01*
X16812143Y-14535571D01*
X16797857Y-14507000D01*
X16769286Y-14492714D01*
X16726428Y-14492714D01*
X16697857Y-14478429D01*
X16683571Y-14449857D01*
X16683571Y-14435571D01*
X16697857Y-14407000D01*
X16726428Y-14392714D01*
X16769286Y-14392714D01*
X16797857Y-14407000D01*
X16912143Y-14707000D02*
X16926429Y-14692714D01*
X16955000Y-14649857D01*
X16969286Y-14621286D01*
X16983571Y-14578429D01*
X16997857Y-14507000D01*
X16997857Y-14449857D01*
X16983571Y-14378429D01*
X16969286Y-14335571D01*
X16955000Y-14307000D01*
X16926429Y-14264143D01*
X16912143Y-14249857D01*
M02*
