M48
;DRILL file {kicad (2014-08-29 BZR 5106)-product} date Tue 04 Nov 2014 06:16:58 PM PST
;FORMAT={-:-/ absolute / inch / decimal}
FMAT,2
INCH,TZ
T1C0.015
T2C0.035
T3C0.040
%
G90
G05
M72
T1
X4.035Y-4.205
X4.245Y-4.38
X4.34Y-4.455
X4.36Y-4.32
X4.38Y-4.395
X4.415Y-4.55
X4.415Y-4.725
X4.415Y-4.805
X4.43Y-4.625
X4.435Y-4.365
X4.4389Y-4.2043
X4.4394Y-4.1258
X4.4425Y-4.24
X4.4627Y-4.4748
X4.475Y-4.66
X4.495Y-4.28
X4.5Y-4.5525
X4.5Y-4.805
X4.505Y-4.73
X4.52Y-4.415
X4.52Y-4.625
X4.5301Y-4.842
X4.535Y-4.29
X4.5354Y-4.232
X4.5362Y-4.0345
X4.54Y-4.11
X4.545Y-4.446
X4.55Y-4.5875
X4.55Y-4.87
X4.555Y-4.66
X4.57Y-4.495
X4.57Y-4.535
X4.58Y-4.73
X4.58Y-4.805
X4.5904Y-4.3572
X4.593Y-4.4458
X4.5987Y-4.5118
X4.6103Y-4.5394
X4.615Y-4.635
X4.6279Y-4.5695
X4.65Y-4.868
X4.6625Y-4.385
X4.67Y-4.69
X4.67Y-4.77
X4.6725Y-4.155
X4.68Y-4.62
X4.6804Y-4.2147
X4.7Y-4.12
X4.7Y-4.48
X4.7111Y-4.3014
X4.75Y-4.435
X4.75Y-4.5
X4.7504Y-4.2507
X4.76Y-4.75
X4.7625Y-4.69
X4.7626Y-4.2848
X4.77Y-4.55
X4.7794Y-4.6603
X4.78Y-4.805
X4.815Y-4.5
X4.8183Y-4.3275
X4.82Y-4.12
X4.825Y-4.296
X4.83Y-4.2
X4.84Y-4.75
X4.85Y-4.6589
X4.865Y-4.27
X4.8702Y-4.567
X4.8867Y-4.4258
X4.89Y-4.36
X4.8945Y-4.54
X4.895Y-4.19
X4.9Y-4.805
X4.9001Y-4.4717
X4.905Y-4.66
X4.93Y-4.75
X4.935Y-4.6
X4.94Y-4.1925
X4.975Y-4.15
X4.9775Y-4.2375
X4.9825Y-4.5125
X4.985Y-4.1075
X4.9888Y-4.3139
X4.9975Y-4.545
X5.0061Y-4.428
X5.025Y-4.795
X5.04Y-4.0625
X5.04Y-4.1445
X5.0404Y-4.3696
X5.0543Y-4.6
X5.0625Y-4.495
X5.0725Y-4.3875
X5.1Y-4.59
X5.101Y-4.3204
X5.1025Y-4.405
X5.1225Y-4.712
X5.125Y-4.235
X5.1414Y-4.4436
X5.145Y-4.79
X5.1475Y-4.6025
X5.1499Y-4.0273
X5.15Y-4.32
X5.1625Y-4.6325
X5.165Y-4.37
X5.17Y-4.235
X5.1883Y-4.3467
X5.2Y-4.7475
X5.2113Y-4.5255
X5.2184Y-4.4266
X5.2225Y-4.6775
X5.25Y-4.092
X5.255Y-4.245
X5.2675Y-4.295
X5.285Y-4.935
X5.29Y-4.175
X5.29Y-4.2125
X5.3Y-4.055
X5.39Y-4.25
X5.4Y-4.475
X5.4Y-4.525
X5.4Y-4.575
X5.4Y-4.625
X5.4Y-4.675
X5.425Y-4.28
X5.445Y-4.795
X5.45Y-4.475
X5.45Y-4.525
X5.45Y-4.575
X5.45Y-4.625
X5.45Y-4.675
T2
X4.3Y-4.925
X4.4Y-4.925
X4.5Y-4.925
X4.6Y-4.925
X4.7Y-4.925
X4.8Y-4.925
X4.9Y-4.925
X5.Y-4.925
X5.1Y-4.925
X5.2Y-4.925
T3
X4.075Y-4.285
X4.175Y-4.285
X4.275Y-4.0775
X4.275Y-4.175
X4.275Y-4.285
X4.375Y-4.0775
X4.375Y-4.175
X5.3Y-4.4
X5.3Y-4.5
X5.3Y-4.6
X5.3Y-4.7
X5.3Y-4.8
X5.4Y-4.4
T0
M30
