M48
;DRILL file {kicad (2014-08-29 BZR 5106)-product} date Thu 30 Oct 2014 03:32:33 PM PDT
;FORMAT={-:-/ absolute / inch / decimal}
FMAT,2
INCH,TZ
T1C0.015
T2C0.035
T3C0.040
%
G90
G05
M72
T1
X4.035Y-4.43
X4.045Y-4.2
X4.13Y-4.525
X4.135Y-4.43
X4.225Y-4.465
X4.24Y-4.525
X4.33Y-4.525
X4.4Y-4.54
X4.415Y-4.725
X4.415Y-4.805
X4.43Y-4.625
X4.435Y-4.365
X4.4391Y-4.2036
X4.4394Y-4.1258
X4.44Y-4.4455
X4.4425Y-4.24
X4.46Y-4.1
X4.475Y-4.515
X4.475Y-4.66
X4.49Y-4.57
X4.495Y-4.28
X4.5Y-4.805
X4.505Y-4.73
X4.52Y-4.415
X4.52Y-4.625
X4.535Y-4.29
X4.5354Y-4.232
X4.5362Y-4.0345
X4.54Y-4.11
X4.545Y-4.446
X4.55Y-4.87
X4.555Y-4.66
X4.565Y-4.515
X4.58Y-4.73
X4.58Y-4.805
X4.5904Y-4.3572
X4.593Y-4.4458
X4.5987Y-4.5118
X4.6103Y-4.5394
X4.615Y-4.635
X4.6342Y-4.5692
X4.65Y-4.868
X4.67Y-4.69
X4.67Y-4.77
X4.6725Y-4.155
X4.68Y-4.62
X4.6804Y-4.2147
X4.7Y-4.12
X4.7Y-4.48
X4.7148Y-4.2977
X4.7445Y-4.2707
X4.75Y-4.435
X4.75Y-4.5
X4.76Y-4.6805
X4.76Y-4.725
X4.763Y-4.6475
X4.77Y-4.55
X4.7705Y-4.291
X4.78Y-4.805
X4.815Y-4.5
X4.82Y-4.12
X4.83Y-4.185
X4.83Y-4.325
X4.835Y-4.725
X4.84Y-4.66
X4.875Y-4.3
X4.8826Y-4.431
X4.894Y-4.357
X4.895Y-4.325
X4.9Y-4.805
X4.905Y-4.19
X4.905Y-4.475
X4.9093Y-4.5248
X4.91Y-4.56
X4.93Y-4.765
X4.935Y-4.6
X4.955Y-4.2725
X4.9624Y-4.1015
X4.9825Y-4.5125
X4.995Y-4.545
X5.01Y-4.065
X5.0119Y-4.2233
X5.025Y-4.815
X5.0543Y-4.6
X5.06Y-4.48
X5.095Y-4.235
X5.1Y-4.59
X5.1199Y-4.0273
X5.1275Y-4.3175
X5.14Y-4.235
X5.1475Y-4.3905
X5.1565Y-4.3333
X5.1875Y-4.44
X5.2Y-4.77
X5.215Y-4.495
X5.22Y-4.092
X5.225Y-4.245
X5.2275Y-4.365
X5.23Y-4.4275
X5.26Y-4.175
X5.26Y-4.2125
X5.27Y-4.0525
X5.285Y-4.935
X5.39Y-4.25
X5.4Y-4.475
X5.4Y-4.525
X5.4Y-4.575
X5.4Y-4.625
X5.4Y-4.675
X5.42Y-4.28
X5.445Y-4.795
X5.45Y-4.475
X5.45Y-4.525
X5.45Y-4.575
X5.45Y-4.625
X5.45Y-4.675
T2
X4.3Y-4.925
X4.4Y-4.925
X4.5Y-4.925
X4.6Y-4.925
X4.7Y-4.925
X4.8Y-4.925
X4.9Y-4.925
X5.Y-4.925
X5.1Y-4.925
X5.2Y-4.925
T3
X4.075Y-4.275
X4.075Y-4.375
X4.175Y-4.275
X4.175Y-4.375
X4.275Y-4.0775
X4.275Y-4.175
X4.275Y-4.275
X4.275Y-4.375
X4.375Y-4.0775
X4.375Y-4.175
X4.375Y-4.275
X4.375Y-4.375
X5.3Y-4.4
X5.3Y-4.5
X5.3Y-4.6
X5.3Y-4.7
X5.3Y-4.8
X5.4Y-4.4
T0
M30
